<svg width="123" height="122" viewBox="0 0 123 122" fill="none" xmlns="http://www.w3.org/2000/svg">
<path d="M41.6563 16.7074C54.1349 15.5418 61.722 32.2443 52.1295 41.2485C51.1852 42.1347 50.138 42.8624 49.0688 43.5868C49.1705 43.837 49.2963 44.0719 49.4219 44.3107C50.0991 44.6402 50.8318 44.8735 51.5383 45.1327L54.8831 46.3325C57.7944 47.3476 59.2822 48.0724 61.3379 50.4569C63.0404 50.4898 64.696 50.8224 66.2415 51.5399C67.2725 52.0186 68.9245 53.3797 68.5259 51.0593C68.111 48.645 66.7991 45.2254 65.1392 43.3556C62.1221 39.957 62.5431 34.7849 66.4311 32.3618C69.4178 30.5004 69.4402 30.1889 70.6711 27.0105C74.8615 16.1915 90.4616 16.0647 95.2105 26.7048C95.7848 27.9917 96.1134 29.4746 97.0391 30.5673C99.2384 33.1632 102.216 32.445 102.472 37.6841C102.684 42.0391 100.424 42.7082 98.8124 46.0932C97.9448 47.9149 97.6948 49.9155 97.2195 51.8547C102.133 55.6371 102.602 59.6927 102.601 65.3102L102.598 70.518C102.596 73.8595 102.707 77.2373 102.586 80.5737C102.431 84.8306 99.7121 85.8297 95.9404 85.6615C95.8822 85.9996 95.8065 86.3099 95.6826 86.6306C95.4307 89.0215 94.8448 91.3996 94.4123 93.7648L93.5178 98.578C92.6206 103.485 92.3755 104.317 86.809 104.309L78.6936 104.309C76.7144 104.308 74.8015 104.428 73.8338 102.27C73.0599 100.544 72.3148 95.2044 71.7603 92.8305C71.2537 92.7911 70.7374 92.6889 70.2479 92.5531L70.2527 98.0126C70.2541 100.915 70.44 104.283 66.4862 104.31L35.2475 104.308C29.9124 104.319 27.9065 104.432 27.9137 98.7382L27.917 83.3407C26.231 83.7579 24.7791 83.8975 23.1934 83.0504C19.5745 81.1175 20.1704 77.1232 20.1726 73.6812L20.1715 60.5302C20.1707 57.6089 20.2442 55.0726 21.695 52.4256C24.0598 48.1105 30.5648 45.6913 35.2556 44.3107C35.269 44.07 35.2587 43.8277 35.2556 43.5868C34.1729 42.6098 32.8928 41.9071 31.8379 40.8611C23.3456 32.4397 29.2655 16.6551 41.6563 16.7074ZM37.5341 44.5778C37.4747 49.4616 42.5682 52.0851 45.5575 48.3519C46.371 47.1126 46.6488 46.053 46.6864 44.5778C43.2638 45.4697 40.9682 45.5397 37.5341 44.5778ZM58.6284 70.8395C58.4249 73.8599 61.6994 75.5596 63.8549 73.2826C64.4451 72.4805 64.4668 71.8017 64.3986 70.8395C62.2057 71.4652 60.8244 71.4304 58.6284 70.8395ZM69.5626 54.4086C70.0707 55.0645 70.4831 55.6974 70.837 56.4528L71.3466 56.0677C71.3662 55.5992 71.9126 55.3345 72.1101 54.9159C72.1015 53.9241 71.2706 53.8438 70.837 53.4833C70.404 53.7807 69.9651 54.0704 69.5626 54.4086Z" fill="#222B3B"/>
<path d="M78.5254 49.7249C78.8685 49.8678 79.2159 49.9967 79.5648 50.1249C79.4945 50.3842 79.0894 50.9449 78.9245 51.217L78.7341 51.2942C78.6217 50.7766 78.5742 50.2512 78.5254 49.7249Z" fill="#FAFAF2"/>
<path d="M71.5772 64.1921C71.7102 64.7185 71.5846 65.4758 71.5822 66.0293L71.5772 70.6183C70.957 70.2106 70.3367 69.812 69.6946 69.4398C69.2904 69.2175 68.867 69.0231 68.4531 68.8191C70.6193 66.5785 70.2938 65.9964 71.5772 64.1921Z" fill="#FAFAF2"/>
<path d="M55.0159 71.3059C55.4015 71.0862 55.7655 70.9452 56.1949 70.8401C56.2245 71.869 56.2921 72.7868 56.7323 73.7347C55.9009 74.0731 55.0648 74.3514 54.2124 74.6323C53.5972 74.0373 53.0813 73.2172 52.625 72.493C53.3849 72.0053 54.1064 71.4603 55.0159 71.3059Z" fill="#FDBA05"/>
<path d="M97.8389 76.6514H100.095C100.096 78.4823 100.657 81.2442 99.2855 82.5924L99.2064 82.6689C98.7194 82.4035 98.3922 82.0835 98.0236 81.6758C97.7071 80.2199 97.8361 78.174 97.8389 76.6514Z" fill="#FAFAF2"/>
<path d="M69.5527 54.4467C70.838 53.1617 74.554 51.2068 76.1576 50.7229C76.2391 51.5709 76.4329 52.347 76.6683 53.1617C75.5893 53.3743 74.1994 54.0865 73.3531 54.7653C72.6702 55.1704 71.4199 56.0273 70.8037 56.5317C70.625 55.9956 70.008 54.8252 69.5527 54.4467Z" fill="#FDBA05"/>
<path d="M95.6825 76.6514H97.838C97.8351 78.174 97.7062 80.2199 98.0226 81.6758C98.3912 82.0835 98.7184 82.4035 99.2055 82.6689C97.9924 83.5375 96.2286 83.6163 95.8316 81.9391C95.5319 80.6731 95.677 78.0305 95.6825 76.6514Z" fill="#FAFAF2"/>
<path d="M66.8778 70.8401C70.3648 72.0098 71.5617 73.5784 73.3522 76.6515C72.4272 76.6711 71.4516 75.3515 70.4902 74.9926C69.096 74.472 67.4726 74.5432 66.0098 74.4536C66.7329 73.2236 66.8814 72.2569 66.8778 70.8401Z" fill="#FDBA05"/>
<path d="M62.6406 97.1765C65.4912 99.2353 64.8221 98.6743 67.8268 99.2736C67.9078 102.945 65.928 101.981 62.6406 101.933C62.6633 100.349 62.6411 98.7611 62.6406 97.1765Z" fill="#FE5D0C"/>
<path d="M56.4297 90.6592H67.8279C67.8376 91.1994 67.8543 91.7398 67.8279 92.2797C65.7269 92.2009 63.5936 92.2797 61.4896 92.2783L58.8018 92.275C58.3488 92.2728 57.8732 92.2354 57.4231 92.2797C56.9875 91.8065 56.7221 91.2251 56.4297 90.6592Z" fill="#FA8419"/>
<path d="M97.8385 60.8679C98.7225 61.4879 99.3692 62.1084 100.095 62.9014V74.1647H97.8385C97.8706 72.3898 97.7498 70.6243 97.7627 68.8565L97.8385 60.8679Z" fill="#FDBA05"/>
<path d="M79.565 50.1249C82.8345 51.0037 84.4119 50.5567 87.5262 49.7249C87.3432 51.4236 87.0254 52.7689 85.6302 53.896C82.9889 56.03 79.6098 54.4647 78.7344 51.2942L78.9248 51.217C79.0897 50.9449 79.4947 50.3842 79.565 50.1249Z" fill="#FAFAF2"/>
<path d="M89.9186 50.5737C95.3851 53.1827 100.507 56.0709 100.093 62.9024C99.3674 62.1094 98.7208 61.4889 97.8367 60.8689C97.6561 57.3271 92.0479 54.2678 89.1719 53.1631C89.5207 52.3175 89.78 51.4797 89.9186 50.5737Z" fill="#FDBA05"/>
<path d="M57.4219 92.2797C57.872 92.2354 58.3476 92.2728 58.8006 92.275L61.4884 92.2783C63.5924 92.2797 65.7257 92.2009 67.8267 92.2797V99.2735C64.8219 98.6743 65.491 99.2352 62.6405 97.1764C62.6314 96.4163 62.8046 95.284 62.2878 94.6611C61.4948 93.7059 60.3844 94.5031 60.3137 95.6307C59.4006 95.0655 58.0083 93.19 57.4219 92.2797Z" fill="#FA8419"/>
<path d="M55.0165 90.6592H56.43C56.7224 91.2251 56.9878 91.8065 57.4234 92.2797C58.0098 93.19 59.4021 95.0655 60.3152 95.6307C60.4024 96.2595 60.3221 96.992 60.3202 97.6346L60.3152 101.933C59.5739 101.933 58.8316 101.928 58.0903 101.94C54.1761 102.005 55.0117 101.192 55.0134 97.7604L55.0165 90.6592Z" fill="#FE5D0C"/>
<path d="M73.6016 39.025C74.7932 39.0302 75.937 39.0252 77.0972 38.7112C78.1654 43.1792 82.7487 46.4165 87.3147 45.5265C88.0559 45.3819 88.7479 45.1512 89.5095 45.2718C88.203 46.2242 87.3206 47.1964 85.7234 47.7327C80.715 49.415 76.0482 46.2418 74.3362 41.5208C74.0412 40.707 73.8732 39.849 73.6016 39.025Z" fill="#7676E8"/>
<path d="M69.5629 61.0484C69.9873 66.8601 62.2065 71.3931 56.8802 67.2385C53.6548 64.7227 52.7262 59.6895 55.3058 56.4536C55.4943 57.0574 55.2972 57.6715 55.3861 58.2827C56.4739 65.7637 65.2626 68.6529 68.783 62.5729C69.068 62.0809 69.2631 61.5278 69.5629 61.0484Z" fill="#7676E8"/>
<path d="M75.917 79.3127H78.9405C76.632 81.6057 77.0149 83.5804 77.2937 86.4969C77.6378 90.0945 78.2397 93.6966 79.2465 97.1705C79.6203 97.8741 80.3352 99.006 80.3947 99.006C80.3883 100.239 80.5015 100.818 81.0359 101.933C80.3845 101.932 76.7223 102.058 76.3563 101.836C75.4971 101.315 74.726 94.2384 73.9297 92.2795C76.2982 90.7686 75.9184 88.2786 75.9189 85.8014L75.917 79.3127Z" fill="#7FDACE"/>
<path d="M67.5347 42.2676C65.9494 40.7557 65.1164 39.2236 65.7128 37.0459C66.2633 35.0365 67.5188 34.5606 69.0974 33.471C71.3217 31.9357 71.8667 30.2413 72.8274 27.8502C76.2613 19.3051 88.5387 18.9106 92.7439 27.0302C93.7378 28.9491 93.8164 30.3049 95.3066 32.1402C97.1035 34.3528 99.8423 34.0278 100.102 37.4796C100.237 39.2805 99.6324 40.7231 98.4684 42.0794C98.3126 41.67 98.5015 41.2201 98.5759 40.8098C99.4763 35.8421 95.4737 36.053 93.2188 32.9827C92.0288 31.3622 91.6583 29.5977 90.7254 27.9016C87.4052 21.865 78.7892 21.8217 75.3225 27.6402C74.2369 29.4621 73.8885 31.5766 72.5189 33.257C71.5228 34.4794 70.3722 35.0022 69.1098 35.8516C66.426 37.6578 67.4897 39.8219 67.5347 42.2676Z" fill="#FA8419"/>
<path d="M31.9619 24.7812C31.9619 26.6217 32.7363 28.4746 32.93 29.3925C35.4215 36.7847 44.4288 41.2801 51.2582 36.7663C51.745 36.4447 52.4095 35.839 52.9497 35.6722L52.8749 35.9807C52.5182 37.4521 51.1736 38.8558 50.0858 39.8373C41.9997 47.1352 29.5817 40.7962 30.2866 29.4988C30.395 27.7598 31.2552 25.6984 31.9619 24.7812Z" fill="#7676E8"/>
<path d="M77.0977 38.7111C80.3145 37.5771 82.6453 35.5707 84.5509 32.7192C86.6206 35.6656 88.6371 37.6743 92.1701 38.7111C91.8744 41.7866 91.2182 42.7933 89.51 45.2717C88.7484 45.1511 88.0565 45.3817 87.3152 45.5264C82.7492 46.4164 78.1659 43.1791 77.0977 38.7111Z" fill="#FAFAF2"/>
<path d="M52.6247 72.4929C53.0811 73.2171 53.5969 74.0372 54.2122 74.6322C55.0955 74.9236 56.2009 76.0729 56.6267 76.908C58.1159 79.8306 55.5125 84.204 61.3487 86.1417C63.3555 86.8077 65.4605 86.5801 67.535 86.6311V88.2717H55.3054L55.3018 81.7947C55.3011 80.7429 55.8165 77.8416 54.0802 77.8626C53.6536 77.8678 53.2269 78.1576 53.0753 78.5596C52.3762 80.4174 53.4177 86.6085 52.8926 88.9956C52.4365 91.0698 49.5047 90.9795 49.1284 88.9072C48.9397 87.8671 49.0636 86.3835 49.0636 85.2815C49.0632 79.7593 48.1057 76.6059 52.6247 72.4929Z" fill="#FE5D0C"/>
<path d="M27.9177 77.3532C27.91 78.9001 28.3861 80.5669 26.568 81.1943C24.9137 81.7647 23.1687 80.4101 22.7317 78.8453C22.4515 77.8419 22.5957 75.7829 22.5954 74.6485L22.5959 61.4734C22.5996 53.2355 23.7101 51.2635 31.514 48.2805C32.7553 47.8061 33.9848 47.2328 35.2563 46.8496C35.4917 47.8866 36.0014 48.8195 36.5401 49.7252C35.8053 49.8422 29.9314 52.2872 29.1694 52.7764C25.3306 55.2409 25.3783 59.6322 25.3821 63.6327L25.3816 73.2023C25.3812 75.6106 25.0969 77.2095 27.9177 77.3532Z" fill="#D7EC0B"/>
<path d="M55.3047 56.4535C59.1108 50.1701 69.1109 52.6246 69.5618 61.0483C69.262 61.5277 69.0669 62.0808 68.7819 62.5728C65.2615 68.6528 56.4727 65.7637 55.385 58.2826C55.2961 57.6714 55.4932 57.0574 55.3047 56.4535Z" fill="#FAFAF2"/>
<path d="M27.918 59.114C28.598 56.2608 31.5456 55.4916 32.8866 57.8842C33.6246 59.2009 33.301 61.5261 33.2965 62.9834L33.2931 89.3764C33.2934 90.5099 33.1444 95.5176 33.4821 96.2651C34.4326 98.3701 39.3004 98.7494 41.2424 98.7163V101.933C39.3943 101.934 31.1391 102.667 30.408 100.889C30.1383 100.233 30.2882 94.0081 30.2886 92.7733L30.2953 61.5807C30.307 58.8511 30.6518 59.0863 27.918 59.114Z" fill="#D7EC0B"/>
<path d="M54.2129 74.6315C55.0652 74.3506 55.9014 74.0722 56.7327 73.7339C58.9733 77.3696 63.1551 77.6765 66.0102 74.4528C67.473 74.5424 69.0964 74.4711 70.4906 74.9918C71.4521 75.3506 72.4276 76.6702 73.3526 76.6507L73.3547 76.741C73.3729 77.3372 73.5573 77.9021 73.5897 78.4917C73.696 80.4229 73.8375 87.1984 73.5237 88.9188C73.1346 91.0503 70.3045 90.9485 69.954 88.8497C69.8108 87.9919 69.9059 87.0088 69.9068 86.1357L69.9106 80.705C69.9104 80.0548 70.0105 79.1448 69.7848 78.5343C69.3819 77.4437 68.113 77.6901 67.5357 78.449C67.4506 81.1656 67.5361 83.9106 67.5357 86.6304C65.4612 86.5794 63.3562 86.8069 61.3494 86.141C55.5132 84.2032 58.1167 79.8298 56.6274 76.9073C56.2016 76.0721 55.0962 74.9229 54.2129 74.6315Z" fill="#FA8419"/>
<path d="M48.929 46.8496C51.1354 47.2199 57.3131 49.668 58.6275 51.0562C53.0829 53.0352 49.8845 58.8325 51.9268 64.4691C52.5587 66.2128 53.6241 67.4135 54.7711 68.8199C50.3865 69.7213 46.9036 74.2817 46.7015 78.6804C46.6131 80.5976 46.6877 82.5432 46.6882 84.4647C46.6886 87.188 46.0315 90.4961 48.71 92.2162C49.9726 93.0268 51.2529 92.9137 52.624 92.5539L52.6204 97.711C52.6202 99.1011 52.4982 100.575 52.8118 101.933H43.6956V98.7161V90.0045V89.486C43.6062 88.8279 43.6877 88.0656 43.6896 87.3963L43.6992 82.5892C43.6996 81.1738 43.5145 79.6557 43.6634 78.2587C44.1595 73.5998 46.6875 70.5229 50.2612 67.6468C48.3845 63.8627 47.6532 60.5529 49.3586 56.3871C50.1251 54.5151 51.4481 52.4247 53.3927 51.6186C51.532 50.8978 49.5525 50.3473 47.652 49.7252C48.1986 48.8045 48.5713 47.8561 48.929 46.8496Z" fill="#7FDACE"/>
<path d="M43.6387 89.9514C45.3347 94.2744 47.7888 97.2845 52.5742 97.7859L52.8125 102.082C50.1914 102.082 46.3487 102.257 43.6387 102.082V89.9514Z" fill="#D7EC0B"/>
<path d="M32.1719 26.6111C34.5542 23.8227 37.5423 21.776 41.2644 21.4686C45.0922 21.1524 49.0863 22.9859 51.3535 26.0936C52.324 27.4239 53.9262 30.3822 54.0606 32.0151C53.9065 33.253 53.7454 34.6612 52.9507 35.6713C52.4105 35.8381 51.746 36.4438 51.2592 36.7655C44.4298 41.2793 35.4225 36.7838 32.931 29.3916C32.632 28.5045 32.6187 28.2863 32.3203 27.4015L32.1719 26.6111Z" fill="#FAFAF2"/>
<path d="M78.94 79.3127H93.367C93.3739 80.1277 93.2283 81.0024 93.2979 81.8023C93.3799 82.743 93.8347 83.466 93.7087 84.4363C93.1359 88.2128 92.3205 93.0744 91.3659 96.6677C91.2777 98.0247 91.1169 101.528 89.3481 101.866C87.1297 102.29 82.3477 102.571 82.7661 99.0696C83.1207 96.1049 83.794 92.707 84.3287 89.7557C84.5496 88.5357 84.9628 86.9139 85.0226 85.7085C85.0669 84.8161 84.0059 84.0452 83.24 84.6774C82.218 85.5212 82.153 88.7117 81.9431 89.953C81.4491 92.8743 80.947 96.159 80.3942 99.0696C80.3942 99.0696 80.4687 99.4825 79.2028 97.1593C77.937 94.836 77.6373 90.0945 77.2932 86.4969C77.0145 83.5804 76.6315 81.6057 78.94 79.3127Z" fill="#7676E8"/>
<path d="M91.3645 96.6676C90.9047 97.7305 90.1162 99.0006 88.8673 99.1633C82.8974 99.9416 84.4787 97.2049 85.1818 93.1896L86.2127 87.3424C86.596 85.156 86.3892 82.0676 89.1004 82.0652C90.6611 82.064 93.7233 82.085 93.7073 84.4361C93.1345 88.2126 92.3191 93.0743 91.3645 96.6676Z" fill="#7FDACE"/>
<path d="M67.5344 42.2683C67.4894 39.8225 66.4257 37.6585 69.1094 35.8523C70.3718 35.0028 71.5225 34.48 72.5185 33.2577C73.8882 31.5773 74.2365 29.4628 75.3221 27.6409C78.7889 21.8224 87.4049 21.8657 90.7251 27.9023C91.658 29.5984 92.0285 31.3628 93.2185 32.9834C95.4733 36.0536 99.476 35.8428 98.5755 40.8105C98.5012 41.2208 98.3122 41.6707 98.4681 42.08C96.3888 44.8415 95.7478 47.2557 95.083 50.5728C93.3031 49.7336 91.795 48.786 89.9192 48.0452C92.5032 45.7302 94.2989 42.6178 94.4864 39.1001C94.6758 35.5452 94.0823 36.9305 92.1798 36.3139C87.3608 34.7517 85.8561 28.5985 84.5994 28.7301C83.1509 28.8819 81.5372 35.8046 75.463 36.6567C74.2894 36.8212 73.4168 36.4125 72.2986 36.2159C71.8775 36.4299 71.6316 36.6189 71.3459 37.0039C71.0912 40.2119 72.3029 43.9403 74.3476 46.3653C74.9278 47.0532 75.6398 47.6058 76.1559 48.3523C74.201 48.6792 72.529 49.5964 70.8363 50.5728C70.4717 48.6003 68.697 43.7127 67.5344 42.2683Z" fill="#FE5D0C"/>
<path d="M76.6682 53.1624C80.0746 58.6049 85.8513 58.9547 89.1741 53.1624C92.0502 54.267 97.6583 57.3263 97.839 60.8681L97.7632 68.8567C97.7503 70.6246 97.8711 72.39 97.839 74.1649H95.6835L95.6863 65.975C95.6866 64.6539 95.7731 63.2645 95.6728 61.9502C95.5586 60.4528 94.1008 60.4609 93.3671 61.4869C93.2711 62.4532 93.3631 63.5023 93.3652 64.4793L93.3671 70.84V76.899C92.7388 76.8594 92.0973 76.8959 91.4673 76.8964L75.7229 76.899C75.4777 76.1982 75.2144 75.4965 74.8784 74.8336C73.627 72.3652 73.9243 73.3586 73.9253 70.381L73.9289 64.4943C73.9303 63.5233 73.9858 62.5347 73.9341 61.5663L73.9294 61.4869C73.595 60.997 73.2274 60.7673 72.6829 60.5662C72.4313 60.6537 72.1866 60.7647 71.9411 60.8681C71.9545 59.3281 71.5782 57.8029 70.8379 56.4533L71.3476 56.0682C71.9638 55.5638 72.67 55.1711 73.3529 54.766C74.1993 54.0871 75.5892 53.3749 76.6682 53.1624Z" fill="#FE5D0C"/>
<path d="M36.5397 49.7249C40.214 53.3872 43.971 53.5976 47.6532 49.7249C49.5537 50.347 51.5331 50.8974 53.3938 51.6182C51.4492 52.4243 50.1263 54.5148 49.3597 56.3867C47.6544 60.5526 48.3856 63.8623 50.2623 67.6465C46.6886 70.5225 44.1607 73.5994 43.6646 78.2583C43.5156 79.6554 43.7008 81.1734 43.7003 82.5888L43.6908 87.3959C43.6889 88.0653 43.6074 88.8275 43.6967 89.4856H41.2417V98.7157C39.2997 98.7488 34.4319 98.3695 33.4814 96.2645C33.1437 95.517 33.2927 90.5093 33.2924 89.3758L33.2958 62.9828C33.3003 61.5255 33.6239 59.2003 32.8859 57.8836C31.5449 55.491 28.5973 56.2602 27.9173 59.1134V77.3528C25.0965 77.2092 25.3808 75.6103 25.3812 73.202L25.3817 63.6324C25.3779 59.6319 25.3303 55.2406 29.169 52.776C29.931 52.2869 35.8049 49.8418 36.5397 49.7249Z" fill="#7FDACE"/>
<path d="M30.2871 29.4996C31.4087 22.7188 37.2037 17.9903 44.1384 19.1544C50.2277 20.1766 54.5494 25.913 54.0602 32.0168C53.9258 30.3838 52.3236 27.4256 51.3531 26.0952C49.0858 22.9875 45.0918 21.1541 41.264 21.4702C37.5418 21.7777 34.5538 23.8244 32.1714 26.6128C31.4647 27.5299 30.8487 28.4876 30.2871 29.4996Z" fill="#FE5D0C"/>
<path fill-rule="evenodd" clip-rule="evenodd" d="M21.2402 75.0583C21.2402 74.4662 21.7203 73.9861 22.3125 73.9861H28.5078C29.1 73.9861 29.5801 74.4662 29.5801 75.0583C29.5801 75.6505 29.1 76.1306 28.5078 76.1306H22.3125C21.7203 76.1306 21.2402 75.6505 21.2402 75.0583Z" fill="#222B3B"/>
<path fill-rule="evenodd" clip-rule="evenodd" d="M46.7363 86.2581C46.7363 85.6659 47.2164 85.1858 47.8086 85.1858H54.0039C54.5961 85.1858 55.0762 85.6659 55.0762 86.2581C55.0762 86.8503 54.5961 87.3303 54.0039 87.3303H47.8086C47.2164 87.3303 46.7363 86.8503 46.7363 86.2581Z" fill="#222B3B"/>
<path fill-rule="evenodd" clip-rule="evenodd" d="M67.8242 86.2581C67.8242 85.6659 68.3043 85.1858 68.8965 85.1858H74.5557C75.1479 85.1858 75.6279 85.6659 75.6279 86.2581C75.6279 86.8503 75.1479 87.3303 74.5557 87.3303H68.8965C68.3043 87.3303 67.8242 86.8503 67.8242 86.2581Z" fill="#222B3B"/>
<path d="M28.1504 76.1311H22.5508C22.6104 77.9182 22.1922 81.4527 25.5293 81.3733C28.0312 81.3137 28.1504 80.0032 28.1504 76.1311Z" fill="#FAFAF2"/>
<path d="M53.0508 87.3298H49C49.0596 89.1169 49.1787 90.5466 50.9062 90.5466C52.0397 90.5466 53.0508 90.6658 53.0508 87.3298Z" fill="#FAFAF2"/>
<path d="M73.9004 87.2109H69.8496C69.9092 88.998 70.0283 90.4277 71.7559 90.4277C72.8893 90.4277 73.9004 90.5469 73.9004 87.2109Z" fill="#FAFAF2"/>
</svg>
