<svg width="142" height="142" viewBox="0 0 142 142" fill="none" xmlns="http://www.w3.org/2000/svg">
<path d="M47.8915 19.4461C62.4157 18.0895 71.2466 37.5301 60.0816 48.0104C58.9825 49.0418 57.7635 49.8889 56.5191 50.732C56.6375 51.0232 56.784 51.2966 56.9301 51.5745C57.7183 51.9581 58.5712 52.2296 59.3935 52.5314L63.2866 53.9278C66.6751 55.1093 68.4069 55.953 70.7995 58.7284C72.7811 58.7666 74.7081 59.1538 76.507 59.9889C77.7071 60.5461 79.6299 62.1302 79.1659 59.4295C78.683 56.6194 77.156 52.6393 75.224 50.463C71.7123 46.5072 72.2023 40.4872 76.7277 37.6669C80.204 35.5003 80.23 35.1378 81.6628 31.4383C86.5402 18.8457 104.698 18.6981 110.225 31.0824C110.893 32.5804 111.276 34.3063 112.353 35.5782C114.913 38.5996 118.379 37.7637 118.677 43.8616C118.924 48.9306 116.293 49.7094 114.417 53.6494C113.408 55.7696 113.117 58.0982 112.563 60.3552C118.283 64.7578 118.829 69.4782 118.827 76.0166L118.824 82.0782C118.822 85.9674 118.95 89.899 118.809 93.7824C118.63 98.7371 115.465 99.9 111.075 99.7042C111.007 100.098 110.919 100.459 110.774 100.832C110.481 103.615 109.799 106.383 109.296 109.136L108.255 114.738C107.211 120.45 106.925 121.418 100.446 121.409L91.0004 121.408C88.6968 121.408 86.4703 121.548 85.344 119.036C84.4432 117.027 83.5759 110.812 82.9305 108.048C82.3409 108.003 81.7399 107.884 81.1702 107.726L81.1758 114.08C81.1774 117.458 81.3938 121.378 76.7918 121.409L40.432 121.407C34.2223 121.421 31.8876 121.552 31.896 114.925L31.8998 97.0029C29.9374 97.4885 28.2475 97.651 26.4019 96.6651C22.1897 94.4153 22.8833 89.7662 22.8858 85.7599L22.8845 70.4531C22.8836 67.0528 22.9692 64.1008 24.6578 61.0198C27.4103 55.9973 34.9817 53.1815 40.4415 51.5745C40.457 51.2944 40.4451 51.0124 40.4415 50.732C39.1812 49.5949 37.6913 48.777 36.4635 47.5594C26.579 37.7576 33.4693 19.3853 47.8915 19.4461ZM43.0934 51.8854C43.0244 57.5699 48.9529 60.6234 52.4322 56.2783C53.379 54.8358 53.7024 53.6025 53.7462 51.8854C49.7624 52.9235 47.0905 53.0051 43.0934 51.8854ZM67.6459 82.4523C67.409 85.9679 71.2203 87.9462 73.7291 85.2959C74.4161 84.3624 74.4413 83.5723 74.362 82.4523C71.8096 83.1806 70.2019 83.1402 67.6459 82.4523ZM80.3726 63.3278C80.9639 64.0913 81.444 64.828 81.8558 65.7071L82.4491 65.259C82.4718 64.7137 83.1078 64.4056 83.3377 63.9183C83.3277 62.764 82.3606 62.6705 81.8558 62.2509C81.3519 62.597 80.841 62.9343 80.3726 63.3278Z" fill="#222B3B"/>
<path d="M90.8066 57.8765C91.206 58.0429 91.6104 58.1929 92.0164 58.3421C91.9346 58.6439 91.4631 59.2965 91.2712 59.6132L91.0496 59.7031C90.9187 59.1007 90.8635 58.4891 90.8066 57.8765Z" fill="#FAFAF2"/>
<path d="M82.7183 74.7153C82.873 75.328 82.7269 76.2094 82.7241 76.8537L82.7183 82.195C81.9964 81.7205 81.2744 81.2565 80.527 80.8233C80.0566 80.5645 79.5638 80.3382 79.082 80.1008C81.6034 77.4929 81.2245 76.8154 82.7183 74.7153Z" fill="#FAFAF2"/>
<path d="M63.4411 82.9955C63.8898 82.7397 64.3136 82.5756 64.8134 82.4532C64.8478 83.6508 64.9265 84.7191 65.4388 85.8224C64.4711 86.2162 63.4979 86.5402 62.5059 86.8672C61.7898 86.1746 61.1893 85.22 60.6582 84.3772C61.5427 83.8095 62.3824 83.1752 63.4411 82.9955Z" fill="#FDBA05"/>
<path d="M113.283 89.217H115.909C115.91 91.3482 116.563 94.5628 114.967 96.1321L114.875 96.2211C114.308 95.9121 113.927 95.5396 113.498 95.0651C113.13 93.3705 113.28 90.9893 113.283 89.217Z" fill="#FAFAF2"/>
<path d="M80.3613 63.3724C81.8573 61.8767 86.1825 59.6014 88.049 59.0381C88.1439 60.0252 88.3693 60.9285 88.6434 61.8767C87.3875 62.1241 85.7698 62.9531 84.7847 63.7432C83.9898 64.2147 82.5346 65.212 81.8174 65.7992C81.6094 65.1751 80.8912 63.8129 80.3613 63.3724Z" fill="#FDBA05"/>
<path d="M110.775 89.217H113.284C113.28 90.9893 113.13 93.3705 113.499 95.0651C113.928 95.5396 114.309 95.9121 114.875 96.2211C113.464 97.232 111.411 97.3238 110.949 95.3716C110.6 93.8981 110.769 90.8223 110.775 89.217Z" fill="#FAFAF2"/>
<path d="M77.2486 82.4532C81.3073 83.8147 82.7004 85.6405 84.7844 89.2174C83.7077 89.2401 82.5723 87.7042 81.4532 87.2865C79.8304 86.6805 77.9409 86.7634 76.2383 86.6592C77.08 85.2275 77.2528 84.1023 77.2486 82.4532Z" fill="#FDBA05"/>
<path d="M72.3164 113.107C75.6343 115.503 74.8555 114.85 78.3528 115.548C78.4471 119.821 76.1426 118.699 72.3164 118.643C72.3428 116.799 72.317 114.951 72.3164 113.107Z" fill="#FE5D0C"/>
<path d="M65.0859 105.521H78.3527C78.364 106.15 78.3835 106.779 78.3527 107.407C75.9073 107.316 73.4243 107.407 70.9753 107.406L67.8469 107.402C67.3197 107.399 66.7661 107.356 66.2422 107.407C65.7352 106.857 65.4262 106.18 65.0859 105.521Z" fill="#FA8419"/>
<path d="M113.285 70.8463C114.314 71.568 115.066 72.2902 115.911 73.2132V86.3229H113.285C113.322 84.257 113.181 82.2021 113.196 80.1445L113.285 70.8463Z" fill="#FDBA05"/>
<path d="M92.0156 58.3421C95.8211 59.365 97.6571 58.8447 101.282 57.8765C101.069 59.8536 100.699 61.4195 99.0752 62.7314C96.0008 65.2153 92.0678 63.3934 91.0488 59.7031L91.2704 59.6132C91.4624 59.2965 91.9338 58.6439 92.0156 58.3421Z" fill="#FAFAF2"/>
<path d="M104.066 58.8645C110.429 61.9011 116.391 65.2628 115.909 73.2143C115.064 72.2913 114.312 71.5691 113.283 70.8474C113.072 66.725 106.545 63.1642 103.197 61.8784C103.603 60.8941 103.905 59.919 104.066 58.8645Z" fill="#FDBA05"/>
<path d="M66.2422 107.407C66.7661 107.356 67.3197 107.399 67.8469 107.402L70.9753 107.406C73.4243 107.407 75.9073 107.316 78.3527 107.407V115.548C74.8554 114.85 75.6342 115.503 72.3163 113.107C72.3057 112.222 72.5074 110.904 71.9058 110.179C70.9828 109.067 69.6904 109.995 69.608 111.308C68.5452 110.65 66.9247 108.467 66.2422 107.407Z" fill="#FA8419"/>
<path d="M63.4416 105.521H65.0868C65.4271 106.18 65.736 106.857 66.243 107.407C66.9256 108.467 68.5461 110.65 69.6089 111.308C69.7104 112.04 69.6169 112.892 69.6147 113.64L69.6089 118.643C68.746 118.643 67.8821 118.637 67.0193 118.652C62.4634 118.728 63.436 117.78 63.438 113.787L63.4416 105.521Z" fill="#FE5D0C"/>
<path d="M85.0742 45.4225C86.4612 45.4286 87.7925 45.4228 89.1429 45.0573C90.3862 50.2577 95.7209 54.0257 101.035 52.9898C101.898 52.8215 102.704 52.553 103.59 52.6934C102.069 53.8019 101.042 54.9335 99.1833 55.5578C93.3538 57.5158 87.922 53.8224 85.9293 48.3274C85.5859 47.3803 85.3904 46.3816 85.0742 45.4225Z" fill="#7676E8"/>
<path d="M80.3728 71.0563C80.8668 77.8207 71.8104 83.0969 65.6109 78.2611C61.8568 75.3329 60.776 69.4746 63.7785 65.7083C63.9979 66.411 63.7685 67.1258 63.872 67.8371C65.138 76.5446 75.3676 79.9074 79.4651 72.8307C79.7968 72.258 80.0239 71.6143 80.3728 71.0563Z" fill="#7676E8"/>
<path d="M87.7681 92.3147H91.2873C88.6004 94.9836 89.0461 97.2819 89.3706 100.677C89.7711 104.864 90.4717 109.057 91.6434 113.1C92.0786 113.919 92.9106 115.236 92.98 115.236C92.9725 116.671 93.1042 117.346 93.7263 118.643C92.968 118.642 88.7055 118.788 88.2795 118.53C87.2794 117.924 86.382 109.687 85.4551 107.407C88.2119 105.649 87.7698 102.75 87.7703 99.8671L87.7681 92.3147Z" fill="#7FDACE"/>
<path d="M78.0135 49.1967C76.1683 47.4369 75.1988 45.6536 75.8929 43.119C76.5336 40.7801 77.9949 40.2263 79.8323 38.958C82.4213 37.1711 83.0556 35.1989 84.1739 32.4157C88.1707 22.4698 102.461 22.0106 107.355 31.4614C108.512 33.6948 108.604 35.2729 110.338 37.409C112.43 39.9844 115.617 39.6061 115.919 43.6237C116.077 45.7199 115.373 47.3989 114.018 48.9776C113.837 48.5011 114.057 47.9775 114.143 47.4999C115.191 41.7178 110.533 41.9633 107.908 38.3897C106.523 36.5035 106.092 34.4498 105.006 32.4756C101.141 25.4494 91.113 25.399 87.0779 32.1714C85.8144 34.292 85.4089 36.7531 83.8147 38.7089C82.6554 40.1317 81.3161 40.7402 79.8468 41.7289C76.723 43.8312 77.9611 46.35 78.0135 49.1967Z" fill="#FA8419"/>
<path d="M36.6085 28.8438C36.6085 30.986 37.5098 33.1426 37.7353 34.2109C40.6352 42.815 51.1191 48.0473 59.068 42.7936C59.6346 42.4192 60.4082 41.7142 61.0369 41.5201L60.9498 41.8792C60.5346 43.5918 58.9696 45.2256 57.7035 46.368C48.2918 54.8622 33.8381 47.4841 34.6585 34.3346C34.7847 32.3105 35.7859 29.9112 36.6085 28.8438Z" fill="#7676E8"/>
<path d="M89.1445 45.057C92.8887 43.7371 95.6016 41.4019 97.8196 38.0829C100.229 41.5122 102.576 43.8502 106.688 45.057C106.344 48.6366 105.58 49.8084 103.592 52.6931C102.705 52.5527 101.9 52.8212 101.037 52.9896C95.7226 54.0254 90.3879 50.2574 89.1445 45.057Z" fill="#FAFAF2"/>
<path d="M60.658 84.3771C61.1891 85.2199 61.7896 86.1745 62.5057 86.8671C63.5338 87.2063 64.8204 88.5439 65.316 89.516C67.0494 92.9176 64.0192 98.008 70.8121 100.263C73.1479 101.038 75.598 100.774 78.0125 100.833V102.743H63.7781L63.774 95.2037C63.7732 93.9796 64.3731 90.6026 62.352 90.627C61.8556 90.6331 61.3589 90.9704 61.1825 91.4382C60.3688 93.6007 61.581 100.807 60.9698 103.585C60.4389 105.999 57.0265 105.894 56.5886 103.482C56.3689 102.272 56.5131 100.545 56.5131 99.2621C56.5126 92.8347 55.3982 89.1643 60.658 84.3771Z" fill="#FE5D0C"/>
<path d="M31.9017 90.0341C31.8928 91.8346 32.4469 93.7746 30.3308 94.5048C28.4052 95.1688 26.3742 93.5921 25.8656 91.7708C25.5394 90.6029 25.7073 88.2064 25.7069 86.8859L25.7075 71.551C25.7118 61.9627 27.0044 59.6674 36.0876 56.1954C37.5323 55.6432 38.9634 54.9759 40.4433 54.5299C40.7173 55.7369 41.3106 56.8227 41.9376 57.8769C41.0823 58.0131 34.2455 60.8589 33.3586 61.4283C28.8906 64.2968 28.946 69.408 28.9505 74.0643L28.9499 85.2027C28.9493 88.0059 28.6185 89.8668 31.9017 90.0341Z" fill="#D7EC0B"/>
<path d="M63.7773 65.7081C68.2074 58.3946 79.8469 61.2515 80.3717 71.0562C80.0228 71.6142 79.7956 72.2579 79.4639 72.8306C75.3664 79.9073 65.1369 76.5445 63.8708 67.837C63.7674 67.1256 63.9967 66.4109 63.7773 65.7081Z" fill="#FAFAF2"/>
<path d="M31.9004 68.8048C32.6919 65.4839 36.1227 64.5886 37.6836 67.3734C38.5425 68.906 38.1659 71.6124 38.1606 73.3086L38.1567 104.028C38.157 105.348 37.9836 111.176 38.3766 112.046C39.483 114.496 45.1488 114.938 47.4092 114.899V118.643C45.2581 118.645 35.6495 119.498 34.7986 117.428C34.4847 116.664 34.6591 109.419 34.6597 107.982L34.6674 71.6759C34.681 68.4989 35.0824 68.7726 31.9004 68.8048Z" fill="#D7EC0B"/>
<path d="M62.5059 86.8662C63.4979 86.5392 64.4711 86.2152 65.4388 85.8214C68.0466 90.0531 72.914 90.4103 76.2372 86.6582C77.9398 86.7624 79.8293 86.6795 81.452 87.2855C82.5711 87.7032 83.7066 89.2391 84.7832 89.2164L84.7857 89.3215C84.8068 90.0154 85.0215 90.673 85.0592 91.3591C85.1829 93.607 85.3476 101.493 84.9823 103.496C84.5294 105.977 81.2354 105.858 80.8275 103.415C80.6608 102.417 80.7714 101.273 80.7726 100.256L80.777 93.9354C80.7767 93.1785 80.8932 92.1193 80.6306 91.4088C80.1616 90.1394 78.6847 90.4261 78.0127 91.3095C77.9137 94.4715 78.0133 97.6665 78.0127 100.832C75.5981 100.773 73.1481 101.038 70.8123 100.262C64.0193 98.0071 67.0496 92.9167 65.3162 89.5151C64.8206 88.543 63.534 87.2054 62.5059 86.8662Z" fill="#FA8419"/>
<path d="M56.3583 54.5299C58.9265 54.9609 66.1169 57.8103 67.6468 59.4261C61.1932 61.7295 57.4705 68.4772 59.8476 75.0378C60.5831 77.0674 61.8231 78.465 63.1582 80.1018C58.0548 81.151 54.0009 86.4591 53.7657 91.5789C53.6628 93.8104 53.7496 96.0749 53.7502 98.3114C53.7507 101.481 52.9858 105.332 56.1034 107.334C57.5731 108.277 59.0632 108.145 60.6591 107.727L60.6549 113.729C60.6546 115.347 60.5126 117.062 60.8776 118.643H50.267V114.899V104.759V104.156C50.163 103.39 50.2579 102.503 50.2601 101.724L50.2712 96.1284C50.2717 94.481 50.0562 92.714 50.2296 91.088C50.807 85.6653 53.7493 82.084 57.9089 78.7365C55.7246 74.332 54.8734 70.4797 56.8584 65.6309C57.7506 63.4521 59.2904 61.0189 61.5538 60.0807C59.388 59.2417 57.0841 58.601 54.872 57.8769C55.5083 56.8052 55.942 55.7014 56.3583 54.5299Z" fill="#7FDACE"/>
<path d="M50.1992 104.698C52.1733 109.729 55.0297 113.233 60.5996 113.816L60.877 118.817C57.8262 118.817 53.3535 119.02 50.1992 118.817V104.698Z" fill="#D7EC0B"/>
<path d="M36.8535 30.9737C39.6264 27.7282 43.1043 25.346 47.4367 24.9881C51.8919 24.6202 56.5408 26.7542 59.1797 30.3714C60.3093 31.9198 62.1742 35.363 62.3306 37.2636C62.1511 38.7044 61.9637 40.3435 61.0387 41.5192C60.41 41.7133 59.6365 42.4183 59.0699 42.7928C51.1209 48.0465 40.637 42.8141 37.7371 34.2101C37.3891 33.1775 37.3735 32.9235 37.0263 31.8937L36.8535 30.9737Z" fill="#FAFAF2"/>
<path d="M91.2876 92.3147H108.08C108.088 93.2632 107.918 94.2813 107.999 95.2124C108.095 96.3073 108.624 97.1488 108.477 98.2781C107.811 102.674 106.862 108.332 105.75 112.515C105.648 114.094 105.461 118.171 103.402 118.565C100.82 119.059 95.2539 119.386 95.7409 115.31C96.1536 111.86 96.9373 107.905 97.5597 104.47C97.8168 103.05 98.2977 101.162 98.3673 99.7589C98.4189 98.7202 97.1839 97.823 96.2925 98.5588C95.103 99.5409 95.0273 103.255 94.7829 104.699C94.208 108.099 93.6236 111.923 92.9802 115.31C92.9802 115.31 93.0668 115.791 91.5935 113.087C90.1201 110.383 89.7713 104.864 89.3708 100.677C89.0463 97.2819 88.6007 94.9836 91.2876 92.3147Z" fill="#7676E8"/>
<path d="M105.749 112.515C105.214 113.752 104.296 115.23 102.843 115.42C95.894 116.325 97.7345 113.14 98.5529 108.467L99.7527 101.661C100.199 99.1159 99.9582 95.5212 103.114 95.5185C104.93 95.5171 108.495 95.5415 108.476 98.278C107.809 102.674 106.86 108.332 105.749 112.515Z" fill="#7FDACE"/>
<path d="M78.0141 49.1974C77.9616 46.3508 76.7236 43.8319 79.8473 41.7297C81.3167 40.7409 82.656 40.1324 83.8153 38.7097C85.4094 36.7538 85.8149 34.2927 87.0785 32.1721C91.1136 25.3998 101.142 25.4502 105.007 32.4764C106.092 34.4505 106.524 36.5042 107.909 38.3904C110.533 41.964 115.192 41.7186 114.144 47.5006C114.057 47.9782 113.837 48.5018 114.019 48.9783C111.599 52.1924 110.853 55.0025 110.079 58.8634C108.007 57.8866 106.252 56.7836 104.069 55.9213C107.076 53.2269 109.166 49.6043 109.384 45.5098C109.605 41.3722 108.914 42.9846 106.7 42.2669C101.091 40.4486 99.3393 33.2868 97.8766 33.4398C96.1906 33.6165 94.3124 41.6742 87.2424 42.666C85.8765 42.8573 84.8608 42.3817 83.5593 42.1529C83.0692 42.4019 82.783 42.6219 82.4504 43.0701C82.154 46.8039 83.5643 51.1435 85.9442 53.9661C86.6195 54.7668 87.4482 55.4099 88.0489 56.2788C85.7736 56.6593 83.8275 57.7268 81.8572 58.8634C81.4329 56.5675 79.3672 50.8787 78.0141 49.1974Z" fill="#FE5D0C"/>
<path d="M88.6415 61.8776C92.6064 68.2124 99.3301 68.6195 103.198 61.8776C106.545 63.1633 113.073 66.7241 113.283 70.8466L113.195 80.1448C113.18 82.2024 113.32 84.2573 113.283 86.3232H110.774L110.777 76.7906C110.778 75.253 110.878 73.6358 110.762 72.106C110.629 70.3632 108.932 70.3726 108.078 71.5668C107.966 72.6915 108.073 73.9126 108.076 75.0497L108.078 82.4531V89.5054C107.347 89.4594 106.6 89.5018 105.867 89.5024L87.5413 89.5054C87.2559 88.6898 86.9494 87.873 86.5584 87.1014C85.1018 84.2284 85.4479 85.3847 85.449 81.919L85.4532 75.0672C85.4548 73.937 85.5195 72.7863 85.4593 71.6592L85.4537 71.5668C85.0646 70.9966 84.6367 70.7293 84.0029 70.4952C83.7101 70.597 83.4252 70.7262 83.1396 70.8466C83.1551 69.0541 82.7172 67.2788 81.8555 65.708L82.4487 65.2598C83.1659 64.6726 83.988 64.2156 84.7828 63.7441C85.768 62.9539 87.3857 62.125 88.6415 61.8776Z" fill="#FE5D0C"/>
<path d="M41.9367 57.8765C46.2134 62.1392 50.5862 62.3841 54.872 57.8765C57.0841 58.6006 59.388 59.2413 61.5538 60.0802C59.2904 61.0185 57.7506 63.4516 56.8584 65.6304C54.8734 70.4792 55.7246 74.3315 57.909 78.736C53.7494 82.0836 50.807 85.6649 50.2296 91.0876C50.0562 92.7136 50.2717 94.4806 50.2712 96.128L50.2601 101.723C50.2579 102.502 50.163 103.389 50.267 104.155H47.4096V114.899C45.1492 114.937 39.4833 114.496 38.377 112.046C37.984 111.176 38.1574 105.347 38.1571 104.028L38.161 73.3079C38.1662 71.6116 38.5429 68.9053 37.6839 67.3727C36.123 64.5879 32.6923 65.4832 31.9008 68.8041V90.0336C28.6176 89.8664 28.9484 88.0054 28.949 85.2023L28.9496 74.0639C28.9451 69.4076 28.8896 64.2964 33.3577 61.4278C34.2446 60.8585 41.0814 58.0126 41.9367 57.8765Z" fill="#7FDACE"/>
<path d="M34.6602 34.3355C35.9656 26.4431 42.7106 20.9395 50.7821 22.2944C57.8697 23.4841 62.8999 30.1609 62.3305 37.2654C62.174 35.3647 60.3092 31.9215 59.1796 30.3731C56.5406 26.7559 51.8918 24.6219 47.4365 24.9899C43.1042 25.3477 39.6263 27.7299 36.8534 30.9755C36.0308 32.043 35.3139 33.1576 34.6602 34.3355Z" fill="#FE5D0C"/>
<path fill-rule="evenodd" clip-rule="evenodd" d="M24.1289 87.3629C24.1289 86.6736 24.6877 86.1149 25.377 86.1149H32.5879C33.2772 86.1149 33.8359 86.6736 33.8359 87.3629C33.8359 88.0522 33.2772 88.611 32.5879 88.611H25.377C24.6877 88.611 24.1289 88.0522 24.1289 87.3629Z" fill="#222B3B"/>
<path fill-rule="evenodd" clip-rule="evenodd" d="M53.8047 100.399C53.8047 99.7095 54.3635 99.1508 55.0527 99.1508H62.2637C62.9529 99.1508 63.5117 99.7095 63.5117 100.399C63.5117 101.088 62.9529 101.647 62.2637 101.647H55.0527C54.3635 101.647 53.8047 101.088 53.8047 100.399Z" fill="#222B3B"/>
<path fill-rule="evenodd" clip-rule="evenodd" d="M78.3496 100.399C78.3496 99.7095 78.9084 99.1508 79.5977 99.1508H86.1846C86.8738 99.1508 87.4326 99.7095 87.4326 100.399C87.4326 101.088 86.8738 101.647 86.1846 101.647H79.5977C78.9084 101.647 78.3496 101.088 78.3496 100.399Z" fill="#222B3B"/>
<path d="M32.1719 88.6117H25.6543C25.7236 90.6918 25.2369 94.8057 29.1211 94.7133C32.0332 94.6439 32.1719 93.1185 32.1719 88.6117Z" fill="#FAFAF2"/>
<path d="M61.1543 101.646H56.4395C56.5088 103.726 56.6475 105.39 58.6582 105.39C59.9774 105.39 61.1543 105.529 61.1543 101.646Z" fill="#FAFAF2"/>
<path d="M85.4219 101.508H80.707C80.7764 103.588 80.915 105.252 82.9258 105.252C84.245 105.252 85.4219 105.391 85.4219 101.508Z" fill="#FAFAF2"/>
</svg>
