<svg width="80" height="80" viewBox="0 0 80 80" fill="none" xmlns="http://www.w3.org/2000/svg">
<path d="M26.9816 10.956C35.1643 10.1917 40.1395 21.1442 33.8493 27.0485C33.2301 27.6296 32.5434 28.1068 31.8423 28.5818C31.909 28.7459 31.9915 28.8999 32.0738 29.0565C32.5179 29.2726 32.9984 29.4256 33.4616 29.5956L35.6549 30.3823C37.564 31.0479 38.5396 31.5232 39.8876 33.0868C41.004 33.1084 42.0896 33.3265 43.103 33.797C43.7791 34.1109 44.8624 35.0034 44.601 33.4818C44.329 31.8987 43.4687 29.6563 42.3802 28.4302C40.4018 26.2017 40.6779 22.8101 43.2274 21.2212C45.1859 20.0006 45.2005 19.7963 46.0077 17.7121C48.7555 10.6177 58.9851 10.5346 62.0991 17.5117C62.4757 18.3556 62.6912 19.3279 63.2982 20.0445C64.7404 21.7467 66.6931 21.2757 66.8607 24.7112C67.0001 27.567 65.5177 28.0057 64.461 30.2254C63.8921 31.4199 63.7282 32.7318 63.4165 34.0034C66.6387 36.4837 66.9462 39.1431 66.9455 42.8267L66.9435 46.2417C66.9423 48.4327 67.0146 50.6477 66.9354 52.8356C66.8341 55.627 65.051 56.2821 62.5777 56.1718C62.5396 56.3935 62.4899 56.597 62.4087 56.8073C62.2435 58.3751 61.8593 59.9345 61.5757 61.4854L60.9891 64.6417C60.4009 67.8595 60.2401 68.4048 56.5899 68.3998L51.2684 68.3995C49.9705 68.3993 48.7162 68.4779 48.0816 67.0627C47.5741 65.931 47.0855 62.4295 46.722 60.8727C46.3898 60.847 46.0512 60.7799 45.7302 60.6909L45.7334 64.2709C45.7343 66.1738 45.8562 68.3826 43.2635 68.4001L22.7791 68.399C19.2807 68.4065 17.9654 68.4806 17.9701 64.7467L17.9723 54.6499C16.8666 54.9235 15.9146 55.0151 14.8748 54.4596C12.5017 53.1921 12.8925 50.5729 12.894 48.3159L12.8932 39.6923C12.8927 37.7767 12.9409 36.1135 13.8922 34.3777C15.4429 31.5482 19.7085 29.9618 22.7845 29.0565C22.7932 28.8987 22.7865 28.7398 22.7845 28.5818C22.0745 27.9412 21.2351 27.4804 20.5434 26.7945C14.9746 21.2723 18.8565 10.9217 26.9816 10.956ZM24.2785 29.2317C24.2396 32.4342 27.5796 34.1545 29.5398 31.7065C30.0732 30.8938 30.2554 30.199 30.2801 29.2317C28.0357 29.8165 26.5304 29.8624 24.2785 29.2317ZM38.1109 46.4524C37.9774 48.4331 40.1246 49.5476 41.538 48.0545C41.9251 47.5285 41.9393 47.0834 41.8946 46.4524C40.4566 46.8627 39.5509 46.8399 38.1109 46.4524ZM45.2809 35.6781C45.614 36.1082 45.8845 36.5232 46.1165 37.0185L46.4507 36.766C46.4635 36.4588 46.8218 36.2852 46.9513 36.0107C46.9457 35.3604 46.4009 35.3077 46.1165 35.0713C45.8326 35.2663 45.5448 35.4563 45.2809 35.6781Z" fill="#222B3B"/>
<path d="M51.1582 32.6055C51.3832 32.6992 51.611 32.7838 51.8398 32.8678C51.7937 33.0378 51.528 33.4055 51.4199 33.5839L51.2951 33.6345C51.2213 33.2952 51.1902 32.9506 51.1582 32.6055Z" fill="#FAFAF2"/>
<path d="M46.6013 42.0918C46.6885 42.437 46.6062 42.9335 46.6046 43.2965L46.6013 46.3057C46.1946 46.0384 45.7879 45.7769 45.3668 45.5329C45.1018 45.3871 44.8241 45.2596 44.5527 45.1259C45.9732 43.6566 45.7598 43.2749 46.6013 42.0918Z" fill="#FAFAF2"/>
<path d="M35.7416 46.7586C35.9945 46.6145 36.2332 46.522 36.5148 46.4531C36.5341 47.1278 36.5785 47.7297 36.8671 48.3512C36.322 48.5731 35.7737 48.7556 35.2148 48.9398C34.8113 48.5497 34.473 48.0119 34.1738 47.537C34.6721 47.2172 35.1452 46.8598 35.7416 46.7586Z" fill="#FDBA05"/>
<path d="M63.8213 50.2617H65.301C65.3012 51.4623 65.669 53.2734 64.7699 54.1575L64.7181 54.2077C64.3987 54.0336 64.1841 53.8237 63.9424 53.5564C63.7349 52.6017 63.8195 51.2602 63.8213 50.2617Z" fill="#FAFAF2"/>
<path d="M45.2734 35.7036C46.1162 34.8609 48.553 33.5791 49.6045 33.2617C49.658 33.8178 49.785 34.3267 49.9394 34.8609C49.2319 35.0003 48.3205 35.4673 47.7655 35.9125C47.3176 36.1781 46.4978 36.74 46.0938 37.0708C45.9766 36.7192 45.572 35.9517 45.2734 35.7036Z" fill="#FDBA05"/>
<path d="M62.409 50.2617H63.8224C63.8205 51.2602 63.736 52.6017 63.9435 53.5564C64.1852 53.8237 64.3997 54.0336 64.7191 54.2077C63.9237 54.7772 62.7671 54.8289 62.5068 53.7291C62.3102 52.8989 62.4054 51.1661 62.409 50.2617Z" fill="#FAFAF2"/>
<path d="M43.5204 46.4531C45.807 47.2202 46.5918 48.2487 47.7659 50.2639C47.1593 50.2767 46.5196 49.4114 45.8891 49.1761C44.9749 48.8347 43.9104 48.8814 42.9512 48.8227C43.4254 48.0161 43.5227 47.3822 43.5204 46.4531Z" fill="#FDBA05"/>
<path d="M40.7422 63.7227C42.6114 65.0727 42.1727 64.7048 44.143 65.0978C44.1961 67.505 42.8978 66.8731 40.7422 66.8416C40.757 65.8028 40.7425 64.7617 40.7422 63.7227Z" fill="#FE5D0C"/>
<path d="M36.668 59.4473H44.1422C44.1486 59.8015 44.1595 60.1559 44.1422 60.5099C42.7645 60.4582 41.3656 60.5099 39.9859 60.509L38.2234 60.5068C37.9264 60.5054 37.6145 60.4809 37.3194 60.5099C37.0338 60.1996 36.8597 59.8184 36.668 59.4473Z" fill="#FA8419"/>
<path d="M63.8218 39.9121C64.4015 40.3187 64.8256 40.7255 65.3015 41.2455V48.6313H63.8218C63.8429 47.4674 63.7637 46.3098 63.7721 45.1505L63.8218 39.9121Z" fill="#FDBA05"/>
<path d="M51.8396 32.8678C53.9835 33.4441 55.0179 33.1509 57.0601 32.6055C56.9401 33.7194 56.7316 34.6016 55.8168 35.3406C54.0848 36.74 51.869 35.7136 51.2949 33.6345L51.4198 33.5839C51.5279 33.4055 51.7935 33.0378 51.8396 32.8678Z" fill="#FAFAF2"/>
<path d="M58.6303 33.1641C62.2148 34.8748 65.5734 36.7688 65.3022 41.2484C64.8262 40.7284 64.4022 40.3216 63.8225 39.915C63.7041 37.5925 60.0266 35.5864 58.1406 34.862C58.3694 34.3075 58.5394 33.7581 58.6303 33.1641Z" fill="#FDBA05"/>
<path d="M37.3203 60.5113C37.6155 60.4822 37.9273 60.5068 38.2244 60.5082L39.9869 60.5104C41.3666 60.5113 42.7655 60.4596 44.1431 60.5113V65.0974C42.1728 64.7044 42.6116 65.0722 40.7423 63.7222C40.7364 63.2238 40.85 62.4813 40.5111 62.0729C39.9911 61.4465 39.263 61.9693 39.2166 62.7086C38.6178 62.338 37.7048 61.1082 37.3203 60.5113Z" fill="#FA8419"/>
<path d="M35.7413 59.4473H36.6681C36.8599 59.8184 37.0339 60.1996 37.3195 60.5099C37.7041 61.1068 38.617 62.3366 39.2158 62.7073C39.273 63.1196 39.2203 63.5999 39.2191 64.0213L39.2158 66.8398C38.7297 66.8396 38.243 66.8366 37.7569 66.8448C35.1902 66.8874 35.7381 66.3538 35.7392 64.1038L35.7413 59.4473Z" fill="#FE5D0C"/>
<path d="M47.9297 25.5905C48.7111 25.594 49.4611 25.5907 50.2219 25.3848C50.9223 28.3146 53.9278 30.4374 56.9219 29.8538C57.408 29.759 57.8617 29.6077 58.3611 29.6868C57.5044 30.3113 56.9258 30.9488 55.8784 31.3005C52.5942 32.4037 49.5341 30.3229 48.4114 27.2271C48.218 26.6935 48.1078 26.1309 47.9297 25.5905Z" fill="#7676E8"/>
<path d="M45.2807 40.0305C45.5589 43.8415 40.4567 46.814 36.9641 44.0896C34.8491 42.4399 34.2402 39.1395 35.9317 37.0176C36.0553 37.4135 35.9261 37.8162 35.9844 38.217C36.6977 43.1226 42.4608 45.0171 44.7692 41.0302C44.9561 40.7076 45.0841 40.3449 45.2807 40.0305Z" fill="#7676E8"/>
<path d="M49.4477 52.0078H51.4303C49.9166 53.5114 50.1677 54.8062 50.3505 56.7187C50.5761 59.0778 50.9708 61.4398 51.6309 63.7178C51.8761 64.1792 52.3448 64.9214 52.3839 64.9214C52.3797 65.7297 52.4539 66.1098 52.8044 66.8405C52.3772 66.8403 49.9758 66.9225 49.7358 66.7772C49.1723 66.4356 48.6667 61.7952 48.1445 60.5106C49.6977 59.5198 49.4486 57.887 49.4489 56.2627L49.4477 52.0078Z" fill="#7FDACE"/>
<path d="M43.9503 27.7149C42.9108 26.7235 42.3646 25.7188 42.7557 24.2908C43.1166 22.9732 43.9399 22.6611 44.975 21.9466C46.4336 20.9399 46.791 19.8288 47.421 18.2608C49.6727 12.6575 57.7235 12.3988 60.481 17.7232C61.1327 18.9815 61.1843 19.8705 62.1614 21.074C63.3397 22.5249 65.1357 22.3118 65.3057 24.5752C65.3946 25.7561 64.998 26.7021 64.2347 27.5915C64.1325 27.323 64.2564 27.028 64.3052 26.759C64.8957 23.5015 62.271 23.6397 60.7924 21.6265C60.0121 20.5638 59.7691 19.4068 59.1574 18.2946C56.9802 14.3362 51.3303 14.3078 49.0571 18.1232C48.3452 19.3179 48.1168 20.7044 47.2186 21.8063C46.5655 22.6079 45.811 22.9507 44.9832 23.5077C43.2233 24.6921 43.9208 26.1111 43.9503 27.7149Z" fill="#FA8419"/>
<path d="M20.6253 16.25C20.6253 17.4569 21.1331 18.6719 21.2601 19.2738C22.8938 24.1211 28.8003 27.0689 33.2785 24.1091C33.5978 23.8981 34.0335 23.501 34.3878 23.3916L34.3387 23.5939C34.1048 24.5588 33.2231 25.4792 32.5098 26.1228C27.2074 30.9083 19.0645 26.7516 19.5267 19.3435C19.5978 18.2031 20.1618 16.8514 20.6253 16.25Z" fill="#7676E8"/>
<path d="M50.2227 25.3841C52.332 24.6405 53.8605 23.3249 55.11 21.4551C56.4672 23.3871 57.7895 24.7043 60.1063 25.3841C59.9123 27.4009 59.482 28.061 58.3619 29.6862C57.8625 29.6071 57.4088 29.7584 56.9227 29.8532C53.9286 30.4368 50.9231 28.314 50.2227 25.3841Z" fill="#FAFAF2"/>
<path d="M34.1742 47.5352C34.4734 48.01 34.8117 48.5478 35.2151 48.938C35.7943 49.1291 36.5192 49.8827 36.7984 50.4303C37.775 52.3467 36.0678 55.2145 39.8948 56.4852C41.2107 56.9219 42.591 56.7727 43.9514 56.8061V57.8819H35.932L35.9296 53.6347C35.9292 52.945 36.2671 51.0425 35.1285 51.0563C34.8489 51.0597 34.569 51.2497 34.4696 51.5133C34.0112 52.7316 34.6942 56.7913 34.3498 58.3566C34.0507 59.7167 32.1282 59.6575 31.8815 58.2986C31.7578 57.6166 31.839 56.6438 31.839 55.9211C31.8387 52.3 31.2109 50.2322 34.1742 47.5352Z" fill="#FE5D0C"/>
<path d="M17.9712 50.723C17.9662 51.7374 18.2784 52.8304 17.0862 53.2418C16.0013 53.6159 14.8571 52.7276 14.5706 51.7015C14.3868 51.0435 14.4814 49.6934 14.4812 48.9495L14.4815 40.3101C14.4839 34.9082 15.2121 33.6151 20.3295 31.659C21.1434 31.3479 21.9496 30.972 22.7834 30.7207C22.9377 31.4007 23.272 32.0124 23.6252 32.6063C23.1434 32.683 19.2916 34.2863 18.792 34.6071C16.2748 36.2232 16.306 39.1027 16.3085 41.726L16.3082 48.0012C16.3079 49.5804 16.1215 50.6288 17.9712 50.723Z" fill="#D7EC0B"/>
<path d="M35.9316 37.0198C38.4274 32.8995 44.9849 34.509 45.2805 40.0328C45.084 40.3472 44.956 40.7098 44.7691 41.0325C42.4607 45.0193 36.6976 43.1248 35.9843 38.2192C35.926 37.8184 36.0552 37.4157 35.9316 37.0198Z" fill="#FAFAF2"/>
<path d="M17.9727 38.7628C18.4186 36.8919 20.3514 36.3875 21.2308 37.9564C21.7147 38.8198 21.5025 40.3445 21.4995 41.3002L21.4973 58.607C21.4975 59.3503 21.3998 62.6341 21.6212 63.1242C22.2445 64.5045 25.4366 64.7533 26.71 64.7316V66.8409C25.4981 66.8417 20.0848 67.3222 19.6055 66.1561C19.4286 65.7258 19.5269 61.6442 19.5272 60.8345L19.5316 40.3803C19.5392 38.5905 19.7653 38.7447 17.9727 38.7628Z" fill="#D7EC0B"/>
<path d="M35.2148 48.9382C35.7738 48.754 36.322 48.5715 36.8672 48.3496C38.3364 50.7337 41.0786 50.9349 42.9508 48.821C43.91 48.8798 44.9745 48.833 45.8887 49.1745C46.5192 49.4098 47.1589 50.2751 47.7655 50.2623L47.7669 50.3215C47.7788 50.7124 47.8997 51.0829 47.9209 51.4695C47.9906 52.7359 48.0834 57.1788 47.8777 58.307C47.6225 59.7046 45.7667 59.6379 45.5369 58.2616C45.443 57.6991 45.5053 57.0545 45.5059 56.482L45.5084 52.9209C45.5083 52.4945 45.5739 51.8977 45.4259 51.4974C45.1617 50.7823 44.3297 50.9438 43.9511 51.4415C43.8953 53.2229 43.9514 55.0229 43.9511 56.8063C42.5908 56.7729 41.2105 56.9221 39.8945 56.4854C36.0675 55.2148 37.7747 52.347 36.7981 50.4305C36.5189 49.8829 35.7941 49.1293 35.2148 48.9382Z" fill="#FA8419"/>
<path d="M31.7506 30.7207C33.1975 30.9635 37.2484 32.5688 38.1103 33.4791C34.4745 34.7768 32.3771 38.5784 33.7164 42.2745C34.1307 43.4179 34.8293 44.2052 35.5815 45.1274C32.7064 45.7185 30.4225 48.709 30.29 51.5934C30.232 52.8505 30.2809 54.1263 30.2812 55.3863C30.2815 57.1721 29.8506 59.3413 31.607 60.4693C32.435 61.0009 33.2745 60.9266 34.1736 60.6907L34.1712 64.0724C34.1711 64.984 34.0911 65.9502 34.2967 66.8409H28.3189V64.7315V59.019V58.679C28.2603 58.2474 28.3137 57.7476 28.315 57.3087L28.3212 54.1565C28.3215 53.2284 28.2001 52.2329 28.2978 51.3168C28.6231 48.2618 30.2807 46.2441 32.6242 44.3582C31.3936 41.8768 30.914 39.7065 32.0323 36.9748C32.535 35.7473 33.4025 34.3765 34.6776 33.8479C33.4575 33.3752 32.1595 33.0143 30.9132 32.6063C31.2717 32.0026 31.5161 31.3807 31.7506 30.7207Z" fill="#7FDACE"/>
<path d="M28.2812 58.9844C29.3934 61.8191 31.0027 63.793 34.1406 64.1217L34.2969 66.9389C32.5781 66.9389 30.0583 67.0533 28.2812 66.9389V58.9844Z" fill="#D7EC0B"/>
<path d="M20.7617 17.45C22.3239 15.6215 24.2833 14.2794 26.7241 14.0778C29.2341 13.8705 31.8531 15.0727 33.3398 17.1106C33.9762 17.9829 35.0269 19.9228 35.115 20.9936C35.0139 21.8053 34.9083 22.7287 34.3872 23.3911C34.033 23.5004 33.5972 23.8976 33.278 24.1086C28.7997 27.0684 22.8933 24.1206 21.2595 19.2732C21.0634 18.6915 21.0547 18.5484 20.8591 17.9683L20.7617 17.45Z" fill="#FAFAF2"/>
<path d="M51.4293 52.0078H60.8896C60.8941 52.5422 60.7987 53.1158 60.8443 53.6403C60.898 54.2572 61.1963 54.7313 61.1137 55.3675C60.738 57.8439 60.2033 61.0319 59.5774 63.3881C59.5196 64.278 59.4141 66.575 58.2543 66.7969C56.7996 67.075 53.6638 67.2592 53.9382 64.9631C54.1707 63.0191 54.6122 60.7909 54.9629 58.8556C55.1077 58.0556 55.3787 56.9922 55.4179 56.2017C55.4469 55.6166 54.7512 55.1111 54.249 55.5256C53.5788 56.0789 53.5362 58.1711 53.3985 58.985C53.0746 60.9006 52.7454 63.0545 52.3829 64.9631C52.3829 64.9631 52.4317 65.2339 51.6016 63.7105C50.7716 62.187 50.5751 59.0778 50.3494 56.7187C50.1666 54.8062 49.9155 53.5114 51.4293 52.0078Z" fill="#7676E8"/>
<path d="M59.5777 63.3878C59.2761 64.0849 58.7591 64.9177 57.9402 65.0244C54.0255 65.5347 55.0623 63.7402 55.5234 61.1072L56.1994 57.273C56.4508 55.8392 56.3152 53.8141 58.093 53.8125C59.1164 53.8117 61.1244 53.8255 61.1139 55.3672C60.7383 57.8436 60.2036 61.0316 59.5777 63.3878Z" fill="#7FDACE"/>
<path d="M43.9499 27.7166C43.9204 26.1129 43.2229 24.6938 44.9827 23.5094C45.8106 22.9524 46.5651 22.6096 47.2182 21.808C48.1163 20.7061 48.3448 19.3196 49.0567 18.1249C51.3299 14.3095 56.9798 14.3379 59.157 18.2963C59.7687 19.4085 60.0117 20.5655 60.792 21.6282C62.2706 23.6414 64.8952 23.5032 64.3048 26.7607C64.256 27.0297 64.1321 27.3247 64.2343 27.5932C62.8709 29.4039 62.4506 30.9871 62.0146 33.1622C60.8474 32.6119 59.8585 31.9905 58.6285 31.5047C60.3229 29.9868 61.5004 27.9458 61.6234 25.6391C61.7476 23.308 61.3584 24.2164 60.1109 23.8121C56.9509 22.7877 55.9642 18.7529 55.1401 18.8391C54.1902 18.9386 53.1321 23.4782 49.149 24.0369C48.3795 24.1447 47.8073 23.8768 47.074 23.7479C46.7979 23.8882 46.6366 24.0121 46.4493 24.2646C46.2823 26.3682 47.0768 28.813 48.4176 30.4032C48.7981 30.8543 49.2649 31.2166 49.6034 31.7061C48.3215 31.9205 47.2251 32.5219 46.1151 33.1622C45.876 31.8688 44.7123 28.6638 43.9499 27.7166Z" fill="#FE5D0C"/>
<path d="M49.9403 34.8613C52.1741 38.4302 55.962 38.6596 58.1409 34.8613C60.0269 35.5857 63.7044 37.5918 63.8228 39.9143L63.7731 45.1527C63.7647 46.312 63.8439 47.4696 63.8228 48.6335H62.4094L62.4112 43.263C62.4114 42.3968 62.4681 41.4857 62.4023 40.6238C62.3275 39.642 61.3716 39.6473 60.8905 40.3201C60.8275 40.9537 60.8878 41.6416 60.8892 42.2823L60.8905 46.4532V50.4263C60.4784 50.4004 60.0578 50.4243 59.6447 50.4246L49.3205 50.4263C49.1597 49.9668 48.987 49.5066 48.7667 49.072C47.9461 47.4534 48.1411 48.1048 48.1417 46.1523L48.1441 42.2921C48.145 41.6554 48.1814 41.0071 48.1475 40.3721L48.1444 40.3201C47.9252 39.9988 47.6841 39.8482 47.327 39.7163C47.162 39.7737 47.0016 39.8465 46.8406 39.9143C46.8494 38.9045 46.6027 37.9043 46.1172 37.0193L46.4514 36.7668C46.8555 36.436 47.3186 36.1785 47.7664 35.9129C48.3214 35.4677 49.2328 35.0007 49.9403 34.8613Z" fill="#FE5D0C"/>
<path d="M23.6271 32.6055C26.0365 35.007 28.5001 35.145 30.9146 32.6055C32.1608 33.0134 33.4588 33.3744 34.679 33.847C33.4038 34.3756 32.5363 35.7464 32.0337 36.9739C30.9154 39.7056 31.3949 41.8759 32.6255 44.3573C30.2821 46.2433 28.6244 48.2609 28.2991 51.3159C28.2015 52.232 28.3229 53.2275 28.3226 54.1556L28.3163 57.3078C28.3151 57.7467 28.2616 58.2466 28.3202 58.6781H26.7104V64.7306C25.4369 64.7523 22.2449 64.5036 21.6216 63.1233C21.4002 62.6331 21.4979 59.3494 21.4977 58.6061L21.4999 41.2992C21.5029 40.3436 21.7151 38.8189 21.2312 37.9555C20.3518 36.3866 18.419 36.8909 17.973 38.7619V50.7222C16.1233 50.628 16.3098 49.5795 16.3101 48.0003L16.3104 41.7252C16.3079 39.1019 16.2766 36.2223 18.7938 34.6062C19.2935 34.2855 23.1452 32.6822 23.6271 32.6055Z" fill="#7FDACE"/>
<path d="M19.5273 19.3447C20.2628 14.8983 24.0628 11.7976 28.6102 12.561C32.6031 13.2312 35.437 16.9928 35.1163 20.9953C35.0281 19.9245 33.9775 17.9847 33.3411 17.1123C31.8544 15.0745 29.2353 13.8722 26.7253 14.0795C24.2845 14.2811 22.3252 15.6232 20.763 17.4517C20.2995 18.0531 19.8956 18.6811 19.5273 19.3447Z" fill="#FE5D0C"/>
<path fill-rule="evenodd" clip-rule="evenodd" d="M13.5938 49.2188C13.5938 48.8304 13.9085 48.5156 14.2969 48.5156H18.3594C18.7477 48.5156 19.0625 48.8304 19.0625 49.2188C19.0625 49.6071 18.7477 49.9219 18.3594 49.9219H14.2969C13.9085 49.9219 13.5938 49.6071 13.5938 49.2188Z" fill="#222B3B"/>
<path fill-rule="evenodd" clip-rule="evenodd" d="M30.3125 56.5625C30.3125 56.1742 30.6273 55.8594 31.0156 55.8594H35.0781C35.4665 55.8594 35.7812 56.1742 35.7812 56.5625C35.7812 56.9508 35.4665 57.2656 35.0781 57.2656H31.0156C30.6273 57.2656 30.3125 56.9508 30.3125 56.5625Z" fill="#222B3B"/>
<path fill-rule="evenodd" clip-rule="evenodd" d="M44.1406 56.5625C44.1406 56.1742 44.4554 55.8594 44.8438 55.8594H48.5547C48.943 55.8594 49.2578 56.1742 49.2578 56.5625C49.2578 56.9508 48.943 57.2656 48.5547 57.2656H44.8438C44.4554 57.2656 44.1406 56.9508 44.1406 56.5625Z" fill="#222B3B"/>
<path d="M18.125 49.9219H14.4531C14.4922 51.0938 14.218 53.4115 16.4062 53.3594C18.0469 53.3203 18.125 52.4609 18.125 49.9219Z" fill="#FAFAF2"/>
<path d="M34.4531 57.2656H31.7969C31.8359 58.4375 31.9141 59.375 33.0469 59.375C33.7901 59.375 34.4531 59.4531 34.4531 57.2656Z" fill="#FAFAF2"/>
<path d="M48.125 57.1875H45.4688C45.5078 58.3594 45.5859 59.2969 46.7187 59.2969C47.462 59.2969 48.125 59.375 48.125 57.1875Z" fill="#FAFAF2"/>
</svg>
