<svg width="123" height="122" viewBox="0 0 123 122" fill="none" xmlns="http://www.w3.org/2000/svg">
<path d="M59.7638 9.18924C60.6719 9.12451 61.6226 9.18843 62.5371 9.19224L66.7382 9.16975C73.699 9.15914 72.57 16.2346 72.5631 20.8137C77.6529 21.9785 80.0598 23.3578 84.6118 25.1295C85.9769 23.3707 89.1656 20.0195 91.2059 19.693C94.6766 19.1379 96.4914 21.7914 98.6568 23.9767C100.254 25.5886 102.295 26.9585 102.643 29.3472C103.284 33.7421 99.0125 35.4451 96.8251 38.5229C99.1398 42.0907 101.176 45.593 102.267 49.7445L105.63 49.7389C112.973 49.7346 113.51 52.4763 113.549 59.1148C113.563 61.5014 113.827 63.7429 112.067 65.6315C109.488 68.3994 105.132 67.2898 101.635 67.4063C100.708 72.8902 98.8734 74.931 97.1843 79.3423L97.1521 79.4283C99.2545 81.3881 102.51 84.1513 102.578 87.0446C102.65 90.1382 100.931 91.1798 98.9637 93.2241C97.0899 95.1713 95.4536 97.6672 92.4664 97.7034C89.4664 97.7398 86.7622 94.1402 84.6118 92.0533C80.2879 94.2155 77.4672 95.6071 72.5631 96.8816C72.711 97.6664 72.558 99.2561 72.5593 100.107C72.5657 104.363 72.6933 106.226 68.0033 107.835C66.5436 107.981 60.488 107.951 59.3371 107.72C57.0288 107.257 55.2507 105.184 54.8833 102.897C54.8219 102.515 54.8983 97.0874 54.9414 96.8816C49.8336 95.5725 47.4972 94.2659 43.091 92.0533C40.5635 93.7757 38.9899 97.3356 35.6184 97.542C32.4776 97.7345 30.6582 95.1753 28.689 93.1667C26.9548 91.3977 25.0186 90.1406 24.872 87.4796C24.6739 83.8771 28.1703 81.7808 30.4044 79.2809L30.4521 79.2267C28.5241 76.4824 25.9505 70.883 25.3874 67.4063L21.6778 67.4117C17.2949 67.4168 13.8113 66.2179 13.7969 61.1176L13.7977 57.6723C13.7774 51.6336 15.9089 49.6555 21.9049 49.6542L25.3874 49.6577C26.5549 45.6992 28.0924 41.7093 30.4521 38.2921C28.4979 36.0026 24.8974 33.6949 24.7216 30.5185C24.5592 27.586 26.6042 26.0952 28.4614 24.2209C30.3331 22.3315 32.0761 19.8289 34.962 19.6912C38.308 19.5317 40.6868 22.9201 43.091 25.1295C46.5467 23.2718 51.0231 21.2417 54.9414 20.8137L54.9345 16.6859C54.931 13.0843 55.407 10.0524 59.7638 9.18924ZM46.2996 74.1283C46.9378 75.1012 47.9767 75.9656 48.9078 76.6536C49.539 76.3382 50.2447 76.9455 50.81 77.2128C58.0098 80.6154 65.5846 81.2206 72.9919 77.7389C82.0974 73.4585 86.5896 63.0053 84.4826 53.367C82.6782 45.113 76.019 38.9703 67.8334 37.0933C66.4646 36.7794 63.6202 36.7116 62.6325 36.3597L62.5977 36.2669C62.892 35.8391 64.3994 35.9233 64.9194 35.8081C59.9193 35.655 53.2338 38.7414 49.7229 42.0486C41.1277 50.146 40.5094 61.1052 45.0391 71.3729C45.3044 71.9741 46.249 73.6732 46.2996 74.1283ZM32.1195 59.7214C32.1294 64.5057 31.8223 65.2675 27.8637 67.4063C28.4017 71.2692 30.8094 74.2843 32.1195 77.6582C35.0536 76.4384 37.9079 76.7075 39.9822 79.2267C40.2563 79.4891 40.5485 79.7464 40.8026 80.0279C41.7386 78.435 43.425 77.3007 44.6571 75.9345C40.5477 71.3917 38.2073 65.8604 37.9797 59.7214L34.2375 59.715C33.5334 59.7104 32.8217 59.663 32.1195 59.7214ZM81.0784 77.6582L80.9934 77.7075C79.9017 78.3527 79.0049 79.3441 77.9376 80.0499C73.254 83.1472 70.1765 83.8226 64.9194 84.523V89.9402C67.6594 89.9249 70.1076 90.157 71.6903 92.6494C72.1278 93.2262 72.3307 93.8009 72.5631 94.4811C76.1423 93.4436 79.7816 92.2018 82.9795 90.2508C80.5233 85.9894 82.6841 84.4099 85.0302 81.4752C84.2682 80.7684 81.6954 77.9648 81.0784 77.6582ZM90.119 59.7214H89.3677C89.3977 64.1452 87.733 69.0759 85.2934 72.7337C84.5392 73.8645 83.5708 74.8262 82.8088 75.9345C84.1607 77.291 85.5046 78.8054 86.9702 80.0279C87.6794 78.7169 88.7923 77.8405 90.119 77.1983C92.0191 76.5649 93.519 76.852 95.3161 77.6582C97.2558 74.3998 98.3518 70.7436 99.2733 67.0965C95.6613 65.7011 95.2673 63.1699 95.3161 59.7214H90.119ZM46.2996 77.6582C45.0246 78.9842 43.7887 80.3964 42.2888 81.4752C45.5438 84.8543 46.0552 85.9567 44.6571 90.2508C47.9081 92.1862 51.3016 93.4747 54.9414 94.4811C55.1443 93.6591 55.426 92.9775 55.8554 92.2455C57.8935 89.9616 59.7593 89.8611 62.5457 89.9402C62.5492 88.1352 62.5736 86.3274 62.5457 84.523C55.0776 84.0687 51.7674 81.858 46.2996 77.6582ZM86.6585 37.4615C85.3529 38.5339 83.9248 40.015 82.8088 41.2986C86.5947 45.1167 89.4891 51.9858 89.3677 57.3839H95.3161C95.3126 56.842 95.289 56.2912 95.3161 55.75C95.5324 52.4835 97.1272 51.0949 99.8206 49.7445C98.1875 45.3888 97.2071 43.8597 95.0065 40.0515C89.4787 42.5193 87.8341 37.4932 86.6585 37.4615ZM40.8026 37.4615C38.0119 40.1142 36.0485 41.4503 32.3189 39.7912C30.484 43.0076 28.9546 46.1947 27.8637 49.7445C31.22 50.9193 32.1932 52.9818 32.1195 56.3397V57.3839C34.0708 57.3877 36.0295 57.4247 37.9797 57.3839C38.1818 51.4387 40.7203 45.7008 44.6571 41.2986L41.9554 38.6425C41.585 38.2718 41.2009 37.7893 40.8026 37.4615ZM54.9414 23.1672C51.8347 23.7218 47.4554 25.3206 44.6571 26.9816C46.9611 31.574 44.785 32.6877 42.4829 35.8081C43.8072 37.0469 45.2832 38.2766 46.2996 39.7912C46.8081 39.2592 47.3208 38.7473 47.9006 38.2921C52.3485 34.8078 57.0286 33.2545 62.5457 32.7916V27.5249C59.7611 27.5265 57.2559 27.2217 55.775 24.6114C55.5799 24.2672 55.348 23.1919 54.9414 23.1672ZM72.3695 23.1672C70.6584 26.8872 68.6769 27.516 64.9194 27.5249V32.7916C70.9232 33.1966 74.748 34.9932 79.6784 38.2921L81.0784 39.5045C82.3979 38.2101 83.6871 36.8719 85.0302 35.6038C82.1912 33.7667 80.6206 30.3003 82.6445 27.226L82.8088 26.9816C79.3962 25.4337 76.0249 24.0496 72.3695 23.1672ZM60.8057 25.1295C59.9699 24.3471 59.7751 23.3524 59.7638 22.2471L60.803 22.2492C68.047 22.2573 67.2156 20.9702 67.2129 14.1758C68.5906 14.1849 69.3979 14.3156 70.1502 15.5092C70.0197 11.1874 67.9478 11.5097 64.3876 11.5142C61.9097 11.5173 58.0964 10.8022 57.4044 14.067C57.187 15.0928 57.2283 20.2428 57.3199 21.4419C57.4786 23.5154 58.7043 24.9823 60.8057 25.1295ZM46.2996 74.1283C46.249 73.6732 45.3044 71.9741 45.0391 71.3729C40.5094 61.1052 41.1277 50.146 49.7229 42.0486C53.2338 38.7414 59.9193 35.655 64.9194 35.8081C66.8808 35.7837 68.9723 36.435 70.6346 36.3696C65.3799 34.3837 59.0597 34.9447 54.0028 37.2452C42.3188 42.5603 36.9786 56.8704 42.4421 68.5066C43.3848 70.5144 44.667 72.6099 46.2996 74.1283ZM101.907 65.0311C101.413 64.5079 101.139 63.9892 100.851 63.3344C100.355 62.4095 100.605 60.7005 100.598 59.6715C100.567 55.3134 101.42 54.7318 105.692 54.7602H111.108C109.785 51.6808 107.466 51.9861 104.683 51.9836C102.228 51.9815 99.0216 51.5012 97.9859 54.4281C97.5083 55.7776 97.4467 61.8378 98.0961 63.1637C98.8938 64.7928 100.287 64.9753 101.907 65.0311ZM21.234 65.0311C20.1088 64.6984 19.4891 64.0292 18.9388 63.0257C19.0416 60.9358 18.3409 56.9175 19.805 55.4973C21.0594 54.2807 25.0674 54.7607 27.0001 54.7602H29.7582C28.7796 51.4666 26.0845 51.989 23.3525 51.9818C16.627 51.9638 16.1234 52.4688 16.1407 58.7991C16.1519 62.9399 16.4574 65.6355 21.234 65.0311ZM61.584 105.469C60.7319 104.868 60.0402 104.229 59.5044 103.331C59.5711 101.735 59.2918 98.0111 59.6151 96.7229C60.3077 93.9635 65.0639 94.8405 67.2129 94.8499C68.1966 94.9065 69.166 94.9183 70.1502 94.8499C69.2044 91.9549 66.7865 92.2538 64.2772 92.2498C57.355 92.2382 57.0881 92.6154 57.1173 98.9347C57.1363 103.057 56.8509 105.363 61.584 105.469ZM35.3372 38.2921C34.7111 37.6427 34.0678 37.0086 33.4312 36.3696C32.0201 35.1897 28.5957 32.2701 30.3824 30.2105C31.0275 29.467 35.0445 25.4664 35.6736 25.1295C36.9263 24.1281 38.2842 24.6784 39.6107 25.1295C37.5383 22.8424 35.714 20.5263 32.8593 23.1702C31.4784 24.449 27.1808 28.2662 27.1004 30.0108C26.9945 32.3103 33.0134 37.9893 35.3372 38.2921ZM91.0271 94.8499V94.4811C90.8489 91.6829 85.7957 89.4381 87.3661 86.7828C88.2457 85.2957 91.3008 82.1075 93.3364 82.1019C95.1006 82.093 96.2296 82.8878 97.1521 82.8931C92.1445 77.5424 91.7076 78.1895 87.1356 82.7677C85.4612 84.4439 83.3338 86.2553 84.8176 88.7815C85.526 89.9879 89.4835 93.8579 91.0271 94.8499ZM87.4288 34.6917C88.2626 34.6553 89.2391 35.0954 90.119 35.1755C89.0523 33.6499 87.0439 32.6544 87.4283 30.4341C87.8373 28.0703 91.4618 24.8368 94.371 25.3396C95.144 25.434 96.0569 25.6371 96.8251 25.5983C94.7171 23.3795 92.6768 20.2704 89.7057 23.1798C85.4022 27.3941 81.0663 29.8757 87.4288 34.6917ZM33.8169 94.8499C33.6781 94.1083 33.4881 93.4066 33.4312 92.6494C32.2144 90.9721 29.469 89.3191 30.2119 87.2995C30.8008 85.6986 34.8054 82.1523 36.3249 81.4752C37.133 81.346 38.0668 81.4551 38.8862 81.4752C35.1389 77.1519 33.2632 79.6349 30.1363 82.8293C26.0888 86.9642 25.9717 87.1352 30.22 91.4004C31.1704 92.3546 32.6942 94.2479 33.8169 94.8499Z" fill="#222B3B"/>
<path d="M87.1034 58.4123C87.1034 71.3257 76.5257 82.2311 63.6123 82.2311C50.699 82.2311 40.3398 71.3257 40.3398 58.4123C40.3398 45.4989 50.8082 35.0305 63.7216 35.0305C76.635 35.0305 87.1034 45.4989 87.1034 58.4123Z" fill="#7FDACE"/>
<path d="M29.7588 54.761C29.7854 56.3164 29.9706 61.2374 29.6696 62.5942C29.0729 65.2825 26.8298 65.0544 24.8871 65.0209C24.0061 65.0056 21.9157 65.1865 21.2347 65.0319C20.1095 64.6993 19.4898 64.03 18.9395 63.0265C20.0323 62.476 23.7933 64.0128 25.9048 61.9962C27.506 60.4665 26.9769 56.8993 27.0008 54.761H29.7588Z" fill="#FE5D0C"/>
<path d="M58.2583 71.8509C58.2583 73.1181 57.5245 74.1453 56.6194 74.1453C55.7142 74.1453 54.9805 73.1181 54.9805 71.8509C54.9805 70.5837 55.7142 69.5564 56.6194 69.5564C57.5245 69.5564 58.2583 70.5837 58.2583 71.8509Z" fill="#FDBA05"/>
<path d="M72.0259 71.8509C72.0259 73.1181 71.2921 74.1453 70.387 74.1453C69.4818 74.1453 68.748 73.1181 68.748 71.8509C68.748 70.5837 69.4818 69.5564 70.387 69.5564C71.2921 69.5564 72.0259 70.5837 72.0259 71.8509Z" fill="#FDBA05"/>
<path d="M93.3367 82.1014C95.1009 82.0925 96.2298 82.8873 97.1524 82.8926C101.958 87.0833 100.877 87.9284 96.7857 92.0949C95.4506 93.4546 93.2681 96.686 91.0273 94.8494V94.4806C91.3999 94.2437 94.649 90.6483 95.0931 90.149C97.4584 87.4899 96.2955 83.6994 93.3367 82.1014Z" fill="#FA8419"/>
<path d="M35.674 25.1289C36.9267 24.1276 38.2846 24.6778 39.6111 25.1289C40.7866 26.0064 43.0172 28.2316 43.2174 29.567C43.5653 31.8881 41.1638 33.5901 39.7362 35.0372C38.436 36.3548 37.2996 38.0238 35.3376 38.2916C34.7115 37.6422 34.0682 37.008 33.4316 36.369C35.4223 35.7544 41.7424 31.419 39.4784 28.7023C38.9364 28.0518 36.3403 25.5374 35.674 25.1289Z" fill="#FA8419"/>
<path d="M111.109 54.761L111.115 59.6756C111.125 65.4329 110.029 65.0306 104.681 65.0314C103.762 65.0316 102.825 65.1024 101.908 65.0319C101.414 64.5087 101.14 63.9901 100.852 63.3353C102.258 62.8812 104.339 64.079 106.317 62.2985C108.816 60.0484 107.668 56.8886 105.692 54.761H111.109Z" fill="#FE5D0C"/>
<path d="M94.37 25.3401C95.143 25.4344 96.0559 25.6376 96.8241 25.5987C99.9852 28.5902 102.059 29.6639 98.2401 33.5565L95.575 36.239C94.6544 37.1774 93.869 38.4044 92.4233 38.4202C90.46 38.4417 88.6869 36.0605 87.4277 34.6922C88.2616 34.6557 89.238 35.0958 90.118 35.176C91.6744 37.4264 95.2387 33.0768 96.0342 31.9813C97.5196 29.9355 95.4188 27.0962 94.37 25.3401Z" fill="#FA8419"/>
<path d="M38.8866 81.4752C39.8413 82.2557 41.8931 84.1499 42.5141 85.1462C44.2839 87.9854 41.8009 89.8506 39.9407 91.7207C38.5907 93.0777 36.0594 96.601 33.8173 94.8499C33.6785 94.1083 33.4885 93.4066 33.4316 92.6494C35.8243 92.2586 38.6478 89.8522 39.353 87.7836C40.3771 84.7803 37.4467 83.7128 36.3253 81.4752C37.1334 81.346 38.0672 81.4551 38.8866 81.4752Z" fill="#FA8419"/>
<path d="M67.2124 94.8506C68.1961 94.9071 69.1656 94.9189 70.1498 94.8506C70.3739 95.5249 70.3538 101.692 70.2656 102.671C69.919 106.527 64.3459 105.534 61.5835 105.47C60.7315 104.868 60.0397 104.229 59.5039 103.331C66.5 103.166 67.2108 101.809 67.2124 94.8506Z" fill="#FE5D0C"/>
<path d="M67.2128 14.1765C68.5904 14.1856 69.3977 14.3163 70.1501 15.5099L70.156 18.9617C70.1651 24.6013 69.2179 25.1264 63.8163 25.1278C62.8214 25.128 61.7956 25.2192 60.8055 25.1302C59.9698 24.3478 59.7749 23.3531 59.7637 22.2478L60.8028 22.2499C68.0469 22.258 67.2154 20.9709 67.2128 14.1765Z" fill="#FE5D0C"/>
<path d="M100.851 63.3343C100.355 62.4093 100.605 60.7003 100.598 59.6714C100.567 55.3132 101.42 54.7316 105.692 54.76C107.668 56.8876 108.816 60.0474 106.317 62.2975C104.339 64.078 102.258 62.8802 100.851 63.3343Z" fill="#FA8419"/>
<path d="M59.5039 103.33C59.5707 101.735 59.2914 98.0108 59.6146 96.7226C60.3072 93.9633 65.0634 94.8403 67.2125 94.8497C67.2109 101.808 66.5 103.165 59.5039 103.33Z" fill="#FA8419"/>
<path d="M18.9387 63.0257C19.0415 60.9359 18.3408 56.9176 19.805 55.4973C21.0594 54.2807 25.0673 54.7607 27.0001 54.7602C26.9762 56.8985 27.5053 60.4657 25.9041 61.9954C23.7926 64.012 20.0316 62.4752 18.9387 63.0257Z" fill="#FA8419"/>
<path d="M33.4308 92.6497C32.214 90.9724 29.4685 89.3195 30.2115 87.2999C30.8004 85.6989 34.805 82.1526 36.3245 81.4756C37.4459 83.7131 40.3763 84.7807 39.3521 87.7839C38.6469 89.8526 35.8235 92.259 33.4308 92.6497Z" fill="#FDBA05"/>
<path d="M90.1179 35.1755C89.0511 33.6499 87.0427 32.6544 87.4271 30.434C87.8361 28.0703 91.4607 24.8368 94.3699 25.3396C95.4187 27.0957 97.5195 29.935 96.0341 31.9808C95.2386 33.0763 91.6743 37.4259 90.1179 35.1755Z" fill="#FDBA05"/>
<path d="M33.4303 36.3692C32.0191 35.1894 28.5948 32.2697 30.3814 30.2102C31.0266 29.4667 35.0436 25.4661 35.6726 25.1292C36.3389 25.5376 38.9351 28.052 39.477 28.7025C41.7411 31.4193 35.4209 35.7547 33.4303 36.3692Z" fill="#FDBA05"/>
<path d="M91.0276 94.4805C90.8494 91.6823 85.7962 89.4376 87.3666 86.7822C88.2463 85.2952 91.3013 82.1069 93.337 82.1013C96.2958 83.6993 97.4587 87.4898 95.0934 90.1489C94.6493 90.6483 91.4002 94.2436 91.0276 94.4805Z" fill="#FDBA05"/>
<path d="M59.7646 22.2465L59.7598 17.8321C59.7654 13.032 63.6323 14.1624 67.2137 14.1753C67.2164 20.9696 68.0478 22.2567 60.8037 22.2487L59.7646 22.2465Z" fill="#FA8419"/>
<path d="M62.7393 41.5194C70.1852 40.6625 75.1491 49.4485 70.4111 55.4907C68.8643 57.4637 67.76 57.3077 70.9576 58.171C77.2105 59.8588 78.3877 63.0763 78.3898 69.2013C78.3922 75.2561 75.9092 75.5115 70.6834 75.5067L64.14 75.5064L57.3066 75.5104C54.0385 75.5107 50.4381 75.828 49.1832 71.9057C48.7803 70.647 48.7838 66.6662 49.0269 65.3486C49.9141 60.5372 54.8206 58.6916 58.9494 57.3841C52.0337 52.7081 54.7973 42.5806 62.7393 41.5194ZM70.2902 70.1027C69.4583 70.7239 69.8314 72.252 69.819 73.1544H70.9464L71.2672 73.1437C71.4235 72.9443 71.8979 69.9912 70.2902 70.1027ZM56.5644 70.1027C55.6011 70.6963 56.0981 72.189 56.0252 73.1544H57.1182L57.4575 73.1298C57.7156 72.773 58.037 70.0724 56.5644 70.1027Z" fill="#222B3B"/>
<path d="M69.1245 60.0083C74.3178 61.483 76.1549 62.8229 76.0635 68.3186C75.4977 67.7873 75.3653 66.7305 75.0771 66.0194C73.9627 63.2681 71.4282 62.0059 68.8457 60.9148C68.9417 60.6138 69.0419 60.3133 69.1245 60.0083Z" fill="#FE5D0C"/>
<path d="M51.335 69.7423C51.3216 67.7104 51.0096 65.4724 52.2157 63.7076C53.4385 61.9183 56.3503 60.4036 58.4538 60.0083L58.6991 60.9148C56.554 61.4251 53.1487 64.8251 52.4599 66.8672C52.2833 67.3906 51.7898 69.9884 51.4127 70.2052L51.335 69.7423Z" fill="#FE5D0C"/>
<path d="M66.6786 58.2629L66.7646 58.3034C67.4363 61.1863 63.8343 63.4901 61.5842 61.1215C60.8219 60.244 60.7222 59.3871 60.8058 58.2629C63.0972 58.821 64.4033 58.7754 66.6786 58.2629Z" fill="#FDBA05"/>
<path d="M63.0857 43.7904C70.862 42.9855 72.8345 55.2516 64.139 56.3395C62.7351 56.5641 61.0452 55.9758 59.9205 55.1575C55.2203 51.7372 57.2469 44.6848 63.0857 43.7904Z" fill="#FDBA05"/>
<path d="M51.3351 69.7428L51.4129 70.2057C51.79 69.9889 52.2834 67.3911 52.46 66.8677C53.1489 64.8256 56.5542 61.4256 58.6992 60.9153C60.6084 65.635 66.7527 65.6527 68.846 60.9153C71.4285 62.0064 73.963 63.2686 75.0775 66.0199C75.3656 66.731 75.498 67.7878 76.0638 68.3191C76.0794 70.5346 76.2646 72.4751 73.7754 73.1541C73.7848 71.6496 74.0501 69.8249 72.892 68.6648C71.6384 67.4091 69.5435 67.4788 68.3215 68.7431C67.1872 69.9165 67.4496 71.6606 67.4587 73.1541H59.7644C59.7523 71.5298 60.2415 69.9082 58.9322 68.6072C57.6898 67.3727 55.6027 67.4177 54.444 68.7463C53.4268 69.9125 53.7069 71.7123 53.7201 73.1541C51.8591 72.5687 51.2311 71.6359 51.3351 69.7428Z" fill="#FA8419"/>
<path d="M44.2728 49.9988C36.5153 69.775 57.5668 83.3373 56.8537 83.0606C45.5896 78.6895 37.5467 67.2124 40.2109 55.2601C42.875 43.3078 54.2155 34.0467 59.46 36.7783C59.46 36.7783 51.921 36.4505 44.2728 49.9988Z" fill="#F5F5F5"/>
<path d="M81.6803 50.8092C74.8311 35.3417 55.1818 36.8785 55.8751 36.5556C67.5806 31.1025 81.1938 38.1139 86.7486 50.0376C92.3033 61.9612 83.4355 79.9742 66.4526 82.5596C66.4526 82.5596 91.6379 76.0639 81.6803 50.8092Z" fill="#D7EC0B"/>
<path fill-rule="evenodd" clip-rule="evenodd" d="M89.507 58.6304C89.507 72.7507 78.0603 84.1974 63.94 84.1974C49.8198 84.1974 38.373 72.7507 38.373 58.6304C38.373 44.5102 49.8198 33.0635 63.94 33.0635C78.0603 33.0635 89.507 44.5102 89.507 58.6304ZM63.94 82.0122C76.8534 82.0122 87.3218 71.5438 87.3218 58.6304C87.3218 45.7171 76.8534 35.2487 63.94 35.2487C51.0266 35.2487 40.5583 45.7171 40.5583 58.6304C40.5583 71.5438 51.0266 82.0122 63.94 82.0122Z" fill="#222B3B"/>
</svg>
