<svg width="80" height="80" viewBox="0 0 80 80" fill="none" xmlns="http://www.w3.org/2000/svg">
<path d="M38.8552 6.02477C39.4506 5.98232 40.074 6.02424 40.6737 6.02674L43.4285 6.01199C47.993 6.00503 47.2527 10.6447 47.2481 13.6473C50.5857 14.4112 52.164 15.3156 55.1489 16.4774C56.044 15.3241 58.135 13.1266 59.4729 12.9125C61.7488 12.5485 62.9388 14.2885 64.3588 15.7215C65.4061 16.7785 66.7445 17.6768 66.9728 19.2431C67.393 22.125 64.592 23.2418 63.1576 25.26C64.6755 27.5995 66.0105 29.8961 66.7262 32.6184L68.9316 32.6147C73.7467 32.6119 74.0985 34.4097 74.1244 38.7629C74.1335 40.3278 74.3063 41.7977 73.1526 43.0361C71.4615 44.8511 68.6049 44.1235 66.3114 44.1999C65.7038 47.7959 64.5008 49.1341 63.3932 52.0267L63.3721 52.0832C64.7507 53.3683 66.8853 55.1802 66.9299 57.0775C66.9775 59.1061 65.8501 59.7891 64.56 61.1296C63.3313 62.4064 62.2583 64.0431 60.2995 64.0668C58.3322 64.0907 56.559 61.7303 55.1489 60.3619C52.3136 61.7797 50.4639 62.6922 47.2481 63.5279C47.3451 64.0426 47.2448 65.085 47.2456 65.6428C47.2499 68.4337 47.3335 69.6555 44.2581 70.7106C43.3009 70.8062 39.3301 70.7869 38.5753 70.6354C37.0617 70.3317 35.8958 68.9719 35.6548 67.4723C35.6145 67.222 35.6646 63.6629 35.6929 63.5279C32.3435 62.6695 30.8114 61.8127 27.9222 60.3619C26.2648 61.4913 25.2329 63.8257 23.0221 63.961C20.9625 64.0872 19.7695 62.4091 18.4782 61.092C17.3411 59.932 16.0714 59.1077 15.9753 57.3627C15.8454 55.0004 18.1381 53.6258 19.6031 51.9865L19.6343 51.951C18.3701 50.1514 16.6825 46.4797 16.3132 44.1999L13.8807 44.2034C11.0067 44.2068 8.72238 43.4206 8.71289 40.0761L8.71345 37.8169C8.70011 33.8571 10.0979 32.56 14.0296 32.5592L16.3132 32.5615C17.0788 29.9657 18.087 27.3494 19.6343 25.1086C18.3529 23.6073 15.9919 22.0941 15.8767 20.0112C15.7701 18.0882 17.1112 17.1106 18.329 15.8816C19.5563 14.6427 20.6993 13.0016 22.5916 12.9113C24.7858 12.8067 26.3456 15.0286 27.9222 16.4774C30.1882 15.2592 33.1235 13.928 35.6929 13.6473L35.6884 10.9406C35.6861 8.57889 35.9982 6.59079 38.8552 6.02477ZM30.0262 48.6077C30.4446 49.2457 31.1259 49.8126 31.7365 50.2637C32.1504 50.0569 32.6131 50.4551 32.9838 50.6304C37.705 52.8616 42.6721 53.2585 47.5293 50.9754C53.5001 48.1685 56.4458 41.314 55.0642 34.9938C53.881 29.5813 49.5143 25.5533 44.1467 24.3225C43.2491 24.1167 41.3839 24.0722 40.7363 23.8414L40.7134 23.7806C40.9064 23.5001 41.8949 23.5553 42.2358 23.4797C38.9571 23.3794 34.5732 25.4032 32.2709 27.5719C26.6348 32.8817 26.2293 40.0681 29.1996 46.801C29.3736 47.1952 29.9929 48.3093 30.0262 48.6077ZM20.7277 39.1606C20.7342 42.2979 20.5328 42.7974 17.9371 44.1999C18.2898 46.7329 19.8686 48.71 20.7277 50.9225C22.6517 50.1226 24.5234 50.2991 25.8836 51.951C26.0634 52.1231 26.2549 52.2918 26.4216 52.4763C27.0353 51.4318 28.1412 50.688 28.9491 49.7922C26.2544 46.8133 24.7197 43.1862 24.5705 39.1606L22.1166 39.1564C21.6548 39.1534 21.1882 39.1223 20.7277 39.1606ZM52.8319 50.9225L52.7762 50.9548C52.0603 51.3778 51.4722 52.028 50.7724 52.4907C47.7012 54.5218 45.6832 54.9647 42.2358 55.424V58.9762C44.0326 58.9662 45.638 59.1184 46.6758 60.7527C46.9627 61.131 47.0957 61.5078 47.2481 61.9539C49.5952 61.2735 51.9816 60.4592 54.0785 59.1799C52.4679 56.3855 53.8849 55.3498 55.4233 53.4254C54.9236 52.9619 53.2365 51.1235 52.8319 50.9225ZM58.7602 39.1606H58.2675C58.2872 42.0615 57.1956 45.2947 55.5959 47.6933C55.1013 48.4348 54.4663 49.0654 53.9666 49.7922C54.8531 50.6817 55.7344 51.6747 56.6954 52.4763C57.1604 51.6167 57.8902 51.042 58.7602 50.6209C60.0061 50.2056 60.9897 50.3938 62.1681 50.9225C63.4401 48.7858 64.1588 46.3883 64.763 43.9967C62.3945 43.0818 62.1361 41.4219 62.1681 39.1606H58.7602ZM30.0262 50.9225C29.1901 51.7919 28.3797 52.718 27.3961 53.4254C29.5305 55.6412 29.8659 56.3641 28.9491 59.1799C31.0809 60.449 33.3061 61.2939 35.6929 61.9539C35.826 61.4148 36.0107 60.9679 36.2923 60.4879C37.6287 58.9902 38.8522 58.9243 40.6793 58.9762C40.6816 57.7926 40.6976 56.6072 40.6793 55.424C35.7822 55.126 33.6116 53.6764 30.0262 50.9225ZM56.491 24.564C55.6349 25.2672 54.6984 26.2384 53.9666 27.0801C56.4492 29.5838 58.3472 34.0881 58.2675 37.6278H62.1681C62.1658 37.2725 62.1504 36.9113 62.1681 36.5564C62.31 34.4145 63.3557 33.5039 65.1219 32.6184C64.051 29.7622 63.4081 28.7595 61.9651 26.2623C58.3403 27.8805 57.2619 24.5847 56.491 24.564ZM26.4216 24.564C24.5916 26.3034 23.3042 27.1796 20.8585 26.0917C19.6553 28.2007 18.6524 30.2907 17.9371 32.6184C20.1379 33.3887 20.7761 34.7412 20.7277 36.9431V37.6278C22.0072 37.6303 23.2917 37.6546 24.5705 37.6278C24.703 33.7294 26.3676 29.9668 28.9491 27.0801L27.1775 25.3384C26.9346 25.0953 26.6827 24.7789 26.4216 24.564ZM35.6929 15.1907C33.6557 15.5543 30.784 16.6027 28.9491 17.6919C30.4599 20.7033 29.033 21.4336 27.5234 23.4797C28.3918 24.2921 29.3597 25.0984 30.0262 26.0917C30.3596 25.7428 30.6958 25.4071 31.076 25.1086C33.9927 22.8238 37.0616 21.8053 40.6793 21.5018V18.0481C38.8534 18.0492 37.2106 17.8493 36.2395 16.1376C36.1116 15.912 35.9596 15.2068 35.6929 15.1907ZM47.1212 15.1907C45.9992 17.63 44.6998 18.0423 42.2358 18.0481V21.5018C46.1728 21.7673 48.6809 22.9454 51.9139 25.1086L52.8319 25.9036C53.6972 25.0549 54.5425 24.1773 55.4233 23.3458C53.5616 22.1412 52.5317 19.8681 53.8588 17.8522L53.9666 17.6919C51.7288 16.6769 49.5182 15.7693 47.1212 15.1907ZM39.5383 16.4774C38.9903 15.9643 38.8625 15.3121 38.8552 14.5873L39.5366 14.5887C44.2868 14.594 43.7416 13.75 43.7398 9.29466C44.6432 9.30062 45.1726 9.38632 45.6659 10.169C45.5803 7.33506 44.2217 7.5464 41.8871 7.54932C40.2623 7.55134 37.7618 7.08244 37.308 9.22332C37.1654 9.89594 37.1925 13.273 37.2526 14.0593C37.3566 15.419 38.1604 16.3809 39.5383 16.4774ZM30.0262 48.6077C29.9929 48.3093 29.3736 47.1952 29.1996 46.801C26.2293 40.0681 26.6348 32.8817 32.2709 27.5719C34.5732 25.4032 38.9571 23.3794 42.2358 23.4797C43.522 23.4637 44.8935 23.8908 45.9835 23.8479C42.5378 22.5458 38.3934 22.9136 35.0774 24.4221C27.4158 27.9074 23.914 37.2911 27.4967 44.9214C28.1148 46.238 28.9556 47.6121 30.0262 48.6077ZM66.4903 42.6424C66.1661 42.2993 65.9865 41.9592 65.7975 41.5298C65.472 40.9233 65.6362 39.8027 65.6314 39.1279C65.6112 36.2701 66.1706 35.8887 68.9719 35.9073H72.5236C71.6562 33.8881 70.1352 34.0883 68.3105 34.0867C66.7007 34.0853 64.598 33.7703 63.9188 35.6896C63.6056 36.5745 63.5652 40.5484 63.9911 41.4179C64.5141 42.4861 65.4277 42.6058 66.4903 42.6424ZM13.5897 42.6424C12.8519 42.4242 12.4455 41.9854 12.0846 41.3273C12.152 39.957 11.6926 37.322 12.6526 36.3907C13.4752 35.5929 16.1034 35.9077 17.3708 35.9073H19.1793C18.5376 33.7476 16.7704 34.0902 14.9789 34.0854C10.5687 34.0737 10.2385 34.4048 10.2498 38.5558C10.2572 41.2711 10.4575 43.0387 13.5897 42.6424ZM40.0487 69.159C39.49 68.7646 39.0364 68.3458 38.685 67.7568C38.7288 66.7106 38.5456 64.2686 38.7576 63.4239C39.2118 61.6145 42.3306 62.1896 43.7398 62.1957C44.3848 62.2328 45.0205 62.2405 45.6659 62.1957C45.0457 60.2974 43.4602 60.4933 41.8147 60.4907C37.2756 60.4831 37.1006 60.7304 37.1197 64.8742C37.1322 67.5772 36.945 69.0893 40.0487 69.159ZM22.8377 25.1086C22.4271 24.6828 22.0053 24.2669 21.5879 23.8479C20.6625 23.0743 18.417 21.1597 19.5886 19.8092C20.0117 19.3217 22.6458 16.6983 23.0583 16.4774C23.8798 15.8208 24.7701 16.1816 25.64 16.4774C24.281 14.9776 23.0848 13.4589 21.2128 15.1926C20.3073 16.0311 17.4892 18.5343 17.4365 19.6783C17.3671 21.1861 21.3139 24.91 22.8377 25.1086ZM59.3557 62.1957V61.9539C59.2388 60.119 55.9252 58.647 56.955 56.9058C57.5318 55.9307 59.5351 53.84 60.87 53.8363C62.0268 53.8305 62.7671 54.3517 63.3721 54.3552C60.0884 50.8465 59.8019 51.2708 56.8038 54.2729C55.7059 55.3721 54.3109 56.5599 55.2839 58.2164C55.7484 59.0075 58.3435 61.5452 59.3557 62.1957ZM56.9961 22.7477C57.5429 22.7238 58.1832 23.0124 58.7602 23.0649C58.0607 22.0645 56.7437 21.4118 56.9958 19.9558C57.264 18.4058 59.6407 16.2855 61.5484 16.6152C62.0553 16.677 62.6539 16.8103 63.1576 16.7848C61.7753 15.3299 60.4374 13.2911 58.4892 15.1989C55.6672 17.9624 52.824 19.5897 56.9961 22.7477ZM21.8408 62.1957C21.7498 61.7094 21.6251 61.2493 21.5879 60.7527C20.7899 59.6529 18.9897 58.569 19.4769 57.2446C19.863 56.1948 22.489 53.8694 23.4854 53.4254C24.0153 53.3407 24.6276 53.4122 25.1649 53.4254C22.7076 50.5905 21.4777 52.2187 19.4273 54.3133C16.7732 57.0247 16.6964 57.1369 19.4821 59.9337C20.1054 60.5594 21.1045 61.801 21.8408 62.1957Z" fill="#222B3B"/>
<path d="M56.7818 38.303C56.7818 46.7708 49.8456 53.9219 41.3778 53.9219C32.91 53.9219 26.1172 46.7708 26.1172 38.303C26.1172 29.8352 32.9817 22.9707 41.4495 22.9707C49.9173 22.9707 56.7818 29.8352 56.7818 38.303Z" fill="#7FDACE"/>
<path d="M19.1787 35.9082C19.1961 36.9281 19.3175 40.155 19.1201 41.0447C18.7289 42.8076 17.258 42.658 15.9841 42.636C15.4064 42.626 14.0356 42.7446 13.589 42.6432C12.8512 42.4251 12.4449 41.9862 12.084 41.3282C12.8006 40.9672 15.2668 41.975 16.6514 40.6526C17.7014 39.6495 17.3545 37.3104 17.3701 35.9082H19.1787Z" fill="#FE5D0C"/>
<path d="M37.8681 47.1139C37.8681 47.9449 37.387 48.6185 36.7934 48.6185C36.1999 48.6185 35.7188 47.9449 35.7188 47.1139C35.7188 46.283 36.1999 45.6094 36.7934 45.6094C37.387 45.6094 37.8681 46.283 37.8681 47.1139Z" fill="#FDBA05"/>
<path d="M46.8955 47.1139C46.8955 47.9449 46.4143 48.6185 45.8208 48.6185C45.2273 48.6185 44.7461 47.9449 44.7461 47.1139C44.7461 46.283 45.2273 45.6094 45.8208 45.6094C46.4143 45.6094 46.8955 46.283 46.8955 47.1139Z" fill="#FDBA05"/>
<path d="M60.8698 53.836C62.0266 53.8302 62.7669 54.3513 63.3719 54.3548C66.5228 57.1028 65.8144 57.6569 63.1314 60.3891C62.256 61.2807 60.8248 63.3996 59.3555 62.1954V61.9535C59.5998 61.7981 61.7303 59.4405 62.0215 59.1131C63.5726 57.3694 62.81 54.8839 60.8698 53.836Z" fill="#FA8419"/>
<path d="M23.0583 16.4766C23.8798 15.82 24.7702 16.1808 25.64 16.4766C26.4108 17.052 27.8735 18.5112 28.0048 19.3868C28.2329 20.9088 26.6581 22.0249 25.7221 22.9738C24.8695 23.8378 24.1242 24.9323 22.8377 25.1079C22.4271 24.682 22.0053 24.2662 21.5879 23.8472C22.8932 23.4441 27.0376 20.6013 25.553 18.8198C25.1976 18.3932 23.4952 16.7445 23.0583 16.4766Z" fill="#FA8419"/>
<path d="M72.5229 35.9082L72.527 39.1309C72.5338 42.9062 71.8152 42.6423 68.3079 42.6429C67.7053 42.643 67.0908 42.6894 66.4897 42.6432C66.1654 42.3001 65.9858 41.9601 65.7969 41.5307C66.7194 41.2329 68.084 42.0184 69.3809 40.8508C71.0197 39.3754 70.2667 37.3034 68.9712 35.9082H72.5229Z" fill="#FE5D0C"/>
<path d="M61.5484 16.6152C62.0553 16.6771 62.6539 16.8103 63.1576 16.7848C65.2305 18.7465 66.5907 19.4506 64.0861 22.0031L62.3386 23.7621C61.7349 24.3774 61.2199 25.182 60.2719 25.1924C58.9844 25.2064 57.8218 23.645 56.9961 22.7478C57.5429 22.7239 58.1832 23.0124 58.7602 23.065C59.7808 24.5407 62.118 21.6885 62.6397 20.9701C63.6137 19.6286 62.2361 17.7668 61.5484 16.6152Z" fill="#FA8419"/>
<path d="M25.1649 53.4255C25.7909 53.9373 27.1364 55.1794 27.5436 55.8327C28.7041 57.6945 27.0759 58.9176 25.8562 60.1438C24.9709 61.0337 23.311 63.344 21.8408 62.1958C21.7498 61.7095 21.6252 61.2494 21.5879 60.7528C23.1569 60.4966 25.0083 58.9186 25.4707 57.5621C26.1423 55.5928 24.2207 54.8927 23.4854 53.4255C24.0153 53.3408 24.6276 53.4123 25.1649 53.4255Z" fill="#FA8419"/>
<path d="M43.7384 62.1953C44.3834 62.2324 45.0191 62.2401 45.6645 62.1953C45.8114 62.6375 45.7982 66.6812 45.7404 67.3234C45.5132 69.852 41.8586 69.2006 40.0473 69.1586C39.4886 68.7642 39.0349 68.3454 38.6836 67.7564C43.2712 67.6478 43.7373 66.758 43.7384 62.1953Z" fill="#FE5D0C"/>
<path d="M43.7401 9.29492C44.6435 9.30088 45.1729 9.38658 45.6662 10.1692L45.6701 12.4328C45.6761 16.1309 45.055 16.4752 41.5129 16.4761C40.8605 16.4762 40.1879 16.536 39.5386 16.4776C38.9906 15.9646 38.8629 15.3124 38.8555 14.5876L39.5369 14.589C44.2871 14.5942 43.7419 13.7502 43.7401 9.29492Z" fill="#FE5D0C"/>
<path d="M65.7971 41.5294C65.4716 40.9228 65.6357 39.8022 65.631 39.1275C65.6108 36.2696 66.1702 35.8882 68.9714 35.9069C70.2669 37.302 71.0199 39.374 69.3811 40.8495C68.0842 42.0171 66.7196 41.2316 65.7971 41.5294Z" fill="#FA8419"/>
<path d="M38.6844 67.7563C38.7281 66.71 38.545 64.268 38.757 63.4233C39.2111 61.6139 42.3299 62.189 43.7392 62.1951C43.7381 66.7578 43.272 67.6476 38.6844 67.7563Z" fill="#FA8419"/>
<path d="M12.0833 41.3286C12.1507 39.9582 11.6912 37.3233 12.6513 36.3919C13.4739 35.5942 16.102 35.909 17.3694 35.9086C17.3538 37.3108 17.7007 39.65 16.6508 40.653C15.2661 41.9754 12.7999 40.9676 12.0833 41.3286Z" fill="#FA8419"/>
<path d="M21.5879 60.7531C20.79 59.6532 18.9897 58.5693 19.4769 57.245C19.863 56.1952 22.489 53.8697 23.4854 53.4258C24.2207 54.893 26.1423 55.593 25.4707 57.5624C25.0083 58.9189 23.1569 60.4968 21.5879 60.7531Z" fill="#FDBA05"/>
<path d="M58.7609 23.0641C58.0614 22.0637 56.7444 21.4109 56.9964 19.955C57.2647 18.405 59.6414 16.2846 61.5491 16.6143C62.2368 17.7659 63.6144 19.6277 62.6404 20.9693C62.1187 21.6876 59.7815 24.5398 58.7609 23.0641Z" fill="#FDBA05"/>
<path d="M21.5879 23.8471C20.6625 23.0734 18.417 21.1589 19.5886 19.8084C20.0117 19.3208 22.6458 16.6975 23.0583 16.4766C23.4952 16.7444 25.1976 18.3932 25.553 18.8198C27.0376 20.6012 22.8932 23.4441 21.5879 23.8471Z" fill="#FDBA05"/>
<path d="M59.3566 61.9535C59.2397 60.1186 55.9262 58.6466 56.956 56.9054C57.5328 55.9303 59.5361 53.8396 60.871 53.8359C62.8111 54.8838 63.5737 57.3694 62.0227 59.113C61.7315 59.4405 59.6009 61.7981 59.3566 61.9535Z" fill="#FDBA05"/>
<path d="M38.8547 14.5873L38.8516 11.6926C38.8553 8.54503 41.3909 9.28623 43.7394 9.29469C43.7411 13.75 44.2863 14.594 39.5361 14.5887L38.8547 14.5873Z" fill="#FA8419"/>
<path d="M40.8067 27.2257C45.6892 26.6638 48.9442 32.4251 45.8374 36.3872C44.8231 37.681 44.099 37.5787 46.1957 38.1448C50.296 39.2515 51.0679 41.3613 51.0693 45.3777C51.0709 49.3481 49.4427 49.5156 46.0159 49.5124L41.7252 49.5122L37.2442 49.5149C35.1012 49.5151 32.7403 49.7231 31.9174 47.1511C31.6532 46.3258 31.6555 43.7154 31.8149 42.8514C32.3967 39.6964 35.6141 38.4861 38.3215 37.6288C33.7866 34.5625 35.5988 27.9215 40.8067 27.2257ZM45.7581 45.9688C45.2126 46.3762 45.4572 47.3782 45.4491 47.97H46.1884L46.3987 47.9629C46.5012 47.8322 46.8123 45.8957 45.7581 45.9688ZM36.7576 45.9688C36.1259 46.3581 36.4518 47.3369 36.404 47.97H37.1207L37.3432 47.9538C37.5125 47.7199 37.7232 45.9489 36.7576 45.9688Z" fill="#222B3B"/>
<path d="M44.9933 39.3477C48.3988 40.3147 49.6034 41.1933 49.5435 44.797C49.1725 44.4487 49.0857 43.7556 48.8967 43.2894C48.1659 41.4852 46.504 40.6576 44.8105 39.9421C44.8735 39.7447 44.9392 39.5477 44.9933 39.3477Z" fill="#FE5D0C"/>
<path d="M33.327 45.7306C33.3182 44.3982 33.1136 42.9306 33.9045 41.7735C34.7063 40.6001 36.6157 39.6069 37.9951 39.3477L38.1559 39.9421C36.7493 40.2767 34.5163 42.5062 34.0646 43.8453C33.9488 44.1885 33.6252 45.892 33.3779 46.0342L33.327 45.7306Z" fill="#FE5D0C"/>
<path d="M43.3906 38.2031L43.447 38.2297C43.8874 40.1201 41.5254 41.6307 40.0499 40.0776C39.5501 39.5021 39.4847 38.9403 39.5395 38.2031C41.0421 38.5691 41.8986 38.5392 43.3906 38.2031Z" fill="#FDBA05"/>
<path d="M41.0331 28.7143C46.1324 28.1865 47.4258 36.2299 41.7239 36.9433C40.8032 37.0906 39.6951 36.7048 38.9576 36.1682C35.8755 33.9253 37.2044 29.3008 41.0331 28.7143Z" fill="#FDBA05"/>
<path d="M33.3275 45.7319L33.3784 46.0355C33.6257 45.8933 33.9493 44.1898 34.0651 43.8466C34.5168 42.5075 36.7498 40.278 38.1564 39.9434C39.4083 43.0383 43.4374 43.0499 44.81 39.9434C46.5035 40.6589 48.1654 41.4865 48.8962 43.2907C49.0852 43.7569 49.172 44.4499 49.543 44.7983C49.5532 46.2511 49.6746 47.5236 48.0424 47.9688C48.0485 46.9823 48.2225 45.7857 47.4631 45.025C46.6411 44.2016 45.2674 44.2473 44.4661 45.0763C43.7223 45.8458 43.8943 46.9895 43.9003 47.9688H38.8549C38.8469 46.9037 39.1677 45.8404 38.3091 44.9872C37.4945 44.1777 36.1259 44.2072 35.3661 45.0785C34.6991 45.8432 34.8827 47.0234 34.8914 47.9688C33.6711 47.5849 33.2593 46.9733 33.3275 45.7319Z" fill="#FA8419"/>
<path d="M28.6959 32.7851C23.609 45.7531 37.4132 54.6464 36.9457 54.465C29.5593 51.5987 24.2853 44.0727 26.0323 36.2351C27.7793 28.3975 35.2157 22.3247 38.6547 24.1159C38.6547 24.1159 33.7111 23.901 28.6959 32.7851Z" fill="#F5F5F5"/>
<path d="M53.2275 33.318C48.7362 23.1753 35.8514 24.1831 36.306 23.9713C43.9818 20.3955 52.9085 24.9931 56.5509 32.812C60.1934 40.6308 54.3784 52.4426 43.2421 54.1379C43.2421 54.1379 59.7571 49.8784 53.2275 33.318Z" fill="#D7EC0B"/>
<path fill-rule="evenodd" clip-rule="evenodd" d="M58.3586 38.4449C58.3586 47.7041 50.8525 55.2101 41.5934 55.2101C32.3342 55.2101 24.8281 47.7041 24.8281 38.4449C24.8281 29.1857 32.3342 21.6797 41.5934 21.6797C50.8525 21.6797 58.3586 29.1857 58.3586 38.4449ZM41.5934 53.7772C50.0611 53.7772 56.9257 46.9127 56.9257 38.4449C56.9257 29.9771 50.0611 23.1126 41.5934 23.1126C33.1256 23.1126 26.2611 29.9771 26.2611 38.4449C26.2611 46.9127 33.1256 53.7772 41.5934 53.7772Z" fill="#222B3B"/>
</svg>
