<svg width="142" height="142" viewBox="0 0 142 142" fill="none" xmlns="http://www.w3.org/2000/svg">
<path d="M68.9674 10.6957C70.0243 10.6203 71.1309 10.6947 72.1953 10.6992L77.0851 10.673C85.1869 10.6606 83.8729 18.8961 83.8648 24.2257C89.7891 25.5816 92.5906 27.187 97.8888 29.2491C99.4776 27.2019 103.189 23.3014 105.564 22.9214C109.604 22.2753 111.716 25.3638 114.236 27.9073C116.095 29.7835 118.471 31.3779 118.876 34.1582C119.622 39.2736 114.65 41.2558 112.104 44.8382C114.798 48.9908 117.168 53.0673 118.438 57.8994L122.353 57.8928C130.9 57.8878 131.524 61.079 131.57 68.8058C131.586 71.5836 131.893 74.1926 129.845 76.3907C126.844 79.6124 121.773 78.3209 117.702 78.4566C116.624 84.8395 114.488 87.2148 112.522 92.3492L112.485 92.4493C114.932 94.7304 118.721 97.9465 118.8 101.314C118.885 104.915 116.883 106.127 114.593 108.507C112.412 110.773 110.508 113.678 107.031 113.72C103.539 113.763 100.392 109.573 97.8888 107.144C92.8561 109.661 89.5729 111.28 83.8648 112.764C84.037 113.677 83.8589 115.528 83.8605 116.518C83.8679 121.471 84.0164 123.64 78.5576 125.513C76.8586 125.683 69.8103 125.648 68.4707 125.38C65.784 124.84 63.7144 122.427 63.2867 119.765C63.2153 119.321 63.3042 113.003 63.3544 112.764C57.4092 111.24 54.6898 109.719 49.5613 107.144C46.6195 109.149 44.7879 113.292 40.8636 113.533C37.208 113.757 35.0903 110.778 32.7983 108.44C30.7798 106.381 28.5262 104.918 28.3555 101.821C28.125 97.6274 32.1946 95.1875 34.7949 92.2777L34.8504 92.2147C32.6064 89.0205 29.6109 82.5031 28.9554 78.4566L24.6378 78.4628C19.5363 78.4688 15.4817 77.0733 15.4648 71.1368L15.4658 67.1268C15.4422 60.0981 17.9232 57.7958 24.902 57.7942L28.9554 57.7983C30.3144 53.1908 32.1038 48.5468 34.8504 44.5696C32.5759 41.9047 28.3852 39.2187 28.1805 35.5215C27.9915 32.1083 30.3718 30.3731 32.5334 28.1915C34.7119 25.9924 36.7406 23.0796 40.0996 22.9192C43.9942 22.7336 46.763 26.6775 49.5613 29.2491C53.5835 27.0868 58.7937 24.724 63.3544 24.2257L63.3463 19.4213C63.3422 15.2292 63.8963 11.7004 68.9674 10.6957ZM53.2959 86.2804C54.0387 87.4129 55.2479 88.419 56.3317 89.2198C57.0664 88.8526 57.8878 89.5596 58.5457 89.8706C66.9258 93.831 75.7424 94.5355 84.364 90.483C94.9622 85.5008 100.191 73.334 97.7384 62.1156C95.6382 52.5085 87.8874 45.3588 78.3598 43.1741C76.7666 42.8088 73.456 42.7299 72.3064 42.3203L72.2658 42.2123C72.6084 41.7144 74.3629 41.8124 74.9681 41.6782C69.1483 41.5001 61.3669 45.0924 57.2804 48.9418C47.2761 58.3667 46.5564 71.1225 51.8287 83.0734C52.1376 83.7732 53.2369 85.7507 53.2959 86.2804ZM36.7912 69.5118C36.8027 75.0804 36.4452 75.9671 31.8377 78.4566C32.4639 82.9527 35.2663 86.462 36.7912 90.3891C40.2063 88.9693 43.5285 89.2825 45.9428 92.2147C46.2619 92.5201 46.602 92.8196 46.8977 93.1472C47.9871 91.2932 49.95 89.9729 51.3842 88.3828C46.601 83.0952 43.8769 76.6571 43.6121 69.5118L39.2564 69.5043C38.4368 69.499 37.6085 69.4438 36.7912 69.5118ZM93.7761 90.3891L93.6772 90.4465C92.4065 91.1974 91.3627 92.3514 90.1204 93.1728C84.6691 96.7779 81.0871 97.5641 74.9681 98.3792V104.684C78.1573 104.667 81.0069 104.937 82.8491 107.838C83.3582 108.509 83.5944 109.178 83.8648 109.97C88.0309 108.762 92.2668 107.317 95.9889 105.046C93.13 100.086 95.6451 98.2476 98.3758 94.8318C97.4888 94.0092 94.4942 90.746 93.7761 90.3891ZM104.299 69.5118H103.424C103.459 74.6608 101.522 80.3998 98.6821 84.6573C97.8042 85.9735 96.6771 87.0928 95.7902 88.3828C97.3637 89.9617 98.9279 91.7243 100.634 93.1472C101.459 91.6214 102.755 90.6012 104.299 89.8537C106.51 89.1166 108.256 89.4507 110.348 90.3891C112.606 86.5965 113.881 82.3409 114.954 78.0959C110.75 76.4718 110.291 73.5256 110.348 69.5118H104.299ZM53.2959 90.3891C51.8119 91.9324 50.3734 93.5762 48.6276 94.8318C52.4161 98.7648 53.0114 100.048 51.3842 105.046C55.168 107.299 59.1179 108.798 63.3544 109.97C63.5906 109.013 63.9185 108.22 64.4182 107.368C66.7904 104.709 68.9621 104.592 72.2053 104.684C72.2093 102.584 72.2377 100.479 72.2053 98.3792C63.5129 97.8504 59.6601 95.2773 53.2959 90.3891ZM100.271 43.6028C98.7514 44.851 97.0892 46.5749 95.7902 48.0689C100.197 52.5129 103.566 60.5081 103.424 66.7911H110.348C110.344 66.1603 110.316 65.5192 110.348 64.8894C110.6 61.0874 112.456 59.4711 115.591 57.8994C113.69 52.8296 112.549 51.0498 109.988 46.6173C103.554 49.4896 101.639 43.6396 100.271 43.6028ZM46.8977 43.6028C43.6495 46.6903 41.3643 48.2455 37.0233 46.3144C34.8875 50.058 33.1074 53.7677 31.8377 57.8994C35.7442 59.2667 36.877 61.6673 36.7912 65.5757V66.7911C39.0623 66.7955 41.3422 66.8385 43.6121 66.7911C43.8473 59.8713 46.802 53.1927 51.3842 48.0689L48.2395 44.9773C47.8084 44.5458 47.3613 43.9843 46.8977 43.6028ZM63.3544 26.9651C59.7384 27.6106 54.6411 29.4715 51.3842 31.4048C54.0658 36.7501 51.533 38.0463 48.8535 41.6782C50.3949 43.1201 52.1129 44.5515 53.2959 46.3144C53.8877 45.6951 54.4845 45.0993 55.1593 44.5696C60.3364 40.514 65.7837 38.7061 72.2053 38.1673V32.0371C68.9642 32.039 66.0483 31.6843 64.3246 28.646C64.0975 28.2455 63.8277 26.9938 63.3544 26.9651ZM83.6396 26.9651C81.648 31.295 79.3416 32.0268 74.9681 32.0371V38.1673C81.9562 38.6387 86.408 40.7298 92.1467 44.5696L93.7761 45.9806C95.3119 44.4741 96.8125 42.9164 98.3758 41.4405C95.0714 39.3023 93.2432 35.2676 95.5989 31.6893L95.7902 31.4048C91.8182 29.6032 87.8942 27.9921 83.6396 26.9651ZM70.18 29.2491C69.2073 28.3384 68.9805 27.1807 68.9674 25.8942L70.1769 25.8966C78.6085 25.906 77.6407 24.4079 77.6376 16.4997C79.2411 16.5103 80.1808 16.6624 81.0565 18.0517C80.9045 13.0214 78.493 13.3966 74.3491 13.4018C71.465 13.4053 67.0266 12.573 66.2211 16.3731C65.9681 17.567 66.0161 23.5612 66.1228 24.957C66.3075 27.3704 67.7341 29.0778 70.18 29.2491ZM53.2959 86.2804C53.2369 85.7507 52.1376 83.7732 51.8287 83.0734C46.5564 71.1225 47.2761 58.3667 57.2804 48.9418C61.3669 45.0924 69.1483 41.5001 74.9681 41.6782C77.2511 41.6498 79.6854 42.4079 81.6202 42.3318C75.5041 40.0204 68.1478 40.6734 62.2619 43.351C48.6625 49.5374 42.4469 66.1934 48.806 79.7372C49.9032 82.0742 51.3957 84.5131 53.2959 86.2804ZM118.02 75.6919C117.444 75.0829 117.125 74.4793 116.79 73.7171C116.212 72.6405 116.504 70.6514 116.495 69.4538C116.459 64.3811 117.452 63.7042 122.425 63.7373H128.729C127.189 60.153 124.489 60.5084 121.251 60.5056C118.393 60.5031 114.661 59.944 113.455 63.3507C112.899 64.9215 112.828 71.9751 113.584 73.5184C114.512 75.4146 116.134 75.627 118.02 75.6919ZM24.1212 75.6919C22.8116 75.3047 22.0903 74.5258 21.4497 73.3577C21.5693 70.9253 20.7538 66.2483 22.4579 64.5952C23.918 63.1791 28.583 63.7379 30.8326 63.7373H34.0427C32.9037 59.9038 29.7669 60.5118 26.587 60.5034C18.759 60.4825 18.1728 61.0702 18.1929 68.4383C18.206 73.2579 18.5615 76.3954 24.1212 75.6919ZM71.0859 122.759C70.0942 122.059 69.289 121.316 68.6654 120.27C68.7431 118.413 68.418 114.078 68.7942 112.579C69.6003 109.367 75.1362 110.388 77.6376 110.399C78.7825 110.465 79.9109 110.479 81.0565 110.399C79.9555 107.03 77.1413 107.377 74.2206 107.373C66.1637 107.359 65.853 107.798 65.887 115.154C65.9091 119.951 65.5769 122.635 71.0859 122.759ZM40.5364 44.5696C39.8076 43.8137 39.0589 43.0755 38.318 42.3318C36.6754 40.9585 32.6897 37.5602 34.7693 35.1631C35.5202 34.2977 40.1957 29.6412 40.9279 29.2491C42.386 28.0836 43.9665 28.724 45.5104 29.2491C43.0983 26.587 40.975 23.8913 37.6522 26.9686C36.0449 28.457 31.0428 32.9 30.9492 34.9306C30.826 37.607 37.8316 44.217 40.5364 44.5696ZM105.356 110.399V109.97C105.148 106.713 99.2667 104.1 101.095 101.009C102.118 99.2786 105.674 95.5678 108.044 95.5612C110.097 95.5509 111.411 96.4759 112.485 96.4821C106.656 90.2543 106.148 91.0074 100.826 96.3362C98.8774 98.2872 96.4013 100.395 98.1284 103.336C98.9529 104.74 103.559 109.244 105.356 110.399ZM101.168 40.3789C102.138 40.3364 103.275 40.8487 104.299 40.942C103.057 39.1663 100.72 38.0076 101.167 35.4232C101.643 32.672 105.862 28.9084 109.248 29.4937C110.148 29.6035 111.21 29.8399 112.104 29.7947C109.651 27.2122 107.276 23.5934 103.818 26.9798C98.8088 31.8849 93.762 34.7734 101.168 40.3789ZM38.7669 110.399C38.6053 109.536 38.3841 108.719 38.318 107.838C36.9016 105.886 33.7061 103.962 34.5709 101.611C35.2563 99.7475 39.9174 95.6199 41.686 94.8318C42.6266 94.6815 43.7135 94.8084 44.6672 94.8318C40.3055 89.7998 38.1223 92.6898 34.4829 96.4079C29.7719 101.221 29.6355 101.42 34.5803 106.384C35.6865 107.495 37.46 109.698 38.7669 110.399Z" fill="#222B3B"/>
<path d="M100.787 67.9881C100.787 83.0185 88.4754 95.7117 73.4451 95.7117C58.4147 95.7117 46.3574 83.0185 46.3574 67.9881C46.3574 52.9578 58.5419 40.7733 73.5723 40.7733C88.6026 40.7733 100.787 52.9578 100.787 67.9881Z" fill="#7FDACE"/>
<path d="M34.0423 63.7382C34.0731 65.5485 34.2887 71.2763 33.9384 72.8555C33.2439 75.9845 30.6331 75.719 28.3719 75.68C27.3465 75.6622 24.9134 75.8728 24.1207 75.6928C22.8111 75.3057 22.0898 74.5267 21.4492 73.3587C22.7213 72.7179 27.0988 74.5067 29.5565 72.1595C31.4202 70.379 30.8043 66.227 30.8321 63.7382H34.0423Z" fill="#FE5D0C"/>
<path d="M67.2136 83.6296C67.2136 85.1045 66.3595 86.3002 65.306 86.3002C64.2525 86.3002 63.3984 85.1045 63.3984 83.6296C63.3984 82.1547 64.2525 80.959 65.306 80.959C66.3595 80.959 67.2136 82.1547 67.2136 83.6296Z" fill="#FDBA05"/>
<path d="M83.239 83.6296C83.239 85.1045 82.3849 86.3002 81.3314 86.3002C80.2779 86.3002 79.4238 85.1045 79.4238 83.6296C79.4238 82.1547 80.2779 80.959 81.3314 80.959C82.3849 80.959 83.239 82.1547 83.239 83.6296Z" fill="#FDBA05"/>
<path d="M108.043 95.5608C110.097 95.5505 111.411 96.4754 112.485 96.4817C118.078 101.359 116.82 102.343 112.058 107.193C110.504 108.775 107.964 112.536 105.355 110.399V109.969C105.789 109.694 109.571 105.509 110.088 104.928C112.841 101.833 111.487 97.4207 108.043 95.5608Z" fill="#FA8419"/>
<path d="M40.9283 29.2484C42.3864 28.0829 43.9669 28.7234 45.5108 29.2484C46.8791 30.2698 49.4753 32.8598 49.7084 34.414C50.1133 37.1157 47.318 39.0967 45.6565 40.781C44.1431 42.3146 42.8204 44.2573 40.5368 44.5689C39.808 43.813 39.0593 43.0749 38.3184 42.3312C40.6354 41.6158 47.9916 36.5697 45.3564 33.4076C44.7256 32.6505 41.7038 29.7239 40.9283 29.2484Z" fill="#FA8419"/>
<path d="M128.728 63.7382L128.735 69.4584C128.747 76.1595 127.472 75.6913 121.246 75.6922C120.176 75.6925 119.086 75.7749 118.019 75.6928C117.443 75.0838 117.124 74.4802 116.789 73.7181C118.427 73.1896 120.849 74.5838 123.151 72.5114C126.06 69.8924 124.723 66.2146 122.424 63.7382H128.728Z" fill="#FE5D0C"/>
<path d="M109.248 29.4943C110.148 29.6041 111.211 29.8405 112.105 29.7953C115.784 33.2772 118.198 34.5269 113.753 39.0577L110.651 42.1799C109.579 43.2721 108.665 44.7003 106.982 44.7187C104.697 44.7436 102.634 41.9721 101.168 40.3795C102.139 40.3371 103.275 40.8493 104.299 40.9426C106.111 43.5619 110.259 38.4993 111.185 37.2242C112.914 34.843 110.469 31.5383 109.248 29.4943Z" fill="#FA8419"/>
<path d="M44.6676 94.8319C45.7788 95.7403 48.1669 97.945 48.8897 99.1046C50.9497 102.409 48.0596 104.58 45.8945 106.757C44.3231 108.336 41.3769 112.437 38.7673 110.399C38.6057 109.536 38.3845 108.719 38.3184 107.838C41.1033 107.383 44.3896 104.582 45.2104 102.174C46.4024 98.6788 42.9917 97.4362 41.6864 94.8319C42.627 94.6815 43.7139 94.8085 44.6676 94.8319Z" fill="#FA8419"/>
<path d="M77.6382 110.4C78.7832 110.466 79.9116 110.479 81.0571 110.4C81.3179 111.185 81.2945 118.362 81.1919 119.502C80.7885 123.99 74.3017 122.834 71.0866 122.76C70.0948 122.06 69.2896 121.316 68.666 120.271C76.809 120.078 77.6364 118.498 77.6382 110.4Z" fill="#FE5D0C"/>
<path d="M77.637 16.5005C79.2406 16.5111 80.1802 16.6632 81.0559 18.0524L81.0628 22.0702C81.0734 28.6343 79.9709 29.2455 73.6838 29.247C72.5257 29.2473 71.3318 29.3534 70.1794 29.2498C69.2067 28.3392 68.9799 27.1815 68.9668 25.8949L70.1763 25.8974C78.6079 25.9068 77.6402 24.4087 77.637 16.5005Z" fill="#FE5D0C"/>
<path d="M116.791 73.717C116.213 72.6404 116.504 70.6512 116.496 69.4536C116.46 64.381 117.453 63.704 122.425 63.7371C124.725 66.2135 126.061 69.8913 123.152 72.5103C120.85 74.5827 118.428 73.1885 116.791 73.717Z" fill="#FA8419"/>
<path d="M68.6662 120.27C68.7439 118.413 68.4188 114.078 68.7951 112.579C69.6012 109.367 75.1371 110.388 77.6385 110.399C77.6366 118.497 76.8093 120.077 68.6662 120.27Z" fill="#FA8419"/>
<path d="M21.4498 73.3578C21.5694 70.9254 20.7539 66.2484 22.458 64.5953C23.9181 63.1792 28.5831 63.738 30.8327 63.7373C30.8049 66.2262 31.4207 70.3782 29.557 72.1586C27.0993 74.5059 22.7219 72.7171 21.4498 73.3578Z" fill="#FA8419"/>
<path d="M38.319 107.838C36.9027 105.886 33.7072 103.962 34.5719 101.611C35.2573 99.748 39.9185 95.6203 41.687 94.8323C42.9923 97.4366 46.403 98.6792 45.211 102.175C44.3902 104.583 41.1039 107.383 38.319 107.838Z" fill="#FDBA05"/>
<path d="M104.299 40.942C103.058 39.1663 100.72 38.0076 101.167 35.4233C101.643 32.672 105.862 28.9084 109.248 29.4937C110.469 31.5377 112.914 34.8424 111.185 37.2236C110.259 38.4987 106.111 43.5613 104.299 40.942Z" fill="#FDBA05"/>
<path d="M38.3175 42.3315C36.675 40.9582 32.6893 37.5599 34.7688 35.1628C35.5198 34.2974 40.1952 29.6409 40.9274 29.2488C41.703 29.7242 44.7247 32.6508 45.3555 33.408C47.9907 36.5701 40.6345 41.6162 38.3175 42.3315Z" fill="#FDBA05"/>
<path d="M105.355 109.969C105.148 106.712 99.2661 104.1 101.094 101.009C102.118 99.2781 105.674 95.5672 108.043 95.5607C111.487 97.4206 112.84 101.832 110.087 104.928C109.57 105.509 105.789 109.693 105.355 109.969Z" fill="#FDBA05"/>
<path d="M68.9685 25.8935L68.9629 20.7554C68.9694 15.1684 73.4702 16.4841 77.6388 16.4991C77.6419 24.4073 78.6096 25.9053 70.178 25.896L68.9685 25.8935Z" fill="#FA8419"/>
<path d="M72.4307 48.326C81.0972 47.3286 86.8749 57.555 81.3602 64.5877C79.5598 66.8841 78.2745 66.7025 81.9963 67.7074C89.2742 69.6718 90.6444 73.4167 90.6469 80.5458C90.6497 87.5932 87.7596 87.8905 81.6772 87.8849L74.0611 87.8846L66.1074 87.8893C62.3036 87.8896 58.1129 88.259 56.6523 83.6936C56.1834 82.2286 56.1874 77.5952 56.4704 76.0616C57.503 70.4614 63.2139 68.3132 68.0195 66.7914C59.97 61.3488 63.1868 49.5611 72.4307 48.326ZM81.2195 81.595C80.2512 82.3181 80.6854 84.0967 80.6711 85.1471H81.9832L82.3566 85.1346C82.5385 84.9025 83.0907 81.4652 81.2195 81.595ZM65.2436 81.595C64.1224 82.286 64.7007 84.0233 64.6159 85.1471H65.8881L66.2831 85.1184C66.5835 84.7031 66.9575 81.5597 65.2436 81.595Z" fill="#222B3B"/>
<path d="M79.8616 69.8458C85.9063 71.5623 88.0445 73.1218 87.9381 79.5184C87.2796 78.9001 87.1255 77.67 86.7901 76.8424C85.4929 73.64 82.5429 72.1709 79.5371 70.9009C79.6488 70.5506 79.7655 70.2008 79.8616 69.8458Z" fill="#FE5D0C"/>
<path d="M59.157 81.1756C59.1414 78.8106 58.7782 76.2056 60.1821 74.1516C61.6053 72.0689 64.9945 70.306 67.4429 69.8458L67.7283 70.9009C65.2316 71.4949 61.268 75.4522 60.4663 77.8291C60.2607 78.4384 59.6864 81.462 59.2474 81.7144L59.157 81.1756Z" fill="#FE5D0C"/>
<path d="M77.0165 67.8141L77.1166 67.8612C77.8984 71.2167 73.7059 73.8981 71.0869 71.1412C70.1996 70.1199 70.0836 69.1225 70.1809 67.8141C72.8479 68.4636 74.3682 68.4106 77.0165 67.8141Z" fill="#FDBA05"/>
<path d="M72.8342 50.9693C81.8854 50.0325 84.1811 64.3094 74.0602 65.5757C72.4261 65.8371 70.4592 65.1524 69.1501 64.1999C63.6795 60.2189 66.0383 52.0103 72.8342 50.9693Z" fill="#FDBA05"/>
<path d="M59.1572 81.1762L59.2477 81.715C59.6866 81.4626 60.261 78.439 60.4666 77.8297C61.2683 75.4528 65.2319 71.4955 67.7286 70.9015C69.9507 76.395 77.1023 76.4155 79.5388 70.9015C82.5446 72.1715 85.4946 73.6406 86.7918 76.8429C87.1271 77.6706 87.2812 78.9007 87.9398 79.519C87.9579 82.0977 88.1735 84.3564 85.2762 85.1466C85.2871 83.3955 85.596 81.2717 84.248 79.9215C82.7889 78.4599 80.3505 78.541 78.9283 80.0125C77.608 81.3783 77.9134 83.4083 77.924 85.1466H68.9683C68.9543 83.2561 69.5236 81.3687 67.9997 79.8544C66.5537 78.4174 64.1244 78.4699 62.7758 80.0163C61.5918 81.3737 61.9178 83.4685 61.9331 85.1466C59.7671 84.4653 59.0362 83.3796 59.1572 81.1762Z" fill="#FA8419"/>
<path d="M50.936 58.1954C41.9068 81.2135 66.4093 96.9991 65.5794 96.6771C52.4687 91.5894 43.1073 78.2308 46.2082 64.3191C49.3091 50.4074 62.5087 39.6281 68.6129 42.8075C68.6129 42.8075 59.8381 42.426 50.936 58.1954Z" fill="#F5F5F5"/>
<path d="M94.4755 59.1387C86.5034 41.1355 63.633 42.9243 64.4399 42.5484C78.0644 36.2013 93.9092 44.3621 100.375 58.2405C106.84 72.1189 96.5184 93.0849 76.7514 96.0941C76.7514 96.0941 106.065 88.5336 94.4755 59.1387Z" fill="#D7EC0B"/>
<path fill-rule="evenodd" clip-rule="evenodd" d="M103.585 68.2419C103.585 84.677 90.2617 98.0002 73.8266 98.0002C57.3916 98.0002 44.0684 84.677 44.0684 68.2419C44.0684 51.8069 57.3916 38.4836 73.8266 38.4836C90.2617 38.4836 103.585 51.8069 103.585 68.2419ZM73.8266 95.4567C88.857 95.4567 101.041 83.2723 101.041 68.2419C101.041 53.2116 88.857 41.0271 73.8266 41.0271C58.7963 41.0271 46.6118 53.2116 46.6118 68.2419C46.6118 83.2723 58.7963 95.4567 73.8266 95.4567Z" fill="#222B3B"/>
</svg>
