<svg width="142" height="142" viewBox="0 0 142 142" fill="none" xmlns="http://www.w3.org/2000/svg">
<path d="M105.99 66.809H117.993V84.927H105.99V66.809Z" fill="#FDBA05"/>
<path d="M105.99 59.7907H117.993V65.6791H105.99V59.7907Z" fill="#7FDACE"/>
<path d="M75.3027 76.2107V83.2314C75.3027 84.6073 76.4181 85.7227 77.794 85.7227H91.8354C93.2113 85.7227 94.3267 84.6073 94.3267 83.2314V76.2107C94.3267 74.8348 93.2113 73.7195 91.8354 73.7195H77.794C76.4181 73.7195 75.3027 74.8348 75.3027 76.2107Z" fill="white"/>
<path d="M75.416 76.5497V83.1175H89.0045C90.3804 83.1175 91.4958 82.0021 91.4958 80.6263V74.0585H77.9072C76.5314 74.0585 75.416 75.1738 75.416 76.5497Z" fill="#FE5D0C"/>
<path d="M49.8247 83.7434C49.8247 104.698 47.1 98.5964 39.2245 98.5964C26.7624 100.617 27.6302 86.4898 27.6302 78.4737C28.7624 66.244 32.0213 62.7214 37.595 59.2231C44.729 55.8262 49.8247 65.6593 49.8247 83.7434Z" fill="white"/>
<path d="M67.2638 85.0398C67.2638 107.083 62.6211 100.664 49.2017 100.664C27.9669 102.79 31.6133 87.2153 31.6133 78.7828C32.6558 62.3547 38.6212 60.2118 47.2398 60.2118C59.1107 54.2397 67.2638 66.0163 67.2638 85.0398Z" fill="#7FDACE"/>
<path d="M61.5687 75.3512C61.2259 70.2116 57.2101 64.3124 54.3531 62.8472L53.334 58.4309C66.9969 61.1486 69.4137 75.3512 65.7829 99.9891H60.3547C60.0214 96.9835 61.9116 80.4909 61.5687 75.3512Z" fill="#7676E8"/>
<path d="M64.4653 42.5406L84.2935 23.443C85.2737 22.4988 86.8303 22.5161 87.7893 23.4818L106.755 42.5795C108.316 44.1513 107.203 46.8262 104.988 46.8262H97.8372C96.4614 46.8262 95.346 47.9415 95.346 49.3174V54.127C95.346 55.5028 94.2306 56.6182 92.8548 56.6182H78.1339C76.758 56.6182 75.6426 55.5028 75.6426 54.127V49.3174C75.6426 47.9415 74.5273 46.8262 73.1514 46.8262H66.1935C63.9514 46.8262 62.8505 44.096 64.4653 42.5406Z" fill="white"/>
<path d="M57.2707 46.2031C57.7151 55.558 52.8441 61.1495 47.3836 61.1495C41.923 61.1495 37.0519 55.6656 37.3853 46.2031C37.3853 39.1361 41.923 35.5578 47.3836 35.5578C52.8441 35.5578 57.2707 39.1361 57.2707 46.2031Z" fill="white"/>
<path d="M56.3928 47.3007C56.7765 54.8344 52.5026 59.1107 47.7867 59.1107C43.0708 59.1107 39.5861 54.921 39.874 47.3007C39.874 41.6096 43.793 38.728 48.5089 38.728C53.2248 38.728 56.3928 41.6096 56.3928 47.3007Z" fill="#FDBA05"/>
<path d="M67.2734 46.2003L88.3257 25.1381L106.076 41.8977C107.715 43.4452 106.62 46.2003 104.366 46.2003H96.9589C95.5725 46.2003 94.4528 47.3323 94.4679 48.7186L94.5264 54.0999C94.5414 55.4863 93.4217 56.6182 92.0353 56.6182H80.1726L80.0937 48.6669C80.0802 47.3007 78.9689 46.2003 77.6026 46.2003H67.2734Z" fill="#D7EC0B"/>
<path d="M24.4258 85.7549L115.087 85.7492C116.691 85.743 119.39 85.0057 120.689 86.947C122.73 89.9991 121.208 94.2532 118.05 94.1831L26.7362 94.1845C25.5019 94.1841 24.2358 94.2709 23.0051 94.1425C20.3215 93.8634 18.8267 85.8728 24.4258 85.7549Z" fill="#FA8419"/>
<path fill-rule="evenodd" clip-rule="evenodd" d="M101.234 60.8089C101.234 59.4956 102.299 58.4309 103.612 58.4309H117.427C118.74 58.4309 119.805 59.4956 119.805 60.8089V85.0035C121.511 85.5339 122.749 87.1249 122.749 89.0051V90.0808C122.749 92.9889 120.392 95.3464 117.484 95.3464H24.5156C21.6075 95.3464 19.25 92.9889 19.25 90.0808C19.25 87.1727 21.6075 84.8153 24.5156 84.8153H73.9438V76.6622C73.9438 74.0981 76.0224 72.0194 78.5865 72.0194H79.8321V69.5282C79.8321 67.5895 81.4038 66.0178 83.3425 66.0178H86.6264C88.5651 66.0178 90.1368 67.5895 90.1368 69.5282V72.0194H91.4956C94.0597 72.0194 96.1384 74.0981 96.1384 76.6622V84.8153H101.234V60.8089ZM103.725 84.8153H117.314V67.8296H103.725V84.8153ZM103.725 65.3384H117.314V60.9221H103.725V65.3384ZM93.6471 84.8153V76.6622C93.6471 75.4739 92.6839 74.5107 91.4956 74.5107H78.5865C77.3983 74.5107 76.435 75.4739 76.435 76.6622V84.8153H83.7955C84.4834 84.8153 85.0411 85.373 85.0411 86.0609C85.0411 86.7488 84.4834 87.3065 83.7955 87.3065H24.5156C22.9833 87.3065 21.7412 88.5486 21.7412 90.0808C21.7412 91.613 22.9833 92.8552 24.5156 92.8552H117.484C119.016 92.8552 120.258 91.613 120.258 90.0808V89.0051C120.258 88.067 119.498 87.3065 118.559 87.3065H91.1559C90.468 87.3065 89.9103 86.7488 89.9103 86.0609C89.9103 85.373 90.468 84.8153 91.1559 84.8153H93.6471ZM82.3234 72.0194H87.6455V69.5282C87.6455 68.9653 87.1893 68.5091 86.6264 68.5091H83.3425C82.7796 68.5091 82.3234 68.9653 82.3234 69.5282V72.0194ZM107.915 73.265C107.915 72.5771 108.473 72.0194 109.161 72.0194H113.464C114.152 72.0194 114.709 72.5771 114.709 73.265C114.709 73.953 114.152 74.5107 113.464 74.5107H109.161C108.473 74.5107 107.915 73.953 107.915 73.265ZM107.915 79.4931C107.915 78.8052 108.473 78.2475 109.161 78.2475H113.464C114.152 78.2475 114.709 78.8052 114.709 79.4931C114.709 80.181 114.152 80.7387 113.464 80.7387H109.161C108.473 80.7387 107.915 80.181 107.915 79.4931Z" fill="#222B3B"/>
<path d="M37.3694 97.3862H36.9165C34.7901 97.3862 33.0664 99.1099 33.0664 101.236V115.731H41.2195V101.236C41.2195 99.1099 39.4958 97.3862 37.3694 97.3862Z" fill="#7FDACE"/>
<path fill-rule="evenodd" clip-rule="evenodd" d="M43.7098 118.221H30.5742V101.235C30.5742 97.733 33.4133 94.8939 36.9155 94.8939H37.3685C40.8707 94.8939 43.7098 97.733 43.7098 101.235V118.221ZM36.9155 97.3851H37.3685C39.4948 97.3851 41.2186 99.1089 41.2186 101.235V115.73H33.0654V101.235C33.0654 99.1089 34.7892 97.3851 36.9155 97.3851Z" fill="#222B3B"/>
<path d="M58.4319 97.3862H57.979C55.8526 97.3862 54.1289 99.1099 54.1289 101.236V115.731H62.282V101.236C62.282 99.1099 60.5583 97.3862 58.4319 97.3862Z" fill="#7FDACE"/>
<path fill-rule="evenodd" clip-rule="evenodd" d="M64.7723 118.221H51.6367V101.235C51.6367 97.733 54.4758 94.8939 57.978 94.8939H58.431C61.9332 94.8939 64.7723 97.733 64.7723 101.235V118.221ZM57.978 97.3851H58.431C60.5573 97.3851 62.2811 99.1089 62.2811 101.235V115.73H54.1279V101.235C54.1279 99.1089 55.8517 97.3851 57.978 97.3851Z" fill="#222B3B"/>
<path d="M113.236 95.3446H108.254V122.295H113.236V95.3446Z" fill="#FA8419"/>
<path fill-rule="evenodd" clip-rule="evenodd" d="M105.764 92.8562H115.729V124.789H105.764V92.8562ZM113.237 95.3474V122.298H108.255V95.3474H113.237Z" fill="#222B3B"/>
<path fill-rule="evenodd" clip-rule="evenodd" d="M10.0781 123.543C10.0781 122.855 10.6358 122.297 11.3237 122.297H128.638C129.326 122.297 129.884 122.855 129.884 123.543C129.884 124.231 129.326 124.788 128.638 124.788H11.3237C10.6358 124.788 10.0781 124.231 10.0781 123.543Z" fill="#222B3B"/>
<path fill-rule="evenodd" clip-rule="evenodd" d="M41.332 101.802C41.332 101.114 41.8897 100.556 42.5776 100.556H52.4293C53.1173 100.556 53.6749 101.114 53.6749 101.802C53.6749 102.49 53.1173 103.048 52.4293 103.048H42.5776C41.8897 103.048 41.332 102.49 41.332 101.802Z" fill="#222B3B"/>
<path d="M31.2547 122.297C31.1296 122.297 31.028 122.196 31.0307 122.071C31.0731 120.111 31.6641 118.243 32.6866 116.852C33.7484 115.408 35.1885 114.597 36.6901 114.597C38.1917 114.597 39.6319 115.408 40.6937 116.852C41.7162 118.243 42.3072 120.111 42.3496 122.071C42.3523 122.196 42.2506 122.297 42.1255 122.297L36.6901 122.297L31.2547 122.297Z" fill="#7676E8"/>
<path fill-rule="evenodd" clip-rule="evenodd" d="M31.3314 119.808C31.3037 119.919 31.2777 120.03 31.2537 120.142C31.1201 120.765 31.0439 121.413 31.0297 122.072C31.027 122.197 31.1286 122.298 31.2537 122.298L42.1245 122.298C42.2496 122.298 42.3512 122.197 42.3485 122.072C42.3343 121.413 42.2581 120.765 42.1245 120.142C42.1005 120.03 42.0746 119.919 42.0468 119.808C42.0467 119.808 42.0466 119.807 42.0465 119.807C41.7694 118.705 41.3096 117.692 40.6927 116.853C39.6309 115.409 38.1907 114.598 36.6891 114.598C35.1875 114.598 33.7474 115.409 32.6856 116.853C32.0686 117.692 31.6088 118.705 31.3317 119.807C31.3316 119.807 31.3315 119.808 31.3314 119.808ZM28.539 122.018C28.5909 119.62 29.3109 117.237 30.6785 115.377C32.107 113.435 34.2363 112.107 36.6891 112.107C39.1419 112.107 41.2712 113.435 42.6997 115.377C44.0673 117.237 44.7874 119.62 44.8392 122.018C44.8728 123.574 43.6116 124.789 42.1245 124.789L31.2537 124.789C29.7666 124.789 28.5054 123.574 28.539 122.018Z" fill="#222B3B"/>
<path d="M53.2215 122.297C53.0964 122.297 52.9948 122.196 52.9975 122.071C53.0399 120.111 53.6309 118.243 54.6534 116.852C55.7152 115.408 57.1553 114.597 58.6569 114.597C60.1585 114.597 61.5987 115.408 62.6605 116.852C63.683 118.243 64.274 120.111 64.3164 122.071C64.3191 122.196 64.2174 122.297 64.0923 122.297L58.6569 122.297L53.2215 122.297Z" fill="#7676E8"/>
<path fill-rule="evenodd" clip-rule="evenodd" d="M53.2982 119.808C53.2704 119.919 53.2445 120.03 53.2205 120.142C53.0869 120.765 53.0107 121.413 52.9965 122.072C52.9938 122.197 53.0954 122.298 53.2205 122.298L64.0913 122.298C64.2164 122.298 64.318 122.197 64.3153 122.072C64.3011 121.413 64.2249 120.765 64.0913 120.142C64.0673 120.03 64.0414 119.919 64.0136 119.808C64.0135 119.808 64.0134 119.807 64.0133 119.807C63.7362 118.705 63.2764 117.692 62.6595 116.853C61.5976 115.409 60.1575 114.598 58.6559 114.598C57.1543 114.598 55.7142 115.409 54.6523 116.853C54.0354 117.692 53.5756 118.705 53.2985 119.807C53.2984 119.807 53.2983 119.808 53.2982 119.808ZM50.5058 122.018C50.5577 119.62 51.2777 117.237 52.6453 115.377C54.0738 113.435 56.2031 112.107 58.6559 112.107C61.1087 112.107 63.238 113.435 64.6665 115.377C66.0341 117.237 66.7542 119.62 66.806 122.018C66.8396 123.574 65.5784 124.789 64.0913 124.789L53.2205 124.789C51.7334 124.789 50.4722 123.574 50.5058 122.018Z" fill="#222B3B"/>
<path d="M33.7461 95.3446H28.7637V122.295H33.7461V95.3446Z" fill="#FA8419"/>
<path fill-rule="evenodd" clip-rule="evenodd" d="M26.2715 92.8562H36.2364V124.789H26.2715V92.8562ZM33.7452 95.3474V122.298H28.7627V95.3474H33.7452Z" fill="#222B3B"/>
<path fill-rule="evenodd" clip-rule="evenodd" d="M67.282 92.8563C67.9699 92.8665 68.5193 93.4323 68.5092 94.1201L67.2637 94.1018C68.5092 94.1201 68.5092 94.1205 68.5092 94.1208L68.5091 94.1238L68.509 94.1304L68.5086 94.1517C68.5082 94.1695 68.5076 94.1945 68.5066 94.2261C68.5047 94.2894 68.5014 94.3795 68.4959 94.4926C68.485 94.7186 68.4652 95.0377 68.4296 95.419C68.3589 96.1762 68.2236 97.2033 67.962 98.242C67.7053 99.2615 67.3023 100.394 66.6423 101.29C65.9577 102.219 64.9197 102.978 63.488 102.934C62.8004 102.912 62.2604 102.337 62.2819 101.65C62.3034 100.962 62.8782 100.422 63.5658 100.444C63.9458 100.456 64.2809 100.295 64.6367 99.8122C65.017 99.296 65.3218 98.5249 65.5463 97.6335C65.7659 96.7613 65.8854 95.8705 65.9492 95.1874C65.9808 94.8486 65.9982 94.567 66.0076 94.3723C66.0123 94.2751 66.015 94.1999 66.0165 94.1504C66.0173 94.1257 66.0177 94.1074 66.018 94.0961L66.0182 94.0835C66.0182 94.0833 66.0182 94.0832 66.0182 94.083M67.282 92.8563C66.5943 92.8462 66.0286 93.3954 66.0182 94.083L67.282 92.8563Z" fill="#222B3B"/>
<path d="M47.8984 72.2475L42.6895 67.0386C47.8984 65.2268 51.2955 62.0562 53.1073 58.8855L56.278 61.7164L47.8984 72.2475Z" fill="#7676E8"/>
<path fill-rule="evenodd" clip-rule="evenodd" d="M51.6693 57.5844C51.8251 56.9143 52.4945 56.4974 53.1646 56.6531C59.9097 58.2206 63.8644 61.4406 66.0364 66.3538C68.1439 71.1212 68.5094 77.3645 68.5094 84.8169C68.5094 85.5049 67.9517 86.0625 67.2638 86.0625C66.5759 86.0625 66.0182 85.5049 66.0182 84.8169C66.0182 77.322 65.625 71.5847 63.7579 67.3611C61.9552 63.2832 58.7193 60.5016 52.6007 59.0797C51.9306 58.9239 51.5136 58.2545 51.6693 57.5844Z" fill="#222B3B"/>
<path fill-rule="evenodd" clip-rule="evenodd" d="M43.1119 57.6961C42.9562 57.026 42.2868 56.6091 41.6167 56.7648C34.8747 58.3316 30.9445 61.522 28.8 66.4123C26.7216 71.1517 26.3851 77.3684 26.3851 84.8154C26.3851 85.5033 26.9428 86.061 27.6307 86.061C28.3186 86.061 28.8763 85.5033 28.8763 84.8154C28.8763 77.315 29.2418 71.6078 31.0815 67.4128C32.855 63.3686 36.0588 60.614 42.1806 59.1914C42.8507 59.0356 43.2676 58.3662 43.1119 57.6961Z" fill="#222B3B"/>
<path fill-rule="evenodd" clip-rule="evenodd" d="M55.0331 45.9204V45.8631C55.0331 42.6537 54.0708 40.5224 52.7879 39.2053C51.5009 37.884 49.661 37.1438 47.4461 37.1438C45.2282 37.1438 43.3523 37.8865 42.0343 39.219C40.7257 40.5419 39.746 42.6712 39.746 45.8631V45.9056L39.7445 45.948C39.4258 55.2955 43.9704 59.1119 47.4461 59.1119C50.9052 59.1119 55.4599 55.205 55.0357 45.9775L55.0331 45.9204ZM37.2548 45.8631C36.9149 55.828 41.8801 61.6031 47.4461 61.6031C53.0122 61.6031 57.9772 55.7148 57.5243 45.8631C57.5243 38.4209 53.0122 34.6526 47.4461 34.6526C41.8801 34.6526 37.2548 38.4209 37.2548 45.8631Z" fill="#222B3B"/>
<path fill-rule="evenodd" clip-rule="evenodd" d="M39.1816 58.092C39.8695 58.092 40.4272 58.6497 40.4272 59.3376L39.1816 59.3376L37.936 59.3376C37.936 58.6496 38.4937 58.092 39.1816 58.092ZM40.4271 71.3448L40.4272 59.3376C40.4272 59.3375 40.4272 59.3376 39.1816 59.3376C37.936 59.3376 37.936 59.3375 37.936 59.3376L37.9359 65.8629C37.9359 67.9741 37.9359 70.0926 37.9359 71.3437C36.7639 71.5737 35.8346 72.1339 35.1385 72.9231C34.2523 73.9279 33.8342 75.2004 33.6369 76.3366C33.4374 77.4857 33.4441 78.6102 33.4954 79.4301C33.5212 79.8442 33.5592 80.1906 33.5911 80.4365C33.6071 80.5596 33.6217 80.6581 33.6327 80.7279C33.6382 80.7628 33.6427 80.7905 33.6461 80.8106C33.6478 80.8207 33.6492 80.8288 33.6503 80.835L33.6517 80.8428L33.6522 80.8456L33.6524 80.8467C33.6525 80.8472 33.6526 80.8476 34.8783 80.6263L33.6526 80.8476C33.7748 81.5246 34.4227 81.9743 35.0997 81.8521C35.7761 81.7299 36.2256 81.083 36.1044 80.4066C36.1044 80.4063 36.1043 80.406 36.1043 80.4056L36.1041 80.4049L36.1025 80.3951C36.1007 80.3844 36.0977 80.3664 36.0938 80.3415C36.086 80.2919 36.0746 80.2152 36.0616 80.1154C36.0356 79.9154 36.0036 79.6248 35.9817 79.2746C35.9374 78.5657 35.937 77.652 36.0914 76.7628C36.248 75.8608 36.5447 75.0949 37.0068 74.571C37.4283 74.0932 38.0699 73.7188 39.1816 73.7188C40.2929 73.7188 40.8882 74.0912 41.2595 74.5405C41.6758 75.0444 41.9287 75.7932 42.0352 76.6957C42.1398 77.5825 42.0889 78.4957 42.0049 79.2062C41.9635 79.5569 41.9153 79.848 41.878 80.0486C41.8594 80.1487 41.8437 80.2257 41.8331 80.2757C41.8278 80.3006 41.8238 80.3188 41.8213 80.3297L41.819 80.3399C41.8189 80.3405 41.8187 80.341 41.8186 80.3416C41.6615 81.0106 42.076 81.6805 42.7449 81.8385C43.4144 81.9967 44.0854 81.5821 44.2435 80.9126L43.0313 80.6263C44.2435 80.9126 44.2436 80.9122 44.2437 80.9117L44.2446 80.9079L44.2464 80.9002C44.2471 80.8971 44.248 80.8933 44.2489 80.8891C44.2498 80.8852 44.2508 80.8808 44.2519 80.8761C44.2564 80.8561 44.2625 80.8285 44.2699 80.7937C44.2846 80.7243 44.3046 80.6261 44.3274 80.5033C44.3729 80.258 44.4301 79.9121 44.4789 79.4985C44.5756 78.6802 44.6451 77.5552 44.5093 76.4038C44.3753 75.2679 44.0267 73.9785 43.1798 72.9536C42.5102 72.1433 41.5939 71.5769 40.4271 71.3448ZM56.3929 62.5659C56.9239 63.0032 56.9999 63.7882 56.5626 64.3192L48.9198 73.5995V85.6087C48.9198 86.2967 48.3621 86.8543 47.6742 86.8543C46.9863 86.8543 46.4286 86.2967 46.4286 85.6087V73.6095L42.308 68.7492C41.8632 68.2244 41.9279 67.4384 42.4526 66.9935C42.9774 66.5487 43.7634 66.6134 44.2083 67.1382L47.6603 71.21L54.6395 62.7355C55.0769 62.2045 55.8619 62.1285 56.3929 62.5659Z" fill="#222B3B"/>
<path fill-rule="evenodd" clip-rule="evenodd" d="M86.4654 24.1966C85.9831 23.6968 85.1853 23.6879 84.6921 24.1769L64.7385 43.9569C63.9485 44.74 64.5031 46.0871 65.6154 46.0871H72.6993C74.7631 46.0871 76.4362 47.7602 76.4362 49.824V54.9197C76.4362 55.6076 76.9938 56.1653 77.6818 56.1653H92.4027C93.0906 56.1653 93.6483 55.6076 93.6483 54.9197V49.824C93.6483 47.7602 95.3213 46.0871 97.3851 46.0871H104.655C105.754 46.0871 106.314 44.7675 105.551 43.9766L86.4654 24.1966ZM82.9382 22.4076C84.4179 20.9408 86.8114 20.9674 88.2581 22.4667L107.344 42.2468C109.633 44.6194 107.952 48.5784 104.655 48.5784H97.3851C96.6972 48.5784 96.1395 49.136 96.1395 49.824V54.9197C96.1395 56.9835 94.4665 58.6565 92.4027 58.6565H77.6818C75.618 58.6565 73.9449 56.9835 73.9449 54.9197V49.824C73.9449 49.136 73.3872 48.5784 72.6993 48.5784H65.6154C62.2784 48.5784 60.6147 44.537 62.9847 42.1877L82.9382 22.4076Z" fill="#222B3B"/>
</svg>
