<svg width="80" height="80" viewBox="0 0 80 80" fill="none" xmlns="http://www.w3.org/2000/svg">
<path d="M59.7129 37.6387H66.4753V47.846H59.7129V37.6387Z" fill="#FDBA05"/>
<path d="M59.7129 33.6855H66.4753V37.0029H59.7129V33.6855Z" fill="#7FDACE"/>
<path d="M42.4238 42.9348V46.8901C42.4238 47.6652 43.0522 48.2936 43.8273 48.2936H51.738C52.5132 48.2936 53.1415 47.6652 53.1415 46.8901V42.9348C53.1415 42.1596 52.5132 41.5312 51.738 41.5312H43.8273C43.0522 41.5312 42.4238 42.1596 42.4238 42.9348Z" fill="white"/>
<path d="M42.4883 43.1262V46.8263H50.1438C50.9189 46.8263 51.5473 46.198 51.5473 45.4228V41.7227H43.8918C43.1167 41.7227 42.4883 42.351 42.4883 43.1262Z" fill="#FE5D0C"/>
<path d="M28.0699 47.1792C28.0699 58.9846 26.5348 55.5471 22.0979 55.547C15.077 56.6856 15.5659 48.7264 15.5659 44.2103C16.2038 37.3204 18.0398 35.3358 21.1799 33.3649C25.1991 31.4512 28.0699 36.991 28.0699 47.1792Z" fill="white"/>
<path d="M37.8948 47.9101C37.8948 60.3288 35.2792 56.7127 27.719 56.7127C15.7557 57.9104 17.81 49.1358 17.81 44.3851C18.3974 35.1299 21.7582 33.9226 26.6137 33.9226C33.3015 30.558 37.8948 37.1927 37.8948 47.9101Z" fill="#7FDACE"/>
<path d="M34.6862 42.4506C34.493 39.555 32.2306 36.2315 30.621 35.406L30.0469 32.918C37.7443 34.4491 39.1059 42.4506 37.0604 56.331H34.0022C33.8144 54.6377 34.8793 45.3461 34.6862 42.4506Z" fill="#7676E8"/>
<path d="M36.3194 23.9663L47.4902 13.2071C48.0425 12.6752 48.9194 12.6849 49.4597 13.229L60.1448 23.9882C61.0243 24.8738 60.397 26.3807 59.1489 26.3807H55.1205C54.3454 26.3807 53.717 27.0091 53.717 27.7842V30.4939C53.717 31.269 53.0886 31.8974 52.3135 31.8974H44.02C43.2449 31.8974 42.6165 31.269 42.6165 30.4939V27.7842C42.6165 27.0091 41.9881 26.3807 41.213 26.3807H37.2931C36.0299 26.3807 35.4096 24.8426 36.3194 23.9663Z" fill="white"/>
<path d="M32.2649 26.0286C32.5153 31.299 29.771 34.4491 26.6947 34.4491C23.6183 34.4491 20.874 31.3596 21.0618 26.0286C21.0618 22.0472 23.6183 20.0312 26.6947 20.0312C29.771 20.0312 32.2649 22.0472 32.2649 26.0286Z" fill="white"/>
<path d="M31.7688 26.6481C31.985 30.8924 29.5772 33.3016 26.9203 33.3016C24.2635 33.3016 22.3003 30.9412 22.4625 26.6481C22.4625 23.4418 24.6703 21.8184 27.3272 21.8184C29.9841 21.8184 31.7688 23.4418 31.7688 26.6481Z" fill="#FDBA05"/>
<path d="M37.9004 26.0281L49.7608 14.1621L59.7612 23.6041C60.6846 24.4759 60.0676 26.0281 58.7977 26.0281H54.6246C53.8435 26.0281 53.2127 26.6658 53.2212 27.4469L53.2541 30.4786C53.2626 31.2596 52.6318 31.8974 51.8507 31.8974H45.1675L45.1231 27.4177C45.1155 26.6481 44.4894 26.0281 43.7197 26.0281H37.9004Z" fill="#D7EC0B"/>
<path d="M13.7614 48.3122L64.8382 48.309C65.7418 48.3055 67.2626 47.8902 67.9941 48.9838C69.1441 50.7033 68.2866 53.1 66.5073 53.0605L15.063 53.0613C14.3677 53.061 13.6544 53.11 12.9611 53.0377C11.4491 52.8804 10.607 48.3786 13.7614 48.3122Z" fill="#FA8419"/>
<path fill-rule="evenodd" clip-rule="evenodd" d="M57.0339 34.2577C57.0339 33.5178 57.6337 32.918 58.3736 32.918H66.1567C66.8966 32.918 67.4964 33.5178 67.4964 34.2577V47.8885C68.4574 48.1873 69.1551 49.0836 69.1551 50.1428V50.7489C69.1551 52.3873 67.827 53.7154 66.1886 53.7154H13.8122C12.1739 53.7154 10.8457 52.3873 10.8457 50.7489C10.8457 49.1106 12.1739 47.7824 13.8122 47.7824H41.6591V43.1891C41.6591 41.7445 42.8302 40.5735 44.2747 40.5735H44.9765V39.17C44.9765 38.0777 45.8619 37.1923 46.9542 37.1923H48.8042C49.8965 37.1923 50.7819 38.0777 50.7819 39.17V40.5735H51.5475C52.992 40.5735 54.1631 41.7445 54.1631 43.1891V47.7824H57.0339V34.2577ZM58.4374 47.7824H66.0929V38.213H58.4374V47.7824ZM58.4374 36.8095H66.0929V34.3215H58.4374V36.8095ZM52.7596 47.7824V43.1891C52.7596 42.5197 52.2169 41.977 51.5475 41.977H44.2747C43.6053 41.977 43.0626 42.5197 43.0626 43.1891V47.7824H47.2093C47.5969 47.7824 47.9111 48.0966 47.9111 48.4842C47.9111 48.8717 47.5969 49.1859 47.2093 49.1859H13.8122C12.949 49.1859 12.2492 49.8857 12.2492 50.7489C12.2492 51.6121 12.949 52.3119 13.8122 52.3119H66.1886C67.0518 52.3119 67.7516 51.6121 67.7516 50.7489V50.1428C67.7516 49.6143 67.3232 49.1859 66.7947 49.1859H51.3561C50.9685 49.1859 50.6543 48.8717 50.6543 48.4842C50.6543 48.0966 50.9685 47.7824 51.3561 47.7824H52.7596ZM46.38 40.5735H49.3784V39.17C49.3784 38.8529 49.1213 38.5958 48.8042 38.5958H46.9542C46.6371 38.5958 46.38 38.8529 46.38 39.17V40.5735ZM60.7979 41.2752C60.7979 40.8877 61.112 40.5735 61.4996 40.5735H63.9239C64.3114 40.5735 64.6256 40.8877 64.6256 41.2752C64.6256 41.6628 64.3114 41.977 63.9239 41.977H61.4996C61.112 41.977 60.7979 41.6628 60.7979 41.2752ZM60.7979 44.784C60.7979 44.3964 61.112 44.0822 61.4996 44.0822H63.9239C64.3114 44.0822 64.6256 44.3964 64.6256 44.784C64.6256 45.1716 64.3114 45.4858 63.9239 45.4858H61.4996C61.112 45.4858 60.7979 45.1716 60.7979 44.784Z" fill="#222B3B"/>
<path d="M21.0531 54.8652H20.798C19.6 54.8652 18.6289 55.8364 18.6289 57.0343V65.2002H23.2222V57.0343C23.2222 55.8364 22.2511 54.8652 21.0531 54.8652Z" fill="#7FDACE"/>
<path fill-rule="evenodd" clip-rule="evenodd" d="M24.6249 66.6029H17.2246V57.0335C17.2246 55.0604 18.8241 53.4609 20.7972 53.4609H21.0524C23.0254 53.4609 24.6249 55.0604 24.6249 57.0335V66.6029ZM20.7972 54.8644H21.0524C22.2503 54.8644 23.2214 55.8356 23.2214 57.0335V65.1994H18.6281V57.0335C18.6281 55.8356 19.5992 54.8644 20.7972 54.8644Z" fill="#222B3B"/>
<path d="M32.9203 54.8652H32.6652C31.4672 54.8652 30.4961 55.8364 30.4961 57.0343V65.2002H35.0894V57.0343C35.0894 55.8364 34.1183 54.8652 32.9203 54.8652Z" fill="#7FDACE"/>
<path fill-rule="evenodd" clip-rule="evenodd" d="M36.4902 66.6029H29.0898V57.0335C29.0898 55.0604 30.6893 53.4609 32.6624 53.4609H32.9176C34.8907 53.4609 36.4902 55.0604 36.4902 57.0335V66.6029ZM32.6624 54.8644H32.9176C34.1155 54.8644 35.0867 55.8356 35.0867 57.0335V65.1994H30.4934V57.0335C30.4934 55.8356 31.4645 54.8644 32.6624 54.8644Z" fill="#222B3B"/>
<path d="M63.7953 53.7148H60.9883V68.8983H63.7953V53.7148Z" fill="#FA8419"/>
<path fill-rule="evenodd" clip-rule="evenodd" d="M59.5859 52.3125H65.2V70.3029H59.5859V52.3125ZM63.7965 53.716V68.8994H60.9894V53.716H63.7965Z" fill="#222B3B"/>
<path fill-rule="evenodd" clip-rule="evenodd" d="M5.67773 69.6021C5.67773 69.2146 5.99192 68.9004 6.37949 68.9004H72.472C72.8596 68.9004 73.1737 69.2146 73.1737 69.6021C73.1737 69.9897 72.8596 70.3039 72.472 70.3039H6.37949C5.99192 70.3039 5.67773 69.9897 5.67773 69.6021Z" fill="#222B3B"/>
<path fill-rule="evenodd" clip-rule="evenodd" d="M23.2852 57.3521C23.2852 56.9646 23.5993 56.6504 23.9869 56.6504H29.5372C29.9247 56.6504 30.2389 56.9646 30.2389 57.3521C30.2389 57.7397 29.9247 58.0539 29.5372 58.0539H23.9869C23.5993 58.0539 23.2852 57.7397 23.2852 57.3521Z" fill="#222B3B"/>
<path d="M17.6087 68.9004C17.5383 68.9004 17.481 68.8432 17.4825 68.7728C17.5064 67.6685 17.8394 66.6163 18.4154 65.8329C19.0136 65.0193 19.8249 64.5623 20.6709 64.5623C21.5169 64.5623 22.3283 65.0193 22.9265 65.8329C23.5025 66.6163 23.8355 67.6685 23.8593 68.7728C23.8609 68.8432 23.8036 68.9004 23.7331 68.9004L20.6709 68.9004L17.6087 68.9004Z" fill="#7676E8"/>
<path fill-rule="evenodd" clip-rule="evenodd" d="M17.6513 67.4965C17.6357 67.5587 17.6211 67.6214 17.6076 67.6845C17.5323 68.0355 17.4894 68.4006 17.4813 68.7716C17.4798 68.8421 17.5371 68.8992 17.6076 68.8992L23.732 68.8992C23.8024 68.8992 23.8597 68.8421 23.8582 68.7716C23.8501 68.4006 23.8072 68.0355 23.732 67.6845C23.7184 67.6214 23.7038 67.5587 23.6882 67.4965C23.6881 67.4962 23.6881 67.496 23.688 67.4957C23.5319 66.8749 23.2728 66.3044 22.9253 65.8317C22.3271 65.0182 21.5157 64.5611 20.6698 64.5611C19.8238 64.5611 19.0124 65.0182 18.4142 65.8317C18.0667 66.3044 17.8076 66.8749 17.6515 67.4957C17.6514 67.496 17.6514 67.4962 17.6513 67.4965ZM16.0782 68.7413C16.1074 67.3904 16.513 66.0481 17.2835 65.0003C18.0883 63.9058 19.2879 63.1576 20.6698 63.1576C22.0516 63.1576 23.2512 63.9058 24.056 65.0003C24.8265 66.0481 25.2321 67.3904 25.2613 68.7413C25.2803 69.6181 24.5697 70.3027 23.732 70.3027L17.6076 70.3027C16.7698 70.3027 16.0592 69.6181 16.0782 68.7413Z" fill="#222B3B"/>
<path d="M29.9837 68.9004C29.9133 68.9004 29.856 68.8432 29.8575 68.7728C29.8814 67.6685 30.2144 66.6163 30.7904 65.8329C31.3886 65.0193 32.1999 64.5623 33.0459 64.5623C33.8919 64.5623 34.7033 65.0193 35.3015 65.8329C35.8775 66.6163 36.2105 67.6685 36.2343 68.7728C36.2359 68.8432 36.1786 68.9004 36.1081 68.9004L33.0459 68.9004L29.9837 68.9004Z" fill="#7676E8"/>
<path fill-rule="evenodd" clip-rule="evenodd" d="M30.0263 67.4965C30.0107 67.5587 29.9961 67.6214 29.9826 67.6845C29.9073 68.0355 29.8644 68.4006 29.8563 68.7716C29.8548 68.8421 29.9121 68.8992 29.9826 68.8992L36.107 68.8992C36.1774 68.8992 36.2347 68.8421 36.2332 68.7716C36.2251 68.4006 36.1822 68.0355 36.107 67.6845C36.0934 67.6214 36.0788 67.5587 36.0632 67.4965C36.0631 67.4962 36.0631 67.496 36.063 67.4957C35.9069 66.8749 35.6478 66.3044 35.3003 65.8317C34.7021 65.0182 33.8907 64.5611 33.0448 64.5611C32.1988 64.5611 31.3874 65.0182 30.7892 65.8317C30.4417 66.3044 30.1826 66.8749 30.0265 67.4957C30.0264 67.496 30.0264 67.4962 30.0263 67.4965ZM28.4532 68.7413C28.4824 67.3904 28.888 66.0481 29.6585 65.0003C30.4633 63.9058 31.6629 63.1576 33.0448 63.1576C34.4266 63.1576 35.6262 63.9058 36.431 65.0003C37.2015 66.0481 37.6071 67.3904 37.6363 68.7413C37.6553 69.6181 36.9447 70.3027 36.107 70.3027L29.9826 70.3027C29.1448 70.3027 28.4342 69.6181 28.4532 68.7413Z" fill="#222B3B"/>
<path d="M19.0101 53.7148H16.2031V68.8983H19.0101V53.7148Z" fill="#FA8419"/>
<path fill-rule="evenodd" clip-rule="evenodd" d="M14.8008 52.3125H20.4148V70.3029H14.8008V52.3125ZM19.0113 53.716V68.8994H16.2043V53.716H19.0113Z" fill="#222B3B"/>
<path fill-rule="evenodd" clip-rule="evenodd" d="M37.9052 52.3126C38.2928 52.3183 38.6023 52.637 38.5966 53.0246L37.8949 53.0143C38.5966 53.0246 38.5966 53.0248 38.5966 53.0249L38.5966 53.0267L38.5965 53.0303L38.5962 53.0423C38.596 53.0524 38.5957 53.0665 38.5951 53.0843C38.594 53.1199 38.5922 53.1707 38.5891 53.2344C38.583 53.3617 38.5718 53.5415 38.5518 53.7563C38.5119 54.1829 38.4357 54.7616 38.2883 55.3467C38.1437 55.9211 37.9166 56.5593 37.5448 57.0639C37.1591 57.5873 36.5744 58.0152 35.7677 57.99C35.3804 57.9779 35.0761 57.654 35.0882 57.2667C35.1003 56.8793 35.4242 56.5751 35.8116 56.5872C36.0257 56.5939 36.2145 56.5034 36.4149 56.2313C36.6292 55.9405 36.8009 55.5061 36.9273 55.004C37.0511 54.5126 37.1184 54.0107 37.1543 53.6259C37.1722 53.435 37.1819 53.2763 37.1873 53.1666C37.1899 53.1119 37.1914 53.0695 37.1923 53.0416C37.1927 53.0277 37.1929 53.0174 37.1931 53.0111L37.1932 53.0039C37.1932 53.0038 37.1932 53.0038 37.1932 53.0037M37.9052 52.3126C37.5178 52.3069 37.1991 52.6163 37.1932 53.0037L37.9052 52.3126Z" fill="#222B3B"/>
<path d="M26.9854 40.7037L24.0508 37.7691C26.9854 36.7483 28.8993 34.9621 29.92 33.1758L31.7063 34.7707L26.9854 40.7037Z" fill="#7676E8"/>
<path fill-rule="evenodd" clip-rule="evenodd" d="M29.1082 32.4415C29.1959 32.064 29.5731 31.8291 29.9506 31.9168C33.7507 32.7999 35.9787 34.614 37.2023 37.382C38.3897 40.0679 38.5956 43.5852 38.5956 47.7838C38.5956 48.1713 38.2814 48.4855 37.8938 48.4855C37.5063 48.4855 37.1921 48.1713 37.1921 47.7838C37.1921 43.5613 36.9706 40.329 35.9187 37.9495C34.9031 35.6521 33.08 34.085 29.6329 33.2839C29.2554 33.1962 29.0205 32.819 29.1082 32.4415Z" fill="#222B3B"/>
<path fill-rule="evenodd" clip-rule="evenodd" d="M24.2883 32.506C24.2005 32.1284 23.8234 31.8935 23.4459 31.9813C19.6476 32.864 17.4334 34.6614 16.2252 37.4165C15.0543 40.0866 14.8647 43.5889 14.8647 47.7844C14.8647 48.172 15.1789 48.4862 15.5665 48.4862C15.954 48.4862 16.2682 48.172 16.2682 47.7844C16.2682 43.5588 16.4741 40.3435 17.5106 37.9801C18.5097 35.7017 20.3147 34.1499 23.7636 33.3483C24.1411 33.2606 24.376 32.8835 24.2883 32.506Z" fill="#222B3B"/>
<path fill-rule="evenodd" clip-rule="evenodd" d="M31.0057 25.8695V25.8373C31.0057 24.0291 30.4636 22.8284 29.7408 22.0864C29.0158 21.342 27.9792 20.925 26.7314 20.925C25.4819 20.925 24.425 21.3434 23.6825 22.0941C22.9452 22.8394 22.3933 24.039 22.3933 25.8373V25.8612L22.3924 25.8851C22.2129 31.1513 24.7732 33.3014 26.7314 33.3014C28.6801 33.3014 31.2462 31.1003 31.0072 25.9017L31.0057 25.8695ZM20.9898 25.8373C20.7983 31.4513 23.5956 34.7049 26.7314 34.7049C29.8672 34.7049 32.6644 31.3875 32.4092 25.8373C32.4092 21.6445 29.8672 19.5215 26.7314 19.5215C23.5956 19.5215 20.9898 21.6445 20.9898 25.8373Z" fill="#222B3B"/>
<path fill-rule="evenodd" clip-rule="evenodd" d="M22.0742 32.7285C22.4618 32.7285 22.776 33.0427 22.776 33.4303L22.0742 33.4303L21.3725 33.4303C21.3725 33.0427 21.6867 32.7285 22.0742 32.7285ZM22.7759 40.1949L22.776 33.4303C22.776 33.4302 22.776 33.4303 22.0742 33.4303C21.3725 33.4303 21.3725 33.4302 21.3725 33.4303L21.3724 37.1065C21.3724 38.2959 21.3724 39.4894 21.3724 40.1943C20.7121 40.3239 20.1886 40.6394 19.7964 41.0841C19.2971 41.6502 19.0616 42.367 18.9504 43.0072C18.8381 43.6546 18.8418 44.2881 18.8707 44.75C18.8853 44.9833 18.9067 45.1785 18.9247 45.317C18.9337 45.3863 18.9419 45.4418 18.9481 45.4811C18.9512 45.5008 18.9537 45.5164 18.9557 45.5278C18.9566 45.5334 18.9574 45.538 18.958 45.5415L18.9588 45.5459L18.9591 45.5475L18.9592 45.5481C18.9592 45.5483 18.9593 45.5486 19.6499 45.4239L18.9593 45.5486C19.0281 45.93 19.3932 46.1833 19.7746 46.1145C20.1556 46.0457 20.4089 45.6812 20.3406 45.3001C20.3406 45.3 20.3405 45.2998 20.3405 45.2996L20.3404 45.2992L20.3395 45.2937C20.3385 45.2876 20.3368 45.2775 20.3346 45.2635C20.3302 45.2355 20.3238 45.1923 20.3165 45.1361C20.3018 45.0234 20.2838 44.8597 20.2715 44.6624C20.2465 44.263 20.2463 43.7483 20.3333 43.2473C20.4215 42.7391 20.5887 42.3076 20.849 42.0125C21.0864 41.7433 21.4479 41.5323 22.0742 41.5323C22.7003 41.5323 23.0357 41.7422 23.2448 41.9953C23.4794 42.2792 23.6219 42.701 23.6819 43.2095C23.7408 43.7091 23.7121 44.2236 23.6648 44.6238C23.6415 44.8214 23.6143 44.9854 23.5933 45.0985C23.5829 45.1548 23.574 45.1982 23.568 45.2264C23.565 45.2404 23.5628 45.2507 23.5614 45.2568L23.5601 45.2626C23.56 45.2629 23.5599 45.2632 23.5599 45.2635C23.4714 45.6404 23.7048 46.0178 24.0817 46.1068C24.4589 46.1959 24.8369 45.9624 24.926 45.5852L24.243 45.4239C24.926 45.5852 24.9261 45.585 24.9261 45.5847L24.9266 45.5826L24.9276 45.5782C24.928 45.5764 24.9285 45.5743 24.9291 45.5719C24.9296 45.5698 24.9301 45.5673 24.9307 45.5646C24.9333 45.5534 24.9367 45.5378 24.9408 45.5182C24.9492 45.4791 24.9604 45.4238 24.9733 45.3546C24.9989 45.2164 25.0311 45.0216 25.0586 44.7885C25.1131 44.3275 25.1523 43.6937 25.0757 43.045C25.0002 42.4051 24.8039 41.6786 24.3268 41.1013C23.9495 40.6448 23.4333 40.3257 22.7759 40.1949ZM31.7707 35.249C32.0699 35.4954 32.1127 35.9377 31.8663 36.2368L27.5605 41.4651V48.2309C27.5605 48.6185 27.2464 48.9327 26.8588 48.9327C26.4712 48.9327 26.157 48.6185 26.157 48.2309V41.4708L23.8356 38.7326C23.585 38.4369 23.6214 37.9941 23.9171 37.7435C24.2127 37.4928 24.6555 37.5293 24.9061 37.825L26.851 40.119L30.7829 35.3446C31.0293 35.0454 31.4716 35.0026 31.7707 35.249Z" fill="#222B3B"/>
<path fill-rule="evenodd" clip-rule="evenodd" d="M48.7114 13.6317C48.4397 13.3501 47.9902 13.3451 47.7124 13.6206L36.4709 24.7642C36.0259 25.2054 36.3383 25.9644 36.965 25.9644H40.9559C42.1186 25.9644 43.0611 26.9069 43.0611 28.0696V30.9405C43.0611 31.328 43.3753 31.6422 43.7629 31.6422H52.0563C52.4439 31.6422 52.7581 31.328 52.7581 30.9405V28.0696C52.7581 26.9069 53.7007 25.9644 54.8634 25.9644H58.9591C59.5782 25.9644 59.894 25.2209 59.4641 24.7753L48.7114 13.6317ZM46.7243 12.6238C47.5579 11.7974 48.9063 11.8124 49.7214 12.6571L60.4741 23.8008C61.7639 25.1375 60.8166 27.3679 58.9591 27.3679H54.8634C54.4758 27.3679 54.1616 27.6821 54.1616 28.0696V30.9405C54.1616 32.1032 53.2191 33.0457 52.0563 33.0457H43.7629C42.6002 33.0457 41.6576 32.1032 41.6576 30.9405V28.0696C41.6576 27.6821 41.3434 27.3679 40.9559 27.3679H36.965C35.0849 27.3679 34.1477 25.0911 35.4828 23.7675L46.7243 12.6238Z" fill="#222B3B"/>
</svg>
