<svg width="123" height="122" viewBox="0 0 123 122" fill="none" xmlns="http://www.w3.org/2000/svg">
<path d="M91.5703 57.3993H101.883V72.9655H91.5703V57.3993Z" fill="#FDBA05"/>
<path d="M91.5703 51.3695H101.883V56.4285H91.5703V51.3695Z" fill="#7FDACE"/>
<path d="M65.207 65.4768V71.5087C65.207 72.6908 66.1653 73.649 67.3474 73.649H79.4112C80.5933 73.649 81.5515 72.6908 81.5515 71.5087V65.4768C81.5515 64.2947 80.5933 63.3364 79.4112 63.3364H67.3474C66.1653 63.3364 65.207 64.2947 65.207 65.4768Z" fill="white"/>
<path d="M65.3047 65.768V71.4108H76.9793C78.1614 71.4108 79.1197 70.4525 79.1197 69.2704V63.6277H67.445C66.263 63.6277 65.3047 64.586 65.3047 65.768Z" fill="#FE5D0C"/>
<path d="M43.316 71.9486C43.316 89.9518 40.9751 84.7096 34.2088 84.7096C23.5019 86.4459 24.2475 74.3081 24.2475 67.4211C25.2202 56.9139 28.0201 53.8874 32.8088 50.8818C38.938 47.9633 43.316 56.4115 43.316 71.9486Z" fill="white"/>
<path d="M58.2989 73.0623C58.2989 92.0008 54.3101 86.4863 42.7807 86.4862C24.5367 88.3128 27.6696 74.9314 27.6696 67.6866C28.5652 53.5724 33.6905 51.7313 41.0951 51.7313C51.2941 46.6004 58.2989 56.7182 58.2989 73.0623Z" fill="#7FDACE"/>
<path d="M53.4069 64.7384C53.1124 60.3226 49.6622 55.2543 47.2076 53.9954L46.332 50.2012C58.0706 52.5361 60.147 64.7384 57.0276 85.9061H52.3639C52.0776 83.3238 53.7015 69.1541 53.4069 64.7384Z" fill="#7676E8"/>
<path d="M55.8942 36.549L72.9297 20.1411C73.7719 19.33 75.1092 19.3448 75.9332 20.1745L92.228 36.5824C93.5691 37.9328 92.6126 40.2309 90.7093 40.2309H84.5659C83.3838 40.2309 82.4255 41.1892 82.4255 42.3713V46.5034C82.4255 47.6855 81.4673 48.6438 80.2852 48.6438H67.6377C66.4556 48.6438 65.4973 47.6855 65.4973 46.5034V42.3713C65.4973 41.1892 64.539 40.2309 63.357 40.2309H57.379C55.4528 40.2309 54.5068 37.8853 55.8942 36.549Z" fill="white"/>
<path d="M49.7138 39.6956C50.0956 47.733 45.9106 52.5369 41.2192 52.5369C36.5277 52.5369 32.3427 47.8254 32.6291 39.6956C32.6291 33.624 36.5277 30.5497 41.2192 30.5497C45.9106 30.5497 49.7138 33.624 49.7138 39.6956Z" fill="white"/>
<path d="M48.9584 40.6386C49.2881 47.1112 45.6161 50.7853 41.5644 50.7853C37.5127 50.7853 34.5189 47.1856 34.7662 40.6386C34.7662 35.7491 38.1332 33.2733 42.1849 33.2733C46.2366 33.2733 48.9584 35.7491 48.9584 40.6386Z" fill="#FDBA05"/>
<path d="M58.3086 39.6932L76.3957 21.5975L91.6463 35.9966C93.0545 37.3261 92.1136 39.6932 90.177 39.6932H83.813C82.6219 39.6932 81.6599 40.6657 81.6728 41.8568L81.7231 46.4802C81.736 47.6713 80.774 48.6438 79.5828 48.6438H69.3909L69.3232 41.8124C69.3116 40.6386 68.3568 39.6932 67.183 39.6932H58.3086Z" fill="#D7EC0B"/>
<path d="M21.4957 73.6768L99.3878 73.6718C100.766 73.6665 103.085 73.0331 104.2 74.7009C105.954 77.3231 104.647 80.9781 101.933 80.9178L23.4806 80.9191C22.4202 80.9187 21.3325 80.9933 20.2751 80.883C17.9695 80.6432 16.6852 73.778 21.4957 73.6768Z" fill="#FA8419"/>
<path fill-rule="evenodd" clip-rule="evenodd" d="M87.4858 52.2442C87.4858 51.1159 88.4005 50.2012 89.5289 50.2012H101.398C102.526 50.2012 103.441 51.1159 103.441 52.2442V73.0312C104.907 73.4869 105.971 74.8537 105.971 76.4691V77.3934C105.971 79.8919 103.945 81.9173 101.447 81.9173H21.5728C19.0743 81.9173 17.0488 79.8919 17.0488 77.3934C17.0488 74.8949 19.0743 72.8694 21.5728 72.8694H64.0393V65.8646C64.0393 63.6617 65.8251 61.8758 68.0281 61.8758H69.0983V59.7355C69.0983 58.0698 70.4486 56.7195 72.1142 56.7195H74.9356C76.6013 56.7195 77.9515 58.0698 77.9515 59.7355V61.8758H79.119C81.322 61.8758 83.1078 63.6617 83.1078 65.8646V72.8694H87.4858V52.2442ZM89.6262 72.8694H101.301V58.2761H89.6262V72.8694ZM89.6262 56.1358H101.301V52.3415H89.6262V56.1358ZM80.9675 72.8694V65.8646C80.9675 64.8438 80.1399 64.0162 79.119 64.0162H68.0281C67.0072 64.0162 66.1796 64.8438 66.1796 65.8646V72.8694H72.5034C73.0944 72.8694 73.5735 73.3486 73.5735 73.9396C73.5735 74.5307 73.0944 75.0098 72.5034 75.0098H21.5728C20.2563 75.0098 19.1892 76.0769 19.1892 77.3934C19.1892 78.7098 20.2563 79.7769 21.5728 79.7769H101.447C102.763 79.7769 103.83 78.7098 103.83 77.3934V76.4691C103.83 75.6631 103.177 75.0098 102.371 75.0098H78.8271C78.2361 75.0098 77.757 74.5307 77.757 73.9396C77.757 73.3486 78.2361 72.8694 78.8271 72.8694H80.9675ZM71.2386 61.8758H75.8112V59.7355C75.8112 59.2519 75.4192 58.8599 74.9356 58.8599H72.1142C71.6306 58.8599 71.2386 59.2519 71.2386 59.7355V61.8758ZM93.2259 62.946C93.2259 62.3549 93.705 61.8758 94.296 61.8758H97.993C98.584 61.8758 99.0632 62.3549 99.0632 62.946C99.0632 63.537 98.584 64.0162 97.993 64.0162H94.296C93.705 64.0162 93.2259 63.537 93.2259 62.946ZM93.2259 68.2969C93.2259 67.7058 93.705 67.2267 94.296 67.2267H97.993C98.584 67.2267 99.0632 67.7058 99.0632 68.2969C99.0632 68.8879 98.584 69.367 97.993 69.367H94.296C93.705 69.367 93.2259 68.8879 93.2259 68.2969Z" fill="#222B3B"/>
<path d="M32.6149 83.6698H32.2258C30.3989 83.6698 28.918 85.1508 28.918 86.9776V99.4306H35.9228V86.9776C35.9228 85.1508 34.4418 83.6698 32.6149 83.6698Z" fill="#7FDACE"/>
<path fill-rule="evenodd" clip-rule="evenodd" d="M38.0628 101.57H26.7773V86.9767C26.7773 83.9678 29.2166 81.5286 32.2255 81.5286H32.6147C35.6236 81.5286 38.0628 83.9678 38.0628 86.9767V101.57ZM32.2255 83.6689H32.6147C34.4415 83.6689 35.9225 85.1499 35.9225 86.9767V99.4297H28.9177V86.9767C28.9177 85.1499 30.3987 83.6689 32.2255 83.6689Z" fill="#222B3B"/>
<path d="M50.7106 83.6698H50.3215C48.4946 83.6698 47.0137 85.1508 47.0137 86.9776V99.4306H54.0185V86.9776C54.0185 85.1508 52.5375 83.6698 50.7106 83.6698Z" fill="#7FDACE"/>
<path fill-rule="evenodd" clip-rule="evenodd" d="M56.1585 101.57H44.873V86.9767C44.873 83.9678 47.3123 81.5286 50.3212 81.5286H50.7104C53.7193 81.5286 56.1585 83.9678 56.1585 86.9767V101.57ZM50.3212 83.6689H50.7104C52.5372 83.6689 54.0182 85.1499 54.0182 86.9767V99.4297H47.0134V86.9767C47.0134 85.1499 48.4944 83.6689 50.3212 83.6689Z" fill="#222B3B"/>
<path d="M97.7983 81.9158H93.5176V105.07H97.7983V81.9158Z" fill="#FA8419"/>
<path fill-rule="evenodd" clip-rule="evenodd" d="M91.377 79.7778H99.9384V107.213H91.377V79.7778ZM97.798 81.9182V105.073H93.5173V81.9182H97.798Z" fill="#222B3B"/>
<path fill-rule="evenodd" clip-rule="evenodd" d="M9.16992 106.142C9.16992 105.551 9.64906 105.072 10.2401 105.072H111.031C111.622 105.072 112.101 105.551 112.101 106.142C112.101 106.733 111.622 107.212 111.031 107.212H10.2401C9.64906 107.212 9.16992 106.733 9.16992 106.142Z" fill="#222B3B"/>
<path fill-rule="evenodd" clip-rule="evenodd" d="M36.0195 87.4637C36.0195 86.8727 36.4987 86.3936 37.0897 86.3936H45.5538C46.1449 86.3936 46.624 86.8727 46.624 87.4637C46.624 88.0548 46.1449 88.5339 45.5538 88.5339H37.0897C36.4987 88.5339 36.0195 88.0548 36.0195 87.4637Z" fill="#222B3B"/>
<path d="M27.3623 105.072C27.2548 105.072 27.1675 104.985 27.1698 104.878C27.2062 103.194 27.714 101.589 28.5925 100.394C29.5047 99.1535 30.742 98.4565 32.0322 98.4565C33.3223 98.4565 34.5596 99.1535 35.4718 100.394C36.3503 101.589 36.8581 103.194 36.8945 104.878C36.8968 104.985 36.8095 105.072 36.702 105.072L32.0322 105.072L27.3623 105.072Z" fill="#7676E8"/>
<path fill-rule="evenodd" clip-rule="evenodd" d="M27.4274 102.934C27.4035 103.029 27.3813 103.124 27.3606 103.221C27.2458 103.756 27.1804 104.313 27.1681 104.878C27.1658 104.986 27.2531 105.073 27.3606 105.073L36.7003 105.073C36.8078 105.073 36.8951 104.986 36.8928 104.878C36.8806 104.313 36.8151 103.756 36.7003 103.221C36.6797 103.124 36.6574 103.029 36.6336 102.934C36.6335 102.933 36.6334 102.933 36.6333 102.933C36.3953 101.986 36.0002 101.116 35.4701 100.395C34.5579 99.1544 33.3206 98.4574 32.0305 98.4574C30.7403 98.4574 29.503 99.1544 28.5908 100.395C28.0607 101.116 27.6657 101.986 27.4276 102.933C27.4275 102.933 27.4274 102.933 27.4274 102.934ZM25.0283 104.832C25.0728 102.772 25.6915 100.725 26.8664 99.1271C28.0937 97.458 29.9231 96.317 32.0305 96.317C34.1378 96.317 35.9672 97.458 37.1945 99.1271C38.3694 100.725 38.9881 102.772 39.0326 104.832C39.0615 106.169 37.9779 107.213 36.7003 107.213L27.3606 107.213C26.083 107.213 24.9994 106.169 25.0283 104.832Z" fill="#222B3B"/>
<path d="M46.2353 105.072C46.1279 105.072 46.0405 104.985 46.0429 104.878C46.0793 103.194 46.5871 101.589 47.4655 100.394C48.3778 99.1535 49.6151 98.4565 50.9052 98.4565C52.1953 98.4565 53.4326 99.1535 54.3449 100.394C55.2234 101.589 55.7311 103.194 55.7675 104.878C55.7699 104.985 55.6825 105.072 55.5751 105.072L50.9052 105.072L46.2353 105.072Z" fill="#7676E8"/>
<path fill-rule="evenodd" clip-rule="evenodd" d="M46.3024 102.934C46.2785 103.029 46.2563 103.124 46.2356 103.221C46.1208 103.756 46.0554 104.313 46.0431 104.878C46.0408 104.986 46.1281 105.073 46.2356 105.073L55.5753 105.073C55.6828 105.073 55.7701 104.986 55.7678 104.878C55.7556 104.313 55.6901 103.756 55.5753 103.221C55.5547 103.124 55.5324 103.029 55.5086 102.934C55.5085 102.933 55.5084 102.933 55.5083 102.933C55.2703 101.986 54.8752 101.116 54.3451 100.395C53.4329 99.1544 52.1956 98.4574 50.9055 98.4574C49.6153 98.4574 48.378 99.1544 47.4658 100.395C46.9357 101.116 46.5407 101.986 46.3026 102.933C46.3025 102.933 46.3024 102.933 46.3024 102.934ZM43.9033 104.832C43.9478 102.772 44.5665 100.725 45.7414 99.1271C46.9687 97.458 48.7981 96.317 50.9055 96.317C53.0128 96.317 54.8422 97.458 56.0695 99.1271C57.2444 100.725 57.8631 102.772 57.9076 104.832C57.9365 106.169 56.8529 107.213 55.5753 107.213L46.2356 107.213C44.958 107.213 43.8744 106.169 43.9033 104.832Z" fill="#222B3B"/>
<path d="M29.5014 81.9158H25.2207V105.07H29.5014V81.9158Z" fill="#FA8419"/>
<path fill-rule="evenodd" clip-rule="evenodd" d="M23.0801 79.7778H31.6415V107.213H23.0801V79.7778ZM29.5011 81.9182V105.073H25.2204V81.9182H29.5011Z" fill="#222B3B"/>
<path fill-rule="evenodd" clip-rule="evenodd" d="M58.316 79.778C58.907 79.7866 59.379 80.2728 59.3703 80.8637L58.3002 80.848C59.3703 80.8637 59.3703 80.864 59.3703 80.8643L59.3703 80.8669L59.3702 80.8725L59.3698 80.8908C59.3694 80.9062 59.3689 80.9276 59.3681 80.9548C59.3664 81.0092 59.3636 81.0866 59.3589 81.1838C59.3495 81.3779 59.3325 81.6521 59.3019 81.9797C59.2412 82.6302 59.125 83.5127 58.9002 84.405C58.6796 85.281 58.3334 86.2541 57.7663 87.0237C57.1781 87.822 56.2864 88.4744 55.0563 88.436C54.4655 88.4175 54.0016 87.9237 54.0201 87.3329C54.0385 86.7422 54.5324 86.2782 55.1231 86.2967C55.4497 86.3069 55.7375 86.1689 56.0432 85.7541C56.37 85.3106 56.6318 84.6481 56.8247 83.8823C57.0134 83.1329 57.1161 82.3676 57.1709 81.7807C57.198 81.4896 57.213 81.2477 57.2211 81.0804C57.2251 80.9969 57.2274 80.9322 57.2287 80.8898C57.2294 80.8685 57.2297 80.8528 57.23 80.8431L57.2302 80.8323C57.2302 80.8321 57.2302 80.832 57.2302 80.8319M58.316 79.778C57.7251 79.7693 57.2391 80.2411 57.2302 80.8319L58.316 79.778Z" fill="#222B3B"/>
<path d="M41.6628 62.0719L37.1875 57.5966C41.6628 56.04 44.5814 53.3159 46.1381 50.5918L48.8621 53.024L41.6628 62.0719Z" fill="#7676E8"/>
<path fill-rule="evenodd" clip-rule="evenodd" d="M44.9011 49.4739C45.0349 48.8982 45.61 48.54 46.1857 48.6738C51.9808 50.0205 55.3785 52.787 57.2446 57.0082C59.0553 61.1041 59.3693 66.4681 59.3693 72.8709C59.3693 73.4619 58.8902 73.941 58.2991 73.941C57.7081 73.941 57.2289 73.4619 57.2289 72.8709C57.2289 66.4316 56.8911 61.5024 55.287 57.8736C53.7382 54.3701 50.9581 51.9802 45.7012 50.7586C45.1255 50.6248 44.7673 50.0496 44.9011 49.4739Z" fill="#222B3B"/>
<path fill-rule="evenodd" clip-rule="evenodd" d="M37.5501 49.5699C37.4163 48.9942 36.8412 48.6359 36.2655 48.7697C30.4731 50.1158 27.0964 52.8569 25.2539 57.0584C23.4683 61.1303 23.1792 66.4714 23.1792 72.8695C23.1792 73.4606 23.6583 73.9397 24.2493 73.9397C24.8404 73.9397 25.3195 73.4606 25.3195 72.8695C25.3195 66.4255 25.6336 61.5222 27.2141 57.918C28.7378 54.4434 31.4903 52.0768 36.75 50.8545C37.3257 50.7207 37.6839 50.1456 37.5501 49.5699Z" fill="#222B3B"/>
<path fill-rule="evenodd" clip-rule="evenodd" d="M47.7924 39.4527V39.4036C47.7924 36.6461 46.9657 34.815 45.8635 33.6835C44.7577 32.5483 43.1769 31.9123 41.274 31.9123C39.3685 31.9123 37.7568 32.5504 36.6245 33.6952C35.5002 34.8318 34.6584 36.6612 34.6584 39.4036V39.44L34.6572 39.4765C34.3833 47.5074 38.2878 50.7863 41.274 50.7863C44.2459 50.7863 48.1591 47.4297 47.7946 39.5019L47.7924 39.4527ZM32.5181 39.4036C32.2261 47.965 36.492 52.9267 41.274 52.9267C46.0561 52.9267 50.3219 47.8677 49.9327 39.4036C49.9327 33.0096 46.0561 29.772 41.274 29.772C36.492 29.772 32.5181 33.0096 32.5181 39.4036Z" fill="#222B3B"/>
<path fill-rule="evenodd" clip-rule="evenodd" d="M34.1713 49.91C34.7624 49.91 35.2415 50.3892 35.2415 50.9802L34.1713 50.9802L33.1012 50.9802C33.1012 50.3892 33.5803 49.91 34.1713 49.91ZM35.2415 61.2963L35.2415 50.9802C35.2415 50.9801 35.2415 50.9802 34.1713 50.9802C33.1012 50.9802 33.1012 50.9801 33.1012 50.9802L33.1011 56.5865C33.1011 58.4003 33.1011 60.2204 33.1011 61.2953C32.0942 61.4929 31.2958 61.9742 30.6977 62.6523C29.9363 63.5156 29.5771 64.6088 29.4076 65.585C29.2362 66.5722 29.2419 67.5384 29.286 68.2428C29.3082 68.5986 29.3408 68.8962 29.3683 69.1074C29.382 69.2132 29.3946 69.2978 29.404 69.3578C29.4087 69.3877 29.4126 69.4116 29.4155 69.4289C29.417 69.4375 29.4182 69.4445 29.4191 69.4498L29.4203 69.4565L29.4207 69.4589L29.4209 69.4599C29.421 69.4603 29.421 69.4607 30.4742 69.2705L29.421 69.4607C29.5261 70.0423 30.0827 70.4287 30.6644 70.3236C31.2455 70.2187 31.6317 69.6629 31.5276 69.0818C31.5275 69.0815 31.5275 69.0812 31.5274 69.0809L31.5273 69.0803L31.5259 69.0719C31.5243 69.0627 31.5218 69.0472 31.5184 69.0259C31.5117 68.9832 31.5019 68.9173 31.4908 68.8315C31.4684 68.6597 31.441 68.4101 31.4222 68.1092C31.3841 67.5002 31.3837 66.7151 31.5164 65.9511C31.6509 65.1762 31.9059 64.5182 32.3029 64.0681C32.665 63.6575 33.2162 63.3359 34.1713 63.3359C35.1261 63.3359 35.6375 63.6559 35.9565 64.0419C36.3143 64.4748 36.5316 65.1181 36.623 65.8935C36.7129 66.6554 36.6691 67.44 36.597 68.0504C36.5614 68.3517 36.52 68.6018 36.488 68.7742C36.472 68.8602 36.4585 68.9263 36.4494 68.9693C36.4448 68.9907 36.4414 69.0063 36.4393 69.0157L36.4373 69.0245C36.4372 69.0249 36.437 69.0254 36.4369 69.0259C36.302 69.6006 36.658 70.1762 37.2328 70.312C37.808 70.4479 38.3844 70.0917 38.5203 69.5165L37.4788 69.2705C38.5203 69.5165 38.5204 69.5161 38.5205 69.5157L38.5212 69.5125L38.5228 69.5059C38.5234 69.5031 38.5241 69.4999 38.525 69.4963C38.5257 69.4929 38.5266 69.4892 38.5275 69.4851C38.5314 69.4679 38.5366 69.4442 38.5429 69.4144C38.5556 69.3547 38.5728 69.2703 38.5924 69.1648C38.6315 68.9541 38.6806 68.6569 38.7226 68.3015C38.8056 67.5985 38.8654 66.632 38.7486 65.6427C38.6335 64.6668 38.3341 63.559 37.6065 62.6785C37.0312 61.9823 36.2439 61.4957 35.2415 61.2963ZM48.9585 53.7538C49.4148 54.1295 49.48 54.804 49.1043 55.2602L42.538 63.2334V73.5512C42.538 74.1422 42.0588 74.6214 41.4678 74.6214C40.8768 74.6214 40.3976 74.1422 40.3976 73.5512V63.242L36.8574 59.0662C36.4752 58.6154 36.5308 57.9401 36.9817 57.5578C37.4325 57.1756 38.1078 57.2313 38.49 57.6821L41.4559 61.1805L47.4521 53.8996C47.8278 53.4433 48.5023 53.3781 48.9585 53.7538Z" fill="#222B3B"/>
<path fill-rule="evenodd" clip-rule="evenodd" d="M74.7963 20.7886C74.382 20.3592 73.6965 20.3516 73.2728 20.7717L56.1296 37.7658C55.4509 38.4386 55.9273 39.596 56.883 39.596H62.9691C64.7423 39.596 66.1797 41.0334 66.1797 42.8065V47.1845C66.1797 47.7755 66.6588 48.2547 67.2498 48.2547H79.8974C80.4884 48.2547 80.9675 47.7755 80.9675 47.1845V42.8065C80.9675 41.0334 82.4049 39.596 84.1781 39.596H90.424C91.3682 39.596 91.8498 38.4622 91.1941 37.7827L74.7963 20.7886ZM71.7659 19.2516C73.0372 17.9914 75.0936 18.0142 76.3365 19.3024L92.7344 36.2965C94.7013 38.335 93.2567 41.7363 90.424 41.7363H84.1781C83.587 41.7363 83.1079 42.2155 83.1079 42.8065V47.1845C83.1079 48.9576 81.6705 50.395 79.8974 50.395H67.2498C65.4767 50.395 64.0393 48.9576 64.0393 47.1845V42.8065C64.0393 42.2155 63.5602 41.7363 62.9691 41.7363H56.883C54.016 41.7363 52.5866 38.2642 54.6227 36.2457L71.7659 19.2516Z" fill="#222B3B"/>
</svg>
