<svg width="368" height="40" viewBox="0 0 368 40" fill="none" xmlns="http://www.w3.org/2000/svg">
<path d="M0 20.6247V39.4354H13.1386C12.2558 38.3205 12.0437 36.9328 12.0437 35.4266C12.0437 31.738 15.3283 27.3428 20.2553 27.3428C24.6348 27.3428 27.9194 31.732 27.9194 35.4266C27.9194 36.9328 27.7514 38.3205 26.8245 39.4354H39.9631V20.7374L0 20.6247Z" fill="#FE5D0C"/>
<path d="M35.5836 0.201172C36.6298 1.34796 36.9522 2.86167 36.9522 4.50076C36.9522 8.10329 34.9501 12.2938 30.1092 12.2938C25.4559 12.2938 22.445 8.10908 22.445 4.50076C22.445 2.86746 22.7188 1.54479 23.495 0.201172H17.4817C18.0655 1.00735 18.613 2.78638 18.613 4.50076C18.613 8.10329 15.8758 12.5625 10.9488 12.5625C5.74812 12.5625 3.01092 8.10908 3.01092 4.50076C3.01092 2.78638 3.21989 1.36533 4.37952 0.201172H0V18.4744H39.9631V0.201172H35.5836Z" fill="#FE5D0C"/>
<path d="M75.218 25.4794C77.6771 26.5855 78.9014 28.56 78.9014 31.4029C78.9014 33.9047 78.0015 35.8689 76.2016 37.2955C74.4018 38.7221 71.9323 39.4354 68.8036 39.4354C65.6749 39.4354 63.153 38.6807 61.1649 37.1714C59.1767 35.6621 58.1094 33.4808 57.9629 30.6379H64.3669C64.5134 31.6717 64.9319 32.3953 65.6121 32.8295C66.2922 33.2637 67.3072 33.4705 68.6466 33.4705C70.0593 33.4705 71.0534 33.2431 71.6289 32.7882C72.2044 32.3333 72.4869 31.6614 72.4869 30.7827C72.4869 30.0177 72.2358 29.4801 71.7231 29.1493C71.2103 28.8185 70.2999 28.6531 68.9815 28.6531H65.3714V23.205H68.385C69.4733 23.205 70.3104 23.0603 70.8859 22.7812C71.4615 22.5021 71.744 21.9748 71.744 21.2202C71.744 19.5248 70.5615 18.6771 68.2071 18.6771C67.0875 18.6771 66.2399 18.8632 65.6749 19.2457C65.1098 19.6282 64.7331 20.2898 64.5552 21.2512H58.1512C58.3291 18.5323 59.3546 16.4234 61.2277 14.9348C63.1007 13.4461 65.497 12.7122 68.3955 12.7122C71.294 12.7122 73.6903 13.4255 75.4796 14.8624C77.269 16.2994 78.1584 18.1292 78.1584 20.3621C78.1584 21.4373 77.8863 22.44 77.3527 23.3394C76.819 24.2492 76.1075 24.9625 75.2076 25.4794H75.218Z" fill="#FE5D0C"/>
<path d="M100.389 38.4076L98.5035 33.087H88.6217L86.7364 38.4076H79.9473L89.5219 12.7122H97.5926L107.167 38.4076H100.378H100.389ZM90.7399 27.1375H96.3958L93.5679 19.136L90.7399 27.1375Z" fill="#FE5D0C"/>
<path d="M129.327 12.7122H136.482V38.4076H130.181V21.4457L123.692 31.2516H123.098L116.61 21.4457V38.4076H110.309V12.7122H117.464L123.4 21.5282L129.337 12.7122H129.327Z" fill="#FE5D0C"/>
<path d="M144.595 16.5593C147.207 13.9945 150.445 12.7122 154.278 12.7122C158.111 12.7122 161.349 13.9945 163.961 16.5593C166.572 19.1241 167.888 22.299 167.888 26.0738C167.888 29.8485 166.582 33.0235 163.961 35.5882C161.339 38.153 158.111 39.4354 154.278 39.4354C150.445 39.4354 147.207 38.153 144.595 35.5882C141.984 33.0235 140.668 29.8485 140.668 26.0738C140.668 22.299 141.974 19.1241 144.595 16.5593ZM159.448 20.7581C158.08 19.3723 156.357 18.6794 154.278 18.6794C152.199 18.6794 150.476 19.3723 149.108 20.7581C147.739 22.1439 147.06 23.9227 147.06 26.0738C147.06 28.2249 147.739 30.0037 149.108 31.3998C150.476 32.7856 152.199 33.4785 154.278 33.4785C156.357 33.4785 158.08 32.7856 159.448 31.3998C160.817 30.014 161.496 28.2352 161.496 26.0738C161.496 23.9123 160.817 22.1439 159.448 20.7581Z" fill="#FE5D0C"/>
<path d="M195.11 38.3973H187.181L178.432 26.7606V38.3973H172.078V12.7122H178.432V23.6479L186.624 12.7122H194.438L185.017 25.1218L195.11 38.4076V38.3973Z" fill="#FE5D0C"/>
<path d="M225.976 25.4794C228.435 26.5855 229.659 28.56 229.659 31.4029C229.659 33.9047 228.759 35.8689 226.959 37.2955C225.16 38.7221 222.69 39.4354 219.561 39.4354C216.433 39.4354 213.911 38.6807 211.923 37.1714C209.935 35.6621 208.867 33.4808 208.721 30.6379H215.125C215.271 31.6717 215.69 32.3953 216.37 32.8295C217.05 33.2637 218.065 33.4705 219.404 33.4705C220.817 33.4705 221.811 33.2431 222.387 32.7882C222.962 32.3333 223.245 31.6614 223.245 30.7827C223.245 30.0177 222.994 29.4801 222.481 29.1493C221.968 28.8185 221.058 28.6531 219.739 28.6531H216.129V23.205H219.143C220.231 23.205 221.068 23.0603 221.644 22.7812C222.219 22.5021 222.502 21.9748 222.502 21.2202C222.502 19.5248 221.319 18.6771 218.965 18.6771C217.845 18.6771 216.998 18.8632 216.433 19.2457C215.868 19.6282 215.491 20.2898 215.313 21.2512H208.909C209.087 18.5323 210.112 16.4234 211.985 14.9348C213.859 13.4461 216.255 12.7122 219.153 12.7122C222.052 12.7122 224.448 13.4255 226.237 14.8624C228.027 16.2994 228.916 18.1292 228.916 20.3621C228.916 21.4373 228.644 22.44 228.111 23.3394C227.577 24.2492 226.865 24.9625 225.965 25.4794H225.976Z" fill="#FE5D0C"/>
<path d="M251.145 38.4076L249.259 33.087H239.378L237.492 38.4076H230.703L240.278 12.7122H248.348L257.923 38.4076H251.134H251.145ZM241.496 27.1375H247.152L244.324 19.136L241.496 27.1375Z" fill="#FE5D0C"/>
<path d="M273.1 22.2191C279.032 22.2191 282.003 24.8896 282.003 30.2205C282.003 32.8911 281.18 34.9224 279.545 36.3144C277.909 37.7064 275.654 38.4076 272.79 38.4076H261.064V12.7122H279.94V18.6617H267.531V22.2191H273.089H273.1ZM272.533 32.458C274.489 32.458 275.462 31.6847 275.462 30.1483C275.462 29.3131 275.269 28.7357 274.874 28.4264C274.478 28.117 273.805 27.9521 272.843 27.9521H267.552V32.4684H272.533V32.458Z" fill="#FE5D0C"/>
<path d="M288.025 16.5593C290.636 13.9945 293.874 12.7122 297.708 12.7122C301.541 12.7122 304.779 13.9945 307.39 16.5593C310.002 19.1241 311.318 22.299 311.318 26.0738C311.318 29.8485 310.012 33.0235 307.39 35.5882C304.769 38.153 301.541 39.4354 297.708 39.4354C293.874 39.4354 290.636 38.153 288.025 35.5882C285.414 33.0235 284.098 29.8485 284.098 26.0738C284.098 22.299 285.403 19.1241 288.025 16.5593ZM302.878 20.7581C301.51 19.3723 299.786 18.6794 297.708 18.6794C295.629 18.6794 293.906 19.3723 292.537 20.7581C291.169 22.1439 290.49 23.9227 290.49 26.0738C290.49 28.2249 291.169 30.0037 292.537 31.3998C293.906 32.7856 295.629 33.4785 297.708 33.4785C299.786 33.4785 301.51 32.7856 302.878 31.3998C304.246 30.014 304.925 28.2352 304.925 26.0738C304.925 23.9123 304.246 22.1439 302.878 20.7581Z" fill="#FE5D0C"/>
<path d="M335.397 12.7122V18.6593H328.141V38.4076H321.684V18.6593H314.459V12.7122H335.397Z" fill="#FE5D0C"/>
<path d="M349.884 22.1122C352.726 22.1122 354.912 22.8027 356.442 24.1633C357.972 25.5341 358.742 27.5543 358.742 30.2238C358.742 32.8933 357.941 34.9238 356.348 36.3153C354.756 37.7067 352.559 38.4076 349.769 38.4076H338.537V12.7225H344.835V22.1225H349.873L349.884 22.1122ZM349.509 32.4604C351.414 32.4604 352.361 31.6874 352.361 30.1517C352.361 29.3477 352.143 28.7705 351.695 28.4407C351.247 28.1109 350.56 27.946 349.623 27.946H344.845V32.4604H349.519H349.509ZM361.553 12.7122H367.851V38.3973H361.553V12.7122Z" fill="#FE5D0C"/>
</svg>
