<svg width="225" height="131" viewBox="0 0 225 131" fill="none" xmlns="http://www.w3.org/2000/svg">
<path d="M69.5273 43.9268V83.9674H97.7819C95.8835 81.5942 95.4273 78.6404 95.4273 75.4341C95.4273 67.5825 102.491 58.227 113.086 58.227C122.505 58.227 129.568 67.5699 129.568 75.4341C129.568 78.6404 129.207 81.5942 127.214 83.9674H155.468V44.1666L69.5273 43.9268Z" fill="#FE5D0C"/>
<path d="M146.05 -0.00195312C148.3 2.44961 148.993 5.68558 148.993 9.18958C148.993 16.891 144.688 25.8492 134.277 25.8492C124.271 25.8492 117.796 16.9033 117.796 9.18958C117.796 5.69797 118.384 2.8704 120.053 -0.00195312H107.122C108.377 1.72146 109.555 5.52462 109.555 9.18958C109.555 16.891 103.668 26.4237 93.0728 26.4237C81.8887 26.4237 76.0023 16.9033 76.0023 9.18958C76.0023 5.52462 76.4517 2.48675 78.9455 -0.00195312H69.5273V39.0621H155.468V-0.00195312H146.05Z" fill="#FE5D0C"/>
<path d="M12.5816 120.253C14.3746 121.051 15.2673 122.476 15.2673 124.528C15.2673 126.333 14.6111 127.751 13.2988 128.78C11.9864 129.81 10.1858 130.325 7.90449 130.325C5.62318 130.325 3.78439 129.78 2.33472 128.691C0.885059 127.601 0.106817 126.027 0 123.976H4.66945C4.77627 124.722 5.08146 125.244 5.5774 125.557C6.07333 125.871 6.81343 126.02 7.79004 126.02C8.82007 126.02 9.5449 125.856 9.96454 125.528C10.3842 125.199 10.5902 124.714 10.5902 124.08C10.5902 123.528 10.4071 123.14 10.0332 122.901C9.65935 122.663 8.99555 122.543 8.0342 122.543H5.40191V118.612H7.5993C8.3928 118.612 9.00319 118.507 9.42282 118.306C9.84247 118.104 10.0485 117.724 10.0485 117.179C10.0485 115.956 9.1863 115.344 7.46959 115.344C6.6532 115.344 6.03519 115.478 5.62318 115.754C5.21117 116.031 4.93649 116.508 4.80679 117.202H0.137337C0.267044 115.24 1.01477 113.718 2.3805 112.644C3.74624 111.569 5.49347 111.04 7.60693 111.04C9.72039 111.04 11.4676 111.554 12.7723 112.591C14.077 113.628 14.7255 114.949 14.7255 116.56C14.7255 117.336 14.5272 118.06 14.1381 118.709C13.7489 119.365 13.2301 119.88 12.5739 120.253H12.5816Z" fill="#FE5D0C"/>
<path d="M31.1543 129.521L29.7629 125.694H22.4701L21.0788 129.521H16.0684L23.1345 111.04H29.0907L36.1569 129.521H31.1465H31.1543ZM24.0334 121.415H28.2074L26.1204 115.66L24.0334 121.415Z" fill="#FE5D0C"/>
<path d="M51.7785 111.04H57.0506V129.521H52.4078V117.321L47.6268 124.374H47.1894L42.4084 117.321V129.521H37.7656V111.04H43.0377L47.4119 117.38L51.7862 111.04H51.7785Z" fill="#FE5D0C"/>
<path d="M63.164 113.816C65.0912 111.965 67.4808 111.04 70.3099 111.04C73.1389 111.04 75.5286 111.965 77.4557 113.816C79.3829 115.667 80.3541 117.958 80.3541 120.682C80.3541 123.406 79.3906 125.697 77.4557 127.548C75.5209 129.399 73.1389 130.325 70.3099 130.325C67.4808 130.325 65.0912 129.399 63.164 127.548C61.2369 125.697 60.2656 123.406 60.2656 120.682C60.2656 117.958 61.2292 115.667 63.164 113.816ZM74.1256 116.846C73.1158 115.846 71.8439 115.346 70.3099 115.346C68.7759 115.346 67.504 115.846 66.4941 116.846C65.4843 117.846 64.9833 119.13 64.9833 120.682C64.9833 122.234 65.4843 123.518 66.4941 124.526C67.504 125.526 68.7759 126.026 70.3099 126.026C71.8439 126.026 73.1158 125.526 74.1256 124.526C75.1354 123.526 75.6365 122.242 75.6365 120.682C75.6365 119.122 75.1354 117.846 74.1256 116.846Z" fill="#FE5D0C"/>
<path d="M99.64 129.514H93.8305L87.4209 121.144V129.514H82.7656V111.04H87.4209V118.905L93.4227 111.04H99.1475L92.2454 119.965L99.64 129.521V129.514Z" fill="#FE5D0C"/>
<path d="M121.863 120.253C123.656 121.051 124.549 122.476 124.549 124.528C124.549 126.333 123.892 127.751 122.58 128.78C121.268 129.81 119.467 130.325 117.186 130.325C114.904 130.325 113.066 129.78 111.616 128.691C110.166 127.601 109.388 126.027 109.281 123.976H113.951C114.058 124.722 114.363 125.244 114.859 125.557C115.355 125.871 116.095 126.02 117.071 126.02C118.101 126.02 118.826 125.856 119.246 125.528C119.665 125.199 119.871 124.714 119.871 124.08C119.871 123.528 119.688 123.14 119.314 122.901C118.941 122.663 118.277 122.543 117.315 122.543H114.683V118.612H116.881C117.674 118.612 118.284 118.507 118.704 118.306C119.124 118.104 119.33 117.724 119.33 117.179C119.33 115.956 118.468 115.344 116.751 115.344C115.934 115.344 115.316 115.478 114.904 115.754C114.492 116.031 114.218 116.508 114.088 117.202H109.419C109.548 115.24 110.296 113.718 111.662 112.644C113.027 111.569 114.775 111.04 116.888 111.04C119.002 111.04 120.749 111.554 122.054 112.591C123.358 113.628 124.007 114.949 124.007 116.56C124.007 117.336 123.808 118.06 123.419 118.709C123.03 119.365 122.511 119.88 121.855 120.253H121.863Z" fill="#FE5D0C"/>
<path d="M140.436 129.521L139.044 125.694H131.751L130.36 129.521H125.35L132.416 111.04H138.372L145.438 129.521H140.428H140.436ZM133.315 121.415H137.489L135.402 115.66L133.315 121.415Z" fill="#FE5D0C"/>
<path d="M156.629 117.877C160.954 117.877 163.121 119.798 163.121 123.632C163.121 125.553 162.521 127.014 161.328 128.015C160.136 129.017 158.491 129.521 156.403 129.521H147.854V111.04H161.617V115.319H152.569V117.877H156.621H156.629ZM156.216 125.242C157.642 125.242 158.351 124.686 158.351 123.581C158.351 122.98 158.211 122.564 157.923 122.342C157.634 122.12 157.143 122.001 156.442 122.001H152.584V125.249H156.216V125.242Z" fill="#FE5D0C"/>
<path d="M166.822 113.786C168.749 111.935 171.139 111.009 173.968 111.009C176.797 111.009 179.187 111.935 181.114 113.786C183.041 115.636 184.012 117.928 184.012 120.652C184.012 123.376 183.049 125.667 181.114 127.518C179.179 129.369 176.797 130.294 173.968 130.294C171.139 130.294 168.749 129.369 166.822 127.518C164.895 125.667 163.924 123.376 163.924 120.652C163.924 117.928 164.887 115.636 166.822 113.786ZM177.784 116.816C176.774 115.816 175.502 115.316 173.968 115.316C172.434 115.316 171.162 115.816 170.152 116.816C169.143 117.816 168.641 119.099 168.641 120.652C168.641 122.204 169.143 123.488 170.152 124.495C171.162 125.495 172.434 125.995 173.968 125.995C175.502 125.995 176.774 125.495 177.784 124.495C178.794 123.495 179.295 122.212 179.295 120.652C179.295 119.092 178.794 117.816 177.784 116.816Z" fill="#FE5D0C"/>
<path d="M201.687 111.009V115.287H196.396V129.491H191.688V115.287H186.42V111.009H201.687Z" fill="#FE5D0C"/>
<path d="M212.188 117.77C214.214 117.77 215.772 118.267 216.862 119.245C217.953 120.231 218.502 121.684 218.502 123.605C218.502 125.525 217.931 126.985 216.796 127.986C215.66 128.987 214.095 129.491 212.107 129.491H204.102V111.017H208.59V117.778H212.181L212.188 117.77ZM211.921 125.213C213.279 125.213 213.954 124.657 213.954 123.553C213.954 122.974 213.798 122.559 213.479 122.322C213.16 122.085 212.671 121.966 212.003 121.966H208.598V125.213H211.929H211.921ZM220.505 111.009H224.994V129.483H220.505V111.009Z" fill="#FE5D0C"/>
</svg>
