<svg width="80" height="80" viewBox="0 0 80 80" fill="none" xmlns="http://www.w3.org/2000/svg">
<path d="M24.0801 47.5372V66.922C24.0801 68.2402 25.1487 69.3088 26.4669 69.3088H52.5844C53.9026 69.3088 54.9712 68.2402 54.9712 66.922V47.5372C54.9712 46.219 53.9026 45.1504 52.5844 45.1504H26.4669C25.1487 45.1504 24.0801 46.219 24.0801 47.5372Z" fill="white"/>
<path d="M32.3164 53.2384V69.2278H47.8412V53.2383C47.8412 51.9202 46.7726 50.8516 45.4544 50.8516H40.0788H34.7032C33.385 50.8516 32.3164 51.9202 32.3164 53.2384Z" fill="#D7EC0B"/>
<path d="M43.4209 51.4099C41.5923 51.4203 39.5109 51.4291 37.8213 51.4298C36.1964 51.4304 34.5273 53.0648 34.5273 54.6896V69.5169C34.5273 69.8362 42.059 69.65 45.8248 69.5169V53.7986C45.8248 52.4737 44.7458 51.4024 43.4209 51.4099Z" fill="#7676E8"/>
<path d="M24.6328 19.9944V42.2879C24.6328 43.606 25.7014 44.6746 27.0196 44.6746H53.1371C54.4553 44.6746 55.5239 43.606 55.5239 42.2879V19.6322C55.5239 18.7192 55.0032 17.8863 54.1825 17.4865L41.1511 11.1378C40.4758 10.8088 39.685 10.817 39.0166 11.1597L25.9305 17.8706C25.1338 18.2791 24.6328 19.0991 24.6328 19.9944Z" fill="#7676E8" stroke="#222B3B" stroke-width="1.75031"/>
<path d="M25.5059 19.888V42.3707C25.5059 43.1616 26.147 43.8028 26.9379 43.8028H52.9118V21.2461C52.9118 20.3222 52.3786 19.4813 51.543 19.0872L37.9415 12.6738L26.2878 18.612C25.808 18.8565 25.5059 19.3495 25.5059 19.888Z" fill="#7FDACE"/>
<circle cx="40.1799" cy="29.676" r="11.0588" fill="white"/>
<mask id="path-7-outside-1_4044_7028" maskUnits="userSpaceOnUse" x="27.6758" y="17.2188" width="24" height="24" fill="black">
<rect fill="white" x="27.6758" y="17.2188" width="24" height="24"/>
<path d="M39.4617 18.2382C39.4728 18.2373 39.4839 18.2363 39.495 18.2357C41.7642 18.103 44.1901 18.7577 46.0993 19.9789C46.7265 20.3801 47.2881 20.848 47.8364 21.3495C49.8535 23.1943 51.1886 26.0073 51.3045 28.7341C51.3336 29.4227 51.3486 30.1124 51.2825 30.7993C51.0474 33.242 49.9614 35.4946 48.3038 37.2913C46.3734 39.3838 43.5075 40.7477 40.6503 40.8657C37.7233 40.9554 34.9591 40.1232 32.7021 38.2279C32.5609 38.1102 32.4227 37.9892 32.2875 37.8648C32.1524 37.7404 32.0203 37.6127 31.8914 37.4818C31.7625 37.351 31.6369 37.217 31.5147 37.0799C31.3924 36.9428 31.2735 36.8028 31.1581 36.66C31.0427 36.5171 30.9309 36.3715 30.8227 36.2231C30.7145 36.0747 30.6101 35.9238 30.5093 35.7702C30.4085 35.6168 30.3116 35.4609 30.2185 35.3026C30.1255 35.1444 30.0363 34.984 29.9512 34.8214C29.866 34.6588 29.7849 34.4942 29.7079 34.3275C29.6308 34.1609 29.5579 33.9925 29.4892 33.8224C29.4204 33.6522 29.3559 33.4805 29.2957 33.3071C29.2354 33.1337 29.1794 32.959 29.1278 32.7829C29.0761 32.6068 29.0288 32.4296 28.9859 32.2512C28.943 32.0728 28.9045 31.8934 28.8704 31.7131C28.8363 31.5328 28.8067 31.3518 28.7816 31.1701C28.7564 30.9884 28.7358 30.8061 28.7196 30.6233C28.4633 27.618 29.3327 24.6051 31.2926 22.2881C33.4756 19.7074 36.1359 18.5179 39.4617 18.2382ZM39.6239 18.6357C39.4432 18.6426 39.2628 18.6539 39.0826 18.6697C38.9025 18.6854 38.7229 18.7056 38.5437 18.7302C38.3646 18.7548 38.1862 18.7838 38.0085 18.8171C37.8307 18.8505 37.6539 18.8882 37.4781 18.9302C37.3022 18.9723 37.1275 19.0186 36.954 19.0692C36.7804 19.1199 36.6082 19.1748 36.4374 19.2338C36.2665 19.2929 36.0972 19.3562 35.9295 19.4236C35.7618 19.4911 35.5958 19.5626 35.4316 19.6381C35.2674 19.7137 35.1052 19.7933 34.945 19.8769C34.7847 19.9604 34.6266 20.0478 34.4707 20.1392C34.3147 20.2305 34.1611 20.3256 34.0099 20.4245C33.8587 20.5234 33.71 20.6259 33.5638 20.7321C33.4176 20.8383 33.2742 20.948 33.1334 21.0612C32.9927 21.1745 32.8548 21.2911 32.7198 21.4111C32.5848 21.5311 32.4529 21.6544 32.324 21.7809C32.1951 21.9074 32.0694 22.037 31.9469 22.1697C30.0882 24.1937 28.9074 27.1177 29.0297 29.8813C29.0372 30.0629 29.0491 30.2442 29.0655 30.4252C29.0819 30.6062 29.1027 30.7868 29.128 30.9668C29.1533 31.1468 29.183 31.326 29.2171 31.5045C29.2511 31.6831 29.2896 31.8607 29.3324 32.0374C29.3752 32.214 29.4223 32.3895 29.4738 32.5639C29.5252 32.7383 29.5809 32.9113 29.6408 33.083C29.7008 33.2546 29.7649 33.4247 29.8332 33.5932C29.9015 33.7617 29.9739 33.9285 30.0503 34.0935C30.1268 34.2584 30.2073 34.4214 30.2918 34.5825C30.3763 34.7435 30.4647 34.9024 30.557 35.0591C30.6493 35.2158 30.7454 35.3702 30.8453 35.5222C30.9452 35.6743 31.0488 35.8238 31.156 35.9707C31.2633 36.1176 31.374 36.2619 31.4884 36.4035C31.6027 36.545 31.7204 36.6836 31.8416 36.8195C31.9627 36.9552 32.0871 37.088 32.2148 37.2177C32.3424 37.3474 32.4732 37.4739 32.6071 37.5973C34.5799 39.392 37.4773 40.6041 40.1736 40.4749C40.2377 40.472 40.3016 40.4665 40.3654 40.4584C43.3115 40.3669 46.0211 39.0897 48.0335 36.9543C48.1536 36.8268 48.2706 36.6965 48.3844 36.5634C48.498 36.4303 48.6085 36.2945 48.7156 36.156C48.8228 36.0176 48.9265 35.8766 49.0267 35.7331C49.127 35.5896 49.2237 35.4438 49.3169 35.2956C49.4101 35.1474 49.4996 34.9971 49.5855 34.8445C49.6713 34.692 49.7534 34.5375 49.8318 34.381C49.9101 34.2245 49.9845 34.0663 50.0552 33.9062C50.1258 33.7461 50.1925 33.5844 50.2553 33.4211C50.3181 33.2578 50.3769 33.093 50.4316 32.9268C50.4863 32.7607 50.537 32.5933 50.5836 32.4247C50.6301 32.256 50.6726 32.0864 50.7109 31.9158C50.7493 31.7451 50.7835 31.5736 50.8135 31.4013C50.8435 31.2289 50.8693 31.056 50.8909 30.8825C50.9125 30.7088 50.9299 30.5349 50.943 30.3605C50.956 30.186 50.9649 30.0114 50.9695 29.8365C50.9741 29.6617 50.9745 29.4868 50.9706 29.312C50.9659 29.132 50.9567 28.9522 50.943 28.7725C50.9294 28.5929 50.9114 28.4137 50.8889 28.2351C50.8665 28.0563 50.8396 27.8783 50.8083 27.7009C50.777 27.5235 50.7414 27.347 50.7015 27.1714C50.6615 26.9958 50.6172 26.8212 50.5686 26.6477C50.52 26.4742 50.4671 26.3021 50.41 26.1312C50.3529 25.9603 50.2916 25.791 50.2261 25.6231C50.1607 25.4553 50.0911 25.2891 50.0175 25.1247C49.9438 24.9602 49.8661 24.7977 49.7844 24.6371C49.7027 24.4765 49.617 24.3179 49.5275 24.1615C49.438 24.0051 49.3447 23.851 49.2476 23.6991C49.1504 23.5473 49.0496 23.398 48.9451 23.2511C48.8405 23.1042 48.7324 22.96 48.6209 22.8184C48.5092 22.6768 48.3941 22.5381 48.2757 22.4022C48.1571 22.2663 48.0353 22.1334 47.9103 22.0034C47.7852 21.8735 47.657 21.7467 47.5257 21.6231C47.3945 21.4991 47.2603 21.3784 47.123 21.2611C46.9857 21.1437 46.8457 21.0298 46.7027 20.9194C46.5599 20.8089 46.4144 20.7021 46.2662 20.5988C46.1181 20.4956 45.9674 20.396 45.8142 20.3002C45.661 20.2044 45.5056 20.1124 45.3479 20.0243C45.1903 19.9361 45.0305 19.8519 44.8686 19.7717C44.7067 19.6914 44.5429 19.6152 44.3773 19.543C44.2117 19.4709 44.0443 19.4028 43.8752 19.3389C43.7063 19.275 43.5357 19.2153 43.3637 19.1598C43.1917 19.1044 43.0185 19.0531 42.8439 19.0062C42.6694 18.9593 42.4938 18.9167 42.3171 18.8784C42.1405 18.8402 41.963 18.8063 41.7846 18.7768C41.6062 18.7473 41.4273 18.7222 41.2477 18.7015C41.0681 18.6809 40.8881 18.6647 40.7077 18.6529C40.5273 18.6411 40.3468 18.6338 40.1661 18.6309C39.9853 18.6281 39.8046 18.6297 39.6239 18.6357Z"/>
</mask>
<path d="M39.4617 18.2382C39.4728 18.2373 39.4839 18.2363 39.495 18.2357C41.7642 18.103 44.1901 18.7577 46.0993 19.9789C46.7265 20.3801 47.2881 20.848 47.8364 21.3495C49.8535 23.1943 51.1886 26.0073 51.3045 28.7341C51.3336 29.4227 51.3486 30.1124 51.2825 30.7993C51.0474 33.242 49.9614 35.4946 48.3038 37.2913C46.3734 39.3838 43.5075 40.7477 40.6503 40.8657C37.7233 40.9554 34.9591 40.1232 32.7021 38.2279C32.5609 38.1102 32.4227 37.9892 32.2875 37.8648C32.1524 37.7404 32.0203 37.6127 31.8914 37.4818C31.7625 37.351 31.6369 37.217 31.5147 37.0799C31.3924 36.9428 31.2735 36.8028 31.1581 36.66C31.0427 36.5171 30.9309 36.3715 30.8227 36.2231C30.7145 36.0747 30.6101 35.9238 30.5093 35.7702C30.4085 35.6168 30.3116 35.4609 30.2185 35.3026C30.1255 35.1444 30.0363 34.984 29.9512 34.8214C29.866 34.6588 29.7849 34.4942 29.7079 34.3275C29.6308 34.1609 29.5579 33.9925 29.4892 33.8224C29.4204 33.6522 29.3559 33.4805 29.2957 33.3071C29.2354 33.1337 29.1794 32.959 29.1278 32.7829C29.0761 32.6068 29.0288 32.4296 28.9859 32.2512C28.943 32.0728 28.9045 31.8934 28.8704 31.7131C28.8363 31.5328 28.8067 31.3518 28.7816 31.1701C28.7564 30.9884 28.7358 30.8061 28.7196 30.6233C28.4633 27.618 29.3327 24.6051 31.2926 22.2881C33.4756 19.7074 36.1359 18.5179 39.4617 18.2382ZM39.6239 18.6357C39.4432 18.6426 39.2628 18.6539 39.0826 18.6697C38.9025 18.6854 38.7229 18.7056 38.5437 18.7302C38.3646 18.7548 38.1862 18.7838 38.0085 18.8171C37.8307 18.8505 37.6539 18.8882 37.4781 18.9302C37.3022 18.9723 37.1275 19.0186 36.954 19.0692C36.7804 19.1199 36.6082 19.1748 36.4374 19.2338C36.2665 19.2929 36.0972 19.3562 35.9295 19.4236C35.7618 19.4911 35.5958 19.5626 35.4316 19.6381C35.2674 19.7137 35.1052 19.7933 34.945 19.8769C34.7847 19.9604 34.6266 20.0478 34.4707 20.1392C34.3147 20.2305 34.1611 20.3256 34.0099 20.4245C33.8587 20.5234 33.71 20.6259 33.5638 20.7321C33.4176 20.8383 33.2742 20.948 33.1334 21.0612C32.9927 21.1745 32.8548 21.2911 32.7198 21.4111C32.5848 21.5311 32.4529 21.6544 32.324 21.7809C32.1951 21.9074 32.0694 22.037 31.9469 22.1697C30.0882 24.1937 28.9074 27.1177 29.0297 29.8813C29.0372 30.0629 29.0491 30.2442 29.0655 30.4252C29.0819 30.6062 29.1027 30.7868 29.128 30.9668C29.1533 31.1468 29.183 31.326 29.2171 31.5045C29.2511 31.6831 29.2896 31.8607 29.3324 32.0374C29.3752 32.214 29.4223 32.3895 29.4738 32.5639C29.5252 32.7383 29.5809 32.9113 29.6408 33.083C29.7008 33.2546 29.7649 33.4247 29.8332 33.5932C29.9015 33.7617 29.9739 33.9285 30.0503 34.0935C30.1268 34.2584 30.2073 34.4214 30.2918 34.5825C30.3763 34.7435 30.4647 34.9024 30.557 35.0591C30.6493 35.2158 30.7454 35.3702 30.8453 35.5222C30.9452 35.6743 31.0488 35.8238 31.156 35.9707C31.2633 36.1176 31.374 36.2619 31.4884 36.4035C31.6027 36.545 31.7204 36.6836 31.8416 36.8195C31.9627 36.9552 32.0871 37.088 32.2148 37.2177C32.3424 37.3474 32.4732 37.4739 32.6071 37.5973C34.5799 39.392 37.4773 40.6041 40.1736 40.4749C40.2377 40.472 40.3016 40.4665 40.3654 40.4584C43.3115 40.3669 46.0211 39.0897 48.0335 36.9543C48.1536 36.8268 48.2706 36.6965 48.3844 36.5634C48.498 36.4303 48.6085 36.2945 48.7156 36.156C48.8228 36.0176 48.9265 35.8766 49.0267 35.7331C49.127 35.5896 49.2237 35.4438 49.3169 35.2956C49.4101 35.1474 49.4996 34.9971 49.5855 34.8445C49.6713 34.692 49.7534 34.5375 49.8318 34.381C49.9101 34.2245 49.9845 34.0663 50.0552 33.9062C50.1258 33.7461 50.1925 33.5844 50.2553 33.4211C50.3181 33.2578 50.3769 33.093 50.4316 32.9268C50.4863 32.7607 50.537 32.5933 50.5836 32.4247C50.6301 32.256 50.6726 32.0864 50.7109 31.9158C50.7493 31.7451 50.7835 31.5736 50.8135 31.4013C50.8435 31.2289 50.8693 31.056 50.8909 30.8825C50.9125 30.7088 50.9299 30.5349 50.943 30.3605C50.956 30.186 50.9649 30.0114 50.9695 29.8365C50.9741 29.6617 50.9745 29.4868 50.9706 29.312C50.9659 29.132 50.9567 28.9522 50.943 28.7725C50.9294 28.5929 50.9114 28.4137 50.8889 28.2351C50.8665 28.0563 50.8396 27.8783 50.8083 27.7009C50.777 27.5235 50.7414 27.347 50.7015 27.1714C50.6615 26.9958 50.6172 26.8212 50.5686 26.6477C50.52 26.4742 50.4671 26.3021 50.41 26.1312C50.3529 25.9603 50.2916 25.791 50.2261 25.6231C50.1607 25.4553 50.0911 25.2891 50.0175 25.1247C49.9438 24.9602 49.8661 24.7977 49.7844 24.6371C49.7027 24.4765 49.617 24.3179 49.5275 24.1615C49.438 24.0051 49.3447 23.851 49.2476 23.6991C49.1504 23.5473 49.0496 23.398 48.9451 23.2511C48.8405 23.1042 48.7324 22.96 48.6209 22.8184C48.5092 22.6768 48.3941 22.5381 48.2757 22.4022C48.1571 22.2663 48.0353 22.1334 47.9103 22.0034C47.7852 21.8735 47.657 21.7467 47.5257 21.6231C47.3945 21.4991 47.2603 21.3784 47.123 21.2611C46.9857 21.1437 46.8457 21.0298 46.7027 20.9194C46.5599 20.8089 46.4144 20.7021 46.2662 20.5988C46.1181 20.4956 45.9674 20.396 45.8142 20.3002C45.661 20.2044 45.5056 20.1124 45.3479 20.0243C45.1903 19.9361 45.0305 19.8519 44.8686 19.7717C44.7067 19.6914 44.5429 19.6152 44.3773 19.543C44.2117 19.4709 44.0443 19.4028 43.8752 19.3389C43.7063 19.275 43.5357 19.2153 43.3637 19.1598C43.1917 19.1044 43.0185 19.0531 42.8439 19.0062C42.6694 18.9593 42.4938 18.9167 42.3171 18.8784C42.1405 18.8402 41.963 18.8063 41.7846 18.7768C41.6062 18.7473 41.4273 18.7222 41.2477 18.7015C41.0681 18.6809 40.8881 18.6647 40.7077 18.6529C40.5273 18.6411 40.3468 18.6338 40.1661 18.6309C39.9853 18.6281 39.8046 18.6297 39.6239 18.6357Z" fill="#222B3B"/>
<path d="M39.4617 18.2382C39.4728 18.2373 39.4839 18.2363 39.495 18.2357C41.7642 18.103 44.1901 18.7577 46.0993 19.9789C46.7265 20.3801 47.2881 20.848 47.8364 21.3495C49.8535 23.1943 51.1886 26.0073 51.3045 28.7341C51.3336 29.4227 51.3486 30.1124 51.2825 30.7993C51.0474 33.242 49.9614 35.4946 48.3038 37.2913C46.3734 39.3838 43.5075 40.7477 40.6503 40.8657C37.7233 40.9554 34.9591 40.1232 32.7021 38.2279C32.5609 38.1102 32.4227 37.9892 32.2875 37.8648C32.1524 37.7404 32.0203 37.6127 31.8914 37.4818C31.7625 37.351 31.6369 37.217 31.5147 37.0799C31.3924 36.9428 31.2735 36.8028 31.1581 36.66C31.0427 36.5171 30.9309 36.3715 30.8227 36.2231C30.7145 36.0747 30.6101 35.9238 30.5093 35.7702C30.4085 35.6168 30.3116 35.4609 30.2185 35.3026C30.1255 35.1444 30.0363 34.984 29.9512 34.8214C29.866 34.6588 29.7849 34.4942 29.7079 34.3275C29.6308 34.1609 29.5579 33.9925 29.4892 33.8224C29.4204 33.6522 29.3559 33.4805 29.2957 33.3071C29.2354 33.1337 29.1794 32.959 29.1278 32.7829C29.0761 32.6068 29.0288 32.4296 28.9859 32.2512C28.943 32.0728 28.9045 31.8934 28.8704 31.7131C28.8363 31.5328 28.8067 31.3518 28.7816 31.1701C28.7564 30.9884 28.7358 30.8061 28.7196 30.6233C28.4633 27.618 29.3327 24.6051 31.2926 22.2881C33.4756 19.7074 36.1359 18.5179 39.4617 18.2382ZM39.6239 18.6357C39.4432 18.6426 39.2628 18.6539 39.0826 18.6697C38.9025 18.6854 38.7229 18.7056 38.5437 18.7302C38.3646 18.7548 38.1862 18.7838 38.0085 18.8171C37.8307 18.8505 37.6539 18.8882 37.4781 18.9302C37.3022 18.9723 37.1275 19.0186 36.954 19.0692C36.7804 19.1199 36.6082 19.1748 36.4374 19.2338C36.2665 19.2929 36.0972 19.3562 35.9295 19.4236C35.7618 19.4911 35.5958 19.5626 35.4316 19.6381C35.2674 19.7137 35.1052 19.7933 34.945 19.8769C34.7847 19.9604 34.6266 20.0478 34.4707 20.1392C34.3147 20.2305 34.1611 20.3256 34.0099 20.4245C33.8587 20.5234 33.71 20.6259 33.5638 20.7321C33.4176 20.8383 33.2742 20.948 33.1334 21.0612C32.9927 21.1745 32.8548 21.2911 32.7198 21.4111C32.5848 21.5311 32.4529 21.6544 32.324 21.7809C32.1951 21.9074 32.0694 22.037 31.9469 22.1697C30.0882 24.1937 28.9074 27.1177 29.0297 29.8813C29.0372 30.0629 29.0491 30.2442 29.0655 30.4252C29.0819 30.6062 29.1027 30.7868 29.128 30.9668C29.1533 31.1468 29.183 31.326 29.2171 31.5045C29.2511 31.6831 29.2896 31.8607 29.3324 32.0374C29.3752 32.214 29.4223 32.3895 29.4738 32.5639C29.5252 32.7383 29.5809 32.9113 29.6408 33.083C29.7008 33.2546 29.7649 33.4247 29.8332 33.5932C29.9015 33.7617 29.9739 33.9285 30.0503 34.0935C30.1268 34.2584 30.2073 34.4214 30.2918 34.5825C30.3763 34.7435 30.4647 34.9024 30.557 35.0591C30.6493 35.2158 30.7454 35.3702 30.8453 35.5222C30.9452 35.6743 31.0488 35.8238 31.156 35.9707C31.2633 36.1176 31.374 36.2619 31.4884 36.4035C31.6027 36.545 31.7204 36.6836 31.8416 36.8195C31.9627 36.9552 32.0871 37.088 32.2148 37.2177C32.3424 37.3474 32.4732 37.4739 32.6071 37.5973C34.5799 39.392 37.4773 40.6041 40.1736 40.4749C40.2377 40.472 40.3016 40.4665 40.3654 40.4584C43.3115 40.3669 46.0211 39.0897 48.0335 36.9543C48.1536 36.8268 48.2706 36.6965 48.3844 36.5634C48.498 36.4303 48.6085 36.2945 48.7156 36.156C48.8228 36.0176 48.9265 35.8766 49.0267 35.7331C49.127 35.5896 49.2237 35.4438 49.3169 35.2956C49.4101 35.1474 49.4996 34.9971 49.5855 34.8445C49.6713 34.692 49.7534 34.5375 49.8318 34.381C49.9101 34.2245 49.9845 34.0663 50.0552 33.9062C50.1258 33.7461 50.1925 33.5844 50.2553 33.4211C50.3181 33.2578 50.3769 33.093 50.4316 32.9268C50.4863 32.7607 50.537 32.5933 50.5836 32.4247C50.6301 32.256 50.6726 32.0864 50.7109 31.9158C50.7493 31.7451 50.7835 31.5736 50.8135 31.4013C50.8435 31.2289 50.8693 31.056 50.8909 30.8825C50.9125 30.7088 50.9299 30.5349 50.943 30.3605C50.956 30.186 50.9649 30.0114 50.9695 29.8365C50.9741 29.6617 50.9745 29.4868 50.9706 29.312C50.9659 29.132 50.9567 28.9522 50.943 28.7725C50.9294 28.5929 50.9114 28.4137 50.8889 28.2351C50.8665 28.0563 50.8396 27.8783 50.8083 27.7009C50.777 27.5235 50.7414 27.347 50.7015 27.1714C50.6615 26.9958 50.6172 26.8212 50.5686 26.6477C50.52 26.4742 50.4671 26.3021 50.41 26.1312C50.3529 25.9603 50.2916 25.791 50.2261 25.6231C50.1607 25.4553 50.0911 25.2891 50.0175 25.1247C49.9438 24.9602 49.8661 24.7977 49.7844 24.6371C49.7027 24.4765 49.617 24.3179 49.5275 24.1615C49.438 24.0051 49.3447 23.851 49.2476 23.6991C49.1504 23.5473 49.0496 23.398 48.9451 23.2511C48.8405 23.1042 48.7324 22.96 48.6209 22.8184C48.5092 22.6768 48.3941 22.5381 48.2757 22.4022C48.1571 22.2663 48.0353 22.1334 47.9103 22.0034C47.7852 21.8735 47.657 21.7467 47.5257 21.6231C47.3945 21.4991 47.2603 21.3784 47.123 21.2611C46.9857 21.1437 46.8457 21.0298 46.7027 20.9194C46.5599 20.8089 46.4144 20.7021 46.2662 20.5988C46.1181 20.4956 45.9674 20.396 45.8142 20.3002C45.661 20.2044 45.5056 20.1124 45.3479 20.0243C45.1903 19.9361 45.0305 19.8519 44.8686 19.7717C44.7067 19.6914 44.5429 19.6152 44.3773 19.543C44.2117 19.4709 44.0443 19.4028 43.8752 19.3389C43.7063 19.275 43.5357 19.2153 43.3637 19.1598C43.1917 19.1044 43.0185 19.0531 42.8439 19.0062C42.6694 18.9593 42.4938 18.9167 42.3171 18.8784C42.1405 18.8402 41.963 18.8063 41.7846 18.7768C41.6062 18.7473 41.4273 18.7222 41.2477 18.7015C41.0681 18.6809 40.8881 18.6647 40.7077 18.6529C40.5273 18.6411 40.3468 18.6338 40.1661 18.6309C39.9853 18.6281 39.8046 18.6297 39.6239 18.6357Z" stroke="#222B3B" stroke-width="0.636476" mask="url(#path-7-outside-1_4044_7028)"/>
<path d="M40.5941 36.8966L40.5946 36.9402C40.5937 36.9258 40.5935 36.9112 40.5941 36.8966ZM40.5941 36.8966L40.7437 36.9027C40.6959 36.8969 40.6463 36.896 40.5941 36.8966Z" fill="#F75050" stroke="#222B3B" stroke-width="0.795595"/>
<path d="M38.5547 37.8739C38.5573 37.8483 38.5617 37.8227 38.5676 37.797M38.5547 37.8739L38.589 37.9298M38.5547 37.8739L38.5804 37.8766L38.589 37.9298M38.5547 37.8739L38.5777 37.8597L38.5676 37.797M38.5676 37.797L38.7222 37.8913C38.7167 37.896 38.7113 37.9006 38.7059 37.9051M38.5676 37.797L38.6619 37.885L38.589 37.9298M38.589 37.9298C38.5977 37.9284 38.6065 37.9272 38.6153 37.9259C38.6462 37.9216 38.6776 37.9172 38.7059 37.9051M38.7059 37.9051L38.6916 37.8881L38.699 37.8889L38.7059 37.9051ZM38.8296 37.2336C38.8197 37.245 38.8096 37.2563 38.7994 37.2675C38.853 37.1732 38.9156 37.0814 38.9927 37.0103C38.9645 37.0619 38.9136 37.1374 38.8296 37.2336ZM39.1796 36.9654L39.0722 36.9485L39.1796 36.9654Z" fill="#FAC840" stroke="#222B3B" stroke-width="0.795595"/>
<path d="M37.5879 30.149L37.5791 30.1492C36.7972 30.1635 36.0154 30.1653 35.2335 30.1545C35.0722 30.1537 34.9221 30.1499 34.7746 30.1461C34.5756 30.141 34.381 30.1361 34.1693 30.1387C33.8202 30.1431 33.4987 30.1699 33.2126 30.2479C33.1099 30.2767 33.0097 30.3121 32.9119 30.3543C32.8137 30.3967 32.7188 30.4454 32.6272 30.5005L37.5879 30.149ZM37.5879 30.149L37.5967 30.1485M37.5879 30.149L37.5967 30.1485M37.5967 30.1485C37.7951 30.136 37.9789 30.1338 38.1612 30.1469C38.2526 30.9688 38.2142 32.0826 38.0414 33.184C37.8457 34.431 37.4888 35.5882 37.011 36.2666L36.7234 36.675L37.1858 36.8639C37.2041 36.8714 37.2209 36.8782 37.2365 36.8845C37.2934 36.9075 37.3339 36.9238 37.371 36.9428M37.5967 30.1485L37.371 36.9428M37.371 36.9428C37.3549 37.0702 37.3158 37.2482 37.256 37.4566C37.1825 37.713 37.0914 37.97 37.0225 38.1459C37.0013 38.1462 36.977 38.1458 36.9493 38.1443C36.8408 38.1384 36.7109 38.1182 36.5716 38.0873C36.2909 38.025 36.0131 37.9281 35.8628 37.8602L35.8619 37.8598C35.7916 37.8283 35.7231 37.7934 35.6563 37.7552C35.5894 37.717 35.5246 37.6756 35.4619 37.6312L35.232 37.9559L35.4619 37.6312C35.3991 37.5868 35.3387 37.5394 35.2805 37.489L35.2803 37.4888C35.2222 37.4387 35.1668 37.3857 35.1139 37.3301L35.1139 37.3301C35.0609 37.2743 35.0107 37.2161 34.9634 37.1555C34.9161 37.095 34.8719 37.0323 34.8308 36.9674L34.8307 36.9672C34.7895 36.9025 34.7517 36.8359 34.717 36.7673L34.7169 36.7672C34.6832 36.7005 34.6527 36.6324 34.6255 36.5627C34.4904 36.1797 34.4403 35.8903 34.4572 35.4936L34.4774 35.0212L34.0084 35.0822C33.9562 35.089 33.8995 35.093 33.8394 35.095L33.8392 35.095C33.296 35.1134 32.635 34.8332 32.221 34.4445L31.9487 34.7345M37.371 36.9428L35.0202 37.7898C34.9523 37.7311 34.8874 37.6692 34.8255 37.6041C34.7636 37.539 34.7051 37.4711 34.6499 37.4003C34.5946 37.3296 34.5429 37.2563 34.4949 37.1805C34.4468 37.1048 34.4025 37.0269 34.362 36.9468C34.3215 36.8668 34.285 36.7849 34.2525 36.7013C34.1484 36.4072 34.0872 36.1541 34.0654 35.8766C34.0806 35.8749 34.0958 35.8731 34.1111 35.8711L34.0598 35.4767L33.8518 35.4678L33.8518 35.4678L33.6623 35.4597C33.6619 35.4697 33.6615 35.4797 33.6612 35.4897C33.0463 35.4512 32.3822 35.1416 31.9487 34.7345M31.9487 34.7345C31.9146 34.7023 31.8813 34.6694 31.8487 34.6357C31.8162 34.602 31.7846 34.5675 31.7538 34.5321C31.723 34.4969 31.693 34.4609 31.664 34.4241C31.635 34.3874 31.6069 34.35 31.5797 34.3119C31.5525 34.2737 31.5262 34.235 31.5009 34.1956C31.4757 34.1562 31.4514 34.1162 31.4281 34.0756C31.4047 34.0349 31.3824 33.9938 31.3612 33.9521C31.3399 33.9104 31.3196 33.8683 31.3004 33.8256C31.2812 33.7829 31.263 33.7397 31.2459 33.6961C31.2289 33.6526 31.2128 33.6087 31.1979 33.5643C31.183 33.52 31.1692 33.4753 31.1565 33.4303M31.9487 34.7345L32.2214 34.4448C32.1919 34.4171 32.1632 34.3887 32.1352 34.3597L32.1349 34.3593C32.1071 34.3306 32.0801 34.3011 32.0538 34.2709L32.0534 34.2704C32.0268 34.24 32.001 34.209 31.976 34.1774C31.9511 34.1459 31.9269 34.1137 31.9036 34.081C31.8801 34.0481 31.8575 34.0146 31.8357 33.9807L31.5012 34.1954L31.8357 33.9807C31.814 33.9469 31.7931 33.9125 31.7731 33.8776C31.753 33.8425 31.7338 33.8071 31.7154 33.7711C31.6971 33.7352 31.6796 33.6989 31.6631 33.6621L31.3005 33.8256L31.6632 33.6625C31.6467 33.6257 31.631 33.5885 31.6163 33.5509L31.6162 33.5507C31.6015 33.5133 31.5878 33.4756 31.575 33.4375C31.5621 33.3994 31.5502 33.361 31.5393 33.3223L31.1565 33.4303M31.1565 33.4303C31.1437 33.3851 31.1321 33.3398 31.1216 33.2942M31.1565 33.4303L31.5393 33.3221M31.1216 33.2942L31.5393 33.3221M31.1216 33.2942L31.5093 33.205C31.5183 33.2443 31.5283 33.2833 31.5393 33.3221M31.1216 33.2942L31.5393 33.3221M31.1216 33.2942C31.1111 33.2486 31.1018 33.2028 31.0935 33.1568M31.1216 33.2942L31.5093 33.205C31.5003 33.1657 31.4922 33.1264 31.4851 33.0868L31.0935 33.1568M31.0935 33.1568C31.0853 33.1107 31.0782 33.0645 31.0722 33.018M31.0935 33.1568L31.4851 33.0866M31.0722 33.018L31.4851 33.0866M31.0722 33.018C31.0663 32.9716 31.0615 32.9251 31.0578 32.8785C31.0541 32.8318 31.0516 32.7851 31.0502 32.7384L31.0722 33.018ZM31.4851 33.0866C31.478 33.047 31.4719 33.0073 31.4668 32.9674L31.4668 32.9673M31.4851 33.0866L31.4668 32.9673M31.4668 32.9673C31.4617 32.9274 31.4575 32.8874 31.4544 32.8473C31.4512 32.8071 31.449 32.7669 31.4479 32.7267L31.4478 32.7264M31.4668 32.9673L31.4478 32.7264M31.4478 32.7264C31.4274 32.0454 31.6646 31.3862 32.1286 30.9012L32.1287 30.9012M31.4478 32.7264L32.1287 30.9012M32.1287 30.9012L32.1298 30.9M32.1287 30.9012L32.1298 30.9M32.1298 30.9C32.2033 30.8226 32.2816 30.7504 32.3649 30.6835L32.1298 30.9ZM37.1361 38.1328L37.1355 38.133L37.1361 38.1328ZM32.3649 30.6835C32.4482 30.6166 32.5356 30.5556 32.6272 30.5005L32.3649 30.6835Z" fill="#FAC840" stroke="#222B3B" stroke-width="0.795595"/>
<path d="M48.5133 34.2058C48.5391 34.1658 48.5639 34.1252 48.5877 34.084L44.5665 29.7342M48.5133 34.2058L48.1791 33.9902C48.179 33.9903 48.1789 33.9904 48.1788 33.9905M48.5133 34.2058L48.1788 33.9905M48.5133 34.2058L45.5455 36.0399M48.1788 33.9905C48.2011 33.9559 48.2226 33.9208 48.2431 33.8852C48.2635 33.8498 48.2831 33.8139 48.3017 33.7775L48.302 33.7768C48.3206 33.7405 48.3383 33.7038 48.3551 33.6666L48.3555 33.6656C48.3724 33.6284 48.3883 33.5908 48.4033 33.5528L48.7593 33.6931L48.4033 33.5528C48.4184 33.5147 48.4324 33.4762 48.4456 33.4373L48.4457 33.437C48.4588 33.3982 48.471 33.359 48.4823 33.3194L48.8649 33.4283L48.4821 33.32C48.4934 33.2802 48.5037 33.2401 48.5132 33.1998L48.9005 33.2903L48.513 33.2005C48.5222 33.1605 48.5305 33.1204 48.5378 33.0801M48.1788 33.9905C48.1566 34.025 48.1335 34.059 48.1096 34.0924L48.4331 34.3239L48.1096 34.0924C48.0858 34.1257 48.0611 34.1584 48.0357 34.1904L48.035 34.1913C48.0097 34.2233 47.9836 34.2546 47.9568 34.2853C47.9298 34.316 47.9022 34.346 47.8738 34.3754C47.37 34.8902 46.6921 35.1058 45.9262 35.1166L45.4959 35.1226L45.5357 35.5512C45.5505 35.7103 45.5514 35.8674 45.5455 36.0399M48.5378 33.0801L48.9293 33.1506L48.5378 33.0799C48.5378 33.08 48.5378 33.08 48.5378 33.0801ZM48.5378 33.0801C48.5451 33.0396 48.5514 32.999 48.5567 32.9583C48.562 32.9176 48.5663 32.8767 48.5696 32.8358C48.5729 32.795 48.5751 32.7542 48.5764 32.7134L48.5764 32.7126C48.5777 32.6717 48.578 32.6308 48.5773 32.59L48.5772 32.5887C48.5677 31.9479 48.3053 31.3054 47.8518 30.8665C47.7724 30.7904 47.6884 30.7196 47.5999 30.6541C47.5111 30.5884 47.4185 30.5287 47.3222 30.4748C47.2257 30.4209 47.1263 30.3733 47.0238 30.3321C46.9218 30.2911 46.8177 30.2567 46.7113 30.2289C46.2101 30.1031 45.6622 30.1138 45.0775 30.1252C44.9105 30.1284 44.7406 30.1318 44.5679 30.132M44.5679 30.132C44.5676 30.132 44.5673 30.132 44.567 30.132L44.5665 29.7342M44.5679 30.132C44.5681 30.132 44.5684 30.132 44.5687 30.132L44.5665 29.7342M44.5679 30.132C43.6568 30.137 42.7457 30.1364 41.8347 30.1303M44.5665 29.7342C43.5872 29.7395 42.608 29.7385 41.6288 29.731M41.8347 30.1303C41.838 30.115 41.8415 30.1022 41.8454 30.0908C41.8539 30.0661 41.8621 30.054 41.8802 30.0393L41.6288 29.731M41.8347 30.1303C41.8273 30.1646 41.821 30.2115 41.8137 30.2833L42.643 36.4534C41.751 35.0299 41.2466 31.9344 41.418 30.2432C41.4385 30.0405 41.4638 29.8655 41.6288 29.731M41.8347 30.1303C41.765 30.1298 41.6954 30.1293 41.6257 30.1288L41.6288 29.731M45.5455 36.0399C45.4377 36.5547 45.2208 37.0141 44.8711 37.3733L44.8711 37.3734C44.3761 37.8819 43.7318 38.0718 42.9784 38.1182C42.9551 38.0456 42.9299 37.9689 42.9045 37.8916C42.8656 37.7731 42.8262 37.653 42.7924 37.5438C42.7421 37.3813 42.6993 37.2297 42.6722 37.1021C42.6586 37.0385 42.6501 36.9861 42.646 36.9448C42.6454 36.9385 42.6449 36.9327 42.6445 36.9275C42.6469 36.9255 42.6495 36.9235 42.6522 36.9213C42.6757 36.9029 42.705 36.8831 42.7415 36.8602C42.7584 36.8496 42.775 36.8394 42.7931 36.8283L42.7971 36.8259C42.8157 36.8145 42.8371 36.8015 42.8573 36.7885L43.1893 36.5762L42.98 36.2422C42.5739 35.594 42.2359 34.5227 42.0228 33.376C41.8108 32.2351 41.7331 31.0787 41.8137 30.2834L45.5455 36.0399Z" fill="#F75050" stroke="#222B3B" stroke-width="0.795595"/>
<path d="M36.674 21.0326L36.674 21.0326C35.9496 21.1243 35.4019 21.3982 34.9698 21.9549L34.9698 21.9549C34.6029 22.4276 34.4691 22.9598 34.4741 23.5947L34.4767 23.9336L34.5457 23.9522C34.5819 23.962 34.6176 23.9724 34.6528 23.9835L34.974 23.9115C35.0262 23.8998 35.1252 23.8836 35.2394 23.9239C35.2859 23.9404 35.3203 23.9613 35.3348 23.9703C35.3424 23.975 35.3496 23.9797 35.3525 23.9816L35.3599 23.9864L35.36 23.9864C35.4617 24.0506 35.5404 24.1362 35.5929 24.1971C35.6002 24.2056 35.6075 24.2142 35.6146 24.2228C35.6464 24.1867 35.6859 24.1509 35.7351 24.1202L36.0167 23.9445L36.24 24.1899C36.3138 24.2711 36.3417 24.3629 36.3523 24.4003C36.3661 24.4495 36.3742 24.499 36.3795 24.5401C36.3902 24.6224 36.3952 24.7169 36.3989 24.7977C36.3999 24.8192 36.4008 24.84 36.4017 24.8601C36.4044 24.9216 36.4068 24.9764 36.4104 25.027C36.4139 25.0753 36.4176 25.1008 36.4189 25.1104C36.4197 25.1159 36.4198 25.1162 36.4186 25.1127L36.4229 25.1264L36.4239 25.1296M36.674 21.0326L35.75 24.6358L35.9078 24.4922C35.9187 24.4784 35.9312 24.4667 35.9457 24.4576C35.9505 24.4629 35.9549 24.47 35.9589 24.4787L36.1563 24.7951C36.2112 24.7609 36.2332 24.7199 36.2361 24.7144C36.2363 24.7139 36.2365 24.7136 36.2365 24.7136C36.2366 24.7137 36.2327 24.7225 36.2229 24.753C36.2217 24.757 36.2201 24.7619 36.2184 24.7675C36.2092 24.7966 36.1942 24.8445 36.177 24.8879C36.1555 24.9424 36.1195 25.0206 36.0565 25.0945L36.0211 25.1361C36.0258 25.1754 36.0318 25.209 36.0398 25.234L36.0459 25.2535M36.674 21.0326L36.6766 21.0323C36.7485 21.0227 36.8275 21.0227 36.939 21.0229L36.939 21.0229C37.6089 21.0241 38.2208 21.2679 38.6871 21.7359C39.3438 22.3952 39.3937 23.1142 39.3912 24.1613L39.3869 25.3488L36.674 21.0326ZM36.4239 25.1296L36.424 25.1297C36.4241 25.1303 36.4242 25.1306 36.4243 25.1307L36.4243 25.1307L36.0459 25.2535M36.4239 25.1296C36.424 25.1298 36.4241 25.1301 36.4242 25.1304L36.0459 25.2535M36.4239 25.1296C36.4233 25.1274 36.4244 25.1291 36.4281 25.1352C36.4379 25.1514 36.4661 25.1976 36.5296 25.2806C36.6068 25.3816 36.7083 25.5018 36.8196 25.6295C36.8826 25.7018 36.9507 25.7786 37.0185 25.8549C37.1753 26.0317 37.3301 26.2062 37.4147 26.3177M36.0459 25.2535C36.0998 25.4193 36.4448 25.8079 36.7365 26.1367C36.8867 26.3059 37.0228 26.4592 37.0979 26.5582M37.4147 26.3177L37.0979 26.5582M37.4147 26.3177C37.4147 26.3176 37.4147 26.3176 37.4147 26.3176L37.0979 26.5582M37.4147 26.3177C37.6522 26.6304 37.8525 26.949 38.0399 27.2472C38.0907 27.328 38.1406 27.4073 38.19 27.4846C38.2177 27.528 38.2454 27.571 38.2733 27.6137M37.0979 26.5582C37.3236 26.8555 37.5118 27.1547 37.698 27.4509C37.9886 27.913 38.2745 28.3677 38.6912 28.7963M38.2733 27.6137C38.3274 27.8227 38.4119 28.0274 38.5052 28.2114C38.5658 28.3309 38.6334 28.4481 38.7054 28.5597L38.6912 28.7963M38.2733 27.6137C38.4555 27.8925 38.6432 28.1557 38.8709 28.4067L38.212 27.1397C38.2089 27.2954 38.2324 27.4558 38.2733 27.6137ZM38.6912 28.7963L38.7962 28.6942L38.8775 28.8049C38.8158 28.803 38.7538 28.8001 38.6912 28.7963ZM34.5188 24.9224C34.512 24.9168 34.505 24.911 34.4978 24.9051C34.4715 24.8836 34.4443 24.862 34.4154 24.8389L34.4123 24.8364C34.385 24.8147 34.3558 24.7914 34.3276 24.7685C34.2723 24.7233 34.2047 24.6661 34.1487 24.6049L33.6223 24.0294C33.0392 24.1071 32.5496 24.3221 32.1396 24.7497L32.1392 24.7501C32.1105 24.7799 32.0826 24.8105 32.0554 24.8417L32.0554 24.8418C32.0283 24.8729 32.0019 24.9047 31.9764 24.9372C31.9509 24.9698 31.9261 25.0029 31.9023 25.0367L31.9022 25.0367C31.8783 25.0705 31.8553 25.1048 31.8332 25.1397L34.5188 24.9224ZM34.5188 24.9224L34.4412 25.0421L34.637 25.2681C34.7661 25.4172 34.9494 25.5649 35.1039 25.6867C35.1337 25.7101 35.1627 25.7329 35.1909 25.7549C35.3216 25.8574 35.4343 25.9457 35.5224 26.0277M34.5188 24.9224L35.5224 26.0277M35.5224 26.0277C35.6414 26.1444 35.7552 26.3009 35.8733 26.4872C35.932 26.5799 35.9891 26.6755 36.0476 26.774L36.0576 26.7908C36.1121 26.8824 36.1685 26.9772 36.225 27.0672C36.3729 27.3024 36.5209 27.5434 36.6704 27.7869C36.906 28.1705 37.1453 28.5603 37.3937 28.9427C37.0381 28.945 36.682 28.9433 36.3235 28.9416C36.074 28.9404 35.8234 28.9392 35.5711 28.9393L35.5224 26.0277ZM32.2123 28.2826C32.4998 28.5526 32.8768 28.7645 33.2525 28.8583L32.2123 28.2826ZM32.2123 28.2826C32.1833 28.255 32.1549 28.2267 32.1273 28.1978C32.0994 28.1685 32.0722 28.1386 32.0458 28.1081L31.8228 28.301L32.0458 28.1081C32.0195 28.0777 31.994 28.0466 31.9692 28.0148L31.9689 28.0145C31.9441 27.9828 31.9201 27.9505 31.8969 27.9176C31.8737 27.8846 31.8512 27.851 31.8296 27.8169L31.4936 28.0299M32.2123 28.2826L31.8395 28.4724C31.8071 28.4385 31.7756 28.4038 31.7449 28.3683C31.7143 28.3328 31.6845 28.2966 31.6556 28.2596C31.6267 28.2227 31.5988 28.1851 31.5718 28.1468C31.5447 28.1084 31.5187 28.0695 31.4936 28.0299M31.4936 28.0299C31.4685 27.9902 31.4444 27.95 31.4213 27.9093M31.4936 28.0299L31.8298 27.8173C31.8082 27.7831 31.7874 27.7484 31.7675 27.7134M31.4213 27.9093L31.7675 27.7134M31.4213 27.9093C31.3982 27.8685 31.3761 27.8271 31.3551 27.7853L31.4213 27.9093ZM31.7675 27.7134C31.7476 27.6782 31.7286 27.6426 31.7105 27.6066M31.7675 27.7134L31.7105 27.6066M31.7105 27.6066C31.6924 27.5705 31.6752 27.5341 31.6588 27.4972C31.6425 27.4602 31.6271 27.4229 31.6126 27.3853C31.5982 27.3478 31.5847 27.3099 31.5722 27.2716L31.5721 27.2714C31.5595 27.2333 31.5479 27.1948 31.5373 27.156L31.5372 27.1558C31.5266 27.117 31.5169 27.078 31.5081 27.0387L31.5081 27.0386C31.4994 26.9993 31.4916 26.9599 31.4848 26.9203L31.7105 27.6066ZM31.4559 26.68L31.4559 26.6802C31.4588 26.7203 31.4626 26.7604 31.4674 26.8004L31.4559 26.68ZM31.4559 26.68C31.4531 26.6399 31.4513 26.5997 31.4504 26.5595L31.4505 26.5595M31.4559 26.68L31.4505 26.5595M31.4505 26.5595L31.4502 26.5531M31.4505 26.5595L31.4502 26.5531M31.4502 26.5531C31.4487 26.5119 31.4482 26.4706 31.4488 26.4294L31.4488 26.4293M31.4502 26.5531L31.4488 26.4293M31.4488 26.4293C31.4494 26.388 31.451 26.3468 31.4536 26.3056L31.4536 26.3055M31.4488 26.4293L31.4536 26.3055M31.4536 26.3055C31.4562 26.2643 31.4599 26.2233 31.4646 26.1822M31.4536 26.3055L31.4646 26.1822M31.5344 25.8175L31.5344 25.8176C31.5236 25.8575 31.5138 25.8976 31.505 25.9379C31.4963 25.9783 31.4885 26.0188 31.4817 26.0595L31.5344 25.8175ZM31.5344 25.8175C31.5452 25.7777 31.557 25.7382 31.5698 25.6989L31.5344 25.8175ZM31.6111 25.582L31.6111 25.5821C31.5964 25.6206 31.5826 25.6596 31.5698 25.6988L31.6111 25.582ZM31.6111 25.582C31.6258 25.5434 31.6416 25.5052 31.6582 25.4674L31.6111 25.582ZM31.7694 25.2459L31.7694 25.246C31.749 25.2819 31.7296 25.3184 31.711 25.3553C31.711 25.3553 31.711 25.3553 31.711 25.3553L31.7694 25.2459ZM31.7694 25.2459C31.7898 25.21 31.811 25.1746 31.8332 25.1397L31.7694 25.2459ZM31.4646 26.1822C31.4693 26.1412 31.475 26.1003 31.4817 26.0596L31.4646 26.1822ZM34.355 28.9637C33.9546 28.9641 33.5837 28.941 33.2526 28.8584L35.571 28.9393C35.372 28.9393 35.1678 28.9454 34.9677 28.9513L34.96 28.9516C34.7553 28.9576 34.5543 28.9635 34.355 28.9637ZM38.8751 25.6716C38.4815 26.0352 38.2227 26.5985 38.212 27.1396L39.145 25.9638L38.8751 25.6716C38.8751 25.6716 38.8751 25.6716 38.8751 25.6716ZM31.4848 26.92C31.478 26.8803 31.4722 26.8404 31.4674 26.8005L31.4848 26.92Z" fill="#1F8846" stroke="#222B3B" stroke-width="0.795595"/>
<path d="M45.1697 22.1132L45.1697 22.1132C44.7748 21.544 44.2428 21.1772 43.576 21.0602C43.3248 21.0161 43.049 21.0039 42.8054 21.0321C42.0633 21.1368 41.5361 21.3994 41.1016 21.978L41.1012 21.9785C41.0105 22.0988 40.933 22.2268 40.8684 22.3628L40.8684 22.363C40.8037 22.499 40.7536 22.6398 40.7177 22.7859L40.7177 22.7861C40.6356 23.1202 40.6027 23.6146 40.601 24.1492C40.5997 24.5681 40.6173 24.9926 40.6389 25.3505C40.7933 25.4154 40.931 25.4973 41.0564 25.6043C41.2472 25.7671 41.3853 25.9679 41.5121 26.1928L45.1697 22.1132ZM45.1697 22.1132C45.4609 22.5327 45.6153 23.0594 45.5341 23.5129L45.4531 23.9655M45.1697 22.1132L45.4531 23.9655M45.4531 23.9655L45.6352 23.9714M45.4531 23.9655L45.6352 23.9714M45.6352 23.9714L45.4053 24.0037L45.4807 23.7061L45.0146 23.865L44.5656 23.3696L44.5081 24.1188M45.6352 23.9714L44.5081 24.1188M45.6853 23.9731L45.7937 24.2646L45.8096 24.3076L45.895 24.5375L45.728 24.7171C45.6599 24.7903 45.5777 24.8497 45.5322 24.8825C45.5271 24.8862 45.5226 24.8895 45.5185 24.8925C45.4844 24.9173 45.4684 24.9305 45.4618 24.9362C45.4591 24.9439 45.4525 24.9623 45.4399 25.0007L45.4388 25.004C45.4176 25.0688 45.3722 25.2072 45.2544 25.3277L45.6853 23.9731ZM45.6853 23.9731L45.9126 23.9806C46.6032 24.0033 47.2023 24.1653 47.6986 24.5746L47.6986 24.5746C48.1927 24.982 48.5024 25.6082 48.5626 26.2589C48.5663 26.2998 48.569 26.3407 48.5707 26.3817L48.5707 26.3825C48.5724 26.4238 48.5731 26.4652 48.5728 26.5065C48.5725 26.5479 48.5711 26.5892 48.5687 26.6304C48.5663 26.6717 48.5629 26.7129 48.5584 26.754L48.5584 26.7548C48.554 26.7956 48.5486 26.8363 48.5421 26.8768L48.542 26.8776C48.5356 26.9184 48.5281 26.9589 48.5196 26.9992C48.5111 27.0398 48.5016 27.0802 48.491 27.1204C48.4806 27.1603 48.4691 27.1999 48.4567 27.2393C48.4441 27.2789 48.4306 27.3183 48.4161 27.3574C48.4018 27.3959 48.3866 27.4341 48.3703 27.4718L48.37 27.4725C48.3537 27.5106 48.3365 27.5483 48.3182 27.5856C48.3002 27.6225 48.2812 27.6588 48.2613 27.6947L48.2608 27.6956C48.2408 27.732 48.2199 27.7678 48.1981 27.803L48.5365 28.012M45.6853 23.9731L48.9089 27.0811C48.8991 27.128 48.888 27.1747 48.8759 27.2212C48.8637 27.2676 48.8504 27.3137 48.8359 27.3594C48.8214 27.4051 48.8058 27.4505 48.7892 27.4955C48.7725 27.5406 48.7547 27.5851 48.7357 27.6292C48.7168 27.6732 48.6968 27.7169 48.6757 27.7601C48.6546 27.8032 48.6324 27.8457 48.6092 27.8877C48.586 27.9298 48.5618 27.9712 48.5365 28.012M48.5365 28.012C48.5112 28.0529 48.485 28.093 48.4578 28.1325M48.5365 28.012L48.1984 27.8025C48.1766 27.8377 48.1539 27.8724 48.1304 27.9065L48.4578 28.1325M48.4578 28.1325C48.4304 28.1721 48.4022 28.2109 48.3731 28.2491M48.4578 28.1325L48.1303 27.9067M48.9682 26.3658C48.9662 26.3179 48.9631 26.27 48.9587 26.2223C48.8897 25.4759 48.535 24.7485 47.9517 24.2677C47.4717 23.8719 46.9185 23.6815 46.3242 23.6121C46.322 23.6258 46.3197 23.6394 46.3173 23.6531L45.9257 23.583L45.9388 23.1854C45.9432 23.1856 45.9476 23.1857 45.952 23.1859L48.9682 26.3658ZM48.9682 26.3658C48.9702 26.4138 48.971 26.4617 48.9706 26.5097M48.9682 26.3658L48.9706 26.5097M44.5081 24.1188C44.4768 24.1446 44.4441 24.1725 44.4113 24.2009L43.6703 24.2547C43.6434 24.4276 43.6408 24.6173 43.6387 24.7689C43.6379 24.8243 43.6372 24.8746 43.6354 24.9172L44.5081 24.1188ZM43.6212 25.0911C43.4991 25.2949 43.3325 25.4946 43.139 25.7127C43.1019 25.7546 43.0634 25.7974 43.0242 25.8412C42.8658 26.0177 42.6947 26.2084 42.5478 26.4024L42.5478 26.4024C42.3386 26.6788 42.1537 26.9723 41.9813 27.2461C41.9175 27.3473 41.8555 27.4458 41.7946 27.5397C41.7911 27.5451 41.7875 27.5506 41.784 27.556C41.9157 27.0238 41.7094 26.5428 41.5121 26.1928L43.6212 25.0911ZM43.6212 25.0911C43.6222 25.0876 43.6244 25.0788 43.6266 25.0627C43.6309 25.0314 43.6321 25.0003 43.6341 24.9503C43.6345 24.9401 43.6349 24.9291 43.6354 24.9172L43.6212 25.0911ZM48.3731 28.2491L48.1303 27.9067M48.3731 28.2491L48.0573 28.0071C48.0321 28.04 48.0061 28.0723 47.9793 28.1039L47.9779 28.1055C47.6791 28.4616 47.2286 28.7392 46.7706 28.8586L46.8709 29.2435L46.7706 28.8586C46.4051 28.9538 46.0243 28.9481 45.5908 28.9416C45.4766 28.9398 45.3588 28.9381 45.2366 28.9381L48.3731 28.2491ZM48.3731 28.2491L48.057 28.0076M48.3731 28.2491L48.057 28.0076M48.1303 27.9067C48.1066 27.941 48.0822 27.9746 48.057 28.0076M48.1303 27.9067L48.057 28.0076M42.5916 28.9242C42.7758 28.6233 42.9693 28.3245 43.1668 28.0231C43.2189 27.9436 43.2714 27.8638 43.324 27.7837C43.6066 27.3538 43.8944 26.916 44.1628 26.4688C44.295 26.2548 44.4524 26.0834 44.6363 25.9083C44.6963 25.8511 44.7655 25.7881 44.8391 25.7211C44.973 25.599 45.1213 25.4639 45.2543 25.3279L42.5916 28.9242ZM42.5916 28.9242C43.1583 28.906 43.7324 28.9164 44.2901 28.9265C44.6126 28.9323 44.9297 28.938 45.2366 28.9381L42.5916 28.9242ZM48.9706 26.5097C48.9702 26.5577 48.9686 26.6056 48.9659 26.6535M48.9706 26.5097L48.9659 26.6535M48.9659 26.6535C48.9631 26.7014 48.9591 26.7492 48.9539 26.7969L48.9659 26.6535ZM40.8873 28.4241C40.8874 28.4241 40.8882 28.4242 40.8899 28.4247L40.8873 28.4241Z" fill="#FAC840" stroke="#222B3B" stroke-width="0.795595"/>
<path d="M24.5547 47.379V66.7638C24.5547 68.082 25.6233 69.1506 26.9415 69.1506H53.059C54.3772 69.1506 55.4458 68.082 55.4458 66.7638V47.379C55.4458 46.0608 54.3772 44.9922 53.059 44.9922H26.9415C25.6233 44.9922 24.5547 46.0608 24.5547 47.379Z" stroke="#222B3B" stroke-width="1.75031"/>
<path d="M9.0293 24.168V66.7608C9.0293 68.079 10.0979 69.1476 11.4161 69.1476H22.1673C23.4855 69.1476 24.5541 68.079 24.5541 66.7608V24.168C24.5541 22.8499 23.4854 21.7812 22.1673 21.7812H11.4161C10.0979 21.7812 9.0293 22.8498 9.0293 24.168Z" fill="white" stroke="#222B3B" stroke-width="1.75031"/>
<path d="M12.3574 27.418V68.2788C12.3574 68.2788 21.7832 68.358 22.496 68.2788C22.7746 68.2478 23.6842 67.8035 23.6842 66.853V64.8728V46.655V25.0312H14.7442C13.426 25.0312 12.3574 26.0998 12.3574 27.418Z" fill="#FA8419"/>
<path d="M55.6035 24.168V34.9192C55.6035 36.2374 56.6721 37.306 57.9903 37.306H68.7415C70.0597 37.306 71.1283 36.2374 71.1283 34.9192V24.168C71.1283 22.8499 70.0597 21.7812 68.7415 21.7812H57.9903C56.6721 21.7812 55.6035 22.8499 55.6035 24.168Z" fill="#FDBA05" stroke="#222B3B" stroke-width="1.75031"/>
<path d="M55.6035 39.7736V51.1613C55.6035 52.3037 56.5296 53.2298 57.6721 53.2298H69.0597C70.2021 53.2298 71.1283 52.3037 71.1283 51.1613V39.7736C71.1283 38.6312 70.2021 37.7051 69.0597 37.7051H57.6721C56.5296 37.7051 55.6035 38.6312 55.6035 39.7736Z" fill="#D7EC0B" stroke="#222B3B" stroke-width="1.75031"/>
<path d="M55.6035 55.6935V67.0812C55.6035 68.2236 56.5296 69.1498 57.6721 69.1498H69.0597C70.2021 69.1498 71.1283 68.2236 71.1283 67.0812V55.6935C71.1283 54.5511 70.2021 53.625 69.0597 53.625H57.6721C56.5296 53.625 55.6035 54.5511 55.6035 55.6935Z" fill="#FE5D0C" stroke="#222B3B" stroke-width="1.75031"/>
<path d="M32.3164 69.0715V53.0821C32.3164 51.7639 33.385 50.6953 34.7032 50.6953H40.0788M47.8412 69.0715V53.0821C47.8412 51.7639 46.7726 50.6953 45.4544 50.6953H40.0788M40.0788 50.6953V69.0715M37.36 57.7146V60.6327M43.2704 57.7146V60.6327" stroke="#222B3B" stroke-width="1.75031" stroke-linecap="round" stroke-linejoin="round"/>
</svg>
