<svg width="123" height="122" viewBox="0 0 123 122" fill="none" xmlns="http://www.w3.org/2000/svg">
<path d="M37.2324 72.4505V102.095C37.2324 104.083 38.8435 105.694 40.8309 105.694H80.7429C82.7302 105.694 84.3413 104.083 84.3413 102.095V72.4505C84.3413 70.4631 82.7302 68.8521 80.7429 68.8521H40.8309C38.8435 68.8521 37.2324 70.4631 37.2324 72.4505Z" fill="white"/>
<path d="M49.791 81.1451V105.57H73.4663V81.1451C73.4663 79.1577 71.8552 77.5466 69.8678 77.5466H61.6286H53.3895C51.4021 77.5466 49.791 79.1577 49.791 81.1451Z" fill="#D7EC0B"/>
<path d="M65.9748 77.5086C63.218 77.5242 60.08 77.5375 57.5325 77.5385C55.0828 77.5394 52.5664 80.0035 52.5664 82.4532V104.808C52.5664 105.289 63.9216 105.008 69.5992 104.808V81.1099C69.5992 79.1124 67.9723 77.4973 65.9748 77.5086Z" fill="#7676E8"/>
<path d="M38.0762 30.4647V64.5289C38.0762 66.5163 39.6873 68.1274 41.6746 68.1274H81.5866C83.574 68.1274 85.1851 66.5163 85.1851 64.5289V29.9117C85.1851 28.5353 84.4 27.2795 83.1626 26.6767L63.2479 16.9747C62.2298 16.4787 61.0376 16.4909 60.0299 17.0077L40.0326 27.2627C38.8315 27.8786 38.0762 29.1149 38.0762 30.4647Z" fill="#7676E8" stroke="#222B3B" stroke-width="2.63888"/>
<path d="M39.4062 30.3126V64.6387C39.4062 65.8311 40.3729 66.7978 41.5653 66.7978H81.2003V32.3726C81.2003 30.9797 80.3964 29.7119 79.1366 29.1178L58.3706 19.3262L40.5851 28.3889C39.8617 28.7575 39.4062 29.5007 39.4062 30.3126Z" fill="#7FDACE"/>
<circle cx="61.085" cy="44.7405" r="16.6729" fill="white"/>
<mask id="path-7-outside-1_3681_6230" maskUnits="userSpaceOnUse" x="43.2383" y="26.7815" width="37" height="37" fill="black">
<rect fill="white" x="43.2383" y="26.7815" width="37" height="37"/>
<path d="M60.6869 27.8111C60.7038 27.8099 60.7206 27.8083 60.7375 27.8073C64.1981 27.6049 67.8976 28.6035 70.8092 30.4658C71.7656 31.0775 72.622 31.7911 73.4583 32.5559C76.5342 35.3692 78.5703 39.659 78.747 43.8174C78.7915 44.8675 78.8143 45.9193 78.7135 46.9668C78.355 50.692 76.6989 54.1272 74.1711 56.8671C71.2271 60.0582 66.8566 62.1381 62.4995 62.3181C58.0358 62.455 53.8203 61.1857 50.3784 58.2955C50.1631 58.116 49.9524 57.9314 49.7462 57.7418C49.5401 57.552 49.3387 57.3573 49.1421 57.1577C48.9456 56.9581 48.754 56.7538 48.5676 56.5447C48.3811 56.3357 48.1998 56.1222 48.0239 55.9044C47.8479 55.6865 47.6774 55.4644 47.5124 55.2381C47.3474 55.0119 47.1881 54.7817 47.0344 54.5475C46.8807 54.3135 46.7329 54.0758 46.591 53.8344C46.449 53.5931 46.3131 53.3485 46.1833 53.1005C46.0534 52.8525 45.9297 52.6015 45.8122 52.3474C45.6947 52.0933 45.5835 51.8365 45.4787 51.577C45.3739 51.3175 45.2755 51.0556 45.1836 50.7913C45.0917 50.5268 45.0063 50.2603 44.9276 49.9918C44.8488 49.7233 44.7767 49.453 44.7112 49.1809C44.6458 48.9089 44.587 48.6354 44.5351 48.3604C44.4831 48.0855 44.438 47.8094 44.3996 47.5323C44.3613 47.2552 44.3298 46.9772 44.3051 46.6985C43.9142 42.1154 45.24 37.5208 48.229 33.9873C51.5581 30.0517 55.6149 28.2377 60.6869 27.8111ZM60.9342 28.4174C60.6587 28.4279 60.3835 28.4451 60.1087 28.4692C59.834 28.4932 59.5601 28.524 59.2869 28.5615C59.0137 28.599 58.7416 28.6431 58.4706 28.694C58.1996 28.7449 57.93 28.8024 57.6618 28.8665C57.3935 28.9306 57.1271 29.0013 56.8625 29.0785C56.5978 29.1557 56.3352 29.2394 56.0747 29.3295C55.8141 29.4196 55.556 29.5161 55.3002 29.6189C55.0444 29.7218 54.7913 29.8308 54.5409 29.9461C54.2905 30.0613 54.0432 30.1827 53.7988 30.3101C53.5544 30.4375 53.3133 30.5709 53.0755 30.7101C52.8377 30.8494 52.6034 30.9944 52.3728 31.1452C52.1422 31.296 51.9154 31.4524 51.6925 31.6143C51.4696 31.7763 51.2508 31.9436 51.0362 32.1163C50.8215 32.289 50.6113 32.4668 50.4054 32.6498C50.1996 32.8329 49.9984 33.0208 49.8018 33.2138C49.6053 33.4067 49.4136 33.6043 49.2268 33.8066C46.3922 36.8933 44.5915 41.3524 44.778 45.5668C44.7894 45.8438 44.8076 46.1203 44.8326 46.3963C44.8576 46.6724 44.8894 46.9477 44.9279 47.2222C44.9665 47.4967 45.0118 47.7701 45.0637 48.0423C45.1157 48.3146 45.1743 48.5855 45.2396 48.8549C45.3049 49.1243 45.3768 49.392 45.4552 49.6579C45.5337 49.9238 45.6186 50.1877 45.71 50.4495C45.8014 50.7112 45.8992 50.9705 46.0033 51.2275C46.1075 51.4846 46.2178 51.7389 46.3345 51.9905C46.4511 52.242 46.5739 52.4906 46.7028 52.7362C46.8316 52.9817 46.9664 53.224 47.1072 53.4631C47.248 53.702 47.3945 53.9374 47.5468 54.1692C47.6992 54.4012 47.8571 54.6292 48.0207 54.8532C48.1842 55.0773 48.3531 55.2973 48.5275 55.5132C48.7018 55.729 48.8814 55.9404 49.0661 56.1476C49.2509 56.3546 49.4406 56.557 49.6352 56.7549C49.8299 56.9527 50.0294 57.1456 50.2335 57.3337C53.2421 60.0707 57.6607 61.9192 61.7724 61.7222C61.8702 61.7176 61.9677 61.7093 62.0649 61.697C66.5577 61.5575 70.6899 59.6097 73.7589 56.3532C73.942 56.1588 74.1203 55.9601 74.2939 55.757C74.4672 55.5541 74.6356 55.347 74.799 55.1358C74.9624 54.9247 75.1206 54.7097 75.2735 54.4909C75.4264 54.2721 75.5739 54.0497 75.716 53.8237C75.858 53.5977 75.9946 53.3684 76.1255 53.1357C76.2565 52.9032 76.3817 52.6676 76.5011 52.429C76.6206 52.1903 76.7341 51.949 76.8419 51.7049C76.9496 51.4607 77.0513 51.2141 77.1471 50.9651C77.2428 50.716 77.3324 50.4647 77.4159 50.2113C77.4993 49.958 77.5766 49.7027 77.6476 49.4455C77.7187 49.1884 77.7834 48.9297 77.8419 48.6694C77.9004 48.4092 77.9525 48.1477 77.9982 47.8848C78.044 47.622 78.0834 47.3582 78.1164 47.0936C78.1493 46.8289 78.1758 46.5636 78.1958 46.2976C78.2157 46.0316 78.2291 45.7652 78.2361 45.4986C78.2433 45.232 78.2439 44.9653 78.2379 44.6987C78.2307 44.4242 78.2167 44.1499 78.1958 43.876C78.175 43.6021 78.1475 43.3289 78.1133 43.0564C78.0791 42.7838 78.0381 42.5122 77.9903 42.2418C77.9427 41.9712 77.8884 41.702 77.8274 41.4342C77.7665 41.1664 77.6989 40.9002 77.6248 40.6356C77.5507 40.3711 77.4701 40.1086 77.383 39.848C77.2959 39.5874 77.2024 39.3291 77.1026 39.0732C77.0027 38.8172 76.8967 38.5638 76.7844 38.313C76.672 38.0623 76.5535 37.8144 76.429 37.5695C76.3043 37.3245 76.1737 37.0828 76.0372 36.8442C75.9007 36.6057 75.7584 36.3706 75.6103 36.1391C75.4621 35.9076 75.3083 35.6798 75.149 35.4558C74.9895 35.2318 74.8247 35.0119 74.6545 34.796C74.4842 34.5801 74.3088 34.3685 74.1281 34.1613C73.9473 33.954 73.7616 33.7513 73.571 33.5531C73.3802 33.355 73.1847 33.1616 72.9844 32.9731C72.7843 32.784 72.5796 32.6 72.3703 32.421C72.161 32.242 71.9473 32.0683 71.7294 31.8999C71.5116 31.7315 71.2897 31.5686 71.0637 31.4111C70.8377 31.2536 70.608 31.1018 70.3744 30.9557C70.1408 30.8096 69.9038 30.6693 69.6633 30.5349C69.4229 30.4005 69.1792 30.2721 68.9323 30.1497C68.6854 30.0273 68.4357 29.9111 68.1831 29.801C67.9305 29.691 67.6753 29.5872 67.4175 29.4898C67.1598 29.3923 66.8997 29.3013 66.6373 29.2167C66.3751 29.132 66.1109 29.0539 65.8447 28.9824C65.5785 28.9108 65.3107 28.8458 65.0413 28.7875C64.772 28.7291 64.5012 28.6775 64.2292 28.6325C63.9572 28.5875 63.6843 28.5493 63.4105 28.5177C63.1366 28.4862 62.8621 28.4615 62.587 28.4435C62.3119 28.4256 62.0366 28.4144 61.761 28.4101C61.4853 28.4057 61.2097 28.4081 60.9342 28.4174Z"/>
</mask>
<path d="M60.6869 27.8111C60.7038 27.8099 60.7206 27.8083 60.7375 27.8073C64.1981 27.6049 67.8976 28.6035 70.8092 30.4658C71.7656 31.0775 72.622 31.7911 73.4583 32.5559C76.5342 35.3692 78.5703 39.659 78.747 43.8174C78.7915 44.8675 78.8143 45.9193 78.7135 46.9668C78.355 50.692 76.6989 54.1272 74.1711 56.8671C71.2271 60.0582 66.8566 62.1381 62.4995 62.3181C58.0358 62.455 53.8203 61.1857 50.3784 58.2955C50.1631 58.116 49.9524 57.9314 49.7462 57.7418C49.5401 57.552 49.3387 57.3573 49.1421 57.1577C48.9456 56.9581 48.754 56.7538 48.5676 56.5447C48.3811 56.3357 48.1998 56.1222 48.0239 55.9044C47.8479 55.6865 47.6774 55.4644 47.5124 55.2381C47.3474 55.0119 47.1881 54.7817 47.0344 54.5475C46.8807 54.3135 46.7329 54.0758 46.591 53.8344C46.449 53.5931 46.3131 53.3485 46.1833 53.1005C46.0534 52.8525 45.9297 52.6015 45.8122 52.3474C45.6947 52.0933 45.5835 51.8365 45.4787 51.577C45.3739 51.3175 45.2755 51.0556 45.1836 50.7913C45.0917 50.5268 45.0063 50.2603 44.9276 49.9918C44.8488 49.7233 44.7767 49.453 44.7112 49.1809C44.6458 48.9089 44.587 48.6354 44.5351 48.3604C44.4831 48.0855 44.438 47.8094 44.3996 47.5323C44.3613 47.2552 44.3298 46.9772 44.3051 46.6985C43.9142 42.1154 45.24 37.5208 48.229 33.9873C51.5581 30.0517 55.6149 28.2377 60.6869 27.8111ZM60.9342 28.4174C60.6587 28.4279 60.3835 28.4451 60.1087 28.4692C59.834 28.4932 59.5601 28.524 59.2869 28.5615C59.0137 28.599 58.7416 28.6431 58.4706 28.694C58.1996 28.7449 57.93 28.8024 57.6618 28.8665C57.3935 28.9306 57.1271 29.0013 56.8625 29.0785C56.5978 29.1557 56.3352 29.2394 56.0747 29.3295C55.8141 29.4196 55.556 29.5161 55.3002 29.6189C55.0444 29.7218 54.7913 29.8308 54.5409 29.9461C54.2905 30.0613 54.0432 30.1827 53.7988 30.3101C53.5544 30.4375 53.3133 30.5709 53.0755 30.7101C52.8377 30.8494 52.6034 30.9944 52.3728 31.1452C52.1422 31.296 51.9154 31.4524 51.6925 31.6143C51.4696 31.7763 51.2508 31.9436 51.0362 32.1163C50.8215 32.289 50.6113 32.4668 50.4054 32.6498C50.1996 32.8329 49.9984 33.0208 49.8018 33.2138C49.6053 33.4067 49.4136 33.6043 49.2268 33.8066C46.3922 36.8933 44.5915 41.3524 44.778 45.5668C44.7894 45.8438 44.8076 46.1203 44.8326 46.3963C44.8576 46.6724 44.8894 46.9477 44.9279 47.2222C44.9665 47.4967 45.0118 47.7701 45.0637 48.0423C45.1157 48.3146 45.1743 48.5855 45.2396 48.8549C45.3049 49.1243 45.3768 49.392 45.4552 49.6579C45.5337 49.9238 45.6186 50.1877 45.71 50.4495C45.8014 50.7112 45.8992 50.9705 46.0033 51.2275C46.1075 51.4846 46.2178 51.7389 46.3345 51.9905C46.4511 52.242 46.5739 52.4906 46.7028 52.7362C46.8316 52.9817 46.9664 53.224 47.1072 53.4631C47.248 53.702 47.3945 53.9374 47.5468 54.1692C47.6992 54.4012 47.8571 54.6292 48.0207 54.8532C48.1842 55.0773 48.3531 55.2973 48.5275 55.5132C48.7018 55.729 48.8814 55.9404 49.0661 56.1476C49.2509 56.3546 49.4406 56.557 49.6352 56.7549C49.8299 56.9527 50.0294 57.1456 50.2335 57.3337C53.2421 60.0707 57.6607 61.9192 61.7724 61.7222C61.8702 61.7176 61.9677 61.7093 62.0649 61.697C66.5577 61.5575 70.6899 59.6097 73.7589 56.3532C73.942 56.1588 74.1203 55.9601 74.2939 55.757C74.4672 55.5541 74.6356 55.347 74.799 55.1358C74.9624 54.9247 75.1206 54.7097 75.2735 54.4909C75.4264 54.2721 75.5739 54.0497 75.716 53.8237C75.858 53.5977 75.9946 53.3684 76.1255 53.1357C76.2565 52.9032 76.3817 52.6676 76.5011 52.429C76.6206 52.1903 76.7341 51.949 76.8419 51.7049C76.9496 51.4607 77.0513 51.2141 77.1471 50.9651C77.2428 50.716 77.3324 50.4647 77.4159 50.2113C77.4993 49.958 77.5766 49.7027 77.6476 49.4455C77.7187 49.1884 77.7834 48.9297 77.8419 48.6694C77.9004 48.4092 77.9525 48.1477 77.9982 47.8848C78.044 47.622 78.0834 47.3582 78.1164 47.0936C78.1493 46.8289 78.1758 46.5636 78.1958 46.2976C78.2157 46.0316 78.2291 45.7652 78.2361 45.4986C78.2433 45.232 78.2439 44.9653 78.2379 44.6987C78.2307 44.4242 78.2167 44.1499 78.1958 43.876C78.175 43.6021 78.1475 43.3289 78.1133 43.0564C78.0791 42.7838 78.0381 42.5122 77.9903 42.2418C77.9427 41.9712 77.8884 41.702 77.8274 41.4342C77.7665 41.1664 77.6989 40.9002 77.6248 40.6356C77.5507 40.3711 77.4701 40.1086 77.383 39.848C77.2959 39.5874 77.2024 39.3291 77.1026 39.0732C77.0027 38.8172 76.8967 38.5638 76.7844 38.313C76.672 38.0623 76.5535 37.8144 76.429 37.5695C76.3043 37.3245 76.1737 37.0828 76.0372 36.8442C75.9007 36.6057 75.7584 36.3706 75.6103 36.1391C75.4621 35.9076 75.3083 35.6798 75.149 35.4558C74.9895 35.2318 74.8247 35.0119 74.6545 34.796C74.4842 34.5801 74.3088 34.3685 74.1281 34.1613C73.9473 33.954 73.7616 33.7513 73.571 33.5531C73.3802 33.355 73.1847 33.1616 72.9844 32.9731C72.7843 32.784 72.5796 32.6 72.3703 32.421C72.161 32.242 71.9473 32.0683 71.7294 31.8999C71.5116 31.7315 71.2897 31.5686 71.0637 31.4111C70.8377 31.2536 70.608 31.1018 70.3744 30.9557C70.1408 30.8096 69.9038 30.6693 69.6633 30.5349C69.4229 30.4005 69.1792 30.2721 68.9323 30.1497C68.6854 30.0273 68.4357 29.9111 68.1831 29.801C67.9305 29.691 67.6753 29.5872 67.4175 29.4898C67.1598 29.3923 66.8997 29.3013 66.6373 29.2167C66.3751 29.132 66.1109 29.0539 65.8447 28.9824C65.5785 28.9108 65.3107 28.8458 65.0413 28.7875C64.772 28.7291 64.5012 28.6775 64.2292 28.6325C63.9572 28.5875 63.6843 28.5493 63.4105 28.5177C63.1366 28.4862 62.8621 28.4615 62.587 28.4435C62.3119 28.4256 62.0366 28.4144 61.761 28.4101C61.4853 28.4057 61.2097 28.4081 60.9342 28.4174Z" fill="#222B3B"/>
<path d="M60.6869 27.8111C60.7038 27.8099 60.7206 27.8083 60.7375 27.8073C64.1981 27.6049 67.8976 28.6035 70.8092 30.4658C71.7656 31.0775 72.622 31.7911 73.4583 32.5559C76.5342 35.3692 78.5703 39.659 78.747 43.8174C78.7915 44.8675 78.8143 45.9193 78.7135 46.9668C78.355 50.692 76.6989 54.1272 74.1711 56.8671C71.2271 60.0582 66.8566 62.1381 62.4995 62.3181C58.0358 62.455 53.8203 61.1857 50.3784 58.2955C50.1631 58.116 49.9524 57.9314 49.7462 57.7418C49.5401 57.552 49.3387 57.3573 49.1421 57.1577C48.9456 56.9581 48.754 56.7538 48.5676 56.5447C48.3811 56.3357 48.1998 56.1222 48.0239 55.9044C47.8479 55.6865 47.6774 55.4644 47.5124 55.2381C47.3474 55.0119 47.1881 54.7817 47.0344 54.5475C46.8807 54.3135 46.7329 54.0758 46.591 53.8344C46.449 53.5931 46.3131 53.3485 46.1833 53.1005C46.0534 52.8525 45.9297 52.6015 45.8122 52.3474C45.6947 52.0933 45.5835 51.8365 45.4787 51.577C45.3739 51.3175 45.2755 51.0556 45.1836 50.7913C45.0917 50.5268 45.0063 50.2603 44.9276 49.9918C44.8488 49.7233 44.7767 49.453 44.7112 49.1809C44.6458 48.9089 44.587 48.6354 44.5351 48.3604C44.4831 48.0855 44.438 47.8094 44.3996 47.5323C44.3613 47.2552 44.3298 46.9772 44.3051 46.6985C43.9142 42.1154 45.24 37.5208 48.229 33.9873C51.5581 30.0517 55.6149 28.2377 60.6869 27.8111ZM60.9342 28.4174C60.6587 28.4279 60.3835 28.4451 60.1087 28.4692C59.834 28.4932 59.5601 28.524 59.2869 28.5615C59.0137 28.599 58.7416 28.6431 58.4706 28.694C58.1996 28.7449 57.93 28.8024 57.6618 28.8665C57.3935 28.9306 57.1271 29.0013 56.8625 29.0785C56.5978 29.1557 56.3352 29.2394 56.0747 29.3295C55.8141 29.4196 55.556 29.5161 55.3002 29.6189C55.0444 29.7218 54.7913 29.8308 54.5409 29.9461C54.2905 30.0613 54.0432 30.1827 53.7988 30.3101C53.5544 30.4375 53.3133 30.5709 53.0755 30.7101C52.8377 30.8494 52.6034 30.9944 52.3728 31.1452C52.1422 31.296 51.9154 31.4524 51.6925 31.6143C51.4696 31.7763 51.2508 31.9436 51.0362 32.1163C50.8215 32.289 50.6113 32.4668 50.4054 32.6498C50.1996 32.8329 49.9984 33.0208 49.8018 33.2138C49.6053 33.4067 49.4136 33.6043 49.2268 33.8066C46.3922 36.8933 44.5915 41.3524 44.778 45.5668C44.7894 45.8438 44.8076 46.1203 44.8326 46.3963C44.8576 46.6724 44.8894 46.9477 44.9279 47.2222C44.9665 47.4967 45.0118 47.7701 45.0637 48.0423C45.1157 48.3146 45.1743 48.5855 45.2396 48.8549C45.3049 49.1243 45.3768 49.392 45.4552 49.6579C45.5337 49.9238 45.6186 50.1877 45.71 50.4495C45.8014 50.7112 45.8992 50.9705 46.0033 51.2275C46.1075 51.4846 46.2178 51.7389 46.3345 51.9905C46.4511 52.242 46.5739 52.4906 46.7028 52.7362C46.8316 52.9817 46.9664 53.224 47.1072 53.4631C47.248 53.702 47.3945 53.9374 47.5468 54.1692C47.6992 54.4012 47.8571 54.6292 48.0207 54.8532C48.1842 55.0773 48.3531 55.2973 48.5275 55.5132C48.7018 55.729 48.8814 55.9404 49.0661 56.1476C49.2509 56.3546 49.4406 56.557 49.6352 56.7549C49.8299 56.9527 50.0294 57.1456 50.2335 57.3337C53.2421 60.0707 57.6607 61.9192 61.7724 61.7222C61.8702 61.7176 61.9677 61.7093 62.0649 61.697C66.5577 61.5575 70.6899 59.6097 73.7589 56.3532C73.942 56.1588 74.1203 55.9601 74.2939 55.757C74.4672 55.5541 74.6356 55.347 74.799 55.1358C74.9624 54.9247 75.1206 54.7097 75.2735 54.4909C75.4264 54.2721 75.5739 54.0497 75.716 53.8237C75.858 53.5977 75.9946 53.3684 76.1255 53.1357C76.2565 52.9032 76.3817 52.6676 76.5011 52.429C76.6206 52.1903 76.7341 51.949 76.8419 51.7049C76.9496 51.4607 77.0513 51.2141 77.1471 50.9651C77.2428 50.716 77.3324 50.4647 77.4159 50.2113C77.4993 49.958 77.5766 49.7027 77.6476 49.4455C77.7187 49.1884 77.7834 48.9297 77.8419 48.6694C77.9004 48.4092 77.9525 48.1477 77.9982 47.8848C78.044 47.622 78.0834 47.3582 78.1164 47.0936C78.1493 46.8289 78.1758 46.5636 78.1958 46.2976C78.2157 46.0316 78.2291 45.7652 78.2361 45.4986C78.2433 45.232 78.2439 44.9653 78.2379 44.6987C78.2307 44.4242 78.2167 44.1499 78.1958 43.876C78.175 43.6021 78.1475 43.3289 78.1133 43.0564C78.0791 42.7838 78.0381 42.5122 77.9903 42.2418C77.9427 41.9712 77.8884 41.702 77.8274 41.4342C77.7665 41.1664 77.6989 40.9002 77.6248 40.6356C77.5507 40.3711 77.4701 40.1086 77.383 39.848C77.2959 39.5874 77.2024 39.3291 77.1026 39.0732C77.0027 38.8172 76.8967 38.5638 76.7844 38.313C76.672 38.0623 76.5535 37.8144 76.429 37.5695C76.3043 37.3245 76.1737 37.0828 76.0372 36.8442C75.9007 36.6057 75.7584 36.3706 75.6103 36.1391C75.4621 35.9076 75.3083 35.6798 75.149 35.4558C74.9895 35.2318 74.8247 35.0119 74.6545 34.796C74.4842 34.5801 74.3088 34.3685 74.1281 34.1613C73.9473 33.954 73.7616 33.7513 73.571 33.5531C73.3802 33.355 73.1847 33.1616 72.9844 32.9731C72.7843 32.784 72.5796 32.6 72.3703 32.421C72.161 32.242 71.9473 32.0683 71.7294 31.8999C71.5116 31.7315 71.2897 31.5686 71.0637 31.4111C70.8377 31.2536 70.608 31.1018 70.3744 30.9557C70.1408 30.8096 69.9038 30.6693 69.6633 30.5349C69.4229 30.4005 69.1792 30.2721 68.9323 30.1497C68.6854 30.0273 68.4357 29.9111 68.1831 29.801C67.9305 29.691 67.6753 29.5872 67.4175 29.4898C67.1598 29.3923 66.8997 29.3013 66.6373 29.2167C66.3751 29.132 66.1109 29.0539 65.8447 28.9824C65.5785 28.9108 65.3107 28.8458 65.0413 28.7875C64.772 28.7291 64.5012 28.6775 64.2292 28.6325C63.9572 28.5875 63.6843 28.5493 63.4105 28.5177C63.1366 28.4862 62.8621 28.4615 62.587 28.4435C62.3119 28.4256 62.0366 28.4144 61.761 28.4101C61.4853 28.4057 61.2097 28.4081 60.9342 28.4174Z" stroke="#222B3B" stroke-width="0.959592" mask="url(#path-7-outside-1_3681_6230)"/>
<path d="M62.4126 56.2656C62.4923 56.2647 62.5679 56.266 62.6407 56.2749L62.4126 56.2656ZM62.4126 56.2656C62.4117 56.2879 62.412 56.31 62.4134 56.3321L62.4126 56.2656ZM62.7604 57.0253C62.7449 57.0069 62.7296 56.9883 62.7145 56.9694C62.729 56.986 62.7444 57.0046 62.7604 57.0253ZM63.1759 56.5863C63.1925 56.6056 63.209 56.6256 63.2253 56.6462C63.2081 56.626 63.1917 56.6061 63.1759 56.5863ZM62.9836 56.4045L62.9834 56.4047L62.9836 56.4045Z" fill="#F75050" stroke="#222B3B" stroke-width="1.19949"/>
<mask id="path-9-inside-2_3681_6230" fill="white">
<path d="M60.2512 56.2687C60.3716 56.261 60.4547 56.2639 60.5674 56.3085L60.6163 56.4268C60.5428 56.8945 59.889 57.5046 59.5353 57.8036C59.4799 57.8272 59.4165 57.8316 59.3571 57.8412L59.3047 57.7559C59.3277 57.5346 59.4367 57.3083 59.5338 57.1093C59.6912 56.7876 59.8952 56.3887 60.2512 56.2687Z"/>
</mask>
<path d="M60.2512 56.2687C60.3716 56.261 60.4547 56.2639 60.5674 56.3085L60.6163 56.4268C60.5428 56.8945 59.889 57.5046 59.5353 57.8036C59.4799 57.8272 59.4165 57.8316 59.3571 57.8412L59.3047 57.7559C59.3277 57.5346 59.4367 57.3083 59.5338 57.1093C59.6912 56.7876 59.8952 56.3887 60.2512 56.2687Z" fill="#FAC840"/>
<path d="M60.2512 56.2687L60.1751 55.0716L60.0176 55.0816L59.868 55.132L60.2512 56.2687ZM60.5674 56.3085L61.6759 55.8503L61.4817 55.3803L61.0089 55.1932L60.5674 56.3085ZM60.6163 56.4268L61.8013 56.6129L61.8535 56.28L61.7248 55.9686L60.6163 56.4268ZM59.5353 57.8036L60.0052 58.9072L60.1716 58.8364L60.3097 58.7197L59.5353 57.8036ZM59.3571 57.8412L58.3351 58.4691L58.7557 59.1537L59.5488 59.0253L59.3571 57.8412ZM59.3047 57.7559L58.1116 57.6318L58.0695 58.0369L58.2827 58.3839L59.3047 57.7559ZM59.5338 57.1093L58.4564 56.582L58.4559 56.5831L59.5338 57.1093ZM60.3273 57.4657C60.3671 57.4632 60.3373 57.4673 60.2848 57.4617C60.2561 57.4586 60.2255 57.4533 60.1947 57.4456C60.1646 57.438 60.1411 57.4298 60.1259 57.4238L61.0089 55.1932C60.6638 55.0566 60.3804 55.0585 60.1751 55.0716L60.3273 57.4657ZM59.4589 56.7666L59.5077 56.8849L61.7248 55.9686L61.6759 55.8503L59.4589 56.7666ZM59.4313 56.2407C59.4465 56.144 59.4751 56.118 59.4396 56.1767C59.4099 56.2258 59.3573 56.298 59.2773 56.3896C59.1168 56.5734 58.9159 56.7566 58.761 56.8875L60.3097 58.7197C60.5085 58.5516 60.8113 58.2803 61.0845 57.9674C61.3116 57.7072 61.707 57.2131 61.8013 56.6129L59.4313 56.2407ZM59.0655 56.6999C59.1147 56.679 59.1565 56.6662 59.1856 56.6585C59.2144 56.6509 59.2352 56.6471 59.2424 56.6459C59.2483 56.6448 59.2502 56.6447 59.2352 56.6468C59.226 56.6481 59.1956 56.6522 59.1654 56.6571L59.5488 59.0253C59.5482 59.0254 59.5481 59.0253 59.5692 59.0224C59.5846 59.0202 59.6169 59.0157 59.653 59.0094C59.7231 58.9972 59.8555 58.971 60.0052 58.9072L59.0655 56.6999ZM60.3791 57.2132L60.3267 57.128L58.2827 58.3839L58.3351 58.4691L60.3791 57.2132ZM60.4977 57.88C60.4942 57.9144 60.4888 57.9122 60.51 57.8574C60.5314 57.8023 60.5612 57.7391 60.6117 57.6354L58.4559 56.5831C58.3781 56.7424 58.1605 57.162 58.1116 57.6318L60.4977 57.88ZM60.6112 57.6365C60.6498 57.5576 60.6806 57.4961 60.7115 57.4404C60.742 57.3853 60.7648 57.3503 60.7807 57.3289C60.8194 57.2769 60.7778 57.357 60.6345 57.4053L59.868 55.132C59.3685 55.3005 59.047 55.64 58.8554 55.8978C58.6656 56.1531 58.5319 56.4278 58.4564 56.582L60.6112 57.6365Z" fill="#222B3B" mask="url(#path-9-inside-2_3681_6230)"/>
<path d="M57.8292 45.9676L57.8159 45.9678C56.6237 45.9896 55.4314 45.9924 54.2391 45.976C53.9934 45.9747 53.7647 45.9689 53.5396 45.9631C53.2359 45.9554 52.9389 45.9478 52.616 45.9519C52.0835 45.9586 51.5925 45.9995 51.1553 46.1186C50.9985 46.1626 50.8454 46.2168 50.6958 46.2812C50.5458 46.346 50.4009 46.4204 50.2609 46.5046L57.8292 45.9676ZM57.8292 45.9676L57.8425 45.9667M57.8292 45.9676L57.8425 45.9667M57.8425 45.9667C58.1474 45.9476 58.4298 45.9442 58.7099 45.9648C58.8502 47.2195 58.7919 48.9213 58.5279 50.6039C58.2294 52.5059 57.685 54.2719 56.9554 55.3077L56.5218 55.9235M57.8425 45.9667L56.5218 55.9235M56.5218 55.9235L57.219 56.2083M56.5218 55.9235L57.219 56.2083M57.219 56.2083C57.2468 56.2196 57.2723 56.23 57.296 56.2395C57.3851 56.2755 57.4481 56.301 57.5061 56.3311C57.4819 56.5264 57.4219 56.8001 57.33 57.1205C57.2172 57.5138 57.0773 57.908 56.9719 58.1766M57.219 56.2083L56.9719 58.1766M56.9719 58.1766C56.9385 58.1771 56.8997 58.1765 56.8553 58.1741C56.6894 58.1651 56.4908 58.1343 56.2781 58.0871C55.8497 57.9919 55.4256 57.8441 55.1959 57.7403L55.1945 57.7397C55.0872 57.6915 54.9825 57.6383 54.8803 57.5799C54.7782 57.5215 54.6792 57.4583 54.5834 57.3904L54.2368 57.8799L54.5833 57.3904C54.4875 57.3225 54.3951 57.2501 54.3063 57.1732L54.3059 57.1729C54.2172 57.0962 54.1325 57.0154 54.0516 56.9303L54.0516 56.9303C53.9706 56.8451 53.894 56.7562 53.8217 56.6636C53.7495 56.5711 53.6819 56.4754 53.6191 56.3762L53.6189 56.3759C53.556 56.277 53.4982 56.1752 53.4453 56.0705L53.4451 56.0703C53.3936 55.9684 53.347 55.8642 53.3053 55.7578C53.0991 55.1729 53.0225 54.7307 53.0483 54.1247L53.0787 53.4124L52.3717 53.5044C52.2918 53.5148 52.2051 53.5209 52.1133 53.524L52.1129 53.524C51.2824 53.5522 50.2727 53.1239 49.6403 52.5301L49.2297 52.9673M56.9719 58.1766L48.5988 50.8155C48.6155 50.8747 48.6336 50.9334 48.6532 50.9916C48.6728 51.0498 48.6938 51.1074 48.7162 51.1645L48.7164 51.1649C48.7389 51.2223 48.7628 51.2791 48.7881 51.3354L48.2411 51.5813M49.2297 52.9673C49.1777 52.9183 49.1269 52.8681 49.0773 52.8166C49.0277 52.7653 48.9795 52.7127 48.9325 52.6587M49.2297 52.9673L49.6408 52.5306C49.5959 52.4883 49.552 52.4449 49.5092 52.4005L49.5087 52.3999C49.4663 52.356 49.425 52.311 49.3847 52.2648L49.3841 52.2641C49.3436 52.2177 49.3042 52.1703 49.266 52.122C49.2279 52.0738 49.191 52.0247 49.1553 51.9747C49.1195 51.9244 49.0849 51.8733 49.0516 51.8215C49.0184 51.7698 48.9865 51.7173 48.9559 51.664C48.9252 51.6104 48.8959 51.5562 48.8678 51.5014L48.336 51.773L48.8678 51.5014C48.8398 51.4465 48.8131 51.391 48.7878 51.3348L48.2411 51.5813M49.2297 52.9673C49.8925 53.5897 50.9086 54.0627 51.8481 54.1194C51.8487 54.1042 51.8493 54.0889 51.8499 54.0736L52.132 54.0856L52.132 54.0856L52.4491 54.0991L52.5265 54.6939C52.5033 54.6969 52.4802 54.6996 52.4571 54.7021C52.4899 55.1281 52.5835 55.5158 52.743 55.9667C52.7926 56.0942 52.8483 56.219 52.91 56.341C52.9717 56.4632 53.0393 56.582 53.1126 56.6975C53.186 56.8131 53.2647 56.9248 53.349 57.0327C53.4332 57.1406 53.5225 57.2442 53.6169 57.3435C53.7112 57.4427 53.8102 57.5371 53.9137 57.6267L48.158 51.3838C48.1841 51.4503 48.2118 51.5161 48.2411 51.5813M48.9325 52.6587L48.9325 52.6587L48.9325 52.6587ZM48.9325 52.6587C48.8855 52.6049 48.8398 52.55 48.7956 52.494C48.7513 52.4381 48.7084 52.381 48.6669 52.3228C48.6255 52.2647 48.5855 52.2055 48.5469 52.1455C48.5083 52.0854 48.4713 52.0244 48.4357 51.9624C48.4002 51.9005 48.3662 51.8377 48.3337 51.7742C48.3013 51.7106 48.2704 51.6463 48.2411 51.5813M48.488 50.2732L48.488 50.2733C48.4958 50.3343 48.5051 50.3951 48.5159 50.4555L48.488 50.2732ZM48.488 50.2732C48.4801 50.2123 48.4738 50.1512 48.469 50.0899C48.4642 50.0285 48.4608 49.9671 48.459 49.9057L48.459 49.9053M48.488 50.2732L48.459 49.9053M48.459 49.9053C48.4278 48.865 48.7901 47.8578 49.4992 47.1167L49.4992 47.1167M48.459 49.9053L49.4992 47.1167M49.4992 47.1167L49.5008 47.115M49.4992 47.1167L49.5008 47.115M49.5008 47.115C49.6131 46.9967 49.7329 46.8864 49.8602 46.7842L49.5008 47.115ZM48.5987 50.8153C48.582 50.756 48.5667 50.6964 48.5529 50.6364L48.5987 50.8153ZM48.5529 50.6363C48.5391 50.5764 48.5268 50.5163 48.516 50.4559L48.5529 50.6363ZM49.8602 46.7842C49.9875 46.682 50.121 46.5888 50.2609 46.5046L49.8602 46.7842Z" fill="#FAC840" stroke="#222B3B" stroke-width="1.19949"/>
<path d="M74.5946 49.6965L74.5946 49.6946C74.5799 48.7157 74.1792 47.7341 73.4861 47.0634C73.3648 46.9471 73.2366 46.839 73.1013 46.739L73.4579 46.2568L73.1013 46.739C72.9656 46.6386 72.8241 46.5472 72.6769 46.4649C72.5296 46.3826 72.3778 46.31 72.2213 46.2471C72.0654 46.1844 71.9063 46.1319 71.7438 46.0894C70.9785 45.8972 70.1418 45.9136 69.2498 45.931C68.9954 45.936 68.7364 45.941 68.4733 45.9413M74.5946 49.6965L64.2665 46.1784C64.278 46.065 64.2879 45.9921 64.2998 45.9388C65.6909 45.9481 67.0821 45.9489 68.4733 45.9413M74.5946 49.6965C74.5957 49.7589 74.5953 49.8214 74.5933 49.8839L74.5932 49.8851M74.5946 49.6965L74.5932 49.8851M68.4733 45.9413C68.4729 45.9413 68.4725 45.9413 68.472 45.9413L68.4713 45.3416M68.4733 45.9413C68.4738 45.9413 68.4742 45.9413 68.4746 45.9413L68.4713 45.3416M68.4713 45.3416C66.9779 45.3498 65.4845 45.3482 63.9912 45.3368L72.445 45.6906C72.2647 45.6181 72.0806 45.5574 71.8927 45.5084C71.0408 45.294 70.0956 45.3132 69.1898 45.3315C68.9466 45.3364 68.7063 45.3413 68.4713 45.3416ZM74.5932 49.8851C74.5914 49.9475 74.5879 50.0098 74.5829 50.072L74.5829 50.0721M74.5932 49.8851L74.5829 50.0721M74.5829 50.0721C74.5778 50.1347 74.5712 50.1971 74.5631 50.2592L74.5829 50.0721ZM74.3934 50.991L74.3935 50.9907C74.4136 50.9313 74.4323 50.8714 74.4495 50.811L75.0263 50.9752L74.4492 50.8118C74.4664 50.7513 74.4821 50.6903 74.4965 50.6288C74.5106 50.5679 74.5232 50.5067 74.5343 50.4453C74.5454 50.3835 74.555 50.3214 74.5631 50.2592L74.3934 50.991ZM74.3934 50.991C74.3733 51.0504 74.3518 51.1092 74.3289 51.1675C74.306 51.2256 74.2816 51.2831 74.2558 51.3399L74.2552 51.3414M74.3934 50.991L74.2552 51.3414M74.2552 51.3414C74.2296 51.3982 74.2025 51.4543 74.174 51.5098L74.1736 51.5108M74.2552 51.3414L74.1736 51.5108M74.1736 51.5108C74.1451 51.5664 74.1153 51.6212 74.0841 51.6753M74.1736 51.5108L74.0841 51.6753M69.9712 54.9586C69.9801 54.6952 69.9789 54.4552 69.9563 54.2118L69.8962 53.5657L70.545 53.5566C71.7142 53.5402 72.7499 53.211 73.5199 52.4242C73.5631 52.3795 73.6054 52.3336 73.6465 52.2866L69.9712 54.9586ZM69.9712 54.9586C69.8065 55.745 69.4753 56.447 68.9408 56.9961L68.9407 56.9961C68.1831 57.7747 67.1966 58.0643 66.0445 58.1344C66.0086 58.0223 65.9697 57.9038 65.9304 57.7843C65.8711 57.6034 65.8109 57.4202 65.7592 57.2533C65.6825 57.0054 65.6172 56.774 65.5757 56.5791C65.555 56.482 65.542 56.4018 65.5357 56.3385C65.5346 56.3274 65.5337 56.3173 65.5331 56.3083C65.5376 56.3046 65.5425 56.3007 65.5478 56.2965C65.5838 56.2682 65.6288 56.2379 65.6845 56.2029C65.7102 56.1868 65.7356 56.1712 65.7632 56.1544L65.7694 56.1506C65.7978 56.1332 65.8303 56.1134 65.861 56.0937L66.3616 55.7735L66.0461 55.27C65.426 54.2804 64.9104 52.6457 64.5854 50.8967C64.2619 49.1564 64.1435 47.3922 64.2665 46.1784L69.9712 54.9586ZM73.7661 52.143L73.7671 52.1416C73.8061 52.0927 73.8437 52.0427 73.8801 51.9919C73.8801 51.9919 73.8801 51.9919 73.8801 51.9919L73.7661 52.143ZM73.7661 52.143C73.7274 52.1919 73.6876 52.2398 73.6466 52.2865L73.7661 52.143ZM74.0841 51.6753C74.0527 51.7297 74.02 51.7833 73.9859 51.8363M74.0841 51.6753L73.9859 51.8363M73.9859 51.8363L74.4902 52.1609L73.9859 51.8363Z" fill="#F75050" stroke="#222B3B" stroke-width="1.19949"/>
<path d="M56.4359 32.0657L56.4359 32.0657C55.3297 32.2058 54.4926 32.6241 53.8324 33.4748L53.8324 33.4748C53.2716 34.1972 53.0674 35.0105 53.0749 35.9798L53.079 36.5019L53.1893 36.5316C53.2451 36.5466 53.3 36.5627 53.3541 36.5798L53.8458 36.4696C53.9248 36.4519 54.0743 36.4274 54.2466 36.4883C54.3169 36.5131 54.3689 36.5447 54.3909 36.5584C54.4015 36.565 54.4117 36.5717 54.4167 36.5749L54.4177 36.5755L54.429 36.5829L54.4291 36.5829C54.5834 36.6803 54.7029 36.8101 54.7828 36.9029C54.7957 36.918 54.8086 36.9331 54.8211 36.9482C54.87 36.8915 54.9314 36.8351 55.0086 36.7869L55.4331 36.5221L55.7698 36.8921C55.8813 37.0147 55.9234 37.1534 55.9394 37.2102C55.9604 37.2847 55.9727 37.3599 55.9808 37.4223C55.997 37.5476 56.0047 37.6914 56.0103 37.8145C56.0119 37.8474 56.0132 37.879 56.0146 37.9096C56.0187 38.0035 56.0223 38.0873 56.0279 38.1644C56.0334 38.2392 56.039 38.2784 56.0411 38.293C56.0422 38.301 56.0423 38.3017 56.0408 38.2968L56.0472 38.3176L56.0488 38.3226L56.4359 32.0657ZM56.4359 32.0657L56.4398 32.0652M56.4359 32.0657L56.4398 32.0652M57.5609 40.1364C57.432 39.9666 57.1963 39.701 56.9571 39.4314C56.8538 39.315 56.7498 39.1978 56.6535 39.0873C56.4838 38.8926 56.329 38.7091 56.211 38.5549C56.1128 38.4265 56.0696 38.3553 56.0549 38.3311C56.0495 38.3222 56.0479 38.3196 56.0489 38.3228L57.0832 40.499M57.5609 40.1364L57.0832 40.499M57.5609 40.1364C57.5609 40.1364 57.5608 40.1364 57.5608 40.1363L57.0832 40.499M57.5609 40.1364C57.9228 40.613 58.228 41.0986 58.5138 41.5533C58.5913 41.6766 58.6674 41.7976 58.7428 41.9155C58.7928 41.9939 58.8429 42.0714 58.8933 42.1481M57.0832 40.499C57.4274 40.9524 57.7143 41.4087 57.9984 41.8605C58.4414 42.5651 58.8774 43.2585 59.513 43.9122M58.8933 42.1481C58.9758 42.4519 59.0994 42.7489 59.2354 43.0171C59.3263 43.1962 59.4276 43.3721 59.5353 43.5396L59.513 43.9122M58.8933 42.1481C59.1644 42.5611 59.4451 42.9517 59.7839 43.3248C59.8953 43.3287 60.0056 43.3306 60.1158 43.3302M58.8933 42.1481C58.8244 41.8945 58.7841 41.6363 58.789 41.386L59.3887 41.3978L58.789 41.3859L60.1158 43.3302M59.513 43.9122L59.6781 43.7517M59.513 43.9122L59.6781 43.7517M59.6781 43.7517C59.7202 43.8112 59.7629 43.8693 59.806 43.9256L59.6781 43.7517ZM60.1158 43.3302C60.2687 43.5552 60.4309 43.7563 60.5863 43.9155L60.1158 43.3302ZM53.1592 38.0031L53.0403 38.1863L53.3355 38.5272C53.5319 38.754 53.811 38.9789 54.0466 39.1645C54.092 39.2003 54.1362 39.2349 54.1791 39.2686C54.3785 39.4248 54.5506 39.5597 54.6852 39.6849C54.8673 39.8634 55.0413 40.1027 55.2214 40.387C55.3111 40.5286 55.3981 40.6744 55.4874 40.8246L55.5027 40.8502C55.5857 40.99 55.6717 41.1345 55.7579 41.2716C55.9835 41.6304 56.2093 41.9981 56.4373 42.3695C56.7987 42.958 57.1658 43.5558 57.547 44.1423C57.0004 44.1458 56.453 44.1432 55.9021 44.1406C55.5216 44.1387 55.1395 44.1369 54.7548 44.1371L53.1592 38.0031ZM53.1592 38.0031C53.1474 37.9933 53.1351 37.9832 53.1224 37.9727C53.0822 37.9399 53.0408 37.9069 52.9967 37.8718L52.9918 37.8679C52.9502 37.8347 52.9057 37.7994 52.8629 37.7644C52.7786 37.6955 52.6758 37.6085 52.5908 37.5155L51.7855 36.6353C50.8935 36.7536 50.1443 37.082 49.5168 37.7363L49.5162 37.737C49.4724 37.7825 49.4297 37.8291 49.3882 37.8768L49.3881 37.8769C49.3467 37.9246 49.3065 37.9732 49.2675 38.0228C49.2284 38.0725 49.1907 38.1232 49.1542 38.1748L49.1541 38.1748C49.1177 38.2264 49.0825 38.2788 49.0487 38.3321L53.1592 38.0031ZM51.2175 44.0135C51.7231 44.1397 52.2895 44.1749 52.9003 44.1744C53.2043 44.1741 53.5109 44.1651 53.823 44.1558L53.8347 44.1555C54.1399 44.1464 54.4513 44.1372 54.7546 44.1371L51.2175 44.0135ZM51.2175 44.0135C50.6432 43.8701 50.0672 43.5463 49.6279 43.1338C49.5836 43.0916 49.5403 43.0485 49.4981 43.0042C49.4554 42.9595 49.4139 42.9138 49.3735 42.8671C49.3333 42.8207 49.2943 42.7732 49.2564 42.7247L49.256 42.7241C49.2182 42.6758 49.1815 42.6264 49.1461 42.5762L51.2175 44.0135ZM48.5165 41.0523C48.5268 41.1129 48.5387 41.1732 48.552 41.2331L48.552 41.2333C48.5654 41.2934 48.5802 41.353 48.5965 41.4122L48.5966 41.4125C48.6128 41.4718 48.6306 41.5306 48.6498 41.5888L48.6499 41.5892C48.6691 41.6478 48.6898 41.7059 48.7119 41.7635L48.152 41.9784L48.7117 41.7629C48.7339 41.8205 48.7575 41.8776 48.7825 41.9342C48.8074 41.9904 48.8336 42.046 48.8612 42.1009C48.8889 42.156 48.918 42.2104 48.9484 42.2641L48.5165 41.0523ZM48.5165 41.0523C48.5061 40.9915 48.4972 40.9305 48.4898 40.8694L48.5165 41.0523ZM56.4398 32.0652C56.5501 32.0505 56.671 32.0505 56.8408 32.0508L56.8409 32.0508M56.4398 32.0652L56.8409 32.0508M56.8409 32.0508C57.8642 32.0527 58.7991 32.4252 59.5115 33.1401M56.8409 32.0508L59.5115 33.1401M48.4723 40.6853L48.4723 40.6855C48.4766 40.7469 48.4825 40.8081 48.4898 40.8692L48.4723 40.6853ZM48.4723 40.6853C48.468 40.624 48.4652 40.5627 48.4639 40.5011L48.464 40.5011M48.4723 40.6853L48.464 40.5011M48.464 40.5011L48.4636 40.4916M48.464 40.5011L48.4636 40.4916M48.4636 40.4916C48.4613 40.4286 48.4606 40.3656 48.4614 40.3025L48.4614 40.3024M48.4636 40.4916L48.4614 40.3024M48.4614 40.3024C48.4623 40.2393 48.4647 40.1764 48.4687 40.1134L48.4687 40.1133M48.4614 40.3024L48.4687 40.1133M48.4687 40.1133C48.4727 40.0504 48.4783 39.9876 48.4855 39.9249M48.4687 40.1133L48.4855 39.9249M48.5922 39.3678L48.5922 39.3679C48.5757 39.4288 48.5607 39.49 48.5473 39.5516C48.5339 39.6133 48.522 39.6752 48.5117 39.7375L48.5922 39.3678ZM48.5922 39.3678C48.6087 39.3069 48.6267 39.2465 48.6462 39.1865L48.5922 39.3678ZM48.7094 39.0079L48.7094 39.008C48.6868 39.0669 48.6658 39.1264 48.6463 39.1864L48.7094 39.0079ZM48.7094 39.0079C48.7319 38.949 48.7559 38.8907 48.7813 38.8329L48.7094 39.0079ZM48.9512 38.4945L48.9512 38.4945C48.9201 38.5495 48.8904 38.6051 48.862 38.6615L48.9512 38.4945ZM48.9512 38.4945C48.9823 38.4396 49.0148 38.3854 49.0486 38.3322L48.9512 38.4945ZM59.5115 33.1401C60.5151 34.1477 60.5912 35.2468 60.5873 36.8434M59.5115 33.1401L60.5873 36.8434M60.5873 36.8434C60.5873 36.8435 60.5873 36.8437 60.5873 36.8439M60.5873 36.8434L60.5873 36.8439M60.5873 36.8439L60.5807 38.6594L60.5873 36.8439ZM48.4855 39.9249C48.4927 39.8623 48.5014 39.7998 48.5117 39.7376L48.4855 39.9249ZM48.7813 38.8328C48.8068 38.7751 48.8337 38.718 48.862 38.6616L48.7813 38.8328Z" fill="#1F8846" stroke="#222B3B" stroke-width="1.19949"/>
<path d="M69.3981 33.7152L69.3981 33.7151C68.7949 32.8458 67.9821 32.2853 66.9631 32.1065C66.5796 32.0392 66.1582 32.0204 65.7859 32.0635C64.6528 32.2234 63.847 32.6247 63.1831 33.5087L63.1824 33.5096C63.0439 33.6934 62.9254 33.889 62.8267 34.0968L62.8266 34.0971C62.7278 34.3049 62.6512 34.5201 62.5964 34.7434L62.5964 34.7436C62.4709 35.254 62.4208 36.0087 62.4182 36.824C62.4162 37.4647 62.4432 38.1138 62.4762 38.6607C62.7127 38.7597 62.9235 38.8848 63.1151 39.0483C63.4052 39.2958 63.6154 39.6013 63.8085 39.9438L69.3981 33.7152ZM69.3981 33.7152C69.8429 34.356 70.0791 35.1611 69.9549 35.8549L69.8328 36.5372L70.5256 36.56C71.5797 36.5947 72.4949 36.842 73.2533 37.4674L73.2534 37.4675C74.0085 38.0899 74.4815 39.0467 74.5734 40.0406M69.3981 33.7152L74.5734 40.0406M74.5734 40.0406C74.5791 40.1031 74.5833 40.1657 74.5858 40.2284L74.5858 40.2296C74.5885 40.2927 74.5895 40.3558 74.589 40.419C74.5885 40.4822 74.5865 40.5453 74.5828 40.6083C74.5791 40.6714 74.5739 40.7343 74.5671 40.7971L74.567 40.7983C74.5603 40.8606 74.5521 40.9228 74.5421 40.9848L74.542 40.9859C74.5321 41.0482 74.5208 41.1101 74.5078 41.1717C74.4948 41.2337 74.4802 41.2954 74.4641 41.3568C74.4481 41.4179 74.4305 41.4785 74.4115 41.5389C74.3923 41.5993 74.3717 41.6593 74.3497 41.7188C74.3278 41.7778 74.3045 41.8361 74.2797 41.8938L74.2792 41.8948C74.2543 41.9529 74.2279 42.0105 74.2001 42.0676C74.1725 42.1239 74.1436 42.1794 74.1132 42.2342L74.1124 42.2356C74.0819 42.2909 74.0501 42.3454 74.017 42.399C73.9836 42.4529 73.949 42.5058 73.9131 42.5578C73.8769 42.6103 73.8395 42.6617 73.8009 42.7122L74.2775 43.0763M74.5734 40.0406L75.185 40.2044C75.1881 40.2775 75.1893 40.3506 75.1888 40.4238C75.1882 40.497 75.1858 40.5701 75.1815 40.6431C75.1773 40.7161 75.1712 40.789 75.1633 40.8618C75.1556 40.9345 75.1459 41.007 75.1344 41.0793C75.123 41.1517 75.1098 41.2236 75.0947 41.2952C75.0796 41.3668 75.0628 41.438 75.0443 41.5088C75.0257 41.5795 75.0054 41.6498 74.9833 41.7196C74.9612 41.7893 74.9375 41.8585 74.9121 41.9272C74.8866 41.9958 74.8594 42.0638 74.8305 42.131C74.8017 42.1982 74.7712 42.2647 74.7391 42.3306C74.7069 42.3964 74.6731 42.4612 74.6375 42.5252C74.6022 42.5894 74.5653 42.6526 74.5268 42.7148C74.4882 42.7771 74.4482 42.8383 74.4067 42.8985C74.365 42.9589 74.322 43.0182 74.2775 43.0763M74.2775 43.0763C74.2329 43.1345 74.187 43.1915 74.1396 43.2473C73.5989 43.8918 72.8006 44.3807 71.9867 44.5929C71.3417 44.761 70.6562 44.7499 69.9845 44.739C69.82 44.7363 69.6564 44.7337 69.4944 44.7337M74.2775 43.0763L73.8015 42.7115C73.7629 42.7618 73.7232 42.8111 73.6822 42.8594L73.6802 42.8618C73.2236 43.406 72.5352 43.8301 71.8355 44.0125L71.8354 44.0125C71.2772 44.158 70.6953 44.1492 70.0339 44.1393C69.8599 44.1366 69.6805 44.1339 69.4945 44.1339L69.4944 44.7337M69.4944 44.7337C69.0025 44.7336 68.5048 44.7246 68.005 44.7156C67.0303 44.6979 66.0474 44.6801 65.083 44.7282M69.4944 44.7337V44.1339M65.083 44.7282L69.4944 44.1339M65.083 44.7282C65.2015 44.5221 65.3235 44.3174 65.4483 44.1132M65.083 44.7282L69.4944 44.1339M69.4944 44.1339C69.0261 44.1339 68.5424 44.1251 68.0505 44.1162C67.1959 44.1008 66.3163 44.0849 65.4483 44.1132M65.4483 44.1132C65.2068 44.1211 64.9662 44.1324 64.7272 44.1481L69.5162 38.6168C69.5164 38.6167 69.5165 38.6166 69.5166 38.6165C69.3138 38.8239 69.088 39.0297 68.8838 39.2157C68.7716 39.318 68.6659 39.4143 68.5742 39.5016C68.2936 39.7688 68.0531 40.0307 67.851 40.3578C67.4418 41.0398 67.003 41.7072 66.572 42.3628C66.4917 42.4849 66.4117 42.6066 66.3322 42.7279C66.0286 43.1912 65.7312 43.6505 65.4483 44.1132ZM69.7425 36.6103L69.8568 36.1589L69.1538 36.3986L68.4768 35.6516L68.3901 36.7812C68.3434 36.8196 68.2944 36.8612 68.2453 36.9037L67.1126 36.986C67.0717 37.2491 67.0677 37.5375 67.0645 37.7685C67.0633 37.8532 67.0623 37.9302 67.0595 37.9955M69.7425 36.6103L63.8086 39.9439C64.1143 40.4862 64.4332 41.2333 64.2121 42.0582M69.7425 36.6103L70.1695 36.5505L70.3375 37.0025L70.3618 37.068L70.4906 37.4145L70.2388 37.6853C70.1354 37.7964 70.0106 37.8866 69.9412 37.9367C69.9335 37.9423 69.9264 37.9473 69.9202 37.9519C69.8661 37.9914 69.8417 38.0118 69.8319 38.0202C69.828 38.0314 69.8178 38.0595 69.7978 38.1205L69.7963 38.1253L69.7425 36.6103ZM67.0595 37.9955C67.0595 37.9955 67.0595 37.9955 67.0595 37.9955L67.3646 38.0083M67.0595 37.9955L67.3646 38.0083M67.0595 37.9955C67.0588 38.0136 67.0581 38.0303 67.0575 38.0459C67.0545 38.1221 67.0526 38.17 67.046 38.218C67.0425 38.2441 67.0388 38.258 67.0372 38.2632M67.3646 38.0083L67.3942 38.1043L67.4842 38.3963L67.7052 37.078L67.1321 37.2548L67.3646 38.0083ZM67.0372 38.2632C66.8506 38.5748 66.5961 38.8801 66.3007 39.213C66.2441 39.2769 66.1854 39.3423 66.1255 39.409C65.884 39.6782 65.6234 39.9686 65.3996 40.2643L65.3995 40.2643C65.0807 40.6856 64.799 41.1328 64.536 41.5503C64.4388 41.7046 64.3441 41.8549 64.2511 41.9983C64.2381 42.0184 64.2251 42.0383 64.2121 42.0582M67.0372 38.2632C67.0389 38.2606 67.0405 38.2579 67.0421 38.2552L67.4271 38.4843L67.0202 39.1109L67.427 38.4844L67.0418 38.2556C67.038 38.262 67.0365 38.2658 67.0365 38.2658C67.0365 38.2658 67.0367 38.265 67.0372 38.2632ZM64.2121 42.0582C64.2087 42.0706 64.2053 42.083 64.2017 42.0955L64.2017 42.0957C64.078 42.526 63.8178 42.8963 63.6259 43.1694C63.6067 43.1967 63.5882 43.2231 63.5706 43.2485C63.5176 43.3245 63.4707 43.394 63.4295 43.4583M64.2121 42.0582C64.2047 42.0695 64.1973 42.0808 64.1899 42.0921C64.1899 42.0921 64.1898 42.0922 64.1898 42.0923C63.8893 42.5492 63.5829 42.9664 63.2067 43.3374C63.2053 43.3376 63.204 43.3378 63.2027 43.3379C63.1308 43.3459 63.0637 43.3521 63.0022 43.3547C62.9389 43.3573 62.8965 43.3553 62.8722 43.3521C62.8687 43.3516 62.866 43.3512 62.8641 43.3508M63.4295 43.4583L63.6253 41.93C63.5309 42.2582 63.3294 42.5466 63.1294 42.8326C62.8952 43.1676 62.6633 43.4994 62.6086 43.8881M63.4295 43.4583L63.4738 43.9108M63.4295 43.4583L63.2076 43.9405M62.8641 43.3508C62.8617 43.3502 62.8604 43.3499 62.8603 43.35C62.8603 43.35 62.8615 43.3503 62.8641 43.3508ZM62.8641 43.3508C62.8732 43.3532 62.898 43.3614 62.9304 43.3819L62.6086 43.8881M62.6086 43.8881C62.7121 43.9539 62.8874 43.9621 63.0632 43.9521L62.6086 43.8881ZM63.2076 43.9405C63.2603 43.9352 63.3112 43.9292 63.3581 43.9237C63.4004 43.9187 63.4394 43.9142 63.4738 43.9108M63.2076 43.9405L65.8777 40.6263C65.5756 41.0254 65.3152 41.4388 65.0568 41.8491C64.5976 42.5781 64.1445 43.2975 63.4738 43.9108M63.2076 43.9405C63.2215 43.8658 63.2479 43.7899 63.2875 43.707L63.4738 43.9108" fill="#FAC840" stroke="#222B3B" stroke-width="1.19949"/>
<path d="M37.957 72.2105V101.855C37.957 103.843 39.5681 105.454 41.5555 105.454H81.4675C83.4549 105.454 85.0659 103.843 85.0659 101.855V72.2105C85.0659 70.2231 83.4549 68.6121 81.4675 68.6121H41.5555C39.5681 68.6121 37.957 70.2232 37.957 72.2105Z" stroke="#222B3B" stroke-width="2.63888"/>
<path d="M14.2793 36.8148V101.852C14.2793 103.839 15.8904 105.45 17.8778 105.45H34.3561C36.3435 105.45 37.9545 103.839 37.9545 101.852V36.8148C37.9545 34.8274 36.3435 33.2163 34.3561 33.2163H17.8778C15.8904 33.2163 14.2793 34.8274 14.2793 36.8148Z" fill="white" stroke="#222B3B" stroke-width="2.63888"/>
<path d="M19.3535 41.7703V104.124C19.3535 104.124 33.7278 104.245 34.8149 104.124C35.2397 104.077 36.6268 103.4 36.6268 101.95V98.9303V71.1481V38.1719H22.952C20.9646 38.1719 19.3535 39.783 19.3535 41.7703Z" fill="#FA8419"/>
<path d="M85.3047 36.8148V53.2931C85.3047 55.2805 86.9158 56.8916 88.9032 56.8916H105.381C107.369 56.8916 108.98 55.2805 108.98 53.2931V36.8148C108.98 34.8274 107.369 33.2163 105.381 33.2163H88.9032C86.9158 33.2163 85.3047 34.8274 85.3047 36.8148Z" fill="#FDBA05" stroke="#222B3B" stroke-width="2.63888"/>
<path d="M85.3047 60.6165V78.0544C85.3047 79.7768 86.701 81.1731 88.4234 81.1731H105.861C107.584 81.1731 108.98 79.7768 108.98 78.0544V60.6165C108.98 58.8941 107.584 57.4978 105.861 57.4978H88.4234C86.701 57.4978 85.3047 58.8941 85.3047 60.6165Z" fill="#D7EC0B" stroke="#222B3B" stroke-width="2.63888"/>
<path d="M85.3047 84.8946V102.332C85.3047 104.055 86.701 105.451 88.4234 105.451H105.861C107.584 105.451 108.98 104.055 108.98 102.332V84.8946C108.98 83.1722 107.584 81.7759 105.861 81.7759H88.4234C86.701 81.7759 85.3047 83.1722 85.3047 84.8946Z" fill="#FE5D0C" stroke="#222B3B" stroke-width="2.63888"/>
<path d="M49.791 105.334V80.9085C49.791 78.9212 51.4021 77.3101 53.3895 77.3101H61.6286M73.4663 105.334V80.9085C73.4663 78.9211 71.8552 77.3101 69.8678 77.3101H61.6286M61.6286 77.3101V105.334M57.4825 88.0144V92.4645M66.4959 88.0144V92.4645" stroke="#222B3B" stroke-width="2.63888" stroke-linecap="round" stroke-linejoin="round"/>
</svg>
