<svg width="25" height="24" viewBox="0 0 25 24" fill="none" xmlns="http://www.w3.org/2000/svg">
<path d="M11.4777 14.95L9.62773 16.8C9.23773 17.19 8.61773 17.19 8.21773 16.81C8.10773 16.7 7.99773 16.6 7.88773 16.49C6.85773 15.45 5.92773 14.36 5.09773 13.22C4.27773 12.08 3.61773 10.94 3.13773 9.81C2.66773 8.67 2.42773 7.58 2.42773 6.54C2.42773 5.86 2.54773 5.21 2.78773 4.61C3.02773 4 3.40773 3.44 3.93773 2.94C4.57773 2.31 5.27773 2 6.01773 2C6.29773 2 6.57773 2.06 6.82773 2.18C7.08773 2.3 7.31773 2.48 7.49773 2.74L9.81773 6.01C9.99773 6.26 10.1277 6.49 10.2177 6.71C10.3077 6.92 10.3577 7.13 10.3577 7.32C10.3577 7.56 10.2877 7.8 10.1477 8.03C10.0177 8.26 9.82773 8.5 9.58773 8.74L8.82773 9.53C8.71773 9.64 8.66773 9.77 8.66773 9.93C8.66773 10.01 8.67773 10.08 8.69773 10.16C8.72774 10.24 8.75773 10.3 8.77773 10.36C8.95773 10.69 9.26773 11.12 9.70773 11.64C10.1577 12.16 10.6377 12.69 11.1577 13.22C11.2577 13.32 11.3677 13.42 11.4677 13.52C11.8677 13.91 11.8777 14.55 11.4777 14.95Z" fill="#333333"/>
<path d="M22.3973 18.33C22.3973 18.61 22.3473 18.9 22.2473 19.18C22.2173 19.26 22.1873 19.34 22.1473 19.42C21.9773 19.78 21.7573 20.12 21.4673 20.44C20.9773 20.98 20.4373 21.37 19.8273 21.62C19.8173 21.62 19.8073 21.63 19.7973 21.63C19.2073 21.87 18.5673 22 17.8773 22C16.8573 22 15.7673 21.76 14.6173 21.27C13.4673 20.78 12.3173 20.12 11.1773 19.29C10.7873 19 10.3973 18.71 10.0273 18.4L13.2973 15.13C13.5773 15.34 13.8273 15.5 14.0373 15.61C14.0873 15.63 14.1473 15.66 14.2173 15.69C14.2973 15.72 14.3773 15.73 14.4673 15.73C14.6373 15.73 14.7673 15.67 14.8773 15.56L15.6373 14.81C15.8873 14.56 16.1273 14.37 16.3573 14.25C16.5873 14.11 16.8173 14.04 17.0673 14.04C17.2573 14.04 17.4573 14.08 17.6773 14.17C17.8973 14.26 18.1273 14.39 18.3773 14.56L21.6873 16.91C21.9473 17.09 22.1273 17.3 22.2373 17.55C22.3373 17.8 22.3973 18.05 22.3973 18.33Z" fill="#333333"/>
</svg>
