<svg width="25" height="24" viewBox="0 0 25 24" fill="none" xmlns="http://www.w3.org/2000/svg">
<path d="M17.4277 3.5H7.42773C4.42773 3.5 2.42773 5 2.42773 8.5V15.5C2.42773 19 4.42773 20.5 7.42773 20.5H17.4277C20.4277 20.5 22.4277 19 22.4277 15.5V8.5C22.4277 5 20.4277 3.5 17.4277 3.5ZM17.8977 9.59L14.7677 12.09C14.1077 12.62 13.2677 12.88 12.4277 12.88C11.5877 12.88 10.7377 12.62 10.0877 12.09L6.95773 9.59C6.63773 9.33 6.58773 8.85 6.83773 8.53C7.09773 8.21 7.56773 8.15 7.88773 8.41L11.0177 10.91C11.7777 11.52 13.0677 11.52 13.8277 10.91L16.9577 8.41C17.2777 8.15 17.7577 8.2 18.0077 8.53C18.2677 8.85 18.2177 9.33 17.8977 9.59Z" fill="#333333"/>
</svg>
