<svg width="174" height="136" viewBox="0 0 174 136" fill="none" xmlns="http://www.w3.org/2000/svg">
<path d="M172.789 72.1945C172.789 72.1945 172.526 75.7219 167.831 79.4543C167.831 79.4543 167.57 81.7579 163.867 85.2458C160.851 88.4385 155.93 91.4407 155.93 91.4407C155.93 91.4407 154.948 93.4072 151.852 95.6946C135.958 107.434 108.058 108.056 108.058 108.056C108.058 108.056 94.8637 107.396 125.315 91.5163C130.341 88.895 135.614 86.8436 141.048 85.4336C145.654 84.2417 152.325 82.1377 159.514 78.6437L172.789 72.1945Z" fill="#DAED28" stroke="black" stroke-width="0.652043" stroke-linejoin="round"/>
<path d="M172.41 72.7519C172.13 73.8568 171.127 76.5064 167.668 79.2551C167.608 79.3062 167.566 79.3776 167.559 79.4564C167.558 79.4779 167.238 81.7114 163.674 85.0721C160.719 88.197 155.846 91.1916 155.795 91.2232C155.769 91.239 155.746 91.2617 155.727 91.2842C155.712 91.3017 155.698 91.3192 155.69 91.3434C155.678 91.3584 154.689 93.2826 151.698 95.4948C144.888 100.525 135.78 103.508 127.652 105.272C130.7 104.51 135.129 102.027 135.712 100.041C135.777 99.8115 139.93 97.796 143.879 95.9234C149.159 93.42 154.029 90.0265 158.318 85.8811C160.639 83.6376 165.503 79.9141 166.649 77.4745C167.41 75.8538 166.356 76.4988 163.802 76.9007L172.412 72.7541L172.41 72.7519Z" fill="#A4C026"/>
<path d="M168.207 79.1382C168.207 79.1382 151.367 92.0584 135.57 94.3457" stroke="black" stroke-width="0.652043" stroke-linecap="round" stroke-linejoin="round"/>
<path d="M155.955 91.4257C155.955 91.4257 141.654 99.0647 127.691 102.195" stroke="black" stroke-width="0.652043" stroke-linecap="round" stroke-linejoin="round"/>
<path d="M8.38654 25.9154C8.38654 25.9154 12.6075 29.8785 19.5777 33.0571C30.2203 37.9111 64.5318 48.4876 70.9572 60.8608C71.1831 61.2984 71.3857 61.7299 71.5588 62.1607C73.4658 64.8395 74.3814 67.8812 73.9583 70.9332C73.0417 77.4808 66.2365 82.0235 57.7714 82.3821C57.761 82.3847 57.754 82.3864 57.7435 82.389C52.036 83.0149 41.5008 83.0907 30.9846 77.5229C25.933 74.8459 22.0026 72.1372 18.8538 69.3384C8.13292 58.1978 9.47615 54.3468 9.47615 54.3468C0.745504 42.3604 3.77646 40.1807 3.77646 40.1807C4.86168 39.6724 6.69789 43.0672 16.4857 49.3512C17.2269 49.8275 12.6032 47.1752 8.94002 42.7117C4.71993 37.5686 1.59133 28.9088 2.83689 26.455L8.89122 30.0923C7.84693 27.548 8.38815 25.9229 8.38815 25.9229L8.38654 25.9154Z" fill="#DAED28" stroke="black" stroke-width="0.652043" stroke-linejoin="round"/>
<path d="M16.6305 49.7315C16.5747 49.7453 16.4813 49.721 16.3555 49.6652L16.3439 49.6799C16.3439 49.6799 16.3182 49.6626 16.2924 49.6452C16.2752 49.6337 16.2581 49.6221 16.2409 49.6106C15.931 49.4502 15.4889 49.1527 15.0498 48.8348C10.3971 45.7556 7.73483 43.4446 6.09496 42.0139C4.94351 41.0114 4.23434 40.3931 3.90791 40.4814C3.84237 40.5528 3.64949 40.8017 3.58115 41.3749C3.41478 42.7773 3.98838 46.2979 9.70005 54.1354C9.72712 54.1761 9.74721 54.2185 9.75684 54.2635C9.77048 54.3272 9.76667 54.3952 9.75079 54.4583C9.73976 54.4926 8.72799 58.3646 19.0299 69.0756C22.3062 71.9891 26.2522 74.6506 31.1006 77.2198C35.1772 79.3755 39.262 80.6769 43.0586 81.4219C40.2139 80.387 33.8882 76.7693 32.0146 73.4745C30.141 70.1797 36.0779 70.1445 36.0779 70.1445C36.0779 70.1445 20.5172 62.8253 22.8443 56.585C23.2966 55.3686 27.0665 55.6111 26.7166 55.212C23.6396 51.7365 16.2487 43.4172 23.0764 42.2745C22.4581 42.2178 19.9871 40.9723 16.6961 36.6854C15.234 34.7808 14.3989 31.7035 14.3492 30.6819C11.4093 28.8931 9.39433 27.255 8.56607 26.5437C8.50091 27.1833 8.51182 28.3842 9.15559 29.9499C9.20971 30.0825 9.17737 30.2404 9.07746 30.3401C8.97405 30.4405 8.82697 30.4571 8.70491 30.3846L2.96607 26.9339C2.22525 29.5316 5.01543 37.4343 9.15212 42.4796C11.533 45.3809 14.3015 47.4843 15.72 48.4644C16.0111 48.6571 16.3142 48.8546 16.6208 49.0513C16.723 49.1168 16.8767 49.217 16.8511 49.4404C16.8357 49.5744 16.7494 49.6864 16.6332 49.7269L16.6305 49.7315Z" fill="#FD5D0C"/>
<path d="M9.47324 54.3415C9.47324 54.3415 16.4747 63.7078 36.1738 70.125" stroke="black" stroke-width="0.652043" stroke-linecap="round" stroke-linejoin="round"/>
<path d="M67.9701 127.724C67.9701 127.724 67.4979 123.213 71.845 121.741C76.1921 120.269 78.7472 123.009 78.7472 123.009C78.7472 123.009 72.8395 126.356 70.4283 126.201C68.017 126.051 67.9701 127.721 67.9701 127.721V127.724Z" fill="#FDBA05" stroke="black" stroke-width="0.652043" stroke-linejoin="round"/>
<path d="M85.8892 113.504C85.8892 113.504 85.1792 121.867 78.302 122.095C71.4248 122.323 71.6374 129.242 71.6374 129.242C71.6374 129.242 73.4107 126.579 81.2825 126.123C89.1542 125.667 89.7202 125.362 90.7148 126.351C91.7093 127.34 91.5905 128.175 91.5905 128.175C91.5905 128.175 93.4575 124.044 90.2894 122.119C87.1214 120.194 85.6796 122.575 85.6796 122.575C85.6796 122.575 87.8782 119.61 88.9165 115.958C89.9548 112.306 89.7671 111.854 89.7671 111.854L85.8923 113.5L85.8892 113.504Z" fill="#FDBA05" stroke="black" stroke-width="0.652043" stroke-linejoin="round"/>
<path d="M83.9949 131.728C83.9949 131.728 83.0504 126.711 87.3975 125.849C91.7478 124.987 95.0097 125.088 95.0097 125.088L89.7619 130.054C89.7619 130.054 87.0191 129.394 85.7431 130.205C84.4671 131.017 83.9949 131.724 83.9949 131.724V131.728Z" fill="#FDBA05" stroke="black" stroke-width="0.652043" stroke-linejoin="round"/>
<path d="M100.07 117.381C100.023 117.636 100.07 123.159 95.6725 124.682C91.2753 126.201 88.5826 127.978 87.9665 130.561C87.3504 133.143 87.8727 135.021 87.8727 135.021C87.8727 135.021 90.237 131.168 93.7335 130.406C97.2331 129.645 102.669 129.239 103.945 129.645C105.221 130.051 106.922 132.026 106.922 132.026C106.922 132.026 108.717 127.06 105.267 125.943C101.818 124.826 100.539 126.144 100.539 126.144C100.539 126.144 102.712 122.495 103.138 119.454L103.563 116.412L100.063 117.375L100.07 117.381Z" fill="#FDBA05" stroke="black" stroke-width="0.652043" stroke-linejoin="round"/>
<path d="M87.5069 116.316C92.148 116.316 95.9103 107.924 95.9103 97.573C95.9103 87.2216 92.148 78.8301 87.5069 78.8301C82.8658 78.8301 79.1035 87.2216 79.1035 97.573C79.1035 107.924 82.8658 116.316 87.5069 116.316Z" fill="#DAED28" stroke="black" stroke-width="0.652043" stroke-linejoin="round"/>
<path d="M98.8532 37.8855L97.3645 35.1456L97.1519 42.9024L95.8758 41.078C95.8758 41.078 95.216 42.0539 96.9486 48.3183C96.861 48.3753 99.4692 55.8839 99.3848 55.9409C96.9485 57.621 91.1691 53.2748 88.6953 55.9644C86.2215 58.6505 84.3544 60.9209 84.3513 60.9209C84.3513 60.9209 83.7602 64.1604 81.621 67.078C80.2043 69.0197 77.6148 69.9318 77.6148 69.9318C78.2402 68.7782 78.381 65.4146 78.3935 65.0558C78.3528 65.361 77.9619 67.8996 75.7008 70.8943C73.9932 73.1579 71.5444 74.885 70.8783 74.4457C70.6907 74.3216 69.3208 70.0458 69.3208 70.0458C69.3208 70.0458 68.9705 72.7521 68.7766 72.5945C64.2982 68.9526 64.6891 63.9491 64.6891 63.9491C63.8353 67.0679 63.8729 67.3462 63.8729 67.3462C63.2286 66.0954 62.4342 64.1034 62.5624 61.6922C62.6656 59.7438 63.2849 59.0463 63.0159 58.4326C63.4632 56.1689 63.951 54.3211 64.2513 53.087C64.5921 51.6819 65.1144 49.9615 65.6555 48.1003C57.3928 44.4148 51.582 35.6789 51.582 25.4841C51.582 11.9593 61.8025 1 74.4154 1C76.4295 1 78.381 1.27834 80.2418 1.8082C81.1456 2.05972 82.0245 2.37495 82.8814 2.74048L77.7055 3.76666C78.2653 3.68282 83.535 3.05236 89.9243 7.51256C90.1339 7.72048 90.3434 7.93845 90.5498 8.15643L88.542 8.6427C88.542 8.6427 92.9736 10.7688 95.4912 16.2854L92.7265 14.726C92.7265 14.726 94.9658 17.2277 96.7453 22.4156C96.7828 22.533 96.8235 22.6437 96.861 22.7577C96.9173 22.9254 96.9736 23.0931 97.0236 23.2674C97.0862 23.4519 97.1393 23.643 97.1987 23.8342C98.2589 27.4191 99.0439 32.0872 98.8594 37.8821L98.8532 37.8855Z" fill="#DAED28" stroke="black" stroke-width="0.652043" stroke-linejoin="round"/>
<path d="M93.7959 109.458C92.3041 113.469 90.0774 116.018 87.5879 116.018C86.3026 116.018 85.0829 115.337 84.0039 114.123C84.6169 114.21 85.3675 114.264 86.2744 114.264C91.025 114.264 91.3096 109.17 91.3096 109.17L93.7959 109.458Z" fill="#A4C026"/>
<path d="M105.659 111.413C105.659 111.413 100.552 117.798 85.2366 108.066C76.5768 102.563 70.7941 93.8032 67.4071 87.2303C66.0748 84.9599 64.9396 82.2704 63.87 79.1684C63.698 78.6788 63.6105 78.4105 63.6105 78.4105C61.1804 71.1836 61.9748 63.6919 63.01 58.4369C63.2789 59.0472 62.6597 59.7481 62.5565 61.6965C62.4283 64.1043 63.2226 66.0997 63.8669 67.3506C63.8669 67.3506 63.8294 67.0722 64.6831 63.9534C64.6831 63.9534 64.2954 68.9569 68.7707 72.5988C68.9646 72.7564 69.3149 70.0501 69.3149 70.0501C69.3149 70.0501 70.6878 74.3225 70.8723 74.45C71.5385 74.8893 73.9872 73.1622 75.6948 70.8986C77.9591 67.9072 78.3469 65.3686 78.3876 65.0601C78.3751 65.4189 78.2343 68.7825 77.6088 69.9361C77.6088 69.9361 80.1983 69.024 81.6151 67.0823C83.7542 64.1647 84.3453 60.9252 84.3453 60.9252C84.3453 60.9252 85.5118 57.9238 87.9856 55.2376C90.4594 52.5481 98.7471 53.9331 99.6134 56.4549C101.215 59.2887 109.24 73.1656 111.041 82.8271C115.404 106.221 105.652 111.416 105.652 111.416L105.659 111.413Z" fill="#A2E1A1" stroke="black" stroke-width="0.652043" stroke-linejoin="round"/>
<path d="M105.789 111.059C105.789 111.059 100.685 117.448 85.3666 107.716C76.7223 102.223 70.9429 93.4801 67.5527 86.9071C70.4675 91.8536 74.3611 94.7846 80.7567 95.5458C90.3298 96.686 98.974 54.6864 98.9302 54.5623C100.525 57.3827 109.376 72.8022 111.177 82.4671C115.54 105.861 105.786 111.056 105.786 111.056L105.789 111.059Z" fill="#85BC84"/>
<path d="M93.5925 26.0852V26.1858C93.5925 39.2612 83.7067 49.8583 71.516 49.8583C66.2025 49.8583 61.3299 47.8462 57.5176 44.4927C57.5645 44.4558 57.6146 44.4223 57.6615 44.3854C66.6028 37.846 67.8193 31.6319 67.835 28.7847C67.6723 27.9128 67.5911 27.0107 67.5911 26.0852C67.5911 18.3855 73.4112 12.1445 80.5918 12.1445C87.7724 12.1445 93.0765 17.8489 93.555 25.0724C93.5706 25.2736 93.58 25.4782 93.5863 25.6827C93.5863 25.8169 93.5925 25.951 93.5925 26.0852Z" fill="#F3EBE4" stroke="black" stroke-width="0.652043" stroke-linejoin="round"/>
<path d="M79.4543 36.0879C83.5569 35.5337 86.4348 31.2724 85.8824 26.57C85.33 21.8677 81.5563 18.5049 77.4537 19.0591C73.3512 19.6133 70.4732 23.8746 71.0257 28.5769C71.5781 33.2793 75.3517 36.6421 79.4543 36.0879Z" fill="white" stroke="black" stroke-width="0.652043" stroke-linejoin="round"/>
<path d="M80.2181 32.9239C83.5717 32.4708 85.9194 28.9455 85.4617 25.0498C85.0041 21.1542 81.9144 18.3634 78.5607 18.8164C75.207 19.2694 72.8593 22.7947 73.317 26.6904C73.7746 30.5861 76.8644 33.3769 80.2181 32.9239Z" fill="black"/>
<path d="M77.8362 24.7193C79.0255 24.5586 79.8687 23.399 79.7195 22.1293C79.5703 20.8595 78.4853 19.9604 77.296 20.121C76.1067 20.2817 75.2635 21.4413 75.4127 22.711C75.5619 23.9808 76.6469 24.8799 77.8362 24.7193Z" fill="white"/>
<path d="M110.682 102.322C111.436 92.0026 108.425 83.3324 103.956 82.957C99.4878 82.5816 95.2541 90.6431 94.5001 100.963C93.746 111.283 96.7572 119.953 101.226 120.328C105.694 120.704 109.928 112.642 110.682 102.322Z" fill="#DAED28" stroke="black" stroke-width="0.652043" stroke-linejoin="round"/>
<path d="M110.557 102.162C110.557 102.229 110.551 102.293 110.544 102.36C110.185 107.31 109.009 111.887 107.242 115.251C105.512 118.544 103.433 120.261 101.387 120.09C99.0981 119.899 97.206 117.4 96.0488 113.584C96.4992 114.56 98.3788 117.913 102.573 116.938C108.79 115.489 110.548 102.148 110.548 102.148L110.554 102.162H110.557Z" fill="#A4C026"/>
<path d="M154.848 85.8303C154.848 85.8303 149.378 84.5029 142.88 80.3291C132.957 73.9565 104.786 50.4244 91.6838 52.1377C91.2212 52.1994 90.777 52.2778 90.3506 52.3814C87.2101 52.3048 84.3803 53.3018 82.331 55.4661C77.9398 60.117 78.5263 68.6948 83.2412 76.2483C83.2455 76.2589 83.2483 76.2659 83.2525 76.2765C86.1423 81.5956 92.2893 90.7782 102.675 96.6207C107.666 99.4258 112.021 101.24 115.983 102.323C130.686 105.061 132.795 101.628 132.795 101.628C146.963 102.142 146.82 98.2296 146.82 98.2296C146.564 96.989 142.926 97.3955 132.429 92.6065C131.634 92.2441 136.354 94.6926 141.873 95.2414C148.232 95.873 156.596 93.487 157.71 90.9616L151.405 87.8522C153.937 87.2597 154.842 85.8333 154.842 85.8333L154.848 85.8303Z" fill="#DAED28" stroke="black" stroke-width="0.652043" stroke-linejoin="round"/>
<path d="M132.056 92.7077C132.079 92.7643 132.152 92.8309 132.268 92.9072L132.264 92.9259C132.264 92.9259 132.292 92.938 132.32 92.9502C132.339 92.9583 132.358 92.9663 132.377 92.9744C132.68 93.1488 133.164 93.357 133.662 93.5507C138.721 95.773 142.029 96.7212 144.072 97.3011C145.505 97.7094 146.389 97.9604 146.514 98.2956C146.499 98.3945 146.425 98.7083 146.034 99.1051C145.076 100.075 142.087 101.651 132.821 101.312C132.774 101.313 132.73 101.32 132.691 101.339C132.635 101.364 132.586 101.408 132.548 101.459C132.528 101.488 130.208 104.646 116.075 102.018C111.952 100.892 107.624 99.0368 102.833 96.3444C98.8093 94.078 95.4238 91.3015 92.627 88.4471C95.0816 90.305 101.531 93.6613 105.116 93.3461C108.7 93.0309 105.231 87.8608 105.231 87.8608C105.231 87.8608 119.906 97.0474 123.235 91.3541C123.885 90.2454 121.482 87.1183 121.989 87.1869C126.418 87.8089 137.036 89.3204 133.876 82.7254C134.283 83.2283 136.676 84.6381 141.842 84.9681C144.138 85.1147 146.947 84.0268 147.746 83.4683C150.824 84.9649 153.244 85.7479 154.268 86.0474C153.824 86.4806 152.914 87.1783 151.355 87.542C151.224 87.5731 151.124 87.6942 151.107 87.8395C151.093 87.9884 151.167 88.1257 151.293 88.1888L157.272 91.1345C155.752 93.3068 148.157 95.5405 141.921 94.9236C138.334 94.5671 135.12 93.4045 133.546 92.7513C133.23 92.6123 132.903 92.4657 132.574 92.3155C132.464 92.2655 132.298 92.1912 132.145 92.345C132.054 92.4373 132.02 92.578 132.058 92.7027L132.056 92.7077Z" fill="#FD5D0C"/>
<path d="M132.802 101.624C132.802 101.624 121.625 101.067 105.191 87.7598" stroke="black" stroke-width="0.652043" stroke-linecap="round" stroke-linejoin="round"/>
<path d="M134.188 93.346C134.188 93.346 127.667 90.6533 121.746 87.1758" stroke="black" stroke-width="0.652043" stroke-linecap="round" stroke-linejoin="round"/>
<path d="M151.902 87.7166C151.902 87.7166 149.184 88.6622 144.492 86.5977" stroke="black" stroke-width="0.652043" stroke-linecap="round" stroke-linejoin="round"/>
<path d="M63.009 58.4258C63.009 58.4258 62.6087 59.6935 62.5586 61.6955C62.4711 65.3442 63.869 67.3462 63.869 67.3462C63.869 67.3462 63.8346 67.0679 64.6853 63.9491C64.6853 63.9491 64.2975 68.9526 68.776 72.5911C68.973 72.7488 69.3202 70.0425 69.3202 70.0425C69.3202 70.0425 70.6931 74.3149 70.8808 74.4389C71.5469 74.8816 73.9957 73.1545 75.7032 70.8909C78.1145 67.6984 78.3991 65.0222 78.3991 65.0222C78.3991 65.0222 78.2802 68.7111 77.6204 69.9251C77.6204 69.9251 80.2099 69.0129 81.6266 67.0746C83.7626 64.1537 84.3568 60.9142 84.3568 60.9142" stroke="black" stroke-width="0.652043" stroke-linecap="round" stroke-linejoin="round"/>
<path d="M70.0343 39.0561C69.315 43.59 65.8654 47.1213 61.9436 47.517C58.444 45.7564 56.0234 43.1306 56.0234 43.1306L67.6387 30.461C69.5683 32.6307 70.5535 35.783 70.0343 39.0561Z" fill="#FD5D0C" stroke="black" stroke-width="0.652043" stroke-linejoin="round"/>
<path d="M56.0885 43.227C56.0885 43.227 59.8075 43.6864 62.5959 40.1937C65.3844 36.701 66.6019 33.8008 66.6019 33.8008L52.2988 36.2935L56.0885 43.227Z" fill="black"/>
<path d="M66.0174 33.3389C66.0174 33.3389 65.1978 34.7068 62.7256 36.1247C60.9506 37.1463 58.1773 36.6242 56.6602 36.3868C53.3244 35.2317 49.5811 36.7172 47.8055 40.1278C47.304 41.0909 47.0068 42.1228 46.8985 43.1565C44.1717 37.8797 43.9771 31.2555 46.9202 25.6024C49.1364 21.3458 52.4362 18.6685 56.3274 17.4907C58.9225 16.7035 61.6886 17.6937 63.2961 20.0214C67.6978 26.4024 66.0189 33.336 66.0189 33.336L66.0174 33.3389Z" fill="#FD5D0C" stroke="black" stroke-width="0.652043" stroke-linejoin="round"/>
<path d="M46.2944 41.0815C44.3767 36.1016 44.6643 30.4849 47.1563 25.6983C49.2474 21.6817 52.4413 18.9256 56.3964 17.7284C57.8641 17.2832 59.3714 17.4226 60.6728 18.0608C59.188 18.0502 55.5686 18.4652 51.8609 22.2424C47.8432 26.3331 44.5133 32.6877 46.2987 41.0802L46.2944 41.0815Z" fill="#F3EBE4"/>
<path d="M68.625 42.377C67.2083 45.0363 64.7407 46.9176 61.9823 47.2262C59.1677 45.7942 57.1661 43.8894 56.5312 43.2489L56.7001 43.2556L57.2693 43.212C57.2693 43.212 59.4616 45.8814 63.0081 45.5997C65.6508 45.3918 67.8119 43.3562 68.625 42.377Z" fill="#F3EBE4"/>
</svg>
