<svg width="142" height="142" viewBox="0 0 142 142" fill="none" xmlns="http://www.w3.org/2000/svg">
<path d="M28.4004 25.8694C28.4004 24.0058 29.9111 22.4951 31.7746 22.4951H108.258C110.121 22.4951 111.632 24.0058 111.632 25.8694V119.505C111.632 121.369 110.121 122.879 108.258 122.879H31.7746C29.9111 122.879 28.4004 121.369 28.4004 119.505V25.8694Z" fill="#7676E8"/>
<path d="M36.2734 34.0161C36.2734 32.1526 37.7841 30.6418 39.6477 30.6418H100.947C102.81 30.6418 104.321 32.1526 104.321 34.0161V112.468C104.321 114.331 102.81 115.842 100.947 115.842H39.6477C37.7841 115.842 36.2734 114.331 36.2734 112.468V34.0161Z" fill="#7FDACE"/>
<path d="M43.584 33.7444C43.584 31.8809 45.0947 30.3702 46.9582 30.3702H100.946C102.81 30.3702 104.321 31.8809 104.321 33.7444V103.76C104.321 105.624 102.81 107.135 100.946 107.135H46.9582C45.0947 107.135 43.584 105.624 43.584 103.76V33.7444Z" fill="#F5F5F5"/>
<path d="M87.131 58.7672C87.131 67.9297 79.6007 75.3573 70.3116 75.3573C61.0225 75.3573 53.4922 67.9297 53.4922 58.7672C53.4922 49.6048 61.0225 42.1771 70.3116 42.1771C79.6007 42.1771 87.131 49.6048 87.131 58.7672Z" fill="#FDBA05"/>
<path fill-rule="evenodd" clip-rule="evenodd" d="M86.4082 48.4941C89.74 54.04 90.2623 60.8993 88.8241 64.9607C86.5855 71.2828 80.395 77.1413 72.2492 77.8779C65.3313 78.5033 60.616 75.6917 57.2311 72.6903C55.6564 71.2939 53.9384 68.8522 52.7346 65.9824C51.5252 63.0992 50.7604 59.6067 51.3061 56.1085C52.1093 50.9603 54.7147 46.64 57.2734 44.5197C57.9824 43.932 59.0244 44.0419 59.6006 44.765C60.1768 45.4881 60.0691 46.5507 59.36 47.1383C57.507 48.6739 55.2645 52.2109 54.5738 56.6386C54.1545 59.3264 54.7303 62.1607 55.7767 64.6553C56.8287 67.1632 58.2815 69.1502 59.4022 70.144C62.3592 72.766 66.2188 75.0356 71.957 74.5168C78.7005 73.9071 83.8683 69.0216 85.7121 63.8146C86.7667 60.8363 86.4618 55.0422 83.5869 50.2569C80.8183 45.6484 75.6483 41.9575 66.779 43.0061C65.8714 43.1134 65.0504 42.4501 64.9451 41.5245C64.8399 40.5989 65.4904 39.7616 66.398 39.6543C76.5539 38.4535 82.9702 42.7714 86.4082 48.4941Z" fill="#222B3B"/>
<path fill-rule="evenodd" clip-rule="evenodd" d="M65.9349 61.9002C66.7693 61.9002 67.4457 61.9002 67.4457 61.9002V66.815C67.4457 67.6375 68.1221 68.3044 68.9565 68.3044H71.9781C72.8125 68.3044 73.4889 67.6375 73.4889 66.815V61.9002C73.4889 61.9002 74.1653 61.9002 74.9997 61.9002H78.4745C79.3089 61.9002 79.9853 61.2334 79.9853 60.4109V57.4321C79.9853 56.6096 79.3089 55.9428 78.4745 55.9428H73.4889C73.4889 55.9428 73.4889 55.276 73.4889 54.4534V51.0278C73.4889 50.2052 72.8125 49.5384 71.9781 49.5384H68.9565C68.1221 49.5384 67.4457 50.2052 67.4457 51.0278V54.4534C67.4457 55.276 67.4457 55.9428 67.4457 55.9428H62.46C61.6256 55.9428 60.9492 56.6096 60.9492 57.4321V60.4109C60.9492 61.2334 61.6256 61.9002 62.46 61.9002H65.9349Z" fill="#FE5D0C"/>
<path fill-rule="evenodd" clip-rule="evenodd" d="M65.8637 50.2593C65.8637 48.57 67.2417 47.2744 68.8506 47.2744H72.1693C73.7782 47.2744 75.1561 48.57 75.1561 50.2593V54.3028H79.3045C80.9134 54.3028 82.2913 55.5985 82.2913 57.2878V60.5568C82.2913 62.2461 80.9134 63.5418 79.3045 63.5418H75.1561V67.5851C75.1561 69.2744 73.7782 70.57 72.1693 70.57H68.8506C67.2417 70.57 65.8637 69.2744 65.8637 67.5851V63.5418H61.7154C60.1065 63.5418 58.7285 62.2461 58.7285 60.5568V57.2878C58.7285 55.5985 60.1065 54.3028 61.7154 54.3028H65.8637V50.2593ZM68.8506 49.9753C68.6266 49.9753 68.5187 50.1432 68.5187 50.2593V57.0038H61.7154C61.4914 57.0038 61.3835 57.1717 61.3835 57.2878V60.5568C61.3835 60.673 61.4914 60.8409 61.7154 60.8409H68.5187V67.5851C68.5187 67.7012 68.6266 67.8691 68.8506 67.8691H72.1693C72.3933 67.8691 72.5012 67.7012 72.5012 67.5851V60.8409H79.3045C79.5285 60.8409 79.6364 60.673 79.6364 60.5568V57.2878C79.6364 57.1717 79.5285 57.0038 79.3045 57.0038H72.5012V50.2593C72.5012 50.1432 72.3933 49.9753 72.1693 49.9753H68.8506Z" fill="#222B3B"/>
<path fill-rule="evenodd" clip-rule="evenodd" d="M31.7739 19.6802H108.257C111.984 19.6802 115.006 22.7016 115.006 26.4287V119.502C115.006 123.229 111.984 126.25 108.257 126.25H31.7739C28.0468 126.25 25.0254 123.229 25.0254 119.502V26.4287C25.0254 22.7016 28.0468 19.6802 31.7739 19.6802ZM31.7739 23.0544C29.9104 23.0544 28.3996 24.5651 28.3996 26.4287V119.502C28.3996 121.366 29.9104 122.876 31.7739 122.876H108.257C110.121 122.876 111.631 121.366 111.631 119.502V26.4287C111.631 24.5651 110.121 23.0544 108.257 23.0544H31.7739Z" fill="#222B3B"/>
<path d="M84.4326 14.3408H57.545C53.1574 14.3408 49.5205 17.8961 49.2262 22.4729C48.8983 27.5727 52.8184 31.8717 57.7063 31.7728L84.5889 31.2288C88.9882 31.1398 92.51 27.3859 92.51 22.7856C92.51 18.1217 88.8936 14.3408 84.4326 14.3408Z" fill="#F5F5F5"/>
<path d="M47.526 29.1951L47.5215 24.941C47.5261 17.3896 50.2737 15.1759 58.1429 15.1823C56.2716 15.2905 54.0392 18.2313 54.0486 19.9424C54.0753 24.8583 59.9908 24.07 63.54 24.0714L85.7275 24.0639C87.1144 24.0628 91.3868 24.0397 91.3868 24.0397V29.1951C90.1361 29.1934 87.1833 28.7994 86.322 29.8041C85.8508 29.6376 80.2632 29.8002 79.3592 29.8041C78.0625 28.8557 77.7654 29.1837 76.2091 29.1862L47.526 29.1951Z" fill="#7FDACE"/>
<path fill-rule="evenodd" clip-rule="evenodd" d="M58.4895 15.1832C53.52 15.1832 49.4914 19.2117 49.4914 24.1812V29.6044C49.4914 30.5362 48.7361 31.2916 47.8043 31.2916C46.8725 31.2916 46.1172 30.5362 46.1172 29.6044V24.1812C46.1172 17.3481 51.6564 11.8089 58.4895 11.8089H81.8281C88.6611 11.8089 94.2004 17.3482 94.2004 24.1812V29.9455C94.2004 30.8773 93.445 31.6327 92.5132 31.6327C91.5815 31.6327 90.8261 30.8773 90.8261 29.9455V24.1812C90.8261 19.2117 86.7976 15.1832 81.8281 15.1832H58.4895Z" fill="#222B3B"/>
<path fill-rule="evenodd" clip-rule="evenodd" d="M39.6473 117.535C36.852 117.535 34.5859 115.269 34.5859 112.474L34.5859 34.0225C34.5859 31.2271 36.852 28.9611 39.6473 28.9611L79.2802 28.9611C80.212 28.9611 80.9674 29.7164 80.9674 30.6482C80.9674 31.58 80.212 32.3353 79.2802 32.3353L39.6473 32.3353C38.7155 32.3353 37.9602 33.0907 37.9602 34.0225L37.9602 112.474C37.9602 113.406 38.7155 114.161 39.6473 114.161L100.946 114.161C101.878 114.161 102.633 113.406 102.633 112.474L102.633 99.1786C102.633 98.2469 103.389 97.4915 104.321 97.4915C105.252 97.4915 106.008 98.2469 106.008 99.1786L106.008 112.474C106.008 115.269 103.742 117.535 100.946 117.535L39.6473 117.535Z" fill="#222B3B"/>
<path fill-rule="evenodd" clip-rule="evenodd" d="M86.1816 30.5065C86.1816 29.5747 86.937 28.8193 87.8688 28.8193H100.803C103.599 28.8193 105.865 31.0854 105.865 33.8807V87.5877C105.865 88.5194 105.109 89.2748 104.178 89.2748C103.246 89.2748 102.491 88.5194 102.491 87.5877V33.8807C102.491 32.9489 101.735 32.1936 100.803 32.1936H87.8688C86.937 32.1936 86.1816 31.4382 86.1816 30.5065Z" fill="#222B3B"/>
<path fill-rule="evenodd" clip-rule="evenodd" d="M53.4277 86.8884C53.4277 85.9566 54.1831 85.2012 55.1149 85.2012H88.2951C89.2268 85.2012 89.9822 85.9566 89.9822 86.8884C89.9822 87.8201 89.2268 88.5755 88.2951 88.5755H55.1149C54.1831 88.5755 53.4277 87.8201 53.4277 86.8884Z" fill="#222B3B"/>
<path fill-rule="evenodd" clip-rule="evenodd" d="M53.4277 93.6389C53.4277 92.7071 54.1831 91.9518 55.1149 91.9518H88.2951C89.2268 91.9518 89.9822 92.7071 89.9822 93.6389C89.9822 94.5707 89.2268 95.326 88.2951 95.326H55.1149C54.1831 95.326 53.4277 94.5707 53.4277 93.6389Z" fill="#222B3B"/>
<path fill-rule="evenodd" clip-rule="evenodd" d="M53.4277 100.39C53.4277 99.4577 54.1831 98.7024 55.1149 98.7024H88.2951C89.2268 98.7024 89.9822 99.4577 89.9822 100.39C89.9822 101.321 89.2268 102.077 88.2951 102.077H55.1149C54.1831 102.077 53.4277 101.321 53.4277 100.39Z" fill="#222B3B"/>
</svg>
