<svg width="80" height="80" viewBox="0 0 80 80" fill="none" xmlns="http://www.w3.org/2000/svg">
<path d="M16.1191 14.6828C16.1191 13.625 16.9766 12.7676 18.0343 12.7676H61.4455C62.5032 12.7676 63.3607 13.625 63.3607 14.6828V67.8295C63.3607 68.8872 62.5032 69.7447 61.4455 69.7447H18.0343C16.9766 69.7447 16.1191 68.8872 16.1191 67.8295V14.6828Z" fill="#7676E8"/>
<path d="M20.5879 19.3058C20.5879 18.2481 21.4454 17.3906 22.5031 17.3906H57.2958C58.3536 17.3906 59.211 18.2481 59.211 19.3058V63.8342C59.211 64.8919 58.3536 65.7494 57.2958 65.7494H22.5031C21.4454 65.7494 20.5879 64.8919 20.5879 63.8342V19.3058Z" fill="#7FDACE"/>
<path d="M24.7383 19.1515C24.7383 18.0938 25.5957 17.2363 26.6535 17.2363H57.2966C58.3544 17.2363 59.2118 18.0938 59.2118 19.1515V58.8919C59.2118 59.9496 58.3544 60.8071 57.2966 60.8071H26.6535C25.5957 60.8071 24.7383 59.9496 24.7383 58.8919V19.1515Z" fill="#F5F5F5"/>
<path d="M49.0882 33.1063C49.0882 38.2683 44.8457 42.4528 39.6124 42.4528C34.3791 42.4528 30.1367 38.2683 30.1367 33.1063C30.1367 27.9444 34.3791 23.7598 39.6124 23.7598C44.8457 23.7598 49.0882 27.9444 49.0882 33.1063Z" fill="#FDBA05"/>
<path fill-rule="evenodd" clip-rule="evenodd" d="M48.6795 27.3186C50.5566 30.443 50.8508 34.3074 50.0406 36.5955C48.7794 40.1573 45.2918 43.4579 40.7026 43.8728C36.8052 44.2252 34.1487 42.6412 32.2417 40.9503C31.3546 40.1636 30.3866 38.7879 29.7085 37.1711C29.0271 35.5468 28.5962 33.5792 28.9037 31.6084C29.3562 28.708 30.824 26.274 32.2655 25.0795C32.665 24.7484 33.252 24.8103 33.5766 25.2177C33.9012 25.6251 33.8405 26.2237 33.4411 26.5548C32.3971 27.4199 31.1338 29.4126 30.7446 31.9071C30.5084 33.4213 30.8328 35.0181 31.4223 36.4235C32.015 37.8364 32.8335 38.9559 33.4648 39.5157C35.1307 40.9929 37.3052 42.2716 40.538 41.9793C44.3371 41.6358 47.2486 38.8834 48.2873 35.9499C48.8815 34.272 48.7097 31.0077 47.09 28.3117C45.5302 25.7154 42.6176 23.636 37.6208 24.2268C37.1095 24.2872 36.6469 23.9135 36.5876 23.3921C36.5283 22.8706 36.8948 22.3989 37.4061 22.3384C43.1278 21.6619 46.7426 24.0945 48.6795 27.3186Z" fill="#222B3B"/>
<path fill-rule="evenodd" clip-rule="evenodd" d="M37.1448 34.8707C37.6148 34.8707 37.9959 34.8707 37.9959 34.8707V37.6395C37.9959 38.103 38.377 38.4786 38.8471 38.4786H40.5494C41.0195 38.4786 41.4005 38.103 41.4005 37.6395V34.8707C41.4005 34.8707 41.7816 34.8707 42.2517 34.8707H44.2094C44.6794 34.8707 45.0605 34.495 45.0605 34.0316V32.3534C45.0605 31.89 44.6794 31.5144 44.2094 31.5144H41.4005C41.4005 31.5144 41.4005 31.1387 41.4005 30.6753V28.7453C41.4005 28.2819 41.0195 27.9062 40.5494 27.9062H38.8471C38.377 27.9062 37.9959 28.2819 37.9959 28.7453V30.6753C37.9959 31.1387 37.9959 31.5144 37.9959 31.5144H35.1871C34.717 31.5144 34.3359 31.89 34.3359 32.3534V34.0316C34.3359 34.495 34.717 34.8707 35.1871 34.8707H37.1448Z" fill="#FE5D0C"/>
<path fill-rule="evenodd" clip-rule="evenodd" d="M37.1058 28.3125C37.1058 27.3608 37.8821 26.6309 38.7885 26.6309H40.6582C41.5646 26.6309 42.3409 27.3608 42.3409 28.3125V30.5906H44.678C45.5845 30.5906 46.3608 31.3205 46.3608 32.2723V34.1139C46.3608 35.0657 45.5845 35.7956 44.678 35.7956H42.3409V38.0735C42.3409 39.0252 41.5646 39.7552 40.6582 39.7552H38.7885C37.8821 39.7552 37.1058 39.0252 37.1058 38.0735V35.7956H34.7687C33.8622 35.7956 33.0859 35.0657 33.0859 34.1139V32.2723C33.0859 31.3205 33.8622 30.5906 34.7687 30.5906H37.1058V28.3125ZM38.7885 28.1525C38.6623 28.1525 38.6015 28.2471 38.6015 28.3125V32.1122H34.7687C34.6425 32.1122 34.5817 32.2068 34.5817 32.2723V34.1139C34.5817 34.1794 34.6425 34.274 34.7687 34.274H38.6015V38.0735C38.6015 38.1389 38.6623 38.2335 38.7885 38.2335H40.6582C40.7844 38.2335 40.8452 38.1389 40.8452 38.0735V34.274H44.678C44.8042 34.274 44.865 34.1794 44.865 34.1139V32.2723C44.865 32.2068 44.8042 32.1122 44.678 32.1122H40.8452V28.3125C40.8452 28.2471 40.7844 28.1525 40.6582 28.1525H38.7885Z" fill="#222B3B"/>
<path fill-rule="evenodd" clip-rule="evenodd" d="M18.0335 11.1699H61.4446C63.5601 11.1699 65.275 12.8848 65.275 15.0003V67.8278C65.275 69.9433 63.5601 71.6582 61.4446 71.6582H18.0335C15.918 71.6582 14.2031 69.9433 14.2031 67.8278V15.0003C14.2031 12.8848 15.9181 11.1699 18.0335 11.1699ZM18.0335 13.0851C16.9758 13.0851 16.1183 13.9426 16.1183 15.0003V67.8278C16.1183 68.8856 16.9758 69.743 18.0335 69.743H61.4446C62.5024 69.743 63.3598 68.8856 63.3598 67.8278V15.0003C63.3598 13.9426 62.5024 13.0851 61.4446 13.0851H18.0335Z" fill="#222B3B"/>
<path d="M47.9215 8.13843H32.6603C30.1699 8.13843 28.1057 10.1564 27.9386 12.7541C27.7525 15.6487 29.9775 18.0888 32.7519 18.0327L48.0102 17.7239C50.5072 17.6734 52.5061 15.5427 52.5061 12.9316C52.5061 10.2844 50.4535 8.13843 47.9215 8.13843Z" fill="#F5F5F5"/>
<path d="M26.7741 16.4453L26.7715 14.0486C26.7741 9.79434 28.322 8.54717 32.7554 8.55079C31.7011 8.61174 30.4434 10.2685 30.4487 11.2325C30.4638 14.002 33.7964 13.5579 35.796 13.5587L48.296 13.5545C49.0774 13.5539 51.4844 13.5409 51.4844 13.5409V16.4453C50.7797 16.4443 49.1162 16.2224 48.6309 16.7884C48.3655 16.6946 45.2175 16.7862 44.7082 16.7884C43.9777 16.2541 43.8103 16.4389 42.9335 16.4403L26.7741 16.4453Z" fill="#7FDACE"/>
<path fill-rule="evenodd" clip-rule="evenodd" d="M33.1982 8.61637C30.3775 8.61637 28.091 10.9029 28.091 13.7236V16.8018C28.091 17.3306 27.6622 17.7594 27.1334 17.7594C26.6045 17.7594 26.1758 17.3306 26.1758 16.8018V13.7236C26.1758 9.8452 29.3198 6.70117 33.1982 6.70117H46.445C50.3233 6.70117 53.4673 9.8452 53.4673 13.7236V16.9954C53.4673 17.5242 53.0386 17.953 52.5097 17.953C51.9809 17.953 51.5521 17.5242 51.5521 16.9954V13.7236C51.5521 10.9029 49.2656 8.61637 46.445 8.61637H33.1982Z" fill="#222B3B"/>
<path fill-rule="evenodd" clip-rule="evenodd" d="M22.5017 66.7109C20.9151 66.7109 19.6289 65.4247 19.6289 63.8381L19.6289 19.3098C19.6289 17.7232 20.9151 16.437 22.5017 16.437L44.997 16.437C45.5258 16.437 45.9546 16.8657 45.9546 17.3946C45.9546 17.9235 45.5258 18.3522 44.997 18.3522L22.5017 18.3522C21.9728 18.3522 21.5441 18.7809 21.5441 19.3098L21.5441 63.8381C21.5441 64.367 21.9728 64.7957 22.5017 64.7957L57.2945 64.7957C57.8233 64.7957 58.252 64.367 58.252 63.8381L58.252 56.2918C58.252 55.763 58.6808 55.3343 59.2096 55.3343C59.7385 55.3343 60.1672 55.763 60.1672 56.2918L60.1672 63.8381C60.1672 65.4247 58.8811 66.7109 57.2945 66.7109L22.5017 66.7109Z" fill="#222B3B"/>
<path fill-rule="evenodd" clip-rule="evenodd" d="M48.9141 17.3131C48.9141 16.7842 49.3428 16.3555 49.8717 16.3555H57.2132C58.7999 16.3555 60.086 17.6417 60.086 19.2283V49.7118C60.086 50.2407 59.6573 50.6694 59.1284 50.6694C58.5996 50.6694 58.1708 50.2407 58.1708 49.7118V19.2283C58.1708 18.6994 57.7421 18.2707 57.2132 18.2707H49.8717C49.3428 18.2707 48.9141 17.8419 48.9141 17.3131Z" fill="#222B3B"/>
<path fill-rule="evenodd" clip-rule="evenodd" d="M30.3242 49.3149C30.3242 48.786 30.753 48.3573 31.2818 48.3573H50.1146C50.6435 48.3573 51.0722 48.786 51.0722 49.3149C51.0722 49.8438 50.6435 50.2725 50.1146 50.2725H31.2818C30.753 50.2725 30.3242 49.8438 30.3242 49.3149Z" fill="#222B3B"/>
<path fill-rule="evenodd" clip-rule="evenodd" d="M30.3242 53.1471C30.3242 52.6182 30.753 52.1895 31.2818 52.1895H50.1146C50.6435 52.1895 51.0722 52.6182 51.0722 53.1471C51.0722 53.6759 50.6435 54.1047 50.1146 54.1047H31.2818C30.753 54.1047 30.3242 53.6759 30.3242 53.1471Z" fill="#222B3B"/>
<path fill-rule="evenodd" clip-rule="evenodd" d="M30.3242 56.9793C30.3242 56.4505 30.753 56.0217 31.2818 56.0217H50.1146C50.6435 56.0217 51.0722 56.4505 51.0722 56.9793C51.0722 57.5082 50.6435 57.9369 50.1146 57.9369H31.2818C30.753 57.9369 30.3242 57.5082 30.3242 56.9793Z" fill="#222B3B"/>
</svg>
