<svg width="80" height="80" viewBox="0 0 80 80" fill="none" xmlns="http://www.w3.org/2000/svg">
<path d="M59.7129 37.6387H66.4753V47.846H59.7129V37.6387Z" fill="#FDBA05"/>
<path d="M59.7129 33.6833H66.4753V37.0007H59.7129V33.6833Z" fill="#7FDACE"/>
<path d="M42.4258 42.9348V46.8901C42.4258 47.6652 43.0542 48.2936 43.8293 48.2936H51.74C52.5151 48.2936 53.1435 47.6652 53.1435 46.8901V42.9348C53.1435 42.1596 52.5151 41.5312 51.74 41.5312H43.8293C43.0542 41.5312 42.4258 42.1596 42.4258 42.9348Z" fill="white"/>
<path d="M42.4883 43.1262V46.8263H50.1438C50.9189 46.8263 51.5473 46.198 51.5473 45.4228V41.7227H43.8918C43.1167 41.7227 42.4883 42.351 42.4883 43.1262Z" fill="#FE5D0C"/>
<path d="M28.0699 47.1811C28.0699 58.9865 26.5348 55.549 22.0979 55.549C15.077 56.6876 15.5659 48.7284 15.5659 44.2123C16.2038 37.3223 18.0398 35.3378 21.1799 33.3669C25.1991 31.4531 28.0699 36.9929 28.0699 47.1811Z" fill="white"/>
<path d="M37.8948 47.9101C37.8948 60.3288 35.2792 56.7127 27.719 56.7127C15.7557 57.9104 17.81 49.1358 17.81 44.3851C18.3974 35.1299 21.7582 33.9226 26.6137 33.9226C33.3015 30.558 37.8948 37.1927 37.8948 47.9101Z" fill="#7FDACE"/>
<path d="M34.6862 42.4506C34.493 39.555 32.2306 36.2315 30.621 35.406L30.0469 32.918C37.7443 34.4491 39.1059 42.4506 37.0604 56.331H34.0022C33.8144 54.6377 34.8793 45.3461 34.6862 42.4506Z" fill="#7676E8"/>
<path d="M32.2649 26.0286C32.5153 31.299 29.771 34.4491 26.6947 34.4491C23.6183 34.4491 20.874 31.3596 21.0618 26.0286C21.0618 22.0472 23.6183 20.0312 26.6947 20.0312C29.771 20.0312 32.2649 22.0472 32.2649 26.0286Z" fill="white"/>
<path d="M31.7688 26.6481C31.985 30.8924 29.5772 33.3016 26.9203 33.3016C24.2635 33.3016 22.3003 30.9412 22.4625 26.6481C22.4625 23.4418 24.6703 21.8184 27.3272 21.8184C29.9841 21.8184 31.7688 23.4418 31.7688 26.6481Z" fill="#FDBA05"/>
<path d="M13.7614 48.314L64.8382 48.3107C65.7418 48.3072 67.2626 47.8919 67.9941 48.9855C69.1441 50.705 68.2866 53.1017 66.5073 53.0622L15.063 53.063C14.3677 53.0628 13.6544 53.1117 12.9611 53.0394C11.4491 52.8821 10.607 48.3804 13.7614 48.314Z" fill="#FA8419"/>
<path fill-rule="evenodd" clip-rule="evenodd" d="M57.032 34.2577C57.032 33.5178 57.6318 32.918 58.3717 32.918H66.1548C66.8947 32.918 67.4945 33.5178 67.4945 34.2577V47.8885C68.4554 48.1873 69.1532 49.0836 69.1532 50.1429V50.7489C69.1532 52.3873 67.825 53.7154 66.1867 53.7154H13.8103C12.1719 53.7154 10.8438 52.3873 10.8438 50.7489C10.8438 49.1106 12.1719 47.7824 13.8103 47.7824H41.6571V43.1891C41.6571 41.7445 42.8282 40.5735 44.2728 40.5735H44.9745V39.17C44.9745 38.0777 45.86 37.1923 46.9522 37.1923H48.8023C49.8945 37.1923 50.78 38.0777 50.78 39.17V40.5735H51.5455C52.9901 40.5735 54.1611 41.7445 54.1611 43.1891V47.7824H57.032V34.2577ZM58.4355 47.7824H66.091V38.213H58.4355V47.7824ZM58.4355 36.8095H66.091V34.3215H58.4355V36.8095ZM52.7576 47.7824V43.1891C52.7576 42.5197 52.2149 41.977 51.5455 41.977H44.2728C43.6033 41.977 43.0607 42.5197 43.0607 43.1891V47.7824H47.2074C47.595 47.7824 47.9091 48.0966 47.9091 48.4842C47.9091 48.8717 47.595 49.1859 47.2074 49.1859H13.8103C12.947 49.1859 12.2473 49.8857 12.2473 50.7489C12.2473 51.6121 12.947 52.3119 13.8103 52.3119H66.1867C67.0499 52.3119 67.7497 51.6121 67.7497 50.7489V50.1429C67.7497 49.6143 67.3212 49.1859 66.7927 49.1859H51.3541C50.9666 49.1859 50.6524 48.8717 50.6524 48.4842C50.6524 48.0966 50.9666 47.7824 51.3541 47.7824H52.7576ZM46.378 40.5735H49.3764V39.17C49.3764 38.8529 49.1194 38.5958 48.8023 38.5958H46.9522C46.6351 38.5958 46.378 38.8529 46.378 39.17V40.5735ZM60.7959 41.2752C60.7959 40.8877 61.1101 40.5735 61.4977 40.5735H63.9219C64.3095 40.5735 64.6237 40.8877 64.6237 41.2752C64.6237 41.6628 64.3095 41.977 63.9219 41.977H61.4977C61.1101 41.977 60.7959 41.6628 60.7959 41.2752ZM60.7959 44.784C60.7959 44.3964 61.1101 44.0822 61.4977 44.0822H63.9219C64.3095 44.0822 64.6237 44.3964 64.6237 44.784C64.6237 45.1716 64.3095 45.4858 63.9219 45.4858H61.4977C61.1101 45.4858 60.7959 45.1716 60.7959 44.784Z" fill="#222B3B"/>
<path d="M21.0531 54.8633H20.798C19.6 54.8633 18.6289 55.8344 18.6289 57.0323V65.1982H23.2222V57.0323C23.2222 55.8344 22.2511 54.8633 21.0531 54.8633Z" fill="#7FDACE"/>
<path fill-rule="evenodd" clip-rule="evenodd" d="M24.6269 66.6029H17.2266V57.0335C17.2266 55.0604 18.8261 53.4609 20.7991 53.4609H21.0543C23.0274 53.4609 24.6269 55.0604 24.6269 57.0335V66.6029ZM20.7991 54.8644H21.0543C22.2523 54.8644 23.2234 55.8356 23.2234 57.0335V65.1994H18.6301V57.0335C18.6301 55.8356 19.6012 54.8644 20.7991 54.8644Z" fill="#222B3B"/>
<path d="M32.9184 54.8633H32.6632C31.4653 54.8633 30.4941 55.8344 30.4941 57.0323V65.1982H35.0874V57.0323C35.0874 55.8344 34.1163 54.8633 32.9184 54.8633Z" fill="#7FDACE"/>
<path fill-rule="evenodd" clip-rule="evenodd" d="M36.4902 66.6029H29.0898V57.0335C29.0898 55.0604 30.6893 53.4609 32.6624 53.4609H32.9176C34.8907 53.4609 36.4902 55.0604 36.4902 57.0335V66.6029ZM32.6624 54.8644H32.9176C34.1155 54.8644 35.0867 55.8356 35.0867 57.0335V65.1994H30.4934V57.0335C30.4934 55.8356 31.4645 54.8644 32.6624 54.8644Z" fill="#222B3B"/>
<path d="M63.7953 53.7148H60.9883V68.8983H63.7953V53.7148Z" fill="#FA8419"/>
<path fill-rule="evenodd" clip-rule="evenodd" d="M59.5859 52.3125H65.2V70.3029H59.5859V52.3125ZM63.7965 53.716V68.8994H60.9894V53.716H63.7965Z" fill="#222B3B"/>
<path fill-rule="evenodd" clip-rule="evenodd" d="M5.67773 69.6003C5.67773 69.2127 5.99192 68.8986 6.37949 68.8986H72.472C72.8596 68.8986 73.1737 69.2127 73.1737 69.6003C73.1737 69.9879 72.8596 70.3021 72.472 70.3021H6.37949C5.99192 70.3021 5.67773 69.9879 5.67773 69.6003Z" fill="#222B3B"/>
<path fill-rule="evenodd" clip-rule="evenodd" d="M23.2852 57.3521C23.2852 56.9646 23.5993 56.6504 23.9869 56.6504H29.5371C29.9247 56.6504 30.2389 56.9646 30.2389 57.3521C30.2389 57.7397 29.9247 58.0539 29.5371 58.0539H23.9869C23.5993 58.0539 23.2852 57.7397 23.2852 57.3521Z" fill="#222B3B"/>
<path d="M17.6087 68.8984C17.5383 68.8984 17.481 68.8413 17.4825 68.7708C17.5064 67.6666 17.8394 66.6144 18.4154 65.8309C19.0136 65.0174 19.8249 64.5603 20.6709 64.5603C21.5169 64.5603 22.3283 65.0174 22.9265 65.8309C23.5025 66.6144 23.8355 67.6666 23.8593 68.7708C23.8609 68.8413 23.8036 68.8984 23.7331 68.8984L20.6709 68.8984L17.6087 68.8984Z" fill="#7676E8"/>
<path fill-rule="evenodd" clip-rule="evenodd" d="M17.6513 67.4965C17.6357 67.5587 17.6211 67.6214 17.6076 67.6845C17.5323 68.0355 17.4894 68.4006 17.4813 68.7716C17.4798 68.8421 17.5371 68.8992 17.6076 68.8992L23.732 68.8992C23.8024 68.8992 23.8597 68.8421 23.8582 68.7716C23.8501 68.4006 23.8072 68.0355 23.732 67.6845C23.7184 67.6214 23.7038 67.5587 23.6882 67.4965C23.6881 67.4962 23.6881 67.496 23.688 67.4957C23.5319 66.8749 23.2728 66.3044 22.9253 65.8317C22.3271 65.0182 21.5157 64.5611 20.6698 64.5611C19.8238 64.5611 19.0124 65.0182 18.4142 65.8317C18.0667 66.3044 17.8076 66.8749 17.6515 67.4957C17.6514 67.496 17.6514 67.4962 17.6513 67.4965ZM16.0782 68.7413C16.1074 67.3904 16.513 66.0481 17.2835 65.0003C18.0883 63.9058 19.2879 63.1576 20.6698 63.1576C22.0516 63.1576 23.2512 63.9058 24.056 65.0003C24.8265 66.0481 25.2321 67.3904 25.2613 68.7413C25.2803 69.6181 24.5697 70.3027 23.732 70.3027L17.6076 70.3027C16.7698 70.3027 16.0592 69.6181 16.0782 68.7413Z" fill="#222B3B"/>
<path d="M29.9837 68.8984C29.9133 68.8984 29.856 68.8413 29.8575 68.7708C29.8814 67.6666 30.2144 66.6144 30.7904 65.8309C31.3886 65.0174 32.1999 64.5603 33.0459 64.5603C33.8919 64.5603 34.7033 65.0174 35.3015 65.8309C35.8775 66.6144 36.2105 67.6666 36.2343 68.7708C36.2359 68.8413 36.1786 68.8984 36.1081 68.8984L33.0459 68.8984L29.9837 68.8984Z" fill="#7676E8"/>
<path fill-rule="evenodd" clip-rule="evenodd" d="M30.0263 67.4965C30.0107 67.5587 29.9961 67.6214 29.9826 67.6845C29.9073 68.0355 29.8644 68.4006 29.8563 68.7716C29.8548 68.8421 29.9121 68.8992 29.9826 68.8992L36.107 68.8992C36.1774 68.8992 36.2347 68.8421 36.2332 68.7716C36.2251 68.4006 36.1822 68.0355 36.107 67.6845C36.0934 67.6214 36.0788 67.5587 36.0632 67.4965C36.0631 67.4962 36.0631 67.496 36.063 67.4957C35.9069 66.8749 35.6478 66.3044 35.3003 65.8317C34.7021 65.0182 33.8907 64.5611 33.0448 64.5611C32.1988 64.5611 31.3874 65.0182 30.7892 65.8317C30.4417 66.3044 30.1826 66.8749 30.0265 67.4957C30.0264 67.496 30.0264 67.4962 30.0263 67.4965ZM28.4532 68.7413C28.4824 67.3904 28.888 66.0481 29.6585 65.0003C30.4633 63.9058 31.6629 63.1576 33.0448 63.1576C34.4266 63.1576 35.6262 63.9058 36.431 65.0003C37.2015 66.0481 37.6071 67.3904 37.6363 68.7413C37.6553 69.6181 36.9447 70.3027 36.107 70.3027L29.9826 70.3027C29.1448 70.3027 28.4342 69.6181 28.4532 68.7413Z" fill="#222B3B"/>
<path d="M19.0101 53.7148H16.2031V68.8983H19.0101V53.7148Z" fill="#FA8419"/>
<path fill-rule="evenodd" clip-rule="evenodd" d="M14.8008 52.3125H20.4148V70.3029H14.8008V52.3125ZM19.0113 53.716V68.8994H16.2043V53.716H19.0113Z" fill="#222B3B"/>
<path fill-rule="evenodd" clip-rule="evenodd" d="M37.9033 52.3126C38.2908 52.3183 38.6003 52.637 38.5946 53.0246L37.893 53.0143C38.5946 53.0246 38.5946 53.0248 38.5946 53.0249L38.5946 53.0267L38.5945 53.0303L38.5943 53.0423C38.5941 53.0524 38.5937 53.0665 38.5932 53.0843C38.5921 53.1199 38.5903 53.1707 38.5872 53.2344C38.581 53.3617 38.5699 53.5415 38.5498 53.7563C38.51 54.1829 38.4338 54.7616 38.2864 55.3467C38.1417 55.9211 37.9147 56.5593 37.5428 57.0639C37.1572 57.5873 36.5724 58.0152 35.7658 57.99C35.3784 57.9779 35.0742 57.654 35.0863 57.2667C35.0984 56.8793 35.4222 56.5751 35.8096 56.5872C36.0237 56.5939 36.2125 56.5034 36.4129 56.2313C36.6272 55.9405 36.7989 55.5061 36.9254 55.004C37.0491 54.5126 37.1164 54.0107 37.1524 53.6259C37.1702 53.435 37.18 53.2763 37.1853 53.1666C37.1879 53.1119 37.1895 53.0695 37.1903 53.0416C37.1907 53.0277 37.191 53.0174 37.1911 53.0111L37.1913 53.0039C37.1913 53.0038 37.1913 53.0038 37.1913 53.0037M37.9033 52.3126C37.5158 52.3069 37.1971 52.6163 37.1913 53.0037L37.9033 52.3126Z" fill="#222B3B"/>
<path d="M26.9854 40.7037L24.0508 37.7691C26.9854 36.7483 28.8993 34.9621 29.92 33.1758L31.7063 34.7707L26.9854 40.7037Z" fill="#7676E8"/>
<path fill-rule="evenodd" clip-rule="evenodd" d="M29.1082 32.4415C29.1959 32.064 29.5731 31.8291 29.9506 31.9168C33.7507 32.7999 35.9787 34.614 37.2023 37.382C38.3897 40.0679 38.5956 43.5852 38.5956 47.7838C38.5956 48.1713 38.2814 48.4855 37.8938 48.4855C37.5063 48.4855 37.1921 48.1713 37.1921 47.7838C37.1921 43.5613 36.9706 40.329 35.9187 37.9495C34.9031 35.6521 33.08 34.085 29.6329 33.2839C29.2554 33.1962 29.0205 32.819 29.1082 32.4415Z" fill="#222B3B"/>
<path fill-rule="evenodd" clip-rule="evenodd" d="M24.2883 32.5039C24.2005 32.1264 23.8234 31.8915 23.4459 31.9792C19.6476 32.8619 17.4334 34.6593 16.2252 37.4144C15.0543 40.0845 14.8647 43.5869 14.8647 47.7823C14.8647 48.1699 15.1789 48.4841 15.5665 48.4841C15.954 48.4841 16.2682 48.1699 16.2682 47.7823C16.2682 43.5568 16.4741 40.3414 17.5106 37.9781C18.5097 35.6996 20.3147 34.1478 23.7636 33.3463C24.1411 33.2585 24.376 32.8814 24.2883 32.5039Z" fill="#222B3B"/>
<path fill-rule="evenodd" clip-rule="evenodd" d="M31.0057 25.8695V25.8373C31.0057 24.0291 30.4636 22.8284 29.7408 22.0864C29.0158 21.342 27.9792 20.925 26.7314 20.925C25.4819 20.925 24.425 21.3434 23.6825 22.0941C22.9452 22.8394 22.3933 24.039 22.3933 25.8373V25.8612L22.3924 25.8851C22.2129 31.1513 24.7732 33.3014 26.7314 33.3014C28.6801 33.3014 31.2462 31.1003 31.0072 25.9017L31.0057 25.8695ZM20.9898 25.8373C20.7983 31.4513 23.5956 34.7049 26.7314 34.7049C29.8672 34.7049 32.6644 31.3875 32.4092 25.8373C32.4092 21.6445 29.8672 19.5215 26.7314 19.5215C23.5956 19.5215 20.9898 21.6445 20.9898 25.8373Z" fill="#222B3B"/>
<path fill-rule="evenodd" clip-rule="evenodd" d="M22.0723 32.7267C22.4598 32.7267 22.774 33.0409 22.774 33.4284L22.0723 33.4284L21.3705 33.4284C21.3705 33.0409 21.6847 32.7267 22.0723 32.7267ZM22.774 40.1931L22.774 33.4284C22.774 33.4284 22.774 33.4284 22.0723 33.4284C21.3705 33.4284 21.3705 33.4284 21.3705 33.4284L21.3705 37.1047C21.3705 38.2941 21.3705 39.4876 21.3705 40.1925C20.7102 40.322 20.1866 40.6376 19.7945 41.0823C19.2952 41.6484 19.0596 42.3652 18.9485 43.0054C18.8361 43.6527 18.8399 44.2863 18.8688 44.7481C18.8833 44.9815 18.9047 45.1766 18.9227 45.3151C18.9317 45.3845 18.9399 45.44 18.9461 45.4793C18.9492 45.499 18.9518 45.5146 18.9537 45.5259C18.9547 45.5316 18.9555 45.5362 18.9561 45.5397L18.9568 45.5441L18.9571 45.5456L18.9572 45.5462C18.9573 45.5465 18.9573 45.5468 19.6479 45.4221L18.9573 45.5468C19.0262 45.9282 19.3912 46.1815 19.7726 46.1126C20.1537 46.0438 20.4069 45.6794 20.3387 45.2983C20.3386 45.2981 20.3386 45.2979 20.3386 45.2978L20.3385 45.2974L20.3375 45.2918C20.3365 45.2858 20.3348 45.2756 20.3326 45.2617C20.3283 45.2337 20.3218 45.1905 20.3145 45.1342C20.2999 45.0216 20.2819 44.8579 20.2695 44.6606C20.2446 44.2612 20.2443 43.7464 20.3313 43.2454C20.4195 42.7373 20.5867 42.3058 20.847 42.0107C21.0845 41.7414 21.4459 41.5305 22.0723 41.5305C22.6983 41.5305 23.0337 41.7404 23.2429 41.9935C23.4775 42.2774 23.62 42.6992 23.6799 43.2076C23.7389 43.7072 23.7102 44.2218 23.6629 44.622C23.6395 44.8196 23.6124 44.9836 23.5914 45.0966C23.5809 45.153 23.572 45.1964 23.5661 45.2245C23.5631 45.2386 23.5608 45.2488 23.5594 45.255L23.5581 45.2607C23.5581 45.2611 23.558 45.2614 23.5579 45.2617C23.4694 45.6386 23.7029 46.016 24.0798 46.105C24.457 46.1941 24.8349 45.9606 24.924 45.5834L24.2411 45.4221C24.924 45.5834 24.9241 45.5831 24.9242 45.5829L24.9247 45.5807L24.9257 45.5764C24.9261 45.5746 24.9266 45.5725 24.9271 45.5701C24.9276 45.5679 24.9282 45.5655 24.9288 45.5628C24.9313 45.5515 24.9347 45.536 24.9389 45.5164C24.9472 45.4773 24.9585 45.422 24.9713 45.3528C24.997 45.2146 25.0292 45.0197 25.0567 44.7867C25.1111 44.3257 25.1503 43.6919 25.0738 43.0432C24.9983 42.4033 24.8019 41.6768 24.3248 41.0994C23.9476 40.6429 23.4313 40.3238 22.774 40.1931ZM31.7688 35.2472C32.068 35.4936 32.1107 35.9358 31.8644 36.235L27.5586 41.4633V48.2291C27.5586 48.6166 27.2444 48.9308 26.8568 48.9308C26.4693 48.9308 26.1551 48.6166 26.1551 48.2291V41.469L23.8336 38.7307C23.583 38.4351 23.6195 37.9923 23.9151 37.7416C24.2107 37.491 24.6536 37.5275 24.9042 37.8231L26.849 40.1171L30.781 35.3428C31.0273 35.0436 31.4696 35.0008 31.7688 35.2472Z" fill="#222B3B"/>
<path d="M57.2899 23.0961C57.2899 28.0993 53.234 32.1551 48.2309 32.1551C43.2277 32.1551 39.1719 28.0993 39.1719 23.0961C39.1719 18.093 43.2277 14.0371 48.2309 14.0371C53.234 14.0371 57.2899 18.093 57.2899 23.0961Z" fill="#FDBA05"/>
<path fill-rule="evenodd" clip-rule="evenodd" d="M48.2309 30.7516C52.4589 30.7516 55.8864 27.3241 55.8864 23.0961C55.8864 18.8681 52.4589 15.4406 48.2309 15.4406C44.0029 15.4406 40.5754 18.8681 40.5754 23.0961C40.5754 27.3241 44.0029 30.7516 48.2309 30.7516ZM48.2309 32.1551C53.234 32.1551 57.2899 28.0993 57.2899 23.0961C57.2899 18.093 53.234 14.0371 48.2309 14.0371C43.2277 14.0371 39.1719 18.093 39.1719 23.0961C39.1719 28.0993 43.2277 32.1551 48.2309 32.1551Z" fill="#222B3B"/>
<path d="M49.674 24.0057H45.168V22.9641H49.674C50.09 22.9641 50.4337 22.8852 50.7052 22.7273C50.9767 22.5664 51.1789 22.3485 51.3118 22.0739C51.4447 21.7961 51.5111 21.4805 51.5111 21.127C51.5111 20.7734 51.4447 20.4593 51.3118 20.1847C51.1789 19.9069 50.9767 19.6891 50.7052 19.5313C50.4337 19.3703 50.09 19.2898 49.674 19.2898H47.6463V27.9451H46.5718V18.2482H49.674C50.3326 18.2482 50.8756 18.3792 51.3031 18.6412C51.7306 18.9032 52.0484 19.252 52.2563 19.6876C52.4643 20.1232 52.5683 20.603 52.5683 21.127C52.5683 21.6509 52.4643 22.1307 52.2563 22.5664C52.0484 23.002 51.7306 23.3508 51.3031 23.6128C50.8756 23.8747 50.3326 24.0057 49.674 24.0057ZM49.6047 24.9148V25.9565H45.168V24.9148H49.6047Z" fill="#222B3B"/>
<path fill-rule="evenodd" clip-rule="evenodd" d="M45.1692 24.2601C45.0283 24.2601 44.9141 24.1459 44.9141 24.0049V22.9633C44.9141 22.8223 45.0283 22.7081 45.1692 22.7081H46.3179V18.2474C46.3179 18.1064 46.4321 17.9922 46.5731 17.9922H49.6753C50.3665 17.9922 50.9594 18.1296 51.4377 18.4228C51.9056 18.7095 52.2578 19.0949 52.4879 19.5768C52.7136 20.0496 52.8247 20.5674 52.8247 21.1262C52.8247 21.6849 52.7136 22.2027 52.4879 22.6755C52.2578 23.1574 51.9056 23.5428 51.4377 23.8295C50.9594 24.1227 50.3665 24.2601 49.6753 24.2601H47.9028V24.6589H49.606C49.7469 24.6589 49.8612 24.7731 49.8612 24.914V25.9557C49.8612 26.0966 49.7469 26.2109 49.606 26.2109H47.9028V27.9443C47.9028 28.0853 47.7885 28.1995 47.6476 28.1995H46.5731C46.4321 28.1995 46.3179 28.0853 46.3179 27.9443V26.2109H45.1692C45.0283 26.2109 44.9141 26.0966 44.9141 25.9557V24.914C44.9141 24.7731 45.0283 24.6589 45.1692 24.6589H46.3179V24.2601H45.1692ZM46.5731 24.0049V24.914H45.1692V25.9557H46.5731V27.9443H47.6476V25.9557H49.606V24.914H47.6476V24.0049H49.6753C50.3339 24.0049 50.8769 23.8739 51.3044 23.612C51.7319 23.35 52.0496 23.0012 52.2576 22.5656C52.4656 22.1299 52.5696 21.6501 52.5696 21.1262C52.5696 20.6022 52.4656 20.1224 52.2576 19.6868C52.0496 19.2512 51.7319 18.9024 51.3044 18.6404C50.8769 18.3784 50.3339 18.2474 49.6753 18.2474H46.5731V22.9633H45.1692V24.0049H46.5731ZM47.6476 22.9633H49.6753C50.0912 22.9633 50.435 22.8844 50.7065 22.7265C50.978 22.5656 51.1802 22.3478 51.3131 22.0731C51.4459 21.7954 51.5124 21.4797 51.5124 21.1262C51.5124 20.7726 51.4459 20.4585 51.3131 20.1839C51.1802 19.9061 50.978 19.6883 50.7065 19.5305C50.435 19.3695 50.0912 19.289 49.6753 19.289H47.6476V22.9633ZM47.9028 19.5442V22.7081H49.6753C50.0598 22.7081 50.3555 22.6351 50.5773 22.5065C50.8066 22.3703 50.973 22.1898 51.0831 21.9625C51.1971 21.724 51.2572 21.447 51.2572 21.1262C51.2572 20.805 51.197 20.5299 51.0834 20.2951L51.0829 20.294C50.9726 20.0635 50.8064 19.8838 50.5782 19.7511L50.5763 19.75C50.3548 19.6187 50.0596 19.5442 49.6753 19.5442H47.9028Z" fill="#222B3B"/>
</svg>
