<svg width="123" height="122" viewBox="0 0 123 122" fill="none" xmlns="http://www.w3.org/2000/svg">
<path d="M91.5723 57.4011H101.885V72.9673H91.5723V57.4011Z" fill="#FDBA05"/>
<path d="M91.5723 51.3668H101.885V56.4258H91.5723V51.3668Z" fill="#7FDACE"/>
<path d="M65.207 65.4738V71.5057C65.207 72.6878 66.1653 73.6461 67.3474 73.6461H79.4112C80.5933 73.6461 81.5515 72.6878 81.5515 71.5057V65.4738C81.5515 64.2918 80.5933 63.3335 79.4112 63.3335H67.3474C66.1653 63.3335 65.207 64.2918 65.207 65.4738Z" fill="white"/>
<path d="M65.3047 65.7663V71.4091H76.9793C78.1614 71.4091 79.1197 70.4508 79.1197 69.2687V63.626H67.445C66.263 63.626 65.3047 64.5842 65.3047 65.7663Z" fill="#FE5D0C"/>
<path d="M43.318 71.95C43.318 89.9532 40.977 84.711 34.2108 84.711C23.5039 86.4474 24.2494 74.3096 24.2494 67.4225C25.2222 56.9154 28.0221 53.8889 32.8108 50.8833C38.94 47.9648 43.318 56.413 43.318 71.95Z" fill="white"/>
<path d="M58.2989 73.0632C58.2989 92.0016 54.3101 86.4871 42.7807 86.4871C24.5367 88.3136 27.6696 74.9323 27.6696 67.6875C28.5652 53.5732 33.6905 51.7321 41.0951 51.7321C51.2941 46.6012 58.2989 56.7191 58.2989 73.0632Z" fill="#7FDACE"/>
<path d="M53.4069 64.7373C53.1124 60.3215 49.6622 55.2532 47.2076 53.9943L46.332 50.2001C58.0706 52.535 60.147 64.7373 57.0276 85.905H52.3639C52.0776 83.3227 53.7015 69.153 53.4069 64.7373Z" fill="#7676E8"/>
<path d="M49.7138 39.6953C50.0956 47.7326 45.9106 52.5366 41.2192 52.5366C36.5277 52.5366 32.3427 47.825 32.6291 39.6953C32.6291 33.6237 36.5277 30.5493 41.2192 30.5493C45.9106 30.5493 49.7138 33.6237 49.7138 39.6953Z" fill="white"/>
<path d="M48.9603 40.6393C49.2901 47.1118 45.6181 50.7859 41.5664 50.7859C37.5147 50.7859 34.5208 47.1862 34.7682 40.6393C34.7682 35.7497 38.1352 33.2739 42.1869 33.2739C46.2386 33.2739 48.9603 35.7497 48.9603 40.6393Z" fill="#FDBA05"/>
<path d="M21.4957 73.679L99.3878 73.674C100.766 73.6687 103.085 73.0353 104.2 74.7031C105.954 77.3253 104.647 80.9803 101.933 80.92L23.4806 80.9213C22.4202 80.9209 21.3325 80.9955 20.2751 80.8852C17.9695 80.6454 16.6852 73.7802 21.4957 73.679Z" fill="#FA8419"/>
<path fill-rule="evenodd" clip-rule="evenodd" d="M87.4858 52.2431C87.4858 51.1148 88.4005 50.2001 89.5289 50.2001H101.398C102.526 50.2001 103.441 51.1148 103.441 52.2431V73.0301C104.907 73.4858 105.971 74.8526 105.971 76.468V77.3923C105.971 79.8908 103.945 81.9162 101.447 81.9162H21.5728C19.0743 81.9162 17.0488 79.8908 17.0488 77.3923C17.0488 74.8938 19.0743 72.8683 21.5728 72.8683H64.0393V65.8636C64.0393 63.6606 65.8251 61.8747 68.0281 61.8747H69.0983V59.7344C69.0983 58.0687 70.4486 56.7184 72.1142 56.7184H74.9356C76.6013 56.7184 77.9515 58.0687 77.9515 59.7344V61.8747H79.119C81.322 61.8747 83.1078 63.6606 83.1078 65.8636V72.8683H87.4858V52.2431ZM89.6262 72.8683H101.301V58.275H89.6262V72.8683ZM89.6262 56.1347H101.301V52.3404H89.6262V56.1347ZM80.9675 72.8683V65.8636C80.9675 64.8427 80.1399 64.0151 79.119 64.0151H68.0281C67.0072 64.0151 66.1796 64.8427 66.1796 65.8636V72.8683H72.5034C73.0944 72.8683 73.5735 73.3475 73.5735 73.9385C73.5735 74.5296 73.0944 75.0087 72.5034 75.0087H21.5728C20.2563 75.0087 19.1892 76.0758 19.1892 77.3923C19.1892 78.7087 20.2563 79.7758 21.5728 79.7758H101.447C102.763 79.7758 103.83 78.7087 103.83 77.3923V76.468C103.83 75.6621 103.177 75.0087 102.371 75.0087H78.8271C78.2361 75.0087 77.757 74.5296 77.757 73.9385C77.757 73.3475 78.2361 72.8683 78.8271 72.8683H80.9675ZM71.2386 61.8747H75.8112V59.7344C75.8112 59.2508 75.4192 58.8588 74.9356 58.8588H72.1142C71.6306 58.8588 71.2386 59.2508 71.2386 59.7344V61.8747ZM93.2259 62.9449C93.2259 62.3538 93.705 61.8747 94.296 61.8747H97.993C98.584 61.8747 99.0632 62.3538 99.0632 62.9449C99.0632 63.5359 98.584 64.0151 97.993 64.0151H94.296C93.705 64.0151 93.2259 63.5359 93.2259 62.9449ZM93.2259 68.2958C93.2259 67.7047 93.705 67.2256 94.296 67.2256H97.993C98.584 67.2256 99.0632 67.7047 99.0632 68.2958C99.0632 68.8868 98.584 69.3659 97.993 69.3659H94.296C93.705 69.3659 93.2259 68.8868 93.2259 68.2958Z" fill="#222B3B"/>
<path d="M32.6149 83.668H32.2258C30.3989 83.668 28.918 85.1489 28.918 86.9758V99.4287H35.9228V86.9758C35.9228 85.1489 34.4418 83.668 32.6149 83.668Z" fill="#7FDACE"/>
<path fill-rule="evenodd" clip-rule="evenodd" d="M38.0628 101.57H26.7773V86.9765C26.7773 83.9675 29.2166 81.5283 32.2255 81.5283H32.6147C35.6236 81.5283 38.0628 83.9675 38.0628 86.9765V101.57ZM32.2255 83.6687H32.6147C34.4415 83.6687 35.9225 85.1496 35.9225 86.9765V99.4294H28.9177V86.9765C28.9177 85.1496 30.3987 83.6687 32.2255 83.6687Z" fill="#222B3B"/>
<path d="M50.7106 83.668H50.3215C48.4946 83.668 47.0137 85.1489 47.0137 86.9758V99.4287H54.0185V86.9758C54.0185 85.1489 52.5375 83.668 50.7106 83.668Z" fill="#7FDACE"/>
<path fill-rule="evenodd" clip-rule="evenodd" d="M56.1585 101.57H44.873V86.9765C44.873 83.9675 47.3123 81.5283 50.3212 81.5283H50.7104C53.7193 81.5283 56.1585 83.9675 56.1585 86.9765V101.57ZM50.3212 83.6687H50.7104C52.5372 83.6687 54.0182 85.1496 54.0182 86.9765V99.4294H47.0134V86.9765C47.0134 85.1496 48.4944 83.6687 50.3212 83.6687Z" fill="#222B3B"/>
<path d="M97.7983 81.9161H93.5176V105.071H97.7983V81.9161Z" fill="#FA8419"/>
<path fill-rule="evenodd" clip-rule="evenodd" d="M91.377 79.7766H99.9384V107.212H91.377V79.7766ZM97.798 81.917V105.072H93.5173V81.917H97.798Z" fill="#222B3B"/>
<path fill-rule="evenodd" clip-rule="evenodd" d="M9.16797 106.141C9.16797 105.55 9.6471 105.071 10.2381 105.071H111.029C111.62 105.071 112.099 105.55 112.099 106.141C112.099 106.732 111.62 107.211 111.029 107.211H10.2381C9.6471 107.211 9.16797 106.732 9.16797 106.141Z" fill="#222B3B"/>
<path fill-rule="evenodd" clip-rule="evenodd" d="M36.0195 87.4628C36.0195 86.8717 36.4987 86.3926 37.0897 86.3926H45.5538C46.1449 86.3926 46.624 86.8717 46.624 87.4628C46.624 88.0538 46.1449 88.5329 45.5538 88.5329H37.0897C36.4987 88.5329 36.0195 88.0538 36.0195 87.4628Z" fill="#222B3B"/>
<path d="M27.3623 105.071C27.2548 105.071 27.1675 104.983 27.1698 104.876C27.2062 103.192 27.714 101.587 28.5925 100.393C29.5047 99.1519 30.742 98.4549 32.0322 98.4549C33.3223 98.4549 34.5596 99.1519 35.4718 100.393C36.3503 101.587 36.8581 103.192 36.8945 104.876C36.8968 104.983 36.8095 105.071 36.702 105.071L32.0322 105.071L27.3623 105.071Z" fill="#7676E8"/>
<path fill-rule="evenodd" clip-rule="evenodd" d="M27.4273 102.934C27.4035 103.029 27.3813 103.124 27.3606 103.221C27.2458 103.756 27.1804 104.313 27.1681 104.878C27.1658 104.986 27.2531 105.073 27.3606 105.073L36.7003 105.073C36.8078 105.073 36.8951 104.986 36.8928 104.878C36.8806 104.313 36.8151 103.756 36.7003 103.221C36.6797 103.124 36.6574 103.029 36.6336 102.934C36.6335 102.933 36.6334 102.933 36.6333 102.933C36.3953 101.986 36.0002 101.116 35.4701 100.395C34.5579 99.1544 33.3206 98.4574 32.0305 98.4574C30.7403 98.4574 29.503 99.1544 28.5908 100.395C28.0607 101.116 27.6657 101.986 27.4276 102.933C27.4275 102.933 27.4274 102.933 27.4273 102.934ZM25.0283 104.832C25.0728 102.772 25.6915 100.725 26.8664 99.1271C28.0937 97.458 29.9231 96.317 32.0305 96.317C34.1378 96.317 35.9672 97.458 37.1945 99.1271C38.3694 100.725 38.9881 102.772 39.0326 104.832C39.0615 106.169 37.9779 107.213 36.7003 107.213L27.3606 107.213C26.083 107.213 24.9994 106.169 25.0283 104.832Z" fill="#222B3B"/>
<path d="M46.2353 105.071C46.1279 105.071 46.0405 104.983 46.0429 104.876C46.0793 103.192 46.5871 101.587 47.4655 100.393C48.3778 99.1519 49.6151 98.4549 50.9052 98.4549C52.1953 98.4549 53.4326 99.1519 54.3449 100.393C55.2234 101.587 55.7311 103.192 55.7675 104.876C55.7699 104.983 55.6825 105.071 55.5751 105.071L50.9052 105.071L46.2353 105.071Z" fill="#7676E8"/>
<path fill-rule="evenodd" clip-rule="evenodd" d="M46.3023 102.934C46.2785 103.029 46.2563 103.124 46.2356 103.221C46.1208 103.756 46.0554 104.313 46.0431 104.878C46.0408 104.986 46.1281 105.073 46.2356 105.073L55.5753 105.073C55.6828 105.073 55.7701 104.986 55.7678 104.878C55.7556 104.313 55.6901 103.756 55.5753 103.221C55.5547 103.124 55.5324 103.029 55.5086 102.934C55.5085 102.933 55.5084 102.933 55.5083 102.933C55.2703 101.986 54.8752 101.116 54.3451 100.395C53.4329 99.1544 52.1956 98.4574 50.9055 98.4574C49.6153 98.4574 48.378 99.1544 47.4658 100.395C46.9357 101.116 46.5407 101.986 46.3026 102.933C46.3025 102.933 46.3024 102.933 46.3023 102.934ZM43.9033 104.832C43.9478 102.772 44.5665 100.725 45.7414 99.1271C46.9687 97.458 48.7981 96.317 50.9055 96.317C53.0128 96.317 54.8422 97.458 56.0695 99.1271C57.2444 100.725 57.8631 102.772 57.9076 104.832C57.9365 106.169 56.8529 107.213 55.5753 107.213L46.2356 107.213C44.958 107.213 43.8744 106.169 43.9033 104.832Z" fill="#222B3B"/>
<path d="M29.5014 81.9161H25.2207V105.071H29.5014V81.9161Z" fill="#FA8419"/>
<path fill-rule="evenodd" clip-rule="evenodd" d="M23.0801 79.7766H31.6415V107.212H23.0801V79.7766ZM29.5011 81.917V105.072H25.2204V81.917H29.5011Z" fill="#222B3B"/>
<path fill-rule="evenodd" clip-rule="evenodd" d="M58.314 79.7767C58.905 79.7854 59.377 80.2715 59.3684 80.8625L58.2983 80.8468C59.3684 80.8625 59.3683 80.8628 59.3683 80.8631L59.3683 80.8657L59.3682 80.8713L59.3678 80.8896C59.3675 80.9049 59.3669 80.9264 59.3661 80.9536C59.3645 81.008 59.3617 81.0854 59.357 81.1826C59.3476 81.3767 59.3306 81.6509 59.3 81.9784C59.2392 82.629 59.123 83.5114 58.8983 84.4038C58.6777 85.2797 58.3314 86.2529 57.7644 87.0225C57.1762 87.8208 56.2844 88.4732 55.0543 88.4348C54.4636 88.4163 53.9996 87.9225 54.0181 87.3317C54.0366 86.741 54.5304 86.277 55.1212 86.2955C55.4477 86.3057 55.7356 86.1677 56.0413 85.7529C56.368 85.3094 56.6298 84.6469 56.8227 83.8811C57.0115 83.1317 57.1141 82.3663 57.1689 81.7795C57.1961 81.4884 57.211 81.2464 57.2191 81.0792C57.2231 80.9956 57.2255 80.931 57.2268 80.8885C57.2274 80.8673 57.2278 80.8516 57.228 80.8419L57.2282 80.8311C57.2282 80.8309 57.2282 80.8308 57.2282 80.8306M58.314 79.7767C57.7232 79.768 57.2371 80.2399 57.2282 80.8306L58.314 79.7767Z" fill="#222B3B"/>
<path d="M41.6628 62.0713L37.1875 57.596C41.6628 56.0394 44.5814 53.3153 46.1381 50.5912L48.8621 53.0234L41.6628 62.0713Z" fill="#7676E8"/>
<path fill-rule="evenodd" clip-rule="evenodd" d="M44.9011 49.4737C45.0349 48.898 45.61 48.5397 46.1857 48.6735C51.9808 50.0203 55.3785 52.7867 57.2446 57.0079C59.0553 61.1039 59.3693 66.4678 59.3693 72.8706C59.3693 73.4617 58.8902 73.9408 58.2991 73.9408C57.7081 73.9408 57.2289 73.4617 57.2289 72.8706C57.2289 66.4313 56.8911 61.5021 55.287 57.8733C53.7382 54.3698 50.9581 51.98 45.7012 50.7583C45.1255 50.6245 44.7673 50.0494 44.9011 49.4737Z" fill="#222B3B"/>
<path fill-rule="evenodd" clip-rule="evenodd" d="M37.5482 49.569C37.4144 48.9933 36.8392 48.6351 36.2635 48.7689C30.4711 50.115 27.0945 52.856 25.252 57.0575C23.4663 61.1294 23.1772 66.4706 23.1772 72.8687C23.1772 73.4597 23.6563 73.9388 24.2474 73.9388C24.8384 73.9388 25.3176 73.4597 25.3176 72.8687C25.3176 66.4247 25.6316 61.5213 27.2122 57.9171C28.7359 54.4426 31.4884 52.076 36.748 50.8537C37.3237 50.7199 37.6819 50.1447 37.5482 49.569Z" fill="#222B3B"/>
<path fill-rule="evenodd" clip-rule="evenodd" d="M47.7924 39.4511V39.402C47.7924 36.6445 46.9657 34.8134 45.8635 33.6819C44.7577 32.5467 43.1769 31.9107 41.274 31.9107C39.3685 31.9107 37.7568 32.5489 36.6245 33.6936C35.5002 34.8302 34.6584 36.6596 34.6584 39.402V39.4384L34.6572 39.4749C34.3833 47.5058 38.2878 50.7847 41.274 50.7847C44.2459 50.7847 48.1591 47.4281 47.7946 39.5003L47.7924 39.4511ZM32.5181 39.402C32.2261 47.9634 36.492 52.9251 41.274 52.9251C46.0561 52.9251 50.3219 47.8661 49.9327 39.402C49.9327 33.008 46.0561 29.7704 41.274 29.7704C36.492 29.7704 32.5181 33.008 32.5181 39.402Z" fill="#222B3B"/>
<path fill-rule="evenodd" clip-rule="evenodd" d="M34.1713 49.9076C34.7624 49.9076 35.2415 50.3867 35.2415 50.9778L34.1713 50.9778L33.1012 50.9778C33.1012 50.3867 33.5803 49.9076 34.1713 49.9076ZM35.2415 61.2938L35.2415 50.9778C35.2415 50.9777 35.2415 50.9778 34.1713 50.9778C33.1012 50.9778 33.1012 50.9777 33.1012 50.9778L33.1011 56.584C33.1011 58.3979 33.1011 60.218 33.1011 61.2929C32.0942 61.4905 31.2958 61.9718 30.6977 62.6499C29.9363 63.5131 29.5771 64.6063 29.4076 65.5826C29.2362 66.5698 29.2419 67.536 29.286 68.2403C29.3082 68.5961 29.3408 68.8938 29.3683 69.105C29.382 69.2108 29.3946 69.2954 29.404 69.3553C29.4087 69.3853 29.4126 69.4091 29.4155 69.4264C29.417 69.4351 29.4182 69.4421 29.4191 69.4474L29.4203 69.4541L29.4207 69.4565L29.4209 69.4574C29.421 69.4578 29.421 69.4582 30.4742 69.268L29.421 69.4582C29.5261 70.0398 30.0827 70.4262 30.6644 70.3212C31.2455 70.2162 31.6317 69.6604 31.5276 69.0793C31.5275 69.079 31.5275 69.0788 31.5274 69.0785L31.5273 69.0779L31.5259 69.0695C31.5243 69.0602 31.5218 69.0447 31.5184 69.0234C31.5117 68.9807 31.5019 68.9149 31.4908 68.8291C31.4684 68.6573 31.441 68.4077 31.4222 68.1068C31.3841 67.4977 31.3837 66.7127 31.5164 65.9487C31.6509 65.1738 31.9059 64.5158 32.3029 64.0656C32.665 63.6551 33.2162 63.3334 34.1713 63.3334C35.1261 63.3334 35.6375 63.6534 35.9565 64.0395C36.3143 64.4724 36.5316 65.1157 36.623 65.891C36.7129 66.653 36.6691 67.4376 36.597 68.048C36.5614 68.3493 36.52 68.5994 36.488 68.7717C36.472 68.8577 36.4585 68.9239 36.4494 68.9668C36.4448 68.9883 36.4414 69.0039 36.4393 69.0132L36.4373 69.022C36.4372 69.0225 36.437 69.023 36.4369 69.0235C36.302 69.5982 36.658 70.1738 37.2328 70.3096C37.808 70.4454 38.3844 70.0893 38.5203 69.5141L37.4788 69.268C38.5203 69.5141 38.5204 69.5137 38.5205 69.5133L38.5212 69.51L38.5228 69.5034C38.5234 69.5007 38.5241 69.4975 38.525 69.4938C38.5257 69.4905 38.5266 69.4867 38.5275 69.4826C38.5314 69.4655 38.5366 69.4418 38.5429 69.4119C38.5556 69.3522 38.5728 69.2679 38.5924 69.1624C38.6315 68.9516 38.6806 68.6545 38.7226 68.2991C38.8056 67.5961 38.8654 66.6295 38.7486 65.6403C38.6335 64.6644 38.3341 63.5565 37.6065 62.676C37.0312 61.9799 36.2439 61.4932 35.2415 61.2938ZM48.9585 53.7514C49.4148 54.1271 49.48 54.8015 49.1043 55.2578L42.538 63.2309V73.5487C42.538 74.1398 42.0588 74.6189 41.4678 74.6189C40.8768 74.6189 40.3976 74.1398 40.3976 73.5487V63.2396L36.8574 59.0638C36.4752 58.6129 36.5308 57.9376 36.9817 57.5554C37.4325 57.1732 38.1078 57.2288 38.49 57.6797L41.4559 61.178L47.4521 53.8971C47.8278 53.4409 48.5023 53.3756 48.9585 53.7514Z" fill="#222B3B"/>
<path d="M87.8761 35.2217C87.8761 42.8515 81.6909 49.0367 74.0611 49.0367C66.4313 49.0367 60.2461 42.8515 60.2461 35.2217C60.2461 27.5919 66.4313 21.4067 74.0611 21.4067C81.6909 21.4067 87.8761 27.5919 87.8761 35.2217Z" fill="#FDBA05"/>
<path fill-rule="evenodd" clip-rule="evenodd" d="M74.0611 46.8964C80.5088 46.8964 85.7357 41.6695 85.7357 35.2217C85.7357 28.774 80.5088 23.5471 74.0611 23.5471C67.6134 23.5471 62.3864 28.774 62.3864 35.2217C62.3864 41.6695 67.6134 46.8964 74.0611 46.8964ZM74.0611 49.0367C81.6909 49.0367 87.8761 42.8515 87.8761 35.2217C87.8761 27.5919 81.6909 21.4067 74.0611 21.4067C66.4313 21.4067 60.2461 27.5919 60.2461 35.2217C60.2461 42.8515 66.4313 49.0367 74.0611 49.0367Z" fill="#222B3B"/>
<path d="M76.2623 36.6092H69.3906V35.0206H76.2623C76.8967 35.0206 77.4209 34.9003 77.8349 34.6596C78.249 34.4141 78.5573 34.0819 78.76 33.6631C78.9626 33.2395 79.0639 32.7582 79.0639 32.219C79.0639 31.6799 78.9626 31.2009 78.76 30.7821C78.5573 30.3585 78.249 30.0263 77.8349 29.7857C77.4209 29.5402 76.8967 29.4174 76.2623 29.4174H73.1701V42.6167H71.5314V27.8289H76.2623C77.2667 27.8289 78.0948 28.0286 78.7467 28.4282C79.3987 28.8277 79.8832 29.3596 80.2004 30.0239C80.5175 30.6882 80.6761 31.4199 80.6761 32.219C80.6761 33.0181 80.5175 33.7498 80.2004 34.4141C79.8832 35.0784 79.3987 35.6103 78.7467 36.0098C78.0948 36.4094 77.2667 36.6092 76.2623 36.6092ZM76.1566 37.9955V39.5841H69.3906V37.9955H76.1566Z" fill="#222B3B"/>
<path fill-rule="evenodd" clip-rule="evenodd" d="M69.3911 36.9964C69.1762 36.9964 69.002 36.8221 69.002 36.6072V35.0187C69.002 34.8037 69.1762 34.6295 69.3911 34.6295H71.1428V27.8269C71.1428 27.612 71.317 27.4377 71.5319 27.4377H76.2628C77.317 27.4377 78.2211 27.6473 78.9506 28.0944C79.664 28.5316 80.2012 29.1194 80.552 29.8543C80.8963 30.5753 81.0657 31.365 81.0657 32.2171C81.0657 33.0691 80.8963 33.8588 80.552 34.5798C80.2012 35.3147 79.664 35.9025 78.9506 36.3397C78.2211 36.7868 77.317 36.9964 76.2628 36.9964H73.5597V37.6044H76.1571C76.372 37.6044 76.5463 37.7786 76.5463 37.9936V39.5821C76.5463 39.797 76.372 39.9713 76.1571 39.9713H73.5597V42.6148C73.5597 42.8297 73.3855 43.0039 73.1706 43.0039H71.5319C71.317 43.0039 71.1428 42.8297 71.1428 42.6148V39.9713H69.3911C69.1762 39.9713 69.002 39.797 69.002 39.5821V37.9936C69.002 37.7786 69.1762 37.6044 69.3911 37.6044H71.1428V36.9964H69.3911ZM71.5319 36.6072V37.9936H69.3911V39.5821H71.5319V42.6148H73.1706V39.5821H76.1571V37.9936H73.1706V36.6072H76.2628C77.2672 36.6072 78.0953 36.4074 78.7472 36.0079C79.3992 35.6083 79.8837 35.0764 80.2009 34.4121C80.518 33.7478 80.6766 33.0161 80.6766 32.2171C80.6766 31.418 80.518 30.6863 80.2009 30.022C79.8837 29.3577 79.3992 28.8258 78.7472 28.4262C78.0953 28.0267 77.2672 27.8269 76.2628 27.8269H71.5319V35.0187H69.3911V36.6072H71.5319ZM73.1706 35.0187H76.2628C76.8971 35.0187 77.4213 34.8983 77.8354 34.6576C78.2495 34.4121 78.5578 34.08 78.7604 33.6612C78.9631 33.2376 79.0644 32.7562 79.0644 32.2171C79.0644 31.6779 78.9631 31.1989 78.7604 30.7801C78.5578 30.3565 78.2495 30.0244 77.8354 29.7837C77.4213 29.5382 76.8971 29.4154 76.2628 29.4154H73.1706V35.0187ZM73.5597 29.8046V34.6295H76.2628C76.8492 34.6295 77.3001 34.5182 77.6384 34.322C77.9881 34.1143 78.2419 33.8391 78.4098 33.4925C78.5836 33.1287 78.6752 32.7063 78.6752 32.2171C78.6752 31.7273 78.5834 31.3078 78.4101 30.9496L78.4094 30.9481C78.2412 30.5965 77.9878 30.3224 77.6398 30.1201L77.6369 30.1184C77.2991 29.9182 76.8489 29.8046 76.2628 29.8046H73.5597Z" fill="#222B3B"/>
</svg>
