<svg width="142" height="142" viewBox="0 0 142 142" fill="none" xmlns="http://www.w3.org/2000/svg">
<path d="M105.992 66.8112H117.995V84.9292H105.992V66.8112Z" fill="#FDBA05"/>
<path d="M105.992 59.7877H117.995V65.676H105.992V59.7877Z" fill="#7FDACE"/>
<path d="M75.3027 76.2073V83.228C75.3027 84.6039 76.4181 85.7193 77.794 85.7193H91.8354C93.2113 85.7193 94.3267 84.6039 94.3267 83.228V76.2073C94.3267 74.8314 93.2113 73.7161 91.8354 73.7161H77.794C76.4181 73.7161 75.3027 74.8314 75.3027 76.2073Z" fill="white"/>
<path d="M75.416 76.5477V83.1155H89.0045C90.3804 83.1155 91.4958 82.0002 91.4958 80.6243V74.0565H77.9072C76.5314 74.0565 75.416 75.1719 75.416 76.5477Z" fill="#FE5D0C"/>
<path d="M49.8247 83.7451C49.8247 104.7 47.1 98.598 39.2245 98.598C26.7624 100.619 27.6302 86.4915 27.6302 78.4754C28.7624 66.2457 32.0213 62.7231 37.595 59.2248C44.729 55.8278 49.8247 65.661 49.8247 83.7451Z" fill="white"/>
<path d="M67.2638 85.0407C67.2638 107.084 62.6211 100.665 49.2017 100.665C27.9669 102.791 31.6133 87.2162 31.6133 78.7837C32.6558 62.3557 38.6212 60.2128 47.2398 60.2128C59.1107 54.2407 67.2638 66.0172 67.2638 85.0407Z" fill="#7FDACE"/>
<path d="M61.5687 75.35C61.2259 70.2103 57.2101 64.3111 54.3531 62.8459L53.334 58.4296C66.9969 61.1473 69.4137 75.35 65.7829 99.9878H60.3547C60.0214 96.9822 61.9116 80.4896 61.5687 75.35Z" fill="#7676E8"/>
<path d="M57.2707 46.2027C57.7151 55.5576 52.8441 61.1491 47.3836 61.1491C41.923 61.1491 37.0519 55.6651 37.3853 46.2027C37.3853 39.1357 41.923 35.5574 47.3836 35.5574C52.8441 35.5574 57.2707 39.1357 57.2707 46.2027Z" fill="white"/>
<path d="M56.3928 47.3014C56.7765 54.835 52.5026 59.1114 47.7867 59.1114C43.0708 59.1114 39.5861 54.9216 39.874 47.3014C39.874 41.6103 43.793 38.7286 48.5089 38.7286C53.2248 38.7286 56.3928 41.6103 56.3928 47.3014Z" fill="#FDBA05"/>
<path d="M24.4258 85.7575L115.087 85.7518C116.691 85.7456 119.39 85.0083 120.689 86.9495C122.73 90.0016 121.208 94.2558 118.05 94.1857L26.7362 94.1871C25.5019 94.1866 24.2358 94.2735 23.0051 94.1451C20.3215 93.8659 18.8267 85.8754 24.4258 85.7575Z" fill="#FA8419"/>
<path fill-rule="evenodd" clip-rule="evenodd" d="M101.234 60.8076C101.234 59.4943 102.299 58.4296 103.612 58.4296H117.427C118.74 58.4296 119.805 59.4943 119.805 60.8076V85.0023C121.511 85.5326 122.749 87.1236 122.749 89.0038V90.0795C122.749 92.9876 120.392 95.3451 117.484 95.3451H24.5156C21.6075 95.3451 19.25 92.9876 19.25 90.0795C19.25 87.1715 21.6075 84.814 24.5156 84.814H73.9438V76.6609C73.9438 74.0968 76.0224 72.0181 78.5865 72.0181H79.8321V69.5269C79.8321 67.5882 81.4038 66.0165 83.3425 66.0165H86.6264C88.5651 66.0165 90.1368 67.5882 90.1368 69.5269V72.0181H91.4956C94.0597 72.0181 96.1384 74.0968 96.1384 76.6609V84.814H101.234V60.8076ZM103.725 84.814H117.314V67.8284H103.725V84.814ZM103.725 65.3371H117.314V60.9209H103.725V65.3371ZM93.6471 84.814V76.6609C93.6471 75.4726 92.6839 74.5094 91.4956 74.5094H78.5865C77.3983 74.5094 76.435 75.4726 76.435 76.6609V84.814H83.7955C84.4834 84.814 85.0411 85.3717 85.0411 86.0596C85.0411 86.7475 84.4834 87.3052 83.7955 87.3052H24.5156C22.9833 87.3052 21.7412 88.5473 21.7412 90.0795C21.7412 91.6118 22.9833 92.8539 24.5156 92.8539H117.484C119.016 92.8539 120.258 91.6118 120.258 90.0795V89.0038C120.258 88.0657 119.498 87.3052 118.559 87.3052H91.1559C90.468 87.3052 89.9103 86.7475 89.9103 86.0596C89.9103 85.3717 90.468 84.814 91.1559 84.814H93.6471ZM82.3234 72.0181H87.6455V69.5269C87.6455 68.9641 87.1893 68.5078 86.6264 68.5078H83.3425C82.7796 68.5078 82.3234 68.9641 82.3234 69.5269V72.0181ZM107.915 73.2638C107.915 72.5758 108.473 72.0181 109.161 72.0181H113.464C114.152 72.0181 114.709 72.5758 114.709 73.2638C114.709 73.9517 114.152 74.5094 113.464 74.5094H109.161C108.473 74.5094 107.915 73.9517 107.915 73.2638ZM107.915 79.4918C107.915 78.8039 108.473 78.2462 109.161 78.2462H113.464C114.152 78.2462 114.709 78.8039 114.709 79.4918C114.709 80.1798 114.152 80.7374 113.464 80.7374H109.161C108.473 80.7374 107.915 80.1798 107.915 79.4918Z" fill="#222B3B"/>
<path d="M37.3675 97.384H36.9145C34.7882 97.384 33.0645 99.1077 33.0645 101.234V115.728H41.2176V101.234C41.2176 99.1077 39.4938 97.384 37.3675 97.384Z" fill="#7FDACE"/>
<path fill-rule="evenodd" clip-rule="evenodd" d="M43.7098 118.221H30.5742V101.235C30.5742 97.7327 33.4133 94.8936 36.9155 94.8936H37.3685C40.8707 94.8936 43.7098 97.7327 43.7098 101.235V118.221ZM36.9155 97.3848H37.3685C39.4948 97.3848 41.2186 99.1086 41.2186 101.235V115.729H33.0654V101.235C33.0654 99.1086 34.7892 97.3848 36.9155 97.3848Z" fill="#222B3B"/>
<path d="M58.4319 97.384H57.979C55.8526 97.384 54.1289 99.1077 54.1289 101.234V115.728H62.282V101.234C62.282 99.1077 60.5583 97.384 58.4319 97.384Z" fill="#7FDACE"/>
<path fill-rule="evenodd" clip-rule="evenodd" d="M64.7703 118.221H51.6348V101.235C51.6348 97.7327 54.4739 94.8936 57.9761 94.8936H58.429C61.9312 94.8936 64.7703 97.7327 64.7703 101.235V118.221ZM57.9761 97.3848H58.429C60.5554 97.3848 62.2791 99.1086 62.2791 101.235V115.729H54.126V101.235C54.126 99.1086 55.8497 97.3848 57.9761 97.3848Z" fill="#222B3B"/>
<path d="M113.238 95.345H108.256V122.296H113.238V95.345Z" fill="#FA8419"/>
<path fill-rule="evenodd" clip-rule="evenodd" d="M105.764 92.8547H115.729V124.788H105.764V92.8547ZM113.237 95.3459V122.296H108.255V95.3459H113.237Z" fill="#222B3B"/>
<path fill-rule="evenodd" clip-rule="evenodd" d="M10.0781 123.541C10.0781 122.853 10.6358 122.295 11.3237 122.295H128.638C129.326 122.295 129.884 122.853 129.884 123.541C129.884 124.229 129.326 124.786 128.638 124.786H11.3237C10.6358 124.786 10.0781 124.229 10.0781 123.541Z" fill="#222B3B"/>
<path fill-rule="evenodd" clip-rule="evenodd" d="M41.332 101.801C41.332 101.113 41.8897 100.555 42.5776 100.555H52.4293C53.1173 100.555 53.6749 101.113 53.6749 101.801C53.6749 102.489 53.1173 103.047 52.4293 103.047H42.5776C41.8897 103.047 41.332 102.489 41.332 101.801Z" fill="#222B3B"/>
<path d="M31.2547 122.295C31.1296 122.295 31.028 122.194 31.0307 122.069C31.0731 120.109 31.6641 118.241 32.6866 116.85C33.7484 115.406 35.1885 114.595 36.6901 114.595C38.1917 114.595 39.6319 115.406 40.6937 116.85C41.7162 118.241 42.3072 120.109 42.3496 122.069C42.3523 122.194 42.2506 122.295 42.1255 122.295L36.6901 122.295L31.2547 122.295Z" fill="#7676E8"/>
<path fill-rule="evenodd" clip-rule="evenodd" d="M31.3314 119.808C31.3036 119.919 31.2777 120.03 31.2537 120.142C31.1201 120.765 31.0439 121.413 31.0297 122.072C31.027 122.197 31.1286 122.298 31.2537 122.298L42.1245 122.298C42.2496 122.298 42.3512 122.197 42.3485 122.072C42.3343 121.413 42.2581 120.765 42.1245 120.142C42.1005 120.03 42.0746 119.919 42.0468 119.808C42.0467 119.808 42.0466 119.807 42.0465 119.807C41.7694 118.705 41.3096 117.692 40.6927 116.853C39.6308 115.409 38.1907 114.598 36.6891 114.598C35.1875 114.598 33.7474 115.409 32.6855 116.853C32.0686 117.692 31.6088 118.705 31.3317 119.807C31.3316 119.807 31.3315 119.808 31.3314 119.808ZM28.539 122.018C28.5909 119.62 29.3109 117.237 30.6785 115.378C32.107 113.435 34.2363 112.107 36.6891 112.107C39.1419 112.107 41.2712 113.435 42.6997 115.378C44.0673 117.237 44.7874 119.62 44.8392 122.018C44.8728 123.574 43.6116 124.789 42.1245 124.789L31.2537 124.789C29.7666 124.789 28.5054 123.574 28.539 122.018Z" fill="#222B3B"/>
<path d="M53.2215 122.295C53.0964 122.295 52.9948 122.194 52.9975 122.069C53.0399 120.109 53.6309 118.241 54.6534 116.85C55.7152 115.406 57.1553 114.595 58.6569 114.595C60.1585 114.595 61.5987 115.406 62.6605 116.85C63.683 118.241 64.274 120.109 64.3164 122.069C64.3191 122.194 64.2174 122.295 64.0923 122.295L58.6569 122.295L53.2215 122.295Z" fill="#7676E8"/>
<path fill-rule="evenodd" clip-rule="evenodd" d="M53.2982 119.808C53.2704 119.919 53.2445 120.03 53.2205 120.142C53.0869 120.765 53.0107 121.413 52.9965 122.072C52.9938 122.197 53.0954 122.298 53.2205 122.298L64.0913 122.298C64.2164 122.298 64.318 122.197 64.3153 122.072C64.3011 121.413 64.2249 120.765 64.0913 120.142C64.0673 120.03 64.0414 119.919 64.0136 119.808C64.0135 119.808 64.0134 119.807 64.0133 119.807C63.7362 118.705 63.2764 117.692 62.6595 116.853C61.5976 115.409 60.1575 114.598 58.6559 114.598C57.1543 114.598 55.7142 115.409 54.6523 116.853C54.0354 117.692 53.5756 118.705 53.2985 119.807C53.2984 119.807 53.2983 119.808 53.2982 119.808ZM50.5058 122.018C50.5577 119.62 51.2777 117.237 52.6453 115.378C54.0738 113.435 56.2031 112.107 58.6559 112.107C61.1087 112.107 63.238 113.435 64.6665 115.378C66.0341 117.237 66.7542 119.62 66.806 122.018C66.8396 123.574 65.5784 124.789 64.0913 124.789L53.2205 124.789C51.7334 124.789 50.4722 123.574 50.5058 122.018Z" fill="#222B3B"/>
<path d="M33.7442 95.345H28.7617V122.296H33.7442V95.345Z" fill="#FA8419"/>
<path fill-rule="evenodd" clip-rule="evenodd" d="M26.2715 92.8547H36.2364V124.788H26.2715V92.8547ZM33.7452 95.3459V122.296H28.7627V95.3459H33.7452Z" fill="#222B3B"/>
<path fill-rule="evenodd" clip-rule="evenodd" d="M67.2801 92.8548C67.9679 92.8649 68.5174 93.4307 68.5072 94.1186L67.2618 94.1003C68.5072 94.1186 68.5072 94.1189 68.5072 94.1193L68.5072 94.1223L68.5071 94.1288L68.5066 94.1501C68.5062 94.168 68.5056 94.1929 68.5046 94.2246C68.5027 94.2879 68.4995 94.378 68.494 94.4911C68.4831 94.7171 68.4633 95.0362 68.4277 95.4175C68.357 96.1746 68.2217 97.2018 67.9601 98.2404C67.7033 99.2599 67.3003 100.393 66.6403 101.288C65.9557 102.218 64.9178 102.977 63.486 102.932C62.7984 102.911 62.2584 102.336 62.2799 101.648C62.3014 100.961 62.8762 100.421 63.5638 100.442C63.9439 100.454 64.279 100.293 64.6347 99.8106C65.0151 99.2945 65.3198 98.5234 65.5443 97.632C65.764 96.7598 65.8835 95.869 65.9472 95.1859C65.9789 94.847 65.9962 94.5655 66.0057 94.3708C66.0104 94.2735 66.0131 94.1983 66.0146 94.1489C66.0153 94.1242 66.0158 94.1059 66.016 94.0946L66.0163 94.082C66.0163 94.0818 66.0163 94.0817 66.0163 94.0815M67.2801 92.8548C66.5924 92.8447 66.0267 93.3939 66.0163 94.0815L67.2801 92.8548Z" fill="#222B3B"/>
<path d="M47.8984 72.2469L42.6895 67.038C47.8984 65.2262 51.2955 62.0555 53.1073 58.8849L56.278 61.7158L47.8984 72.2469Z" fill="#7676E8"/>
<path fill-rule="evenodd" clip-rule="evenodd" d="M51.6674 57.5841C51.8231 56.914 52.4925 56.4971 53.1626 56.6528C59.9078 58.2203 63.8625 61.4403 66.0344 66.3535C68.1419 71.1209 68.5075 77.3642 68.5075 84.8166C68.5075 85.5046 67.9498 86.0622 67.2618 86.0622C66.5739 86.0622 66.0162 85.5046 66.0162 84.8166C66.0162 77.3217 65.623 71.5844 63.7559 67.3608C61.9532 63.2829 58.7173 60.5013 52.5987 59.0794C51.9286 58.9236 51.5117 58.2542 51.6674 57.5841Z" fill="#222B3B"/>
<path fill-rule="evenodd" clip-rule="evenodd" d="M43.11 57.6951C42.9542 57.025 42.2848 56.608 41.6147 56.7637C34.8728 58.3305 30.9426 61.521 28.798 66.4112C26.7197 71.1506 26.3831 77.3674 26.3831 84.8144C26.3831 85.5023 26.9408 86.06 27.6287 86.06C28.3167 86.06 28.8744 85.5023 28.8744 84.8144C28.8744 77.314 29.2399 71.6068 31.0795 67.4117C32.853 63.3676 36.0568 60.613 42.1786 59.1903C42.8487 59.0346 43.2657 58.3651 43.11 57.6951Z" fill="#222B3B"/>
<path fill-rule="evenodd" clip-rule="evenodd" d="M55.0331 45.9185V45.8613C55.0331 42.6518 54.0708 40.5205 52.7879 39.2035C51.5009 37.8822 49.661 37.142 47.4461 37.142C45.2282 37.142 43.3523 37.8847 42.0343 39.2172C40.7257 40.5401 39.746 42.6693 39.746 45.8613V45.9037L39.7445 45.9462C39.4258 55.2936 43.9704 59.1101 47.4461 59.1101C50.9052 59.1101 55.4599 55.2032 55.0357 45.9757L55.0331 45.9185ZM37.2548 45.8613C36.9149 55.8262 41.8801 61.6013 47.4461 61.6013C53.0122 61.6013 57.9772 55.713 57.5243 45.8613C57.5243 38.4191 53.0122 34.6508 47.4461 34.6508C41.8801 34.6508 37.2548 38.4191 37.2548 45.8613Z" fill="#222B3B"/>
<path fill-rule="evenodd" clip-rule="evenodd" d="M39.1796 58.0892C39.8676 58.0892 40.4253 58.6469 40.4252 59.3348L39.1796 59.3348L37.934 59.3348C37.934 58.6468 38.4917 58.0892 39.1796 58.0892ZM40.4252 71.342L40.4252 59.3348C40.4252 59.3347 40.4252 59.3348 39.1796 59.3348C37.934 59.3348 37.934 59.3347 37.934 59.3348L37.9339 65.8601C37.9339 67.9713 37.9339 70.0898 37.9339 71.3409C36.762 71.5709 35.8327 72.1311 35.1365 72.9203C34.2503 73.9251 33.8322 75.1975 33.6349 76.3338C33.4354 77.4829 33.4422 78.6074 33.4934 79.4273C33.5193 79.8414 33.5572 80.1878 33.5892 80.4337C33.6052 80.5568 33.6198 80.6553 33.6307 80.7251C33.6362 80.7599 33.6408 80.7877 33.6442 80.8078C33.6459 80.8179 33.6473 80.826 33.6484 80.8322L33.6497 80.84L33.6502 80.8428L33.6504 80.8439C33.6505 80.8444 33.6506 80.8448 34.8764 80.6235L33.6506 80.8448C33.7729 81.5218 34.4208 81.9715 35.0978 81.8492C35.7742 81.7271 36.2237 81.0802 36.1025 80.4038C36.1024 80.4035 36.1024 80.4032 36.1023 80.4028L36.1022 80.4021L36.1005 80.3923C36.0987 80.3816 36.0957 80.3636 36.0918 80.3387C36.084 80.2891 36.0726 80.2124 36.0596 80.1126C36.0336 79.9126 36.0017 79.622 35.9798 79.2718C35.9355 78.5629 35.9351 77.6492 36.0894 76.76C36.246 75.858 36.5428 75.0921 37.0049 74.5682C37.4263 74.0904 38.0679 73.716 39.1796 73.716C40.2909 73.716 40.8862 74.0884 41.2575 74.5377C41.6739 75.0416 41.9268 75.7904 42.0333 76.6929C42.1379 77.5797 42.0869 78.4929 42.003 79.2034C41.9615 79.5541 41.9133 79.8452 41.8761 80.0458C41.8575 80.1459 41.8418 80.2229 41.8311 80.2729C41.8258 80.2978 41.8218 80.316 41.8194 80.3269L41.817 80.3371C41.8169 80.3377 41.8168 80.3382 41.8166 80.3388C41.6596 81.0077 42.074 81.6777 42.7429 81.8357C43.4125 81.9939 44.0834 81.5793 44.2416 80.9098L43.0293 80.6235C44.2416 80.9098 44.2417 80.9094 44.2418 80.9089L44.2427 80.9051L44.2444 80.8974C44.2452 80.8942 44.246 80.8905 44.247 80.8863C44.2479 80.8824 44.2489 80.878 44.2499 80.8733C44.2544 80.8533 44.2605 80.8257 44.2679 80.7909C44.2827 80.7215 44.3027 80.6233 44.3255 80.5005C44.371 80.2552 44.4281 79.9093 44.477 79.4957C44.5737 78.6774 44.6432 77.5524 44.5073 76.401C44.3733 75.2651 44.0248 73.9757 43.1779 72.9508C42.5083 72.1405 41.592 71.5741 40.4252 71.342ZM56.391 62.5631C56.922 63.0004 56.9979 63.7854 56.5606 64.3164L48.9179 73.5967V85.6059C48.9179 86.2938 48.3602 86.8515 47.6723 86.8515C46.9843 86.8515 46.4266 86.2938 46.4266 85.6059V73.6067L42.3061 68.7463C41.8612 68.2216 41.926 67.4356 42.4507 66.9907C42.9754 66.5459 43.7614 66.6106 44.2063 67.1353L47.6584 71.2072L54.6376 62.7327C55.0749 62.2017 55.8599 62.1257 56.391 62.5631Z" fill="#222B3B"/>
<path d="M101.689 40.9958C101.689 49.8764 94.4896 57.0755 85.609 57.0755C76.7284 57.0755 69.5293 49.8764 69.5293 40.9958C69.5293 32.1152 76.7284 24.916 85.609 24.916C94.4896 24.916 101.689 32.1152 101.689 40.9958Z" fill="#FDBA05"/>
<path fill-rule="evenodd" clip-rule="evenodd" d="M85.609 54.5843C93.1138 54.5843 99.1976 48.5005 99.1976 40.9958C99.1976 33.491 93.1138 27.4072 85.609 27.4072C78.1043 27.4072 72.0205 33.491 72.0205 40.9958C72.0205 48.5005 78.1043 54.5843 85.609 54.5843ZM85.609 57.0755C94.4896 57.0755 101.689 49.8764 101.689 40.9958C101.689 32.1152 94.4896 24.916 85.609 24.916C76.7284 24.916 69.5293 32.1152 69.5293 40.9958C69.5293 49.8764 76.7284 57.0755 85.609 57.0755Z" fill="#222B3B"/>
<path d="M88.1721 42.6106H80.1738V40.7617H88.1721C88.9104 40.7617 89.5205 40.6216 90.0024 40.3415C90.4844 40.0557 90.8433 39.6691 91.0791 39.1817C91.315 38.6886 91.4329 38.1283 91.4329 37.5008C91.4329 36.8733 91.315 36.3158 91.0791 35.8283C90.8433 35.3353 90.4844 34.9487 90.0024 34.6685C89.5205 34.3828 88.9104 34.2399 88.1721 34.2399H84.5729V49.6031H82.6656V32.3909H88.1721C89.341 32.3909 90.3049 32.6235 91.0637 33.0885C91.8225 33.5535 92.3865 34.1727 92.7557 34.9459C93.1248 35.7191 93.3094 36.5707 93.3094 37.5008C93.3094 38.4309 93.1248 39.2825 92.7557 40.0557C92.3865 40.8289 91.8225 41.448 91.0637 41.9131C90.3049 42.3781 89.341 42.6106 88.1721 42.6106ZM88.049 44.2243V46.0732H80.1738V44.2243H88.049Z" fill="#222B3B"/>
<path fill-rule="evenodd" clip-rule="evenodd" d="M80.1737 43.0613C79.9235 43.0613 79.7207 42.8585 79.7207 42.6083V40.7594C79.7207 40.5092 79.9235 40.3064 80.1737 40.3064H82.2125V32.3886C82.2125 32.1385 82.4153 31.9357 82.6654 31.9357H88.1719C89.3988 31.9357 90.4512 32.1796 91.3002 32.7C92.1306 33.2089 92.7559 33.8931 93.1642 34.7484C93.5649 35.5876 93.7622 36.5067 93.7622 37.4985C93.7622 38.4902 93.5649 39.4093 93.1642 40.2485C92.7559 41.1039 92.1306 41.7881 91.3002 42.2969C90.4512 42.8173 89.3988 43.0613 88.1719 43.0613H85.0256V43.769H88.0488C88.299 43.769 88.5018 43.9718 88.5018 44.222V46.0709C88.5018 46.3211 88.299 46.5239 88.0488 46.5239H85.0256V49.6007C85.0256 49.8509 84.8228 50.0537 84.5727 50.0537H82.6654C82.4153 50.0537 82.2125 49.8509 82.2125 49.6007V46.5239H80.1737C79.9235 46.5239 79.7207 46.3211 79.7207 46.0709V44.222C79.7207 43.9718 79.9235 43.769 80.1737 43.769H82.2125V43.0613H80.1737ZM82.6654 42.6083V44.222H80.1737V46.0709H82.6654V49.6007H84.5727V46.0709H88.0488V44.222H84.5727V42.6083H88.1719C89.3409 42.6083 90.3048 42.3758 91.0636 41.9108C91.8224 41.4457 92.3863 40.8266 92.7555 40.0534C93.1246 39.2802 93.3092 38.4286 93.3092 37.4985C93.3092 36.5684 93.1246 35.7167 92.7555 34.9435C92.3863 34.1703 91.8224 33.5512 91.0636 33.0862C90.3048 32.6211 89.3409 32.3886 88.1719 32.3886H82.6654V40.7594H80.1737V42.6083H82.6654ZM84.5727 40.7594H88.1719C88.9102 40.7594 89.5203 40.6193 90.0023 40.3391C90.4842 40.0534 90.8431 39.6668 91.0789 39.1793C91.3148 38.6863 91.4327 38.126 91.4327 37.4985C91.4327 36.8709 91.3148 36.3135 91.0789 35.826C90.8431 35.3329 90.4842 34.9463 90.0023 34.6662C89.5203 34.3805 88.9102 34.2376 88.1719 34.2376H84.5727V40.7594ZM85.0256 34.6905V40.3064H88.1719C88.8544 40.3064 89.3792 40.1769 89.773 39.9485C90.18 39.7068 90.4753 39.3865 90.6708 38.983C90.8731 38.5596 90.9798 38.068 90.9798 37.4985C90.9798 36.9284 90.8729 36.4402 90.6712 36.0233L90.6703 36.0215C90.4746 35.6122 90.1796 35.2932 89.7746 35.0578L89.7713 35.0558C89.3781 34.8227 88.854 34.6905 88.1719 34.6905H85.0256Z" fill="#222B3B"/>
</svg>
