<svg width="25" height="24" viewBox="0 0 25 24" fill="none" xmlns="http://www.w3.org/2000/svg">
<g clip-path="url(#clip0_3500_6465)">
<path fill-rule="evenodd" clip-rule="evenodd" d="M24.4277 12C24.4277 18.6274 19.0552 24 12.4277 24C5.80032 24 0.427734 18.6274 0.427734 12C0.427734 5.37258 5.80032 0 12.4277 0C19.0552 0 24.4277 5.37258 24.4277 12ZM12.8578 8.85893C11.6906 9.3444 9.35787 10.3492 5.85963 11.8733C5.29157 12.0992 4.99399 12.3202 4.9669 12.5363C4.92112 12.9015 5.37845 13.0453 6.0012 13.2411C6.08592 13.2678 6.17369 13.2954 6.26367 13.3246C6.87637 13.5238 7.70056 13.7568 8.12902 13.766C8.51768 13.7744 8.95146 13.6142 9.43038 13.2853C12.6989 11.079 14.3861 9.96381 14.492 9.93977C14.5668 9.92281 14.6703 9.90148 14.7405 9.96385C14.8107 10.0262 14.8038 10.1443 14.7963 10.176C14.751 10.3691 12.9559 12.0381 12.0269 12.9018C11.7372 13.171 11.5318 13.362 11.4898 13.4056C11.3957 13.5033 11.2999 13.5958 11.2077 13.6846C10.6385 14.2333 10.2116 14.6448 11.2313 15.3168C11.7214 15.6397 12.1135 15.9067 12.5047 16.1731C12.9319 16.4641 13.358 16.7543 13.9093 17.1157C14.0498 17.2077 14.184 17.3034 14.3146 17.3965C14.8118 17.751 15.2585 18.0694 15.8103 18.0186C16.131 17.9891 16.4622 17.6876 16.6304 16.7884C17.0279 14.6631 17.8094 10.0585 17.99 8.16097C18.0058 7.99473 17.9859 7.78197 17.9699 7.68857C17.9539 7.59518 17.9205 7.46211 17.7991 7.3636C17.6553 7.24694 17.4334 7.22234 17.3341 7.22408C16.8828 7.23203 16.1903 7.47282 12.8578 8.85893Z" fill="#333333"/>
</g>
<defs>
<clipPath id="clip0_3500_6465">
<rect width="24" height="24" fill="white" transform="translate(0.427734)"/>
</clipPath>
</defs>
</svg>
