<svg width="25" height="24" viewBox="0 0 25 24" fill="none" xmlns="http://www.w3.org/2000/svg">
<g clip-path="url(#clip0_3500_6462)">
<path fill-rule="evenodd" clip-rule="evenodd" d="M2.1148 1.68707C0.427734 3.37413 0.427734 6.0894 0.427734 11.52V12.48C0.427734 17.9106 0.427734 20.6259 2.1148 22.313C3.80186 24 6.51713 24 11.9477 24H12.9077C18.3383 24 21.0536 24 22.7407 22.313C24.4277 20.6259 24.4277 17.9106 24.4277 12.48V11.52C24.4277 6.0894 24.4277 3.37413 22.7407 1.68707C21.0536 0 18.3383 0 12.9077 0H11.9477C6.51713 0 3.80186 0 2.1148 1.68707ZM4.47779 7.30005C4.60779 13.54 7.72778 17.2901 13.1978 17.2901H13.5078V13.72C15.5178 13.92 17.0377 15.3901 17.6477 17.2901H20.4878C19.7078 14.4501 17.6577 12.8801 16.3777 12.2801C17.6577 11.5401 19.4577 9.74005 19.8877 7.30005H17.3076C16.7476 9.28005 15.0878 11.08 13.5078 11.25V7.30005H10.9277V14.22C9.32773 13.8201 7.30778 11.88 7.21778 7.30005H4.47779Z" fill="#333333"/>
</g>
<defs>
<clipPath id="clip0_3500_6462">
<rect width="24" height="24" fill="white" transform="translate(0.427734)"/>
</clipPath>
</defs>
</svg>
