<svg width="25" height="24" viewBox="0 0 25 24" fill="none" xmlns="http://www.w3.org/2000/svg">
<g clip-path="url(#clip0_3500_6471)">
<path d="M24.1887 7.1998C24.1887 7.1998 23.9543 5.54512 23.2324 4.81855C22.3184 3.8623 21.2965 3.85762 20.8277 3.80137C17.4715 3.55762 12.4324 3.55762 12.4324 3.55762H12.423C12.423 3.55762 7.38398 3.55762 4.02773 3.80137C3.55898 3.85762 2.53711 3.8623 1.62305 4.81855C0.901172 5.54512 0.671484 7.1998 0.671484 7.1998C0.671484 7.1998 0.427734 9.14512 0.427734 11.0857V12.9045C0.427734 14.8451 0.666797 16.7904 0.666797 16.7904C0.666797 16.7904 0.901172 18.4451 1.61836 19.1717C2.53242 20.1279 3.73242 20.0951 4.2668 20.1982C6.18867 20.3811 12.4277 20.4373 12.4277 20.4373C12.4277 20.4373 17.4715 20.4279 20.8277 20.1889C21.2965 20.1326 22.3184 20.1279 23.2324 19.1717C23.9543 18.4451 24.1887 16.7904 24.1887 16.7904C24.1887 16.7904 24.4277 14.8498 24.4277 12.9045V11.0857C24.4277 9.14512 24.1887 7.1998 24.1887 7.1998ZM9.94805 15.1123V8.36699L16.4309 11.7514L9.94805 15.1123Z" fill="#333333"/>
</g>
<defs>
<clipPath id="clip0_3500_6471">
<rect width="24" height="24" fill="white" transform="translate(0.427734)"/>
</clipPath>
</defs>
</svg>
