<svg width="25" height="24" viewBox="0 0 25 24" fill="none" xmlns="http://www.w3.org/2000/svg">
<g clip-path="url(#clip0_3500_6468)">
<path d="M12.4277 0C5.80037 0 0.427734 5.37264 0.427734 12C0.427734 17.6275 4.30229 22.3498 9.52901 23.6467V15.6672H7.05461V12H9.52901V10.4198C9.52901 6.33552 11.3775 4.4424 15.3874 4.4424C16.1477 4.4424 17.4596 4.59168 17.9962 4.74048V8.06448C17.713 8.03472 17.221 8.01984 16.61 8.01984C14.6425 8.01984 13.8821 8.76528 13.8821 10.703V12H17.8018L17.1284 15.6672H13.8821V23.9122C19.8241 23.1946 24.4282 18.1354 24.4282 12C24.4277 5.37264 19.0551 0 12.4277 0Z" fill="#333333"/>
</g>
<defs>
<clipPath id="clip0_3500_6468">
<rect width="24" height="24" fill="white" transform="translate(0.427734)"/>
</clipPath>
</defs>
</svg>
