<svg width="164" height="104" viewBox="0 0 164 104" fill="none" xmlns="http://www.w3.org/2000/svg">
<path d="M47 36.292V69.3715H70.3425C68.7741 67.411 68.3973 64.9707 68.3973 62.3218C68.3973 55.8352 74.2329 48.1061 82.9863 48.1061C90.7671 48.1061 96.6027 55.8248 96.6027 62.3218C96.6027 64.9707 96.3043 67.411 94.6575 69.3715H118V36.4901L47 36.292Z" fill="#FE5D0C"/>
<path d="M110.219 0C112.078 2.02536 112.651 4.69876 112.651 7.59358C112.651 13.9561 109.094 21.357 100.493 21.357C92.226 21.357 86.8767 13.9663 86.8767 7.59358C86.8767 4.70898 87.363 2.37299 88.7421 0H78.0587C79.0959 1.4238 80.0685 4.56578 80.0685 7.59358C80.0685 13.9561 75.2055 21.8316 66.4521 21.8316C57.2123 21.8316 52.3493 13.9663 52.3493 7.59358C52.3493 4.56578 52.7206 2.05604 54.7808 0H47V32.2727H118V0H110.219Z" fill="#FE5D0C"/>
<path d="M9.06497 96.0597C10.3568 96.6392 11 97.6736 11 99.163C11 100.474 10.5272 101.503 9.58171 102.25C8.63618 102.997 7.33883 103.371 5.69515 103.371C4.05147 103.371 2.72664 102.976 1.68216 102.185C0.637681 101.394 0.0769615 100.252 0 98.7622H3.36432C3.44128 99.3038 3.66117 99.6829 4.01849 99.9104C4.37581 100.138 4.90905 100.246 5.61269 100.246C6.35482 100.246 6.87706 100.127 7.17941 99.8887C7.48176 99.6504 7.63018 99.2984 7.63018 98.838C7.63018 98.4372 7.49825 98.1556 7.22889 97.9823C6.95952 97.809 6.48126 97.7224 5.78861 97.7224H3.89205V94.8682H5.47526C6.04698 94.8682 6.48676 94.7924 6.78911 94.6461C7.09145 94.4999 7.23988 94.2237 7.23988 93.8283C7.23988 92.9401 6.61869 92.496 5.38181 92.496C4.7936 92.496 4.34833 92.5935 4.05147 92.7939C3.75462 92.9943 3.55672 93.3409 3.46327 93.8446H0.0989505C0.192404 92.4202 0.731134 91.3154 1.71514 90.5355C2.69915 89.7556 3.95802 89.3711 5.48076 89.3711C7.0035 89.3711 8.26237 89.7448 9.2024 90.4976C10.1424 91.2504 10.6097 92.209 10.6097 93.3788C10.6097 93.9421 10.4668 94.4674 10.1864 94.9386C9.90605 95.4152 9.53223 95.7889 9.05947 96.0597H9.06497Z" fill="#FE5D0C"/>
<path d="M23.2646 102.371L22.2257 99.6793H16.7802L15.7412 102.371H12L17.2763 89.3711H21.7237L27 102.371H23.2588H23.2646ZM17.9475 96.6693H21.0642L19.5058 92.6211L17.9475 96.6693Z" fill="#FE5D0C"/>
<path d="M38.1727 89.3711H42V102.371H38.6295V93.7896L35.1588 98.7507H34.8412L31.3705 93.7896V102.371H28V89.3711H31.8273L35.0028 93.8314L38.1783 89.3711H38.1727Z" fill="#FE5D0C"/>
<path d="M46.1642 91.3866C47.6032 90.0429 49.3876 89.3711 51.5 89.3711C53.6124 89.3711 55.3968 90.0429 56.8358 91.3866C58.2747 92.7302 59 94.3935 59 96.3711C59 98.3486 58.2805 100.012 56.8358 101.356C55.391 102.699 53.6124 103.371 51.5 103.371C49.3876 103.371 47.6032 102.699 46.1642 101.356C44.7253 100.012 44 98.3486 44 96.3711C44 94.3935 44.7195 92.7302 46.1642 91.3866ZM54.3492 93.5863C53.5952 92.8603 52.6454 92.4973 51.5 92.4973C50.3546 92.4973 49.4048 92.8603 48.6508 93.5863C47.8968 94.3123 47.5226 95.2442 47.5226 96.3711C47.5226 97.498 47.8968 98.4299 48.6508 99.1613C49.4048 99.8874 50.3546 100.25 51.5 100.25C52.6454 100.25 53.5952 99.8874 54.3492 99.1613C55.1032 98.4353 55.4774 97.5034 55.4774 96.3711C55.4774 95.2387 55.1032 94.3123 54.3492 93.5863Z" fill="#FE5D0C"/>
<path d="M72 102.366H67.8687L63.3105 96.4786V102.366H60V89.3711H63.3105V94.9038L67.5787 89.3711H71.6498L66.7414 95.6495L72 102.371V102.366Z" fill="#FE5D0C"/>
<path d="M89.065 96.0597C90.3568 96.6392 91 97.6736 91 99.163C91 100.474 90.5272 101.503 89.5817 102.25C88.6362 102.997 87.3388 103.371 85.6952 103.371C84.0515 103.371 82.7266 102.976 81.6822 102.185C80.6377 101.394 80.077 100.252 80 98.7622H83.3643C83.4413 99.3038 83.6612 99.6829 84.0185 99.9104C84.3758 100.138 84.909 100.246 85.6127 100.246C86.3548 100.246 86.8771 100.127 87.1794 99.8887C87.4818 99.6504 87.6302 99.2984 87.6302 98.838C87.6302 98.4372 87.4982 98.1556 87.2289 97.9823C86.9595 97.809 86.4813 97.7224 85.7886 97.7224H83.8921V94.8682H85.4753C86.047 94.8682 86.4868 94.7924 86.7891 94.6461C87.0915 94.4999 87.2399 94.2237 87.2399 93.8283C87.2399 92.9401 86.6187 92.496 85.3818 92.496C84.7936 92.496 84.3483 92.5935 84.0515 92.7939C83.7546 92.9943 83.5567 93.3409 83.4633 93.8446H80.0989C80.1924 92.4202 80.7311 91.3154 81.7151 90.5355C82.6991 89.7556 83.958 89.3711 85.4808 89.3711C87.0035 89.3711 88.2624 89.7448 89.2024 90.4976C90.1424 91.2504 90.6097 92.209 90.6097 93.3788C90.6097 93.9421 90.4668 94.4674 90.1864 94.9386C89.906 95.4152 89.5322 95.7889 89.0595 96.0597H89.065Z" fill="#FE5D0C"/>
<path d="M102.265 102.371L101.226 99.6793H95.7801L94.7412 102.371H91L96.2763 89.3711H100.724L106 102.371H102.259H102.265ZM96.9475 96.6693H100.064L98.5058 92.6211L96.9475 96.6693Z" fill="#FE5D0C"/>
<path d="M114.323 94.1809C117.439 94.1809 119 95.532 119 98.229C119 99.5802 118.568 100.608 117.709 101.312C116.849 102.016 115.665 102.371 114.16 102.371H108V89.3711H117.916V92.3811H111.397V94.1809H114.317H114.323ZM114.025 99.3611C115.053 99.3611 115.564 98.9698 115.564 98.1925C115.564 97.77 115.462 97.4778 115.255 97.3213C115.047 97.1648 114.693 97.0814 114.188 97.0814H111.408V99.3663H114.025V99.3611Z" fill="#FE5D0C"/>
<path d="M121.164 91.3866C122.603 90.0429 124.388 89.3711 126.5 89.3711C128.612 89.3711 130.397 90.0429 131.836 91.3866C133.275 92.7302 134 94.3935 134 96.3711C134 98.3486 133.281 100.012 131.836 101.356C130.391 102.699 128.612 103.371 126.5 103.371C124.388 103.371 122.603 102.699 121.164 101.356C119.725 100.012 119 98.3486 119 96.3711C119 94.3935 119.719 92.7302 121.164 91.3866ZM129.349 93.5863C128.595 92.8603 127.645 92.4973 126.5 92.4973C125.355 92.4973 124.405 92.8603 123.651 93.5863C122.897 94.3123 122.523 95.2442 122.523 96.3711C122.523 97.498 122.897 98.4299 123.651 99.1613C124.405 99.8874 125.355 100.25 126.5 100.25C127.645 100.25 128.595 99.8874 129.349 99.1613C130.103 98.4353 130.477 97.5034 130.477 96.3711C130.477 95.2387 130.103 94.3123 129.349 93.5863Z" fill="#FE5D0C"/>
<path d="M147 89.3711V92.3799H143.188V102.371H139.796V92.3799H136V89.3711H147Z" fill="#FE5D0C"/>
<path d="M154.806 94.1268C156.26 94.1268 157.379 94.4762 158.162 95.1645C158.945 95.8581 159.339 96.8801 159.339 98.2307C159.339 99.5813 158.929 100.609 158.114 101.313C157.299 102.017 156.175 102.371 154.748 102.371H149V89.3763H152.223V94.132H154.801L154.806 94.1268ZM154.614 99.3623C155.589 99.3623 156.074 98.9712 156.074 98.1942C156.074 97.7875 155.962 97.4954 155.733 97.3286C155.504 97.1617 155.152 97.0783 154.673 97.0783H152.228V99.3623H154.62H154.614ZM160.777 89.3711H164V102.366H160.777V89.3711Z" fill="#FE5D0C"/>
</svg>
