<svg width="50" height="49" viewBox="0 0 50 49" fill="none" xmlns="http://www.w3.org/2000/svg">
<path d="M0 26V49H16.4384C15.3339 47.6368 15.0685 45.9401 15.0685 44.0984C15.0685 39.5883 19.1781 34.2143 25.3425 34.2143C30.8219 34.2143 34.9315 39.581 34.9315 44.0984C34.9315 45.9401 34.7213 47.6368 33.5616 49H50V26.1378L0 26Z" fill="#E55938"/>
<path d="M44.5205 0C45.8295 1.44342 46.2329 3.34869 46.2329 5.41176C46.2329 9.94615 43.728 15.2206 37.6712 15.2206C31.8493 15.2206 28.0822 9.95344 28.0822 5.41176C28.0822 3.35598 28.4247 1.69118 29.3959 0H21.8723C22.6027 1.01471 23.2877 3.25392 23.2877 5.41176C23.2877 9.94615 19.863 15.5588 13.6986 15.5588C7.19178 15.5588 3.76712 9.95344 3.76712 5.41176C3.76712 3.25392 4.02858 1.46529 5.47945 0H0V23H50V0H44.5205Z" fill="#E55938"/>
</svg>
