<svg width="142" height="142" viewBox="0 0 142 142" fill="none" xmlns="http://www.w3.org/2000/svg">
<path d="M42.7422 84.2977V118.862C42.7422 121.159 44.604 123.02 46.9006 123.02H93.4155C95.7121 123.02 97.5739 121.159 97.5739 118.862V84.2977C97.5739 82.0011 95.7121 80.1393 93.4155 80.1393H46.9006C44.604 80.1393 42.7422 82.0011 42.7422 84.2977Z" fill="white"/>
<path d="M57.3613 94.4178V122.877H84.9178V94.4178C84.9178 92.1212 83.056 90.2594 80.7594 90.2594H71.1395H61.5197C59.2231 90.2594 57.3613 92.1212 57.3613 94.4178Z" fill="#D7EC0B"/>
<path d="M75.6531 89.5695C72.4672 89.5875 68.8409 89.6028 65.8971 89.604C63.0662 89.6051 60.1582 92.4526 60.1582 95.2835V121.117C60.1582 121.673 73.2803 121.348 79.8414 121.117V93.7312C79.8414 91.4228 77.9614 89.5564 75.6531 89.5695Z" fill="#7676E8"/>
<path d="M43.7246 35.4407V75.1375C43.7246 77.4341 45.5864 79.2959 47.883 79.2959H94.3979C96.6945 79.2959 98.5563 77.4341 98.5563 75.1375V34.7966C98.5563 33.2061 97.649 31.7549 96.2191 31.0583L73.0094 19.751C71.8328 19.1778 70.4551 19.1919 69.2906 19.7891L45.9855 31.7404C44.5975 32.4522 43.7246 33.8809 43.7246 35.4407Z" fill="#7676E8" stroke="#222B3B" stroke-width="3.0495"/>
<path d="M45.2734 35.2708V75.2532C45.2734 76.6312 46.3905 77.7482 47.7685 77.7482H93.919V37.6606C93.919 36.0509 92.99 34.5858 91.5341 33.8993L67.3467 22.4944L46.6357 33.0478C45.7998 33.4737 45.2734 34.3326 45.2734 35.2708Z" fill="#7FDACE"/>
<circle cx="70.0037" cy="51.7021" r="19.2673" fill="white"/>
<mask id="path-7-outside-1_3500_6664" maskUnits="userSpaceOnUse" x="49.8984" y="31.3357" width="42" height="42" fill="black">
<rect fill="white" x="49.8984" y="31.3357" width="42" height="42"/>
<path d="M70.0435 32.3702C70.0632 32.3687 70.0828 32.3668 70.1025 32.3657C74.1303 32.1302 78.4364 33.2924 81.8252 35.46C82.9384 36.1721 83.9352 37.0026 84.9086 37.8927C88.4888 41.1673 90.8586 46.1603 91.0643 51.0004C91.1161 52.2227 91.1427 53.4469 91.0253 54.6661C90.608 59.002 88.6805 63.0004 85.7382 66.1894C82.3116 69.9037 77.2247 72.3245 72.1533 72.534C66.9579 72.6933 62.0513 71.216 58.0451 67.852C57.7945 67.6431 57.5493 67.4282 57.3093 67.2075C57.0694 66.9866 56.835 66.7599 56.6062 66.5276C56.3774 66.2953 56.1545 66.0575 55.9374 65.8142C55.7204 65.5709 55.5094 65.3225 55.3046 65.0689C55.0998 64.8153 54.9014 64.5567 54.7093 64.2934C54.5172 64.03 54.3318 63.7621 54.1529 63.4896C53.9741 63.2173 53.802 62.9406 53.6368 62.6596C53.4716 62.3788 53.3134 62.094 53.1623 61.8054C53.0111 61.5167 52.8672 61.2246 52.7304 60.9288C52.5936 60.633 52.4642 60.3341 52.3422 60.0321C52.2202 59.73 52.1057 59.4252 51.9987 59.1176C51.8917 58.8098 51.7924 58.4996 51.7007 58.187C51.609 57.8745 51.5251 57.5599 51.4489 57.2432C51.3727 56.9266 51.3044 56.6083 51.2439 56.2882C51.1834 55.9682 51.1309 55.6469 51.0862 55.3243C51.0416 55.0018 51.0049 54.6783 50.9762 54.3538C50.5212 49.0194 52.0644 43.6715 55.5433 39.5588C59.4182 34.978 64.1401 32.8666 70.0435 32.3702ZM70.3314 33.0758C70.0107 33.0881 69.6904 33.1081 69.3705 33.1361C69.0509 33.1641 68.732 33.1999 68.414 33.2435C68.0961 33.2872 67.7794 33.3386 67.4639 33.3978C67.1485 33.457 66.8347 33.5239 66.5225 33.5986C66.2103 33.6732 65.9002 33.7554 65.5922 33.8453C65.2841 33.9352 64.9785 34.0326 64.6752 34.1375C64.372 34.2424 64.0715 34.3547 63.7738 34.4744C63.476 34.594 63.1815 34.721 62.89 34.8551C62.5986 34.9893 62.3107 35.1305 62.0262 35.2788C61.7417 35.4271 61.4611 35.5823 61.1844 35.7445C60.9076 35.9066 60.6349 36.0754 60.3665 36.2509C60.098 36.4264 59.8341 36.6084 59.5747 36.7969C59.3152 36.9853 59.0606 37.1801 58.8107 37.3811C58.5609 37.5821 58.3162 37.7891 58.0766 38.0021C57.837 38.2152 57.6028 38.434 57.374 38.6585C57.1453 38.883 56.9222 39.1131 56.7047 39.3486C53.4055 42.9412 51.3095 48.1314 51.5266 53.0366C51.5399 53.359 51.5611 53.6809 51.5902 54.0021C51.6193 54.3235 51.6563 54.6439 51.7012 54.9634C51.746 55.2829 51.7987 55.6011 51.8592 55.9179C51.9197 56.2349 51.988 56.5501 52.0639 56.8637C52.1399 57.1773 52.2236 57.4888 52.3149 57.7984C52.4062 58.1079 52.505 58.415 52.6114 58.7197C52.7178 59.0243 52.8316 59.3262 52.9528 59.6254C53.074 59.9245 53.2025 60.2205 53.3383 60.5134C53.4741 60.8061 53.6169 61.0954 53.7669 61.3813C53.9169 61.6671 54.0738 61.9491 54.2377 62.2274C54.4015 62.5055 54.5721 62.7795 54.7494 63.0493C54.9267 63.3192 55.1105 63.5846 55.3009 63.8454C55.4912 64.1062 55.6879 64.3623 55.8908 64.6136C56.0937 64.8647 56.3027 65.1109 56.5177 65.352C56.7327 65.5929 56.9536 65.8285 57.1801 66.0588C57.4067 66.2891 57.6389 66.5136 57.8765 66.7325C61.3783 69.9182 66.5212 72.0697 71.307 71.8404C71.4208 71.8351 71.5343 71.8254 71.6475 71.8111C76.8768 71.6487 81.6864 69.3817 85.2585 65.5912C85.4716 65.365 85.6792 65.1338 85.8812 64.8974C86.0829 64.6612 86.2789 64.4202 86.4691 64.1743C86.6594 63.9286 86.8434 63.6784 87.0214 63.4237C87.1994 63.169 87.371 62.9101 87.5364 62.6471C87.7018 62.3841 87.8607 62.1172 88.0131 61.8464C88.1656 61.5757 88.3113 61.3015 88.4503 61.0237C88.5893 60.746 88.7215 60.465 88.8469 60.181C88.9723 59.8968 89.0907 59.6097 89.2021 59.3199C89.3135 59.0299 89.4178 58.7375 89.515 58.4426C89.6121 58.1477 89.702 57.8505 89.7847 57.5512C89.8674 57.2519 89.9428 56.9508 90.0108 56.6479C90.0789 56.345 90.1395 56.0406 90.1928 55.7346C90.2461 55.4287 90.2919 55.1217 90.3304 54.8138C90.3686 54.5056 90.3994 54.1968 90.4227 53.8873C90.4459 53.5776 90.4615 53.2676 90.4697 52.9572C90.478 52.6469 90.4787 52.3365 90.4717 52.0262C90.4634 51.7067 90.4471 51.3875 90.4227 51.0686C90.3986 50.7498 90.3666 50.4318 90.3268 50.1147C90.287 49.7974 90.2393 49.4813 90.1836 49.1665C90.1282 48.8516 90.0649 48.5383 89.994 48.2266C89.9231 47.9149 89.8445 47.605 89.7582 47.2971C89.6719 46.9892 89.5781 46.6836 89.4767 46.3803C89.3753 46.077 89.2665 45.7764 89.1503 45.4784C89.0341 45.1805 88.9107 44.8856 88.78 44.5937C88.6492 44.3018 88.5113 44.0133 88.3663 43.7282C88.2212 43.4431 88.0692 43.1618 87.9103 42.8841C87.7514 42.6065 87.5857 42.3329 87.4134 42.0634C87.2409 41.7939 87.0619 41.5288 86.8764 41.2681C86.6908 41.0074 86.499 40.7514 86.301 40.5001C86.1027 40.2488 85.8985 40.0026 85.6882 39.7613C85.4778 39.5201 85.2616 39.2841 85.0397 39.0535C84.8177 38.8229 84.5902 38.5978 84.3571 38.3784C84.1242 38.1583 83.8859 37.9441 83.6423 37.7358C83.3986 37.5275 83.15 37.3253 82.8963 37.1293C82.6428 36.9333 82.3845 36.7436 82.1215 36.5603C81.8585 36.377 81.591 36.2004 81.3191 36.0303C81.0473 35.8602 80.7714 35.6969 80.4915 35.5405C80.2116 35.384 79.928 35.2346 79.6407 35.0921C79.3533 34.9497 79.0626 34.8144 78.7686 34.6863C78.4747 34.5582 78.1776 34.4374 77.8775 34.324C77.5775 34.2106 77.2749 34.1046 76.9695 34.0061C76.6642 33.9076 76.3567 33.8167 76.0469 33.7334C75.7371 33.6501 75.4254 33.5745 75.1118 33.5066C74.7983 33.4387 74.4832 33.3786 74.1666 33.3262C73.85 33.2738 73.5323 33.2293 73.2136 33.1926C72.8948 33.156 72.5753 33.1272 72.2551 33.1063C71.9349 33.0854 71.6145 33.0724 71.2938 33.0673C70.9729 33.0622 70.6521 33.0651 70.3314 33.0758Z"/>
</mask>
<path d="M70.0435 32.3702C70.0632 32.3687 70.0828 32.3668 70.1025 32.3657C74.1303 32.1302 78.4364 33.2924 81.8252 35.46C82.9384 36.1721 83.9352 37.0026 84.9086 37.8927C88.4888 41.1673 90.8586 46.1603 91.0643 51.0004C91.1161 52.2227 91.1427 53.4469 91.0253 54.6661C90.608 59.002 88.6805 63.0004 85.7382 66.1894C82.3116 69.9037 77.2247 72.3245 72.1533 72.534C66.9579 72.6933 62.0513 71.216 58.0451 67.852C57.7945 67.6431 57.5493 67.4282 57.3093 67.2075C57.0694 66.9866 56.835 66.7599 56.6062 66.5276C56.3774 66.2953 56.1545 66.0575 55.9374 65.8142C55.7204 65.5709 55.5094 65.3225 55.3046 65.0689C55.0998 64.8153 54.9014 64.5567 54.7093 64.2934C54.5172 64.03 54.3318 63.7621 54.1529 63.4896C53.9741 63.2173 53.802 62.9406 53.6368 62.6596C53.4716 62.3788 53.3134 62.094 53.1623 61.8054C53.0111 61.5167 52.8672 61.2246 52.7304 60.9288C52.5936 60.633 52.4642 60.3341 52.3422 60.0321C52.2202 59.73 52.1057 59.4252 51.9987 59.1176C51.8917 58.8098 51.7924 58.4996 51.7007 58.187C51.609 57.8745 51.5251 57.5599 51.4489 57.2432C51.3727 56.9266 51.3044 56.6083 51.2439 56.2882C51.1834 55.9682 51.1309 55.6469 51.0862 55.3243C51.0416 55.0018 51.0049 54.6783 50.9762 54.3538C50.5212 49.0194 52.0644 43.6715 55.5433 39.5588C59.4182 34.978 64.1401 32.8666 70.0435 32.3702ZM70.3314 33.0758C70.0107 33.0881 69.6904 33.1081 69.3705 33.1361C69.0509 33.1641 68.732 33.1999 68.414 33.2435C68.0961 33.2872 67.7794 33.3386 67.4639 33.3978C67.1485 33.457 66.8347 33.5239 66.5225 33.5986C66.2103 33.6732 65.9002 33.7554 65.5922 33.8453C65.2841 33.9352 64.9785 34.0326 64.6752 34.1375C64.372 34.2424 64.0715 34.3547 63.7738 34.4744C63.476 34.594 63.1815 34.721 62.89 34.8551C62.5986 34.9893 62.3107 35.1305 62.0262 35.2788C61.7417 35.4271 61.4611 35.5823 61.1844 35.7445C60.9076 35.9066 60.6349 36.0754 60.3665 36.2509C60.098 36.4264 59.8341 36.6084 59.5747 36.7969C59.3152 36.9853 59.0606 37.1801 58.8107 37.3811C58.5609 37.5821 58.3162 37.7891 58.0766 38.0021C57.837 38.2152 57.6028 38.434 57.374 38.6585C57.1453 38.883 56.9222 39.1131 56.7047 39.3486C53.4055 42.9412 51.3095 48.1314 51.5266 53.0366C51.5399 53.359 51.5611 53.6809 51.5902 54.0021C51.6193 54.3235 51.6563 54.6439 51.7012 54.9634C51.746 55.2829 51.7987 55.6011 51.8592 55.9179C51.9197 56.2349 51.988 56.5501 52.0639 56.8637C52.1399 57.1773 52.2236 57.4888 52.3149 57.7984C52.4062 58.1079 52.505 58.415 52.6114 58.7197C52.7178 59.0243 52.8316 59.3262 52.9528 59.6254C53.074 59.9245 53.2025 60.2205 53.3383 60.5134C53.4741 60.8061 53.6169 61.0954 53.7669 61.3813C53.9169 61.6671 54.0738 61.9491 54.2377 62.2274C54.4015 62.5055 54.5721 62.7795 54.7494 63.0493C54.9267 63.3192 55.1105 63.5846 55.3009 63.8454C55.4912 64.1062 55.6879 64.3623 55.8908 64.6136C56.0937 64.8647 56.3027 65.1109 56.5177 65.352C56.7327 65.5929 56.9536 65.8285 57.1801 66.0588C57.4067 66.2891 57.6389 66.5136 57.8765 66.7325C61.3783 69.9182 66.5212 72.0697 71.307 71.8404C71.4208 71.8351 71.5343 71.8254 71.6475 71.8111C76.8768 71.6487 81.6864 69.3817 85.2585 65.5912C85.4716 65.365 85.6792 65.1338 85.8812 64.8974C86.0829 64.6612 86.2789 64.4202 86.4691 64.1743C86.6594 63.9286 86.8434 63.6784 87.0214 63.4237C87.1994 63.169 87.371 62.9101 87.5364 62.6471C87.7018 62.3841 87.8607 62.1172 88.0131 61.8464C88.1656 61.5757 88.3113 61.3015 88.4503 61.0237C88.5893 60.746 88.7215 60.465 88.8469 60.181C88.9723 59.8968 89.0907 59.6097 89.2021 59.3199C89.3135 59.0299 89.4178 58.7375 89.515 58.4426C89.6121 58.1477 89.702 57.8505 89.7847 57.5512C89.8674 57.2519 89.9428 56.9508 90.0108 56.6479C90.0789 56.345 90.1395 56.0406 90.1928 55.7346C90.2461 55.4287 90.2919 55.1217 90.3304 54.8138C90.3686 54.5056 90.3994 54.1968 90.4227 53.8873C90.4459 53.5776 90.4615 53.2676 90.4697 52.9572C90.478 52.6469 90.4787 52.3365 90.4717 52.0262C90.4634 51.7067 90.4471 51.3875 90.4227 51.0686C90.3986 50.7498 90.3666 50.4318 90.3268 50.1147C90.287 49.7974 90.2393 49.4813 90.1836 49.1665C90.1282 48.8516 90.0649 48.5383 89.994 48.2266C89.9231 47.9149 89.8445 47.605 89.7582 47.2971C89.6719 46.9892 89.5781 46.6836 89.4767 46.3803C89.3753 46.077 89.2665 45.7764 89.1503 45.4784C89.0341 45.1805 88.9107 44.8856 88.78 44.5937C88.6492 44.3018 88.5113 44.0133 88.3663 43.7282C88.2212 43.4431 88.0692 43.1618 87.9103 42.8841C87.7514 42.6065 87.5857 42.3329 87.4134 42.0634C87.2409 41.7939 87.0619 41.5288 86.8764 41.2681C86.6908 41.0074 86.499 40.7514 86.301 40.5001C86.1027 40.2488 85.8985 40.0026 85.6882 39.7613C85.4778 39.5201 85.2616 39.2841 85.0397 39.0535C84.8177 38.8229 84.5902 38.5978 84.3571 38.3784C84.1242 38.1583 83.8859 37.9441 83.6423 37.7358C83.3986 37.5275 83.15 37.3253 82.8963 37.1293C82.6428 36.9333 82.3845 36.7436 82.1215 36.5603C81.8585 36.377 81.591 36.2004 81.3191 36.0303C81.0473 35.8602 80.7714 35.6969 80.4915 35.5405C80.2116 35.384 79.928 35.2346 79.6407 35.0921C79.3533 34.9497 79.0626 34.8144 78.7686 34.6863C78.4747 34.5582 78.1776 34.4374 77.8775 34.324C77.5775 34.2106 77.2749 34.1046 76.9695 34.0061C76.6642 33.9076 76.3567 33.8167 76.0469 33.7334C75.7371 33.6501 75.4254 33.5745 75.1118 33.5066C74.7983 33.4387 74.4832 33.3786 74.1666 33.3262C73.85 33.2738 73.5323 33.2293 73.2136 33.1926C72.8948 33.156 72.5753 33.1272 72.2551 33.1063C71.9349 33.0854 71.6145 33.0724 71.2938 33.0673C70.9729 33.0622 70.6521 33.0651 70.3314 33.0758Z" fill="#222B3B"/>
<path d="M70.0435 32.3702C70.0632 32.3687 70.0828 32.3668 70.1025 32.3657C74.1303 32.1302 78.4364 33.2924 81.8252 35.46C82.9384 36.1721 83.9352 37.0026 84.9086 37.8927C88.4888 41.1673 90.8586 46.1603 91.0643 51.0004C91.1161 52.2227 91.1427 53.4469 91.0253 54.6661C90.608 59.002 88.6805 63.0004 85.7382 66.1894C82.3116 69.9037 77.2247 72.3245 72.1533 72.534C66.9579 72.6933 62.0513 71.216 58.0451 67.852C57.7945 67.6431 57.5493 67.4282 57.3093 67.2075C57.0694 66.9866 56.835 66.7599 56.6062 66.5276C56.3774 66.2953 56.1545 66.0575 55.9374 65.8142C55.7204 65.5709 55.5094 65.3225 55.3046 65.0689C55.0998 64.8153 54.9014 64.5567 54.7093 64.2934C54.5172 64.03 54.3318 63.7621 54.1529 63.4896C53.9741 63.2173 53.802 62.9406 53.6368 62.6596C53.4716 62.3788 53.3134 62.094 53.1623 61.8054C53.0111 61.5167 52.8672 61.2246 52.7304 60.9288C52.5936 60.633 52.4642 60.3341 52.3422 60.0321C52.2202 59.73 52.1057 59.4252 51.9987 59.1176C51.8917 58.8098 51.7924 58.4996 51.7007 58.187C51.609 57.8745 51.5251 57.5599 51.4489 57.2432C51.3727 56.9266 51.3044 56.6083 51.2439 56.2882C51.1834 55.9682 51.1309 55.6469 51.0862 55.3243C51.0416 55.0018 51.0049 54.6783 50.9762 54.3538C50.5212 49.0194 52.0644 43.6715 55.5433 39.5588C59.4182 34.978 64.1401 32.8666 70.0435 32.3702ZM70.3314 33.0758C70.0107 33.0881 69.6904 33.1081 69.3705 33.1361C69.0509 33.1641 68.732 33.1999 68.414 33.2435C68.0961 33.2872 67.7794 33.3386 67.4639 33.3978C67.1485 33.457 66.8347 33.5239 66.5225 33.5986C66.2103 33.6732 65.9002 33.7554 65.5922 33.8453C65.2841 33.9352 64.9785 34.0326 64.6752 34.1375C64.372 34.2424 64.0715 34.3547 63.7738 34.4744C63.476 34.594 63.1815 34.721 62.89 34.8551C62.5986 34.9893 62.3107 35.1305 62.0262 35.2788C61.7417 35.4271 61.4611 35.5823 61.1844 35.7445C60.9076 35.9066 60.6349 36.0754 60.3665 36.2509C60.098 36.4264 59.8341 36.6084 59.5747 36.7969C59.3152 36.9853 59.0606 37.1801 58.8107 37.3811C58.5609 37.5821 58.3162 37.7891 58.0766 38.0021C57.837 38.2152 57.6028 38.434 57.374 38.6585C57.1453 38.883 56.9222 39.1131 56.7047 39.3486C53.4055 42.9412 51.3095 48.1314 51.5266 53.0366C51.5399 53.359 51.5611 53.6809 51.5902 54.0021C51.6193 54.3235 51.6563 54.6439 51.7012 54.9634C51.746 55.2829 51.7987 55.6011 51.8592 55.9179C51.9197 56.2349 51.988 56.5501 52.0639 56.8637C52.1399 57.1773 52.2236 57.4888 52.3149 57.7984C52.4062 58.1079 52.505 58.415 52.6114 58.7197C52.7178 59.0243 52.8316 59.3262 52.9528 59.6254C53.074 59.9245 53.2025 60.2205 53.3383 60.5134C53.4741 60.8061 53.6169 61.0954 53.7669 61.3813C53.9169 61.6671 54.0738 61.9491 54.2377 62.2274C54.4015 62.5055 54.5721 62.7795 54.7494 63.0493C54.9267 63.3192 55.1105 63.5846 55.3009 63.8454C55.4912 64.1062 55.6879 64.3623 55.8908 64.6136C56.0937 64.8647 56.3027 65.1109 56.5177 65.352C56.7327 65.5929 56.9536 65.8285 57.1801 66.0588C57.4067 66.2891 57.6389 66.5136 57.8765 66.7325C61.3783 69.9182 66.5212 72.0697 71.307 71.8404C71.4208 71.8351 71.5343 71.8254 71.6475 71.8111C76.8768 71.6487 81.6864 69.3817 85.2585 65.5912C85.4716 65.365 85.6792 65.1338 85.8812 64.8974C86.0829 64.6612 86.2789 64.4202 86.4691 64.1743C86.6594 63.9286 86.8434 63.6784 87.0214 63.4237C87.1994 63.169 87.371 62.9101 87.5364 62.6471C87.7018 62.3841 87.8607 62.1172 88.0131 61.8464C88.1656 61.5757 88.3113 61.3015 88.4503 61.0237C88.5893 60.746 88.7215 60.465 88.8469 60.181C88.9723 59.8968 89.0907 59.6097 89.2021 59.3199C89.3135 59.0299 89.4178 58.7375 89.515 58.4426C89.6121 58.1477 89.702 57.8505 89.7847 57.5512C89.8674 57.2519 89.9428 56.9508 90.0108 56.6479C90.0789 56.345 90.1395 56.0406 90.1928 55.7346C90.2461 55.4287 90.2919 55.1217 90.3304 54.8138C90.3686 54.5056 90.3994 54.1968 90.4227 53.8873C90.4459 53.5776 90.4615 53.2676 90.4697 52.9572C90.478 52.6469 90.4787 52.3365 90.4717 52.0262C90.4634 51.7067 90.4471 51.3875 90.4227 51.0686C90.3986 50.7498 90.3666 50.4318 90.3268 50.1147C90.287 49.7974 90.2393 49.4813 90.1836 49.1665C90.1282 48.8516 90.0649 48.5383 89.994 48.2266C89.9231 47.9149 89.8445 47.605 89.7582 47.2971C89.6719 46.9892 89.5781 46.6836 89.4767 46.3803C89.3753 46.077 89.2665 45.7764 89.1503 45.4784C89.0341 45.1805 88.9107 44.8856 88.78 44.5937C88.6492 44.3018 88.5113 44.0133 88.3663 43.7282C88.2212 43.4431 88.0692 43.1618 87.9103 42.8841C87.7514 42.6065 87.5857 42.3329 87.4134 42.0634C87.2409 41.7939 87.0619 41.5288 86.8764 41.2681C86.6908 41.0074 86.499 40.7514 86.301 40.5001C86.1027 40.2488 85.8985 40.0026 85.6882 39.7613C85.4778 39.5201 85.2616 39.2841 85.0397 39.0535C84.8177 38.8229 84.5902 38.5978 84.3571 38.3784C84.1242 38.1583 83.8859 37.9441 83.6423 37.7358C83.3986 37.5275 83.15 37.3253 82.8963 37.1293C82.6428 36.9333 82.3845 36.7436 82.1215 36.5603C81.8585 36.377 81.591 36.2004 81.3191 36.0303C81.0473 35.8602 80.7714 35.6969 80.4915 35.5405C80.2116 35.384 79.928 35.2346 79.6407 35.0921C79.3533 34.9497 79.0626 34.8144 78.7686 34.6863C78.4747 34.5582 78.1776 34.4374 77.8775 34.324C77.5775 34.2106 77.2749 34.1046 76.9695 34.0061C76.6642 33.9076 76.3567 33.8167 76.0469 33.7334C75.7371 33.6501 75.4254 33.5745 75.1118 33.5066C74.7983 33.4387 74.4832 33.3786 74.1666 33.3262C73.85 33.2738 73.5323 33.2293 73.2136 33.1926C72.8948 33.156 72.5753 33.1272 72.2551 33.1063C71.9349 33.0854 71.6145 33.0724 71.2938 33.0673C70.9729 33.0622 70.6521 33.0651 70.3314 33.0758Z" stroke="#222B3B" stroke-width="1.10891" mask="url(#path-7-outside-1_3500_6664)"/>
<mask id="path-8-inside-2_3500_6664" fill="white">
<path d="M72.0514 65.4892C72.2974 65.4864 72.5105 65.5019 72.7159 65.6508C73.1567 65.9702 73.5721 66.8677 73.6615 67.4065C73.285 67.2979 72.9472 66.9133 72.6871 66.6315C72.4015 66.3228 72.0338 65.9219 72.0514 65.4892Z"/>
</mask>
<path d="M72.0514 65.4892C72.2974 65.4864 72.5105 65.5019 72.7159 65.6508C73.1567 65.9702 73.5721 66.8677 73.6615 67.4065C73.285 67.2979 72.9472 66.9133 72.6871 66.6315C72.4015 66.3228 72.0338 65.9219 72.0514 65.4892Z" fill="#F75050"/>
<path d="M72.0514 65.4892L72.0356 64.1031L70.7199 64.1181L70.6664 65.4328L72.0514 65.4892ZM72.7159 65.6508L71.9025 66.7731L71.9025 66.7732L72.7159 65.6508ZM73.6615 67.4065L73.277 68.7383L75.3883 69.3479L75.0289 67.1799L73.6615 67.4065ZM72.6871 66.6315L73.7057 65.6914L73.7047 65.6903L72.6871 66.6315ZM72.0672 66.8752C72.1141 66.8747 72.1373 66.8754 72.149 66.8761C72.1593 66.8767 72.1485 66.8767 72.1246 66.8718C72.0992 66.8667 72.062 66.8568 72.0189 66.8385C71.9752 66.8199 71.9357 66.7972 71.9025 66.7731L73.5294 64.5285C72.9402 64.1014 72.3332 64.0997 72.0356 64.1031L72.0672 66.8752ZM71.9025 66.7732C71.8595 66.742 71.8718 66.7401 71.9251 66.8117C71.9727 66.8756 72.0295 66.9666 72.0871 67.0791C72.2112 67.3209 72.2788 67.5418 72.294 67.6332L75.0289 67.1799C74.9548 66.7325 74.77 66.2352 74.5538 65.8137C74.3526 65.4214 74.017 64.8819 73.5294 64.5284L71.9025 66.7732ZM74.046 66.0748C74.1057 66.092 74.1328 66.1108 74.1247 66.1057C74.117 66.1008 74.092 66.0836 74.0485 66.0452C73.9503 65.9584 73.8571 65.8554 73.7057 65.6914L71.6685 67.5716C71.7771 67.6893 71.983 67.9195 72.2128 68.1226C72.4364 68.3202 72.7985 68.6001 73.277 68.7383L74.046 66.0748ZM73.7047 65.6903C73.6317 65.6114 73.5746 65.5492 73.5224 65.4875C73.4709 65.4268 73.438 65.3826 73.4176 65.3512C73.3967 65.3191 73.4006 65.3181 73.4102 65.3452C73.4209 65.3755 73.4404 65.4462 73.4364 65.5455L70.6664 65.4328C70.6409 66.0594 70.8954 66.5578 71.0935 66.8624C71.2934 67.1699 71.5383 67.4308 71.6695 67.5727L73.7047 65.6903Z" fill="#222B3B" mask="url(#path-8-inside-2_3500_6664)"/>
<mask id="path-10-inside-3_3500_6664" fill="white">
<path d="M69.5373 65.4927C69.6774 65.4838 69.7741 65.4871 69.9053 65.539L69.9622 65.6767C69.8767 66.2212 69.1157 66.9313 68.704 67.2793C68.6395 67.3067 68.5657 67.3118 68.4965 67.323L68.4355 67.2238C68.4623 66.9662 68.5892 66.7027 68.7022 66.4711C68.8855 66.0967 69.1228 65.6325 69.5373 65.4927Z"/>
</mask>
<path d="M69.5373 65.4927C69.6774 65.4838 69.7741 65.4871 69.9053 65.539L69.9622 65.6767C69.8767 66.2212 69.1157 66.9313 68.704 67.2793C68.6395 67.3067 68.5657 67.3118 68.4965 67.323L68.4355 67.2238C68.4623 66.9662 68.5892 66.7027 68.7022 66.4711C68.8855 66.0967 69.1228 65.6325 69.5373 65.4927Z" fill="#FAC840"/>
<path d="M69.5373 65.4927L69.4493 64.1094L69.2673 64.121L69.0944 64.1792L69.5373 65.4927ZM69.9053 65.539L71.1863 65.0096L70.9618 64.4665L70.4154 64.2502L69.9053 65.539ZM69.9622 65.6767L71.3315 65.8918L71.3919 65.5071L71.2432 65.1473L69.9622 65.6767ZM68.704 67.2793L69.247 68.5546L69.4393 68.4728L69.5988 68.3379L68.704 67.2793ZM68.4965 67.323L67.3155 68.0487L67.8016 68.8398L68.7181 68.6913L68.4965 67.323ZM68.4355 67.2238L67.0568 67.0803L67.0082 67.5484L67.2545 67.9494L68.4355 67.2238ZM68.7022 66.4711L67.4572 65.8618L67.4566 65.8631L68.7022 66.4711ZM69.6252 66.8761C69.6717 66.8731 69.6377 66.8778 69.5774 66.8714C69.5444 66.8678 69.5093 66.8618 69.4739 66.8529C69.4393 66.8442 69.4124 66.8348 69.3951 66.8279L70.4154 64.2502C70.0157 64.092 69.6876 64.0942 69.4493 64.1094L69.6252 66.8761ZM68.6242 66.0685L68.6811 66.2062L71.2432 65.1473L71.1863 65.0096L68.6242 66.0685ZM68.5928 65.4617C68.6102 65.3509 68.6428 65.3219 68.6011 65.3909C68.5662 65.4487 68.5045 65.5332 68.4112 65.64C68.2239 65.8546 67.9897 66.0681 67.8092 66.2206L69.5988 68.3379C69.83 68.1425 70.1821 67.827 70.4996 67.4633C70.7639 67.1606 71.2223 66.5874 71.3315 65.8918L68.5928 65.4617ZM68.161 66.0039C68.2178 65.9797 68.2659 65.965 68.2995 65.9561C68.3326 65.9473 68.3566 65.943 68.3647 65.9416C68.3714 65.9404 68.3735 65.9402 68.3561 65.9427C68.3453 65.9442 68.3101 65.949 68.275 65.9547L68.7181 68.6913C68.7176 68.6914 68.7176 68.6914 68.7421 68.688C68.7599 68.6855 68.7974 68.6802 68.8393 68.6729C68.9206 68.6588 69.0737 68.6284 69.247 68.5546L68.161 66.0039ZM69.6776 66.5974L69.6166 66.4981L67.2545 67.9494L67.3155 68.0487L69.6776 66.5974ZM69.8142 67.3672C69.8102 67.406 69.8042 67.4026 69.8291 67.3383C69.8542 67.2737 69.889 67.1998 69.9479 67.0791L67.4566 65.8631C67.3659 66.0488 67.1135 66.5356 67.0568 67.0803L69.8142 67.3672ZM69.9473 67.0804C69.9922 66.9886 70.0282 66.9168 70.0642 66.8517C70.0999 66.7873 70.1267 66.7461 70.1455 66.7208C70.1912 66.6594 70.1443 66.7508 69.9801 66.8062L69.0944 64.1792C68.5157 64.3743 68.143 64.7678 67.9206 65.067C67.7003 65.3633 67.5451 65.6822 67.4572 65.8618L69.9473 67.0804Z" fill="#222B3B" mask="url(#path-10-inside-3_3500_6664)"/>
<path d="M66.7176 53.498L66.7022 53.4983C65.3146 53.5237 63.9269 53.5268 62.5392 53.5078C62.2535 53.5063 61.9873 53.4995 61.7253 53.4928C61.3717 53.4838 61.0258 53.475 60.6499 53.4797C60.0299 53.4875 59.458 53.5352 58.9485 53.6739C58.7657 53.7252 58.5873 53.7883 58.4131 53.8635C58.2382 53.9389 58.0693 54.0256 57.9063 54.1238L66.7176 53.498ZM66.7176 53.498L66.733 53.497M66.7176 53.498L66.733 53.497M66.733 53.497C67.0896 53.4746 67.4197 53.4708 67.7474 53.4951C67.9114 54.9564 67.8436 56.9396 67.536 58.9001C67.1885 61.1142 66.5547 63.1706 65.7049 64.3772L65.2037 65.0887M66.733 53.497L65.2037 65.0887M65.2037 65.0887L66.0094 65.4179M65.2037 65.0887L66.0094 65.4179M66.0094 65.4179C66.0417 65.4311 66.0714 65.4431 66.099 65.4542C66.2043 65.4967 66.2786 65.5267 66.3471 65.5626C66.3192 65.7907 66.2491 66.1109 66.1416 66.4856C66.0098 66.9451 65.8463 67.4055 65.7234 67.7184M66.0094 65.4179L65.7234 67.7184M65.7234 67.7184C65.6836 67.7191 65.6373 67.7184 65.584 67.7156C65.3905 67.7051 65.1591 67.6692 64.9113 67.6141C64.4124 67.5033 63.9185 67.3312 63.6508 67.2102L63.6492 67.2095C63.5243 67.1534 63.4024 67.0915 63.2836 67.0236C63.1644 66.9554 63.0489 66.8817 62.937 66.8025L62.5365 67.3681L62.937 66.8025C62.8252 66.7234 62.7176 66.639 62.6141 66.5494L62.6137 66.549C62.5103 66.4597 62.4116 66.3655 62.3174 66.2663L62.3173 66.2663C62.2229 66.167 62.1337 66.0634 62.0494 65.9555L61.5031 66.3821L62.0494 65.9555C61.9652 65.8478 61.8866 65.7361 61.8133 65.6206L61.8131 65.6203C61.7399 65.505 61.6724 65.3864 61.6108 65.2644L61.6106 65.2641C61.5505 65.1453 61.4962 65.0239 61.4476 64.8999C61.2074 64.2185 61.1181 63.7032 61.1482 62.9971L61.1833 62.174L60.3663 62.2803C60.273 62.2925 60.172 62.2996 60.065 62.3032L60.0647 62.3032C59.0965 62.336 57.9199 61.8369 57.183 61.1449L56.7086 61.6501M65.7234 67.7184L61.228 65.9919C61.1427 65.8575 61.0641 65.7192 60.9922 65.577C60.9203 65.435 60.8556 65.2897 60.7979 65.1413C60.6115 64.6147 60.5025 64.1622 60.4647 63.6644C60.4914 63.6615 60.5183 63.6584 60.5452 63.6549L60.4558 62.9676L60.0867 62.9518L60.0866 62.9518L59.7633 62.938C59.7626 62.9559 59.7619 62.9737 59.7612 62.9914C58.6663 62.9268 57.4812 62.3757 56.7086 61.6501M56.7086 61.6501C56.648 61.5931 56.5889 61.5347 56.5312 61.4748C56.4735 61.415 56.4173 61.3538 56.3626 61.291C56.3079 61.2284 56.2548 61.1645 56.2033 61.0993C56.1517 61.0342 56.1018 60.9678 56.0536 60.9001C56.0053 60.8324 55.9587 60.7635 55.9138 60.6936C55.869 60.6237 55.8258 60.5527 55.7845 60.4806C55.7431 60.4085 55.7035 60.3354 55.6657 60.2614M56.7086 61.6501L57.1836 61.1455C57.1313 61.0962 57.0802 61.0457 57.0303 60.9939L57.0297 60.9933C56.9803 60.9421 56.9321 60.8896 56.8852 60.8358L56.8846 60.835C56.8373 60.7809 56.7914 60.7257 56.7469 60.6694L56.7469 60.6694C56.7025 60.6133 56.6595 60.5561 56.6179 60.4977C56.5762 60.4392 56.5359 60.3797 56.4971 60.3192C56.4584 60.259 56.4213 60.1978 56.3856 60.1357C56.3498 60.0733 56.3156 60.0101 56.2829 59.9462L55.6657 60.2614M55.6657 60.2614L56.2829 59.9462C56.2503 59.8822 56.2192 59.8176 56.1897 59.7521L55.5579 60.037M55.6657 60.2614L55.5579 60.037M55.5579 60.037L56.19 59.7528C56.1605 59.6872 56.1327 59.621 56.1065 59.5541L56.1063 59.5537C56.0802 59.4872 56.0557 59.42 56.0329 59.3522C56.01 59.2843 55.9889 59.2159 55.9694 59.147L55.5579 60.037ZM55.8403 58.5151L55.8403 58.5152C55.8494 58.5863 55.8603 58.6571 55.8729 58.7275L55.8403 58.5151ZM55.8403 58.5151C55.8312 58.4441 55.8238 58.3729 55.8182 58.3014C55.8125 58.23 55.8087 58.1584 55.8066 58.0868L55.8066 58.0863M55.8403 58.5151L55.8066 58.0863M55.8066 58.0863C55.7702 56.8743 56.1923 55.7006 57.0186 54.8371L57.0186 54.8371M55.8066 58.0863L57.0186 54.8371M57.0186 54.8371L57.0205 54.835M57.0186 54.8371L57.0205 54.835M57.0205 54.835C57.1514 54.6971 57.2909 54.5687 57.4392 54.4496L57.0205 54.835ZM66.331 68.066C66.3291 68.0707 66.3271 68.0758 66.3248 68.0814C66.2941 68.1583 66.2302 68.3182 66.1672 68.3422L66.331 68.066ZM55.9693 59.1468C55.9498 59.0776 55.9321 59.0082 55.916 58.9383L55.9693 59.1468ZM55.9159 58.9382C55.8999 58.8684 55.8856 58.7983 55.8729 58.7279L55.9159 58.9382ZM57.4393 54.4496C57.5876 54.3305 57.7432 54.2219 57.9062 54.1238L57.4393 54.4496Z" fill="#FAC840" stroke="#222B3B" stroke-width="1.38614"/>
<path d="M85.4258 54.2756C86.3757 55.1942 86.9101 56.5183 86.9297 57.8306C86.9312 57.9149 86.9306 57.9994 86.9279 58.0839C86.9254 58.1682 86.9207 58.2524 86.9139 58.3366C86.9071 58.4208 86.8982 58.5047 86.8873 58.5883C86.8765 58.672 86.8635 58.7554 86.8485 58.8385M85.4258 54.2756C85.2628 54.1193 85.0905 53.974 84.9088 53.8396C84.727 53.7052 84.5376 53.5829 84.3404 53.4726C84.1431 53.3623 83.9395 53.265 83.7297 53.1806C83.5199 53.0963 83.3056 53.0256 83.0869 52.9686C82.0954 52.719 80.9952 52.7413 79.9409 52.7627C79.6578 52.7684 79.3781 52.7741 79.1047 52.7744M85.4258 54.2756L84.9461 54.7759C84.9458 54.7755 84.9454 54.7752 84.9451 54.7749M85.4258 54.2756L84.944 54.7738C84.9443 54.7742 84.9447 54.7745 84.9451 54.7749M79.1047 52.7744C77.3664 52.7839 75.6282 52.782 73.8901 52.7688M79.1047 52.7744L79.1055 53.4675C79.106 53.4675 79.1065 53.4675 79.107 53.4675C79.4129 53.4671 79.7142 53.4612 80.0103 53.4554C81.0486 53.4351 82.0234 53.4161 82.9149 53.64C83.1042 53.6895 83.2896 53.7507 83.4712 53.8237C83.6536 53.897 83.8305 53.9816 84.0021 54.0775L84.3404 53.4726L84.0023 54.0776C84.1738 54.1735 84.3385 54.2799 84.4966 54.3968C84.6543 54.5134 84.8037 54.6394 84.9451 54.7749M79.1047 52.7744L86.1664 58.7157M73.8901 52.7688C73.5974 53.0076 73.5525 53.3181 73.516 53.678M73.8901 52.7688L73.8848 53.4619C74.005 53.4628 74.1251 53.4636 74.2453 53.4644M73.8901 52.7688L74.3282 53.3059C74.294 53.3338 74.2782 53.3573 74.2624 53.4032C74.2562 53.4213 74.2505 53.4413 74.2453 53.4644M73.516 53.678C73.2118 56.6799 74.107 62.1744 75.6903 64.7011C75.6743 64.7113 75.6574 64.7218 75.6398 64.7327L75.4026 64.8814C75.21 65.0099 75.0207 65.1696 74.9926 65.3644C74.9306 65.7936 75.2443 66.7469 75.4992 67.5216C75.6116 67.8631 75.7125 68.1699 75.7648 68.3818M73.516 53.678L74.2055 53.7479M73.516 53.678L74.2055 53.7479M75.7648 68.3818C77.4004 68.3569 78.9641 68.0463 80.1513 66.8264C80.8982 66.059 81.3377 65.091 81.5459 64.051M75.7648 68.3818L76.4377 68.2157C76.4021 68.0715 76.3439 67.8806 76.2764 67.6696M75.7648 68.3818L75.7543 67.6888C75.9313 67.6861 76.1054 67.6799 76.2764 67.6696M81.5459 64.051C81.5501 63.9419 81.553 63.8341 81.554 63.7269C81.5486 63.727 81.5432 63.7271 81.5378 63.7272L81.5281 63.0342L82.2182 62.97C82.2189 62.9779 82.2196 62.9858 82.2203 62.9937C83.4463 62.8645 84.5859 62.4206 85.4814 61.5047M81.5459 64.051L80.8664 63.9149C80.8628 63.9328 80.8591 63.9507 80.8554 63.9685M81.5459 64.051L80.8534 64.0248C80.8541 64.0059 80.8548 63.9872 80.8554 63.9685M85.4814 61.5047C85.5401 61.444 85.5974 61.3818 85.6532 61.3181M85.4814 61.5047L84.9859 61.0202C84.9854 61.0207 84.9849 61.0211 84.9845 61.0216M85.4814 61.5047L84.983 61.0231C84.9835 61.0226 84.984 61.0221 84.9845 61.0216M85.6532 61.3181C85.7088 61.2547 85.7628 61.1898 85.8152 61.1234C85.8678 61.0573 85.9187 60.9898 85.9678 60.9211C86.017 60.8524 86.0645 60.7825 86.1102 60.7116C86.156 60.6405 86.2 60.5684 86.2422 60.4953M85.6532 61.3181L85.1321 60.8612M85.6532 61.3181L85.132 60.8613C85.132 60.8612 85.1321 60.8612 85.1321 60.8612M86.2422 60.4953C86.2844 60.4221 86.3247 60.348 86.3632 60.2728C86.4018 60.1976 86.4384 60.1215 86.4731 60.0445C86.508 59.9676 86.5409 59.8899 86.5719 59.8113C86.6029 59.7328 86.6319 59.6534 86.6589 59.5734C86.686 59.4934 86.7111 59.4128 86.7342 59.3316C86.7572 59.2504 86.7783 59.1687 86.7975 59.0864C86.8166 59.0041 86.8336 58.9215 86.8485 58.8385M86.2422 60.4953L85.6419 60.1489C85.6782 60.0859 85.713 60.022 85.7461 59.9572L85.7467 59.9561C85.7799 59.8914 85.8114 59.826 85.8412 59.7598L85.842 59.7581C85.8721 59.6919 85.9004 59.6249 85.9271 59.5572C85.9539 59.4893 85.9789 59.4208 86.0023 59.3516L86.0024 59.3512C86.0258 59.2821 86.0475 59.2125 86.0675 59.1423C86.0874 59.0719 86.1057 59.0009 86.1225 58.9294C86.1389 58.8584 86.1535 58.7872 86.1664 58.7157M86.2422 60.4953L85.6419 60.1489C85.6053 60.2123 85.5672 60.2748 85.5275 60.3365M86.8485 58.8385L86.1664 58.7157M86.8485 58.8385L86.1665 58.7155C86.1795 58.6434 86.1906 58.5713 86.2001 58.4989C86.2095 58.4264 86.2172 58.3537 86.2231 58.2807C86.2289 58.2082 86.233 58.1356 86.2352 58.0629L86.2352 58.0615C86.2376 57.9886 86.2381 57.9159 86.2367 57.8432L86.2367 57.841C86.2196 56.7003 85.7528 55.5566 84.9451 54.7749M86.1664 58.7157L74.2055 53.7479C74.0623 55.1614 74.2003 57.2152 74.5767 59.2411C74.9551 61.277 75.5553 63.1804 76.2776 64.3331L76.6422 64.9149L76.0637 65.2849C76.028 65.3078 75.9902 65.3309 75.9572 65.3511L75.9502 65.3554C75.918 65.375 75.8883 65.3932 75.8583 65.412C75.7934 65.4528 75.7409 65.4882 75.6987 65.5213C75.6917 65.5268 75.6854 65.5319 75.6796 65.5368C75.6804 65.5482 75.6814 65.5608 75.6828 65.5746C75.6901 65.6485 75.7053 65.742 75.7294 65.8551C75.7777 66.0823 75.8538 66.3518 75.9431 66.6403C76.0034 66.8348 76.0735 67.0482 76.1426 67.2588C76.1887 67.3991 76.2343 67.5382 76.2764 67.6696M85.5275 60.3365C85.4878 60.3979 85.4468 60.4583 85.4042 60.5178C85.3618 60.5771 85.3179 60.6352 85.2726 60.6923L85.2713 60.6939C85.2263 60.7509 85.1799 60.8066 85.1321 60.8612M85.5275 60.3365C85.5276 60.3363 85.5277 60.336 85.5279 60.3358L86.1101 60.7115L85.5275 60.3365ZM85.1321 60.8612C85.0841 60.9159 85.0349 60.9694 84.9845 61.0216M84.9845 61.0216C84.087 61.9386 82.8801 62.322 81.5183 62.3412L80.7686 62.3517L80.838 63.0983C80.8644 63.382 80.8657 63.6617 80.8554 63.9685M80.8554 63.9685C80.6636 64.8848 80.2777 65.7029 79.6546 66.343L79.6546 66.343C78.7707 67.2513 77.6197 67.5884 76.2764 67.6696M74.2055 53.7479C74.2192 53.6132 74.2309 53.5272 74.2453 53.4644M74.2055 53.7479L74.2453 53.4644" fill="#F75050" stroke="#222B3B" stroke-width="1.38614"/>
<path d="M65.0948 37.3171L65.0948 37.317C63.8062 37.4802 62.8306 37.9676 62.0612 38.959L62.0612 38.959C61.4077 39.801 61.1697 40.7488 61.1786 41.8778L61.1833 42.4893L61.3153 42.5249C61.3806 42.5424 61.4449 42.5613 61.5082 42.5812L62.0818 42.4527C62.1735 42.4322 62.3463 42.4039 62.5456 42.4743C62.6269 42.503 62.6871 42.5396 62.7126 42.5554C62.7249 42.5631 62.7368 42.5708 62.7425 42.5746L62.7437 42.5754L62.757 42.5839L62.7571 42.584C62.9359 42.6968 63.0747 42.8475 63.1676 42.9554C63.1839 42.9745 63.2001 42.9936 63.2159 43.0126C63.2731 42.9455 63.3454 42.8785 63.4369 42.8214L63.9274 42.5153L64.3164 42.943C64.4454 43.0847 64.4942 43.2452 64.5128 43.3112C64.5372 43.3976 64.5514 43.4848 64.5608 43.5574C64.5797 43.7029 64.5886 43.8701 64.5952 44.0135C64.5969 44.0517 64.5985 44.0885 64.6001 44.124C64.6049 44.2334 64.6091 44.331 64.6157 44.4209C64.622 44.5087 64.6286 44.5546 64.6311 44.5716C64.6324 44.5809 64.6325 44.5815 64.6306 44.5757L64.6308 44.5761L64.6383 44.6002L64.6402 44.6062L65.0948 37.3171ZM65.0948 37.3171L65.0993 37.3165C65.2281 37.2993 65.3692 37.2993 65.5668 37.2996L65.5669 37.2996C66.7592 37.3018 67.8487 37.7359 68.6788 38.5691M65.0948 37.3171L69.9248 45M67.8394 48.1702C67.8334 48.471 67.8837 48.7819 67.9689 49.0865L69.4824 46.0829M67.8394 48.1702L68.5323 48.184L67.8394 48.1704C67.8394 48.1703 67.8394 48.1703 67.8394 48.1702ZM67.8394 48.1702C67.8583 47.2132 68.3162 46.2167 69.0122 45.5738M69.0122 45.5738C69.0122 45.5738 69.0122 45.5738 69.0122 45.5738L69.4824 46.0829M69.0122 45.5738C69.3207 45.2887 69.6171 45.1207 69.9248 45M69.0122 45.5738L69.4824 46.0829M69.4824 46.0829L69.9248 45M69.9248 45L69.923 45.5017L70.616 45.5042L70.4315 44.8362C70.2569 44.8844 70.0892 44.9354 69.9248 45ZM69.9248 45L69.9324 42.8835M69.9324 42.8835L70.6255 42.8852L69.9324 42.8827L69.9324 42.8835ZM69.9324 42.8835C69.937 41.0249 69.8486 39.7435 68.6788 38.5691M68.6788 38.5691L69.1697 38.08L68.6788 38.569C68.6788 38.5691 68.6788 38.5691 68.6788 38.5691ZM61.2882 44.2318L61.1494 44.4456L61.4905 44.8395C61.7188 45.1031 62.0433 45.3645 62.3176 45.5807C62.3704 45.6222 62.4218 45.6625 62.4718 45.7017C62.7038 45.8835 62.9044 46.0407 63.0612 46.1867C63.2737 46.3949 63.4764 46.6738 63.6861 47.0048C63.7906 47.1696 63.8919 47.3394 63.9958 47.5142L64.0135 47.544C64.1102 47.7067 64.2102 47.8749 64.3106 48.0345C64.5732 48.4521 64.836 48.8801 65.1015 49.3124C65.5236 49.9999 65.9525 50.6983 66.3978 51.3833C65.7586 51.3875 65.1184 51.3844 64.474 51.3814C64.0312 51.3792 63.5865 51.3771 63.1388 51.3773L61.2882 44.2318ZM61.2882 44.2318C61.2734 44.2194 61.258 44.2067 61.2419 44.1935C61.1952 44.1553 61.1469 44.1169 61.0955 44.076L61.0899 44.0715C61.0415 44.0329 60.9897 43.9917 60.9399 43.951C60.8418 43.8709 60.7224 43.7698 60.6237 43.6619L59.6846 42.6354C58.6444 42.7729 57.7704 43.1555 57.0385 43.9187L57.0378 43.9195C56.9867 43.9726 56.937 44.0269 56.8887 44.0825L56.8886 44.0826C56.8403 44.1381 56.7934 44.1948 56.748 44.2526L61.2882 44.2318ZM59.0203 51.2333C59.6095 51.3803 60.2691 51.4213 60.9803 51.4207C61.3342 51.4204 61.6911 51.4099 62.0544 51.3991L62.068 51.3987C62.4232 51.3882 62.7856 51.3774 63.1386 51.3773L59.0203 51.2333ZM59.0203 51.2333C58.351 51.0661 57.6799 50.6889 57.168 50.2082C57.1163 50.159 57.0658 50.1087 57.0166 50.0571C56.9669 50.005 56.9186 49.9518 56.8716 49.8974C56.8247 49.8433 56.7792 49.7879 56.7351 49.7314L56.7346 49.7308C56.6905 49.6744 56.6478 49.6169 56.6065 49.5584L59.0203 51.2333ZM55.4536 48.8598C55.4237 48.7821 55.3958 48.7037 55.3699 48.6246M55.4536 48.8598C55.4835 48.9373 55.5152 49.0142 55.5489 49.0904M55.4536 48.8598L56.1004 48.6107C56.1261 48.6777 56.1535 48.744 56.1826 48.8098M55.4536 48.8598L56.1006 48.6113C56.0748 48.5442 56.0507 48.4765 56.0283 48.4083L56.0282 48.4078C56.0058 48.34 55.9852 48.2715 55.9662 48.2024L55.9661 48.202C55.9471 48.1331 55.9299 48.0636 55.9143 47.9935L55.9143 47.9934C55.8987 47.9235 55.8849 47.8533 55.8728 47.7827L56.2746 49.0045M55.3699 48.6246L56.3758 49.1941L55.773 49.5361C55.732 49.4636 55.6928 49.3902 55.6554 49.3159M55.3699 48.6246C55.3439 48.5457 55.3199 48.4661 55.2978 48.3858L55.3699 48.6246ZM55.5489 49.0904C55.5825 49.1664 55.618 49.2416 55.6554 49.3159M55.5489 49.0904L56.1826 48.8098M55.5489 49.0904L56.1828 48.8104C56.1828 48.8102 56.1827 48.81 56.1826 48.8098M55.6554 49.3159L56.2746 49.0046L56.2746 49.0045M55.6554 49.3159L56.2746 49.0045M56.2746 49.0045C56.2423 48.9403 56.2117 48.8754 56.1826 48.8098M55.8214 47.3551L55.8214 47.3553C55.8264 47.4267 55.8332 47.4981 55.8418 47.5693L55.8214 47.3551ZM55.8214 47.3551C55.8163 47.2836 55.8131 47.2121 55.8116 47.1404L55.8117 47.1404M55.8214 47.3551L55.8117 47.1404M55.8117 47.1404L55.8113 47.1294M55.8117 47.1404L55.8113 47.1294M55.8113 47.1294C55.8086 47.056 55.8077 46.9825 55.8087 46.909L55.8087 46.9089M55.8113 47.1294L55.8087 46.9089M55.8087 46.9089C55.8097 46.8354 55.8125 46.762 55.8172 46.6887L55.8172 46.6886M55.8087 46.9089L55.8172 46.6886M55.8172 46.6886C55.8219 46.6152 55.8284 46.5421 55.8368 46.4691M55.8172 46.6886L55.8368 46.4691M55.9611 45.8198L55.9611 45.8199C55.9419 45.8909 55.9244 45.9623 55.9088 46.0341C55.8932 46.1059 55.8793 46.1781 55.8673 46.2506L55.9611 45.8198ZM55.9611 45.8198C55.9803 45.7489 56.0013 45.6785 56.024 45.6086L55.9611 45.8198ZM56.0976 45.4005L56.0976 45.4006C56.0714 45.4693 56.0469 45.5386 56.0241 45.6085L56.0976 45.4005ZM56.0976 45.4005C56.1239 45.3318 56.1518 45.2639 56.1815 45.1966L56.0976 45.4005ZM56.3795 44.8022L56.3794 44.8022C56.3432 44.8663 56.3085 44.9312 56.2755 44.9969C56.2425 45.0626 56.2112 45.1292 56.1815 45.1965L56.3795 44.8022ZM56.3795 44.8022C56.4157 44.7382 56.4535 44.6752 56.493 44.6131C56.5324 44.5509 56.5734 44.4898 56.6159 44.4297L56.616 44.4297M56.3795 44.8022L56.616 44.4297M56.616 44.4297C56.6585 44.3696 56.7024 44.3106 56.7479 44.2527L56.616 44.4297ZM55.8368 46.4691C55.8451 46.396 55.8553 46.3233 55.8673 46.2507L55.8368 46.4691ZM64.647 44.6159C64.641 44.606 64.6393 44.603 64.6403 44.6066L66.9141 48.7225C66.5835 48.1967 66.2495 47.6656 65.8489 47.1378L66.4009 46.7188C66.4009 46.7188 66.4009 46.7187 66.4008 46.7187C66.2509 46.5212 65.9769 46.2124 65.6986 45.8988C65.5783 45.7632 65.4572 45.6267 65.345 45.498C65.1475 45.2713 64.9672 45.0576 64.8298 44.8781C64.7143 44.7272 64.6639 44.6439 64.647 44.6159ZM56.1888 50.1579C56.1375 50.0924 56.0879 50.0256 56.04 49.9576L56.1888 50.1579ZM55.8728 47.7823C55.8607 47.7115 55.8504 47.6406 55.8418 47.5696L55.8728 47.7823Z" fill="#1F8846" stroke="#222B3B" stroke-width="1.38614"/>
<path d="M80.1878 39.2393L80.1877 39.2392C79.485 38.2264 78.5378 37.5732 77.3503 37.3648L80.1878 39.2393ZM80.1878 39.2393C80.706 39.9859 80.9816 40.9243 80.8367 41.7334L80.6955 42.5219M80.1878 39.2393L80.6955 42.5219M80.6955 42.5219L81.4961 42.5483M80.6955 42.5219L81.4961 42.5483M81.4961 42.5483C82.7237 42.5887 83.7902 42.8768 84.674 43.6056L84.6741 43.6057M81.4961 42.5483L84.6741 43.6057M84.6741 43.6057C85.5541 44.3311 86.1052 45.4459 86.2123 46.6039L84.6741 43.6057ZM86.9193 46.7951C86.9159 46.71 86.9102 46.6251 86.9024 46.5403L86.9193 46.7951ZM86.9193 46.7951C86.9228 46.8802 86.9243 46.9653 86.9236 47.0505C86.9229 47.1356 86.9201 47.2207 86.9152 47.3057C86.9102 47.3907 86.9032 47.4756 86.894 47.5603M86.9193 46.7951L86.894 47.5603M86.894 47.5603C86.885 47.6449 86.8738 47.7293 86.8603 47.8135C86.847 47.8977 86.8316 47.9814 86.8141 48.0647C86.7966 48.148 86.777 48.2309 86.7554 48.3134C86.7338 48.3957 86.7102 48.4775 86.6845 48.5588M86.894 47.5603L86.1359 47.9221C86.1207 47.9942 86.1038 48.066 86.0851 48.1374C86.0664 48.2085 86.046 48.2792 86.0238 48.3495L86.6845 48.5588M86.6845 48.5588C86.6588 48.6399 86.6311 48.7204 86.6015 48.8003M86.6845 48.5588L86.0236 48.3499L86.6015 48.8003M86.6015 48.8003L85.9516 48.5596C85.9516 48.5596 85.9516 48.5596 85.9516 48.5596C85.9262 48.6283 85.899 48.6962 85.8701 48.7634L85.8695 48.7646C85.8406 48.8321 85.81 48.8991 85.7776 48.9654C85.7454 49.0312 85.7116 49.0961 85.676 49.1601L85.6751 49.1618C85.6395 49.2264 85.6023 49.29 85.5636 49.3527C85.5248 49.4152 85.4846 49.4768 85.4429 49.5372L86.6015 48.8003ZM86.6015 48.8003C86.5719 48.8802 86.5403 48.9593 86.5066 49.0375L86.6015 48.8003ZM85.3125 49.7167C85.3573 49.6581 85.4007 49.5984 85.4427 49.5375L85.3125 49.7167ZM85.3125 49.7167C85.2677 49.7752 85.2215 49.8325 85.1739 49.8886L85.1715 49.8914C84.6394 50.5257 83.8372 51.0198 83.0218 51.2323L83.0218 51.2323C82.3713 51.4019 81.6931 51.3917 80.9233 51.3801C80.7209 51.377 80.5121 51.3739 80.2958 51.3739L85.3125 49.7167ZM75.5773 51.3501C75.9081 50.8087 76.2559 50.2714 76.6109 49.7296C76.7035 49.5884 76.7966 49.4468 76.89 49.3046C77.3917 48.5416 77.9024 47.7648 78.3787 46.971C78.6142 46.5899 78.8944 46.2847 79.2212 45.9735C79.3282 45.8717 79.4512 45.7595 79.5819 45.6405C79.8193 45.4242 80.0818 45.185 80.3176 44.9438L75.5773 51.3501ZM75.5773 51.3501C76.5904 51.3167 77.6172 51.3352 78.6147 51.3532C79.1874 51.3636 79.7504 51.3738 80.2957 51.3739L75.5773 51.3501ZM80.5778 42.6179L80.7104 42.0941L79.8978 42.3712L79.1154 41.5078L79.0153 42.8132C78.9615 42.8573 78.9053 42.9051 78.8488 42.9539L77.5284 43.0498C77.4809 43.3558 77.4762 43.6907 77.4725 43.9596C77.4712 44.0583 77.4699 44.1481 77.4667 44.2243L80.5778 42.6179ZM80.5778 42.6179L81.0782 42.5477L81.2723 43.07L81.3006 43.1463L81.4495 43.5468L81.1585 43.8597C81.0385 43.9886 80.8937 44.0932 80.8128 44.1516C80.8039 44.1581 80.7957 44.164 80.7884 44.1693C80.7238 44.2165 80.6953 44.2404 80.6843 44.25C80.6799 44.2625 80.6681 44.2952 80.6442 44.368L80.6424 44.3736C80.6047 44.4885 80.525 44.7318 80.3178 44.9436L80.5778 42.6179ZM77.4404 44.5378C77.2229 44.901 76.9263 45.2568 76.5823 45.6445C76.5163 45.7189 76.4479 45.795 76.3782 45.8727C76.0971 46.1861 75.794 46.5239 75.5336 46.8678L75.5336 46.8679C75.1625 47.358 74.8349 47.8783 74.5288 48.3641C74.4157 48.5438 74.3054 48.7188 74.1971 48.8858C74.1761 48.9181 74.1552 48.9502 74.1342 48.9822C74.4073 48.0119 74.0329 47.132 73.6734 46.4944L77.4404 44.5378ZM77.4404 44.5378C77.4422 44.5318 77.4466 44.5153 77.4509 44.4838C77.4586 44.4276 77.4608 44.3716 77.4643 44.2829C77.4651 44.2648 77.4658 44.2454 77.4667 44.2243L77.4404 44.5378ZM72.2621 40.4377L72.262 40.438C72.1159 41.0326 72.0576 41.9115 72.0545 42.8605C72.0521 43.6076 72.0837 44.3645 72.1223 45.0018C72.3983 45.1171 72.644 45.2627 72.8674 45.4533C73.2044 45.7408 73.4487 46.0958 73.6734 46.4943L72.2621 40.4377ZM72.2621 40.4377C72.3259 40.1775 72.4153 39.9266 72.5304 39.6845L72.5305 39.6842M72.2621 40.4377L72.5305 39.6842M72.5305 39.6842C72.6455 39.442 72.7835 39.2141 72.945 38.9998L72.9458 38.9988M72.5305 39.6842L72.9458 38.9988M72.9458 38.9988C73.7195 37.9686 74.6587 37.501 75.9786 37.3147M72.9458 38.9988L75.9786 37.3147M75.9786 37.3147C76.4125 37.2645 76.9035 37.2864 77.3503 37.3648L75.9786 37.3147ZM86.2123 46.6041C86.219 46.6768 86.2238 46.7498 86.2267 46.8228L86.2268 46.8242C86.2299 46.8977 86.2311 46.9713 86.2306 47.0449C86.23 47.1186 86.2275 47.1921 86.2233 47.2656L86.2233 47.2656C86.219 47.339 86.2129 47.4123 86.205 47.4855L86.2048 47.4869C86.1971 47.5595 86.1875 47.632 86.1759 47.7042L86.1757 47.7056C86.1643 47.7781 86.151 47.8503 86.1359 47.9221L86.2123 46.6041ZM72.5731 50.4613C72.5732 50.4612 72.5747 50.4615 72.5774 50.4622C72.5744 50.4617 72.573 50.4613 72.5731 50.4613Z" fill="#FAC840" stroke="#222B3B" stroke-width="1.38614"/>
<path d="M43.5859 84.0184V118.583C43.5859 120.879 45.4477 122.741 47.7444 122.741H94.2592C96.5558 122.741 98.4176 120.879 98.4176 118.583V84.0184C98.4176 81.7218 96.5558 79.86 94.2592 79.86H47.7444C45.4477 79.86 43.5859 81.7218 43.5859 84.0184Z" stroke="#222B3B" stroke-width="3.0495"/>
<path d="M16.0273 42.8202V118.579C16.0273 120.875 17.8891 122.737 20.1858 122.737H39.4254C41.722 122.737 43.5838 120.875 43.5838 118.579V42.8202C43.5838 40.5235 41.722 38.6617 39.4254 38.6617H20.1858C17.8891 38.6617 16.0273 40.5235 16.0273 42.8202Z" fill="white" stroke="#222B3B" stroke-width="3.0495"/>
<path d="M21.9336 48.5882V121.194C21.9336 121.194 38.6643 121.335 39.9296 121.194C40.4241 121.139 42.0385 120.351 42.0385 118.663V115.149V82.812V44.4298H26.092C23.7954 44.4298 21.9336 46.2916 21.9336 48.5882Z" fill="#FA8419"/>
<path d="M98.6973 42.8202V62.0598C98.6973 64.3564 100.559 66.2182 102.856 66.2182H122.095C124.392 66.2182 126.254 64.3564 126.254 62.0598V42.8202C126.254 40.5235 124.392 38.6617 122.095 38.6617H102.856C100.559 38.6617 98.6973 40.5235 98.6973 42.8202Z" fill="#FDBA05" stroke="#222B3B" stroke-width="3.0495"/>
<path d="M98.6973 70.5277V90.8762C98.6973 92.8666 100.311 94.4801 102.301 94.4801H122.65C124.64 94.4801 126.254 92.8666 126.254 90.8762V70.5277C126.254 68.5373 124.64 66.9237 122.65 66.9237H102.301C100.311 66.9237 98.6973 68.5373 98.6973 70.5277Z" fill="#D7EC0B" stroke="#222B3B" stroke-width="3.0495"/>
<path d="M98.6973 98.7857V119.134C98.6973 121.125 100.311 122.738 102.301 122.738H122.65C124.64 122.738 126.254 121.125 126.254 119.134V98.7857C126.254 96.7953 124.64 95.1818 122.65 95.1818H102.301C100.311 95.1818 98.6973 96.7953 98.6973 98.7857Z" fill="#FE5D0C" stroke="#222B3B" stroke-width="3.0495"/>
<path d="M57.3613 122.602V94.1424C57.3613 91.8458 59.2231 89.984 61.5197 89.984H71.1395M84.9178 122.602V94.1424C84.9178 91.8458 83.056 89.984 80.7594 89.984H71.1395M71.1395 89.984V122.602M66.3137 102.443V107.623M76.8047 102.443V107.623" stroke="#222B3B" stroke-width="3.0495" stroke-linecap="round" stroke-linejoin="round"/>
</svg>
