<svg width="123" height="122" viewBox="0 0 123 122" fill="none" xmlns="http://www.w3.org/2000/svg">
<path d="M25.084 22.387C25.084 20.7743 26.3913 19.4669 28.004 19.4669H94.1915C95.8041 19.4669 97.1115 20.7743 97.1115 22.387V103.418C97.1115 105.031 95.8041 106.338 94.1915 106.338H28.004C26.3913 106.338 25.084 105.031 25.084 103.418V22.387Z" fill="#7676E8"/>
<path d="M31.8984 29.4369C31.8984 27.8242 33.2058 26.5168 34.8185 26.5168H87.8658C89.4784 26.5168 90.7858 27.8242 90.7858 29.4369V97.3277C90.7858 98.9404 89.4784 100.248 87.8658 100.248H34.8185C33.2058 100.248 31.8984 98.9404 31.8984 97.3277V29.4369Z" fill="#7FDACE"/>
<path d="M38.2246 29.2018C38.2246 27.5891 39.532 26.2817 41.1446 26.2817H87.8652C89.4779 26.2817 90.7852 27.5891 90.7852 29.2018V89.7925C90.7852 91.4052 89.4779 92.7125 87.8652 92.7125H41.1446C39.532 92.7125 38.2246 91.4052 38.2246 89.7925V29.2018Z" fill="#F5F5F5"/>
<path d="M75.3658 50.49C75.3658 58.362 68.8961 64.7435 60.9153 64.7435C52.9345 64.7435 46.4648 58.362 46.4648 50.49C46.4648 42.6181 52.9345 36.2366 60.9153 36.2366C68.8961 36.2366 75.3658 42.6181 75.3658 50.49Z" fill="#FDBA05"/>
<path fill-rule="evenodd" clip-rule="evenodd" d="M74.7457 41.6637C77.6082 46.4285 78.0569 52.3217 76.8213 55.811C74.8979 61.2428 69.5794 66.2761 62.5809 66.9089C56.6373 67.4463 52.5861 65.0307 49.678 62.452C48.3251 61.2523 46.849 59.1544 45.8148 56.6888C44.7758 54.2118 44.1187 51.2112 44.5875 48.2057C45.2776 43.7825 47.516 40.0708 49.7143 38.2491C50.3235 37.7442 51.2187 37.8386 51.7138 38.4599C52.2088 39.0811 52.1163 39.994 51.507 40.4989C49.915 41.8182 47.9884 44.857 47.395 48.6611C47.0347 50.9704 47.5294 53.4054 48.4284 55.5487C49.3323 57.7034 50.5805 59.4105 51.5433 60.2643C54.0838 62.5171 57.3998 64.467 62.3298 64.0212C68.1235 63.4974 72.5635 59.3 74.1476 54.8264C75.0536 52.2676 74.7917 47.2896 72.3217 43.1782C69.943 39.2189 65.5012 36.0477 57.8812 36.9487C57.1014 37.0409 56.396 36.471 56.3056 35.6758C56.2152 34.8805 56.774 34.1612 57.5538 34.069C66.2793 33.0373 71.7918 36.747 74.7457 41.6637Z" fill="#222B3B"/>
<path fill-rule="evenodd" clip-rule="evenodd" d="M57.1565 53.1815C57.8734 53.1815 58.4545 53.1815 58.4545 53.1815V57.4041C58.4545 58.1108 59.0356 58.6837 59.7525 58.6837H62.3485C63.0654 58.6837 63.6466 58.1108 63.6466 57.4041V53.1815C63.6466 53.1815 64.2277 53.1815 64.9446 53.1815H67.93C68.6469 53.1815 69.228 52.6086 69.228 51.9019V49.3427C69.228 48.636 68.6469 48.0631 67.93 48.0631H63.6466C63.6466 48.0631 63.6466 47.4903 63.6466 46.7836V43.8404C63.6466 43.1337 63.0654 42.5608 62.3485 42.5608H59.7525C59.0356 42.5608 58.4545 43.1337 58.4545 43.8404V46.7836C58.4545 47.4903 58.4545 48.0631 58.4545 48.0631H54.1711C53.4542 48.0631 52.873 48.636 52.873 49.3427V51.9019C52.873 52.6086 53.4542 53.1815 54.1711 53.1815H57.1565Z" fill="#FE5D0C"/>
<path fill-rule="evenodd" clip-rule="evenodd" d="M57.0951 43.1803C57.0951 41.7289 58.279 40.6157 59.6613 40.6157H62.5125C63.8948 40.6157 65.0787 41.7289 65.0787 43.1803V46.6543H68.6428C70.0251 46.6543 71.209 47.7675 71.209 49.2188V52.0274C71.209 53.4788 70.0251 54.592 68.6428 54.592H65.0787V58.0658C65.0787 59.5171 63.8948 60.6303 62.5125 60.6303H59.6613C58.279 60.6303 57.0951 59.5171 57.0951 58.0658V54.592H53.531C52.1487 54.592 50.9648 53.4788 50.9648 52.0274V49.2188C50.9648 47.7675 52.1487 46.6543 53.531 46.6543H57.0951V43.1803ZM59.6613 42.9363C59.4688 42.9363 59.3761 43.0805 59.3761 43.1803V48.9748H53.531C53.3386 48.9748 53.2459 49.1191 53.2459 49.2188V52.0274C53.2459 52.1272 53.3386 52.2715 53.531 52.2715H59.3761V58.0658C59.3761 58.1655 59.4688 58.3098 59.6613 58.3098H62.5125C62.705 58.3098 62.7977 58.1655 62.7977 58.0658V52.2715H68.6428C68.8352 52.2715 68.9279 52.1272 68.9279 52.0274V49.2188C68.9279 49.1191 68.8352 48.9748 68.6428 48.9748H62.7977V43.1803C62.7977 43.0805 62.705 42.9363 62.5125 42.9363H59.6613Z" fill="#222B3B"/>
<path fill-rule="evenodd" clip-rule="evenodd" d="M28.0041 17.0309H94.1916C97.4169 17.0309 100.032 19.6456 100.032 22.871V103.415C100.032 106.641 97.4169 109.255 94.1916 109.255H28.0041C24.7787 109.255 22.1641 106.641 22.1641 103.415V22.871C22.1641 19.6456 24.7788 17.0309 28.0041 17.0309ZM28.0041 19.9509C26.3914 19.9509 25.0841 21.2583 25.0841 22.871V103.415C25.0841 105.028 26.3914 106.335 28.0041 106.335H94.1916C95.8042 106.335 97.1116 105.028 97.1116 103.415V22.871C97.1116 21.2583 95.8042 19.9509 94.1916 19.9509H28.0041Z" fill="#222B3B"/>
<path d="M73.5736 12.4103H50.3054C46.5084 12.4103 43.3611 15.4869 43.1064 19.4477C42.8227 23.8609 46.2151 27.5813 50.445 27.4957L73.7088 27.0249C77.5159 26.9479 80.5636 23.6993 80.5636 19.7183C80.5636 15.6822 77.4341 12.4103 73.5736 12.4103Z" fill="#F5F5F5"/>
<path d="M41.3399 25.083L41.3359 21.428C41.3399 14.9402 43.7005 13.0383 50.4614 13.0438C48.8536 13.1368 46.9357 15.6634 46.9438 17.1335C46.9667 21.357 52.049 20.6797 55.0983 20.6809L74.1608 20.6745C75.3524 20.6736 79.0231 20.6537 79.0231 20.6537V25.083C77.9485 25.0815 75.4116 24.743 74.6716 25.6062C74.2668 25.4631 69.4661 25.6028 68.6895 25.6062C67.5754 24.7914 67.3202 25.0732 65.983 25.0754L41.3399 25.083Z" fill="#7FDACE"/>
<path fill-rule="evenodd" clip-rule="evenodd" d="M51.1228 13.1392C46.8223 13.1392 43.336 16.6254 43.336 20.9259V25.6191C43.336 26.4255 42.6824 27.0791 41.876 27.0791C41.0697 27.0791 40.416 26.4255 40.416 25.6191V20.9259C40.416 15.0127 45.2096 10.2191 51.1228 10.2191H71.3197C77.2329 10.2191 82.0265 15.0127 82.0265 20.9259V25.9143C82.0265 26.7206 81.3728 27.3743 80.5665 27.3743C79.7601 27.3743 79.1065 26.7206 79.1065 25.9143V20.9259C79.1065 16.6254 75.6202 13.1392 71.3197 13.1392H51.1228Z" fill="#222B3B"/>
<path fill-rule="evenodd" clip-rule="evenodd" d="M34.8176 101.713C32.3985 101.713 30.4375 99.7524 30.4375 97.3333L30.4375 29.4425C30.4375 27.0235 32.3985 25.0625 34.8175 25.0625L69.1153 25.0625C69.9217 25.0625 70.5753 25.7162 70.5753 26.5225C70.5753 27.3288 69.9217 27.9825 69.1153 27.9825L34.8175 27.9825C34.0112 27.9825 33.3575 28.6362 33.3575 29.4425L33.3575 97.3333C33.3575 98.1397 34.0112 98.7933 34.8176 98.7933L87.8648 98.7933C88.6712 98.7933 89.3249 98.1397 89.3249 97.3333L89.3249 85.8278C89.3249 85.0214 89.9785 84.3677 90.7849 84.3677C91.5912 84.3677 92.2449 85.0214 92.2449 85.8278L92.2449 97.3333C92.2449 99.7524 90.2839 101.713 87.8648 101.713L34.8176 101.713Z" fill="#222B3B"/>
<path fill-rule="evenodd" clip-rule="evenodd" d="M75.0879 26.3997C75.0879 25.5934 75.7416 24.9397 76.5479 24.9397H87.7414C90.1604 24.9397 92.1214 26.9007 92.1214 29.3197V75.797C92.1214 76.6033 91.4678 77.257 90.6614 77.257C89.8551 77.257 89.2014 76.6033 89.2014 75.797V29.3197C89.2014 28.5134 88.5477 27.8597 87.7414 27.8597H76.5479C75.7416 27.8597 75.0879 27.2061 75.0879 26.3997Z" fill="#222B3B"/>
<path fill-rule="evenodd" clip-rule="evenodd" d="M46.7422 75.1917C46.7422 74.3854 47.3959 73.7317 48.2022 73.7317H76.9159C77.7222 73.7317 78.3759 74.3854 78.3759 75.1917C78.3759 75.9981 77.7222 76.6517 76.9159 76.6517H48.2022C47.3959 76.6517 46.7422 75.9981 46.7422 75.1917Z" fill="#222B3B"/>
<path fill-rule="evenodd" clip-rule="evenodd" d="M46.7422 81.0335C46.7422 80.2272 47.3959 79.5735 48.2022 79.5735H76.9159C77.7222 79.5735 78.3759 80.2272 78.3759 81.0335C78.3759 81.8398 77.7222 82.4935 76.9159 82.4935H48.2022C47.3959 82.4935 46.7422 81.8398 46.7422 81.0335Z" fill="#222B3B"/>
<path fill-rule="evenodd" clip-rule="evenodd" d="M46.7422 86.8755C46.7422 86.0692 47.3959 85.4155 48.2022 85.4155H76.9159C77.7222 85.4155 78.3759 86.0692 78.3759 86.8755C78.3759 87.6819 77.7222 88.3356 76.9159 88.3356H48.2022C47.3959 88.3356 46.7422 87.6819 46.7422 86.8755Z" fill="#222B3B"/>
</svg>
